; NON-PLATED HOLES START AT T1
; THROUGH (PLATED) HOLES START AT T100
M48
INCH
T1C0.125984
T100C0.035000
T101C0.038000
T102C0.015748
%
T1
X073566Y021538
X073566Y001538
T100
X023566Y008788
X066566Y003538
X025566Y004538
X019566Y014288
X059566Y010038
X021566Y003538
X033566Y007538
X004566Y008788
X031566Y013038
X056566Y014288
X038566Y018538
X035566Y013038
X070566Y013038
X014566Y003538
X042566Y004538
X013566Y019538
X020566Y004538
X046566Y008788
X037566Y013038
X013566Y008788
X002566Y018538
X030566Y014288
X060566Y008788
X049566Y014288
X033566Y015538
X001566Y018538
X017566Y014288
X021566Y004538
X001566Y014288
X071562Y007534
X017566Y018538
X044566Y007538
X059566Y003538
X038566Y010038
X019566Y018538
X062566Y010038
X029566Y008788
X068566Y014288
X038566Y014288
X033566Y020538
X049566Y018538
X069568Y015525
X002566Y020538
X031566Y018538
X062570Y015533
X037566Y003538
X051566Y014288
X055566Y007538
X030566Y003538
X010566Y003538
X022566Y014288
X032566Y004538
X025566Y007538
X031566Y007538
X021566Y010038
X069566Y019538
X014566Y004538
X034566Y013038
X015566Y008788
X016566Y018538
X051566Y018538
X029566Y018538
X014566Y015538
X037566Y008788
X053566Y013038
X033566Y008788
X028566Y013038
X057570Y015533
X008566Y013038
X030566Y004538
X050566Y013038
X026566Y010038
X048566Y008788
X049566Y020538
X030566Y007538
X026566Y015538
X050566Y003538
X029566Y020538
X070566Y003538
X033566Y013038
X012566Y010038
X040566Y020538
X016566Y004538
X048566Y004538
X013566Y020538
X053566Y010038
X070566Y008788
X070562Y004534
X001566Y010038
X044566Y018538
X037566Y007538
X003566Y004538
X010566Y007538
X062566Y007538
X053566Y020538
X020566Y014288
X007566Y008788
X060566Y019538
X022566Y015538
X001566Y003538
X041566Y013038
X039566Y008788
X034566Y002538
X005566Y004538
X015566Y019538
X017566Y010038
X021566Y018538
X051566Y019538
X011566Y008788
X014566Y010038
X037566Y014288
X004566Y013038
X061566Y010038
X039566Y003538
X062566Y014288
X055570Y018533
X043566Y008788
X034566Y008788
X060566Y020538
X023566Y018538
X059566Y008788
X008566Y004538
X020566Y008788
X040566Y018538
X033566Y014288
X061566Y014288
X057566Y002538
X067562Y004534
X055566Y004538
X006566Y010038
X047566Y015538
X035566Y020538
X007566Y007538
X039566Y014288
X020566Y020538
X069566Y014288
X025566Y003538
X032566Y003538
X028566Y008788
X031566Y015538
X026566Y019538
X040566Y004538
X005566Y013038
X013566Y007538
X035566Y014288
X056570Y018533
X014566Y014288
X006566Y015538
X064568Y015525
X040566Y010038
X032566Y002538
X044566Y010038
X014566Y002538
X011566Y018538
X050566Y007538
X026566Y004538
X002566Y004538
X051566Y008788
X053566Y019538
X016566Y003538
X030566Y002538
X070566Y014288
X022566Y018538
X031566Y010038
X010566Y002538
X019566Y003538
X008566Y020538
X042566Y013038
X068566Y003538
X006566Y020538
X026566Y018538
X048566Y007538
X039566Y004538
X012566Y004538
X003566Y008788
X008566Y015538
X010566Y008788
X033566Y018538
X016566Y002538
X065566Y010038
X032566Y010038
X001566Y002538
X046566Y018538
X052566Y014288
X043566Y007538
X047566Y018538
X032566Y013038
X017566Y007538
X037566Y010038
X038566Y013038
X008566Y014288
X046566Y014288
X016566Y008788
X065562Y004534
X035566Y004538
X034566Y007538
X017566Y013038
X025566Y015538
X003566Y002538
X047566Y014288
X046566Y004538
X010566Y014288
X056566Y019538
X015566Y018538
X058566Y020538
X031566Y020538
X023566Y007538
X035566Y008788
X034566Y010038
X069562Y007534
X032566Y018538
X067562Y007534
X003566Y015538
X038566Y019538
X002566Y008788
X003566Y014288
X024566Y019538
X068568Y015525
X025566Y002538
X006566Y014288
X049566Y019538
X062566Y004538
X053566Y018538
X024566Y008788
X039566Y002538
X066568Y015525
X015566Y015538
X023566Y013038
X006566Y013038
X060570Y015533
X013566Y014288
X064566Y010038
X028566Y002538
X048566Y013038
X049566Y008788
X020566Y019538
X040566Y019538
X057566Y008788
X033566Y019538
X071566Y013038
X050566Y002538
X061566Y002538
X005566Y010038
X055566Y002538
X004566Y004538
X001566Y013038
X058566Y008788
X034566Y018538
X012566Y003538
X064566Y013038
X022566Y007538
X004566Y015538
X058566Y013038
X067566Y008788
X070562Y007534
X042566Y020538
X059566Y014288
X008566Y008788
X067568Y018525
X061566Y004538
X069568Y018525
X038566Y007538
X052566Y003538
X047566Y010038
X057570Y018533
X020566Y015538
X052566Y002538
X012566Y014288
X059566Y002538
X032566Y014288
X056566Y013038
X026566Y013038
X030566Y018538
X052566Y010038
X049566Y010038
X044566Y019538
X055566Y010038
X071566Y020538
X013566Y013038
X029566Y019538
X043566Y004538
X058570Y018533
X003566Y003538
X019566Y008788
X031566Y019538
X029566Y007538
X056566Y010038
X017566Y020538
X071562Y004534
X011566Y013038
X058566Y010038
X071566Y014288
X019566Y002538
X011566Y020538
X008566Y019538
X051566Y020538
X064562Y007534
X065562Y007534
X014566Y013038
X066566Y010038
X046566Y015538
X002566Y014288
X024566Y015538
X068691Y008788
X019566Y010038
X067566Y013038
X064566Y003538
X052566Y004538
X058566Y019538
X068566Y002538
X070566Y002538
X007566Y002538
X071566Y019538
X002566Y019538
X052566Y008788
X066566Y008788
X019566Y004538
X016566Y013038
X069562Y004534
X071566Y010038
X008566Y010038
X004566Y020538
X006566Y007538
X042566Y018538
X069566Y020538
X049566Y013038
X056566Y020538
X043566Y015538
X053566Y008788
X060566Y013038
X022566Y020538
X049566Y004538
X039566Y013038
X029566Y004538
X016566Y014288
X071566Y008788
X026566Y007538
X015566Y014288
X071568Y018525
X046566Y013038
X026566Y008788
X025566Y008788
X034566Y003538
X038566Y020538
X011566Y019538
X070568Y015525
X068566Y010038
X013566Y018538
X053566Y007538
X007566Y004538
X016566Y015538
X029566Y014288
X003566Y018538
X037566Y015538
X008566Y007538
X069566Y010038
X013566Y015538
X029566Y013038
X068566Y013038
X058570Y015533
X034566Y014288
X020566Y007538
X032566Y008788
X035566Y007538
X021566Y008788
X005566Y018538
X060566Y014288
X022566Y010038
X024566Y013038
X055570Y015533
X062566Y019538
X025566Y013038
X050566Y004538
X003566Y013038
X042566Y008788
X024566Y004538
X049566Y015538
X046566Y010038
X065568Y015525
X051566Y007538
X012566Y007538
X030566Y008788
X006566Y019538
X064566Y014288
X038566Y015538
X044566Y014288
X021566Y013038
X047566Y008788
X034566Y004538
X031566Y014288
X010566Y015538
X026566Y014288
X048566Y002538
X037566Y002538
X038566Y004538
X064566Y008788
X055566Y003538
X001566Y015538
X053566Y014288
X056566Y008788
X011566Y004538
X068568Y018525
X069566Y013038
X005566Y008788
X067566Y010038
X032566Y015538
X050566Y008788
X007566Y018538
X052566Y013038
X032566Y007538
X004566Y018538
X006566Y004538
X014566Y018538
X066566Y013038
X023566Y014288
X042566Y007538
X055566Y014288
X002566Y013038
X023566Y015538
X057566Y004538
X060566Y004538
X028566Y010038
X005566Y003538
X028566Y018538
X011566Y007538
X017566Y019538
X047566Y020538
X041566Y002538
X002566Y010038
X047566Y004538
X061570Y015533
X042566Y014288
X067566Y019538
X025566Y010038
X043566Y014288
X060566Y010038
X064566Y002538
X010566Y004538
X035566Y018538
X034566Y015538
X041566Y004538
X007566Y010038
X033566Y010038
X044566Y004538
X065566Y020538
X055566Y008788
X043566Y003538
X015566Y010038
X066568Y018525
X013566Y004538
X012566Y013038
X051566Y010038
X010566Y010038
X008566Y018538
X010566Y018538
X019566Y013038
X057566Y003538
X030566Y010038
X065566Y014288
X052566Y018538
X060570Y018533
X062566Y013038
X030566Y013038
X041566Y008788
X002566Y007538
X067566Y020538
X044566Y013038
X024566Y007538
X019566Y007538
X047566Y007538
X066562Y007534
X004566Y007538
X028566Y003538
X022566Y004538
X043566Y010038
X005566Y014288
X048566Y014288
X040566Y008788
X012566Y018538
X012566Y015538
X017566Y015538
X026566Y020538
X066562Y004534
X057566Y014288
X057566Y007538
X059566Y004538
X041566Y015538
X015566Y020538
X007566Y015538
X043566Y018538
X044566Y020538
X042566Y015538
X043566Y002538
X048566Y003538
X062570Y018533
X014566Y008788
X052566Y015538
X015566Y013038
X010566Y013038
X058566Y004538
X012566Y002538
X030566Y015538
X021566Y002538
X064568Y018525
X058566Y014288
X023566Y003538
X061566Y013038
X065568Y018525
X002566Y015538
X042566Y010038
X050566Y010038
X020566Y013038
X071568Y015525
X062566Y008788
X056570Y015533
X068562Y004534
X021566Y015538
X037566Y004538
X001566Y008788
X050566Y014288
X069691Y008788
X023566Y002538
X005566Y015538
X012566Y008788
X040566Y014288
X019566Y015538
X016566Y010038
X050566Y018538
X052566Y007538
X053566Y015538
X059570Y018533
X023566Y010038
X058566Y007538
X048566Y015538
X028566Y014288
X028566Y004538
X035566Y010038
X023566Y004538
X001566Y007538
X006566Y008788
X066566Y002538
X039566Y007538
X065566Y013038
X061566Y008788
X024566Y010038
X044566Y008788
X039566Y015538
X065566Y008788
X028566Y015538
X041566Y007538
X041566Y018538
X016566Y007538
X025566Y018538
X067568Y015525
X064562Y004534
X017566Y008788
X043566Y013038
X038566Y008788
X047566Y013038
X050566Y015538
X067566Y014288
X062566Y020538
X033566Y004538
X060566Y007538
X068562Y007534
X066566Y014288
X048566Y010038
X015566Y007538
X070566Y010038
X014566Y007538
X005566Y002538
X022566Y019538
X056566Y004538
X020566Y010038
X029566Y015538
X042566Y019538
X029566Y010038
X051566Y015538
X047566Y019538
X053566Y004538
X040566Y013038
X007566Y013038
X048566Y018538
X007566Y014288
X040566Y015538
X059566Y007538
X046566Y007538
X031566Y008788
X024566Y014288
X057566Y010038
X044566Y015538
X039566Y018538
X061570Y018533
X070568Y018525
X005566Y007538
X041566Y010038
X041566Y003538
X059570Y015533
X025566Y014288
X011566Y015538
X021566Y014288
X065566Y019538
X040566Y007538
X001566Y004538
X037566Y018538
X059566Y013038
X031566Y004538
X006566Y018538
X061566Y007538
X041566Y014288
X011566Y014288
X004566Y019538
X022566Y008788
X057566Y013038
X004566Y010038
X056566Y007538
X011566Y010038
X017566Y004538
X051566Y004538
X021566Y007538
X015566Y004538
X003566Y010038
X035566Y019538
X004566Y014288
X049566Y007538
X013566Y010038
X028566Y007538
X046566Y002538
X046566Y003538
X024566Y020538
X007566Y003538
X055566Y013038
X022566Y013038
X035566Y015538
X020566Y018538
X061566Y003538
X039566Y010038
X003566Y007538
X051566Y013038
X024566Y018538
T101
X073566Y011038
X028566Y001288
X016566Y021788
X010566Y001288
X002566Y001288
X029566Y001288
X005566Y001288
X049566Y001288
X035566Y001288
X003566Y021788
X061566Y001288
X006566Y021788
X067566Y021788
X049691Y021788
X046566Y001288
X028566Y021788
X019566Y021788
X062566Y021788
X015566Y001288
X030566Y021788
X035566Y021788
X040566Y001288
X020566Y021788
X022566Y021788
X068566Y001288
X024566Y021788
X059566Y001288
X025566Y021788
X030566Y001288
X012566Y001288
X062566Y001288
X051566Y001288
X032566Y021788
X071566Y021788
X032566Y001288
X060566Y021788
X011566Y021788
X060566Y001288
X067566Y001288
X065566Y021788
X026566Y021788
X055566Y021788
X040566Y021788
X041566Y021788
X016566Y001288
X031566Y001288
X012566Y021788
X001566Y001288
X068566Y021788
X021566Y001288
X007566Y001288
X019566Y001288
X014566Y001288
X031566Y021788
X052691Y021788
X052566Y001288
X057566Y021788
X056566Y001288
X010566Y021788
X069566Y001288
X001566Y021788
X050566Y001288
X048691Y021788
X050691Y021788
X056566Y021788
X053691Y021788
X033566Y021788
X037566Y021788
X003566Y001288
X023566Y001288
X038566Y021788
X044566Y021788
X073566Y012038
X073566Y010038
X073566Y013038
X057566Y001288
X043566Y001288
X023566Y021788
X025566Y001288
X039566Y001288
X017566Y021788
X039566Y021788
X013566Y001288
X020566Y001288
X046691Y021788
X026566Y001288
X047691Y021788
X042566Y021788
X061566Y021788
X038566Y001288
X011566Y001288
X059566Y021788
X022566Y001288
X064566Y001288
X015566Y021788
X017566Y001288
X044566Y001288
X021566Y021788
X070566Y001288
X066566Y001288
X043566Y021788
X069566Y021788
X064566Y021788
X007566Y021788
X042566Y001288
X024566Y001288
X034566Y001288
X034566Y021788
X065566Y001288
X071566Y001288
X004566Y001288
X070566Y021788
X051691Y021788
X048566Y001288
X037566Y001288
X013566Y021788
X002566Y021788
X058566Y001288
X047566Y001288
X041566Y001288
X055566Y001288
X053566Y001288
X066566Y021788
X029566Y021788
X058566Y021788
X005566Y021788
X008566Y001288
X004566Y021788
X033566Y001288
X006566Y001288
X008566Y021788
X014566Y021788
T102
X006566Y011288
X060566Y011285
X007566Y011788
X015566Y011288
X034561Y011787
X051566Y011288
X024568Y011291
X016577Y011753
X069566Y011288
X052566Y011788
X042567Y011291
X070566Y011788
X033569Y011291
X025560Y011787
X043564Y011790
X061566Y011788
T00
M30
