; NON-PLATED HOLES START AT T1
; THROUGH (PLATED) HOLES START AT T100
M48
INCH
T1C0.125984
T100C0.038000
T101C0.035000
%
T1
X037730Y025041
X037730Y002041
T100
X037730Y004041
X032230Y025041
X032230Y002041
X017230Y025041
X016230Y002041
X021230Y002041
X034230Y002041
X013230Y025041
X031230Y002041
X015230Y025041
X023230Y002041
X035230Y002041
X029230Y025041
X025230Y025041
X023230Y025041
X005230Y002041
X019230Y002041
X024230Y002041
X001230Y025041
X037730Y009041
X014230Y025041
X008230Y025041
X022230Y002041
X029230Y002041
X026230Y002041
X004230Y025041
X019230Y025041
X006230Y025041
X013230Y002041
X010230Y002041
X008230Y002041
X028230Y002041
X037730Y010041
X011230Y025041
X028230Y025041
X031230Y025041
X033230Y002041
X026230Y025041
X024230Y025041
X037730Y007041
X034230Y025041
X037730Y005041
X020230Y025041
X037730Y012041
X030230Y002041
X007230Y002041
X015230Y002041
X011230Y002041
X021230Y025041
X005230Y025041
X002230Y002041
X004230Y002041
X017230Y002041
X025230Y002041
X006230Y002041
X001230Y002041
X037730Y011041
X003230Y002041
X003230Y025041
X012230Y002041
X014230Y002041
X037730Y006041
X022230Y025041
X020230Y002041
X010230Y025041
X012230Y025041
X030230Y025041
X016230Y025041
X007230Y025041
X035230Y025041
X033230Y025041
X002230Y025041
T101
X022230Y017041
X024230Y021541
X012230Y010041
X005230Y008541
X022230Y022541
X033237Y018532
X007230Y018541
X035230Y005541
X023230Y003541
X017230Y008541
X007230Y017041
X003230Y017041
X034230Y012041
X023230Y021541
X015230Y017041
X029230Y010041
X026230Y018541
X029230Y005541
X030230Y015041
X008230Y015041
X011230Y015041
X015230Y021541
X003230Y018541
X036730Y018541
X011230Y010041
X012230Y021541
X019230Y004541
X028230Y010041
X002230Y021541
X023230Y008541
X004230Y012041
X034230Y017041
X006230Y018541
X017230Y022541
X033230Y008541
X010230Y015041
X034230Y004541
X006230Y015041
X019230Y012041
X002230Y023541
X007230Y012041
X011230Y008541
X013230Y010041
X035230Y017041
X029237Y021532
X011230Y017041
X013230Y018541
X028230Y008541
X014230Y021541
X005230Y004541
X012230Y005541
X007230Y015041
X031230Y023541
X028230Y015041
X008230Y021541
X010230Y005541
X001230Y008541
X002230Y022541
X020230Y022541
X032230Y015041
X026230Y015041
X031237Y021532
X034230Y010041
X008230Y023541
X030230Y012041
X003230Y012041
X036730Y014541
X025230Y005541
X031230Y017041
X024230Y010041
X034230Y003541
X035230Y023541
X004230Y017041
X023230Y010041
X005230Y015041
X007230Y010041
X010230Y008541
X004230Y005541
X025230Y015041
X005230Y017041
X029230Y022541
X020230Y012041
X011230Y005541
X035230Y012041
X016230Y005541
X001230Y004541
X021230Y004541
X016230Y015041
X006230Y012041
X025230Y008541
X016230Y010041
X024230Y017041
X008230Y017041
X024230Y018541
X030230Y005541
X034230Y015041
X024230Y012041
X026230Y021541
X012230Y012041
X008230Y010041
X010230Y021541
X033230Y010041
X020230Y023541
X022230Y008541
X032230Y017041
X014230Y004541
X026230Y017041
X031237Y018532
X010230Y017041
X021230Y005541
X020230Y018541
X004230Y023541
X022230Y023541
X012230Y003541
X032237Y018532
X015230Y005541
X004230Y015041
X008230Y022541
X002230Y017041
X001230Y015041
X014230Y008541
X022230Y010041
X021230Y010041
X012230Y008541
X017230Y023541
X017230Y015041
X008230Y018541
X014230Y017041
X025230Y012041
X001230Y018541
X007230Y021541
X012230Y018541
X002230Y010041
X021230Y015041
X028230Y012041
X034230Y005541
X001230Y021541
X025230Y018541
X011230Y018541
X022230Y018541
X001230Y003541
X032230Y008541
X014230Y003541
X028230Y004541
X005230Y021541
X031230Y010041
X007230Y003541
X017230Y021541
X002230Y018541
X015230Y010041
X014230Y005541
X019230Y015041
X030237Y018532
X020230Y021541
X030230Y008541
X015230Y018541
X015230Y008541
X033230Y023541
X010230Y003541
X012230Y004541
X013230Y023541
X002230Y005541
X008230Y008541
X030237Y021532
X028230Y017041
X013230Y008541
X003230Y015041
X003230Y003541
X001230Y017041
X001230Y010041
X010230Y004541
X022230Y005541
X020230Y005541
X003230Y004541
X030230Y017041
X035230Y022541
X017230Y018541
X010230Y010041
X033230Y015041
X017230Y005541
X011230Y023541
X031230Y022541
X021230Y017041
X003230Y008541
X003230Y021541
X023230Y018541
X033230Y017041
X019230Y021541
X009230Y010041
X023230Y012041
X001230Y012041
X013230Y005541
X016230Y018541
X024230Y005541
X011230Y022541
X033230Y022541
X018230Y010041
X023230Y004541
X002230Y012041
X005230Y003541
X011230Y012041
X008230Y012041
X025230Y004541
X034230Y008541
X025230Y003541
X007230Y008541
X021230Y003541
X035237Y021532
X019230Y018541
X026230Y008541
X001230Y005541
X020230Y010041
X019230Y005541
X014230Y012041
X006230Y005541
X014230Y015041
X031230Y012041
X027230Y010041
X034237Y018532
X035230Y015041
X029230Y012041
X021230Y021541
X015230Y022541
X013230Y021541
X026230Y022541
X016230Y017041
X029230Y008541
X024230Y008541
X030230Y004541
X023230Y015041
X017230Y012041
X031230Y015041
X006230Y017041
X033237Y021532
X020230Y015041
X021230Y012041
X025230Y017041
X013230Y015041
X021230Y018541
X004230Y010041
X015230Y023541
X013230Y012041
X005230Y012041
X015230Y012041
X028230Y005541
X026230Y005541
X007230Y005541
X004230Y018541
X022230Y021541
X019230Y008541
X002230Y015041
X004230Y022541
X028230Y003541
X035230Y008541
X034237Y021532
X016230Y021541
X025230Y010041
X003230Y010041
X006230Y022541
X024230Y015041
X010230Y012041
X032230Y004541
X025230Y021541
X006230Y021541
X002230Y008541
X035237Y018532
X016230Y003541
X008230Y005541
X017230Y017041
X006230Y008541
X033230Y005541
X030230Y010041
X016230Y008541
X005230Y005541
X032230Y003541
X032237Y021532
X029230Y015041
X032230Y012041
X014230Y010041
X019230Y010041
X023230Y005541
X021230Y008541
X014230Y018541
X016230Y012041
X032230Y005541
X030230Y003541
X032230Y010041
X007230Y004541
X005230Y018541
X022230Y015041
X020230Y008541
X012230Y015041
X003230Y005541
X026230Y012041
X006230Y023541
X031230Y005541
X023230Y017041
X033230Y012041
X024230Y022541
X005230Y010041
X015230Y015041
X016230Y004541
X004230Y008541
X013230Y022541
X024230Y023541
X010230Y018541
X013230Y017041
X019230Y003541
X022230Y012041
X028237Y018532
X019230Y017041
X012230Y017041
X029237Y018532
X011230Y021541
X031230Y008541
X029230Y023541
X020230Y017041
X028237Y021532
X006230Y010041
X026230Y023541
X004230Y021541
X029230Y017041
T00
M30
