G04 MADE WITH FRITZING*
G04 WWW.FRITZING.ORG*
G04 DOUBLE SIDED*
G04 HOLES PLATED*
G04 CONTOUR ON CENTER OF CONTOUR VECTOR*
%ASAXBY*%
%FSLAX23Y23*%
%MOIN*%
%OFA0B0*%
%SFA1.0B1.0*%
%ADD10R,0.078740X0.078740*%
%ADD11R,0.078740X0.039370*%
%LNPASTEMASK0*%
G90*
G70*
G54D10*
X3773Y1504D03*
X3773Y1404D03*
G54D11*
X2823Y2642D03*
X223Y129D03*
X423Y67D03*
X423Y129D03*
X623Y67D03*
X223Y67D03*
X123Y2579D03*
X523Y2579D03*
X623Y129D03*
X323Y2642D03*
X123Y2642D03*
X323Y2579D03*
X823Y67D03*
X1523Y67D03*
X523Y2642D03*
X1523Y129D03*
X1723Y129D03*
X1723Y67D03*
X1323Y129D03*
X823Y129D03*
X1323Y67D03*
X1123Y67D03*
X2023Y67D03*
X2023Y129D03*
X1123Y129D03*
X2123Y2642D03*
X3423Y2642D03*
X2323Y2579D03*
X2523Y2642D03*
X723Y2579D03*
X2523Y2579D03*
X3423Y2579D03*
X2823Y2579D03*
X3223Y2642D03*
X3023Y2642D03*
X3223Y2579D03*
X3023Y2579D03*
X2323Y2642D03*
X1223Y2642D03*
X1423Y2579D03*
X1023Y2642D03*
X723Y2642D03*
X1023Y2579D03*
X1223Y2579D03*
X1423Y2642D03*
X1923Y2642D03*
X1923Y2579D03*
X2123Y2579D03*
X1623Y2642D03*
X1623Y2579D03*
X2423Y67D03*
X2423Y129D03*
X3523Y67D03*
X3323Y67D03*
X3123Y67D03*
X2923Y67D03*
X2623Y67D03*
X3523Y129D03*
X3323Y129D03*
X3123Y129D03*
X2923Y129D03*
X2623Y129D03*
X2223Y67D03*
X2223Y129D03*
G04 End of PasteMask0*
M02*