G04 MADE WITH FRITZING*
G04 WWW.FRITZING.ORG*
G04 DOUBLE SIDED*
G04 HOLES PLATED*
G04 CONTOUR ON CENTER OF CONTOUR VECTOR*
%ASAXBY*%
%FSLAX23Y23*%
%MOIN*%
%OFA0B0*%
%SFA1.0B1.0*%
%ADD10C,0.075000*%
%ADD11C,0.078000*%
%ADD12R,0.075000X0.075000*%
%ADD13C,0.024000*%
%ADD14C,0.048000*%
%LNCOPPER1*%
G90*
G70*
G54D10*
X3673Y1854D03*
X3673Y1454D03*
G54D11*
X823Y2504D03*
X723Y2504D03*
X623Y2504D03*
X523Y2504D03*
X423Y2504D03*
X323Y2504D03*
X223Y2504D03*
X123Y2504D03*
X1723Y2504D03*
X1623Y2504D03*
X1523Y2504D03*
X1423Y2504D03*
X1323Y2504D03*
X1223Y2504D03*
X1123Y2504D03*
X1023Y2504D03*
X2623Y2504D03*
X2523Y2504D03*
X2423Y2504D03*
X2323Y2504D03*
X2223Y2504D03*
X2123Y2504D03*
X2023Y2504D03*
X1923Y2504D03*
X3523Y2504D03*
X3423Y2504D03*
X3323Y2504D03*
X3223Y2504D03*
X3123Y2504D03*
X3023Y2504D03*
X2923Y2504D03*
X2823Y2504D03*
G54D10*
X823Y1504D03*
X823Y1204D03*
X723Y1504D03*
X723Y1204D03*
X623Y1504D03*
X623Y1204D03*
X523Y1504D03*
X523Y1204D03*
X423Y1504D03*
X423Y1204D03*
X323Y1504D03*
X323Y1204D03*
X223Y1504D03*
X223Y1204D03*
X123Y1504D03*
X123Y1204D03*
X1723Y1504D03*
X1723Y1204D03*
X1623Y1504D03*
X1623Y1204D03*
X1523Y1504D03*
X1523Y1204D03*
X1423Y1504D03*
X1423Y1204D03*
X1323Y1504D03*
X1323Y1204D03*
X1223Y1504D03*
X1223Y1204D03*
X1123Y1504D03*
X1123Y1204D03*
X1023Y1504D03*
X1023Y1204D03*
X2623Y1504D03*
X2623Y1204D03*
X2523Y1504D03*
X2523Y1204D03*
X2423Y1504D03*
X2423Y1204D03*
X2323Y1504D03*
X2323Y1204D03*
X2223Y1504D03*
X2223Y1204D03*
X2123Y1504D03*
X2123Y1204D03*
X2023Y1504D03*
X2023Y1204D03*
X1923Y1504D03*
X1923Y1204D03*
X3523Y1504D03*
X3523Y1204D03*
X3423Y1504D03*
X3423Y1204D03*
X3323Y1504D03*
X3323Y1204D03*
X3223Y1504D03*
X3223Y1204D03*
X3123Y1504D03*
X3123Y1204D03*
X3023Y1504D03*
X3023Y1204D03*
X2923Y1504D03*
X2923Y1204D03*
X2823Y1504D03*
X2823Y1204D03*
G54D11*
X3773Y704D03*
X3773Y604D03*
X3773Y504D03*
X3773Y404D03*
X3773Y1204D03*
X3773Y1104D03*
X3773Y1004D03*
X3773Y904D03*
G54D10*
X823Y854D03*
X823Y554D03*
X723Y854D03*
X723Y554D03*
X623Y854D03*
X623Y554D03*
X523Y854D03*
X523Y554D03*
X423Y854D03*
X423Y554D03*
X323Y854D03*
X323Y554D03*
X223Y854D03*
X223Y554D03*
X123Y854D03*
X123Y554D03*
X1723Y854D03*
X1723Y554D03*
X1623Y854D03*
X1623Y554D03*
X1523Y854D03*
X1523Y554D03*
X1423Y854D03*
X1423Y554D03*
X1323Y854D03*
X1323Y554D03*
X1223Y854D03*
X1223Y554D03*
X1123Y854D03*
X1123Y554D03*
X1023Y854D03*
X1023Y554D03*
X2623Y854D03*
X2623Y554D03*
X2523Y854D03*
X2523Y554D03*
X2423Y854D03*
X2423Y554D03*
X2323Y854D03*
X2323Y554D03*
X2223Y854D03*
X2223Y554D03*
X2123Y854D03*
X2123Y554D03*
X2023Y854D03*
X2023Y554D03*
X1923Y854D03*
X1923Y554D03*
X3523Y854D03*
X3523Y554D03*
X3423Y854D03*
X3423Y554D03*
X3323Y854D03*
X3323Y554D03*
X3223Y854D03*
X3223Y554D03*
X3123Y854D03*
X3123Y554D03*
X3023Y854D03*
X3023Y554D03*
X2923Y854D03*
X2923Y554D03*
X2823Y854D03*
X2823Y554D03*
X123Y1854D03*
X123Y2154D03*
X223Y1854D03*
X223Y2154D03*
X323Y1854D03*
X323Y2154D03*
X423Y1854D03*
X423Y2154D03*
X523Y1854D03*
X523Y2154D03*
X623Y1854D03*
X623Y2154D03*
X723Y1854D03*
X723Y2154D03*
X823Y1854D03*
X823Y2154D03*
X1923Y1854D03*
X1923Y2154D03*
X2023Y1854D03*
X2023Y2154D03*
X2123Y1854D03*
X2123Y2154D03*
X2223Y1854D03*
X2223Y2154D03*
X2323Y1854D03*
X2323Y2154D03*
X2423Y1854D03*
X2423Y2154D03*
X2523Y1854D03*
X2523Y2154D03*
X2623Y1854D03*
X2623Y2154D03*
X1023Y1854D03*
X1023Y2154D03*
X1123Y1854D03*
X1123Y2154D03*
X1223Y1854D03*
X1223Y2154D03*
X1323Y1854D03*
X1323Y2154D03*
X1423Y1854D03*
X1423Y2154D03*
X1523Y1854D03*
X1523Y2154D03*
X1623Y1854D03*
X1623Y2154D03*
X1723Y1854D03*
X1723Y2154D03*
X2824Y1853D03*
X2824Y2153D03*
X2924Y1853D03*
X2924Y2153D03*
X3024Y1853D03*
X3024Y2153D03*
X3124Y1853D03*
X3124Y2153D03*
X3224Y1853D03*
X3224Y2153D03*
X3324Y1853D03*
X3324Y2153D03*
X3424Y1853D03*
X3424Y2153D03*
X3524Y1853D03*
X3524Y2153D03*
X3523Y2254D03*
X3523Y2354D03*
X3123Y2354D03*
X3123Y2254D03*
X1723Y2354D03*
X1723Y2254D03*
X2623Y2354D03*
X2623Y2254D03*
X1523Y2354D03*
X1523Y2254D03*
X2423Y2354D03*
X2423Y2254D03*
X1323Y2354D03*
X1323Y2254D03*
X2223Y2354D03*
X2223Y2254D03*
X1123Y2354D03*
X1123Y2254D03*
X2023Y2354D03*
X2023Y2254D03*
X3323Y1004D03*
X3423Y1004D03*
X3123Y1004D03*
X3223Y1004D03*
X2923Y1004D03*
X3023Y1004D03*
X123Y1004D03*
X223Y1004D03*
X923Y1004D03*
X1023Y1004D03*
X1823Y1004D03*
X1923Y1004D03*
X323Y1004D03*
X423Y1004D03*
X1123Y1004D03*
X1223Y1004D03*
X2023Y1004D03*
X2123Y1004D03*
X523Y1004D03*
X623Y1004D03*
X1323Y1004D03*
X1423Y1004D03*
X2223Y1004D03*
X2323Y1004D03*
X723Y1004D03*
X823Y1004D03*
X1523Y1004D03*
X1623Y1004D03*
X2423Y1004D03*
X2523Y1004D03*
X2723Y1004D03*
X2823Y1004D03*
X3423Y1704D03*
X3523Y1704D03*
X3023Y1704D03*
X3123Y1704D03*
X3323Y1704D03*
X3223Y1704D03*
X723Y1704D03*
X823Y1704D03*
X1623Y1704D03*
X1723Y1704D03*
X2523Y1704D03*
X2623Y1704D03*
X623Y1704D03*
X523Y1704D03*
X1523Y1704D03*
X1423Y1704D03*
X2423Y1704D03*
X2323Y1704D03*
X323Y1704D03*
X423Y1704D03*
X1223Y1704D03*
X1323Y1704D03*
X2123Y1704D03*
X2223Y1704D03*
X223Y1704D03*
X123Y1704D03*
X1123Y1704D03*
X1023Y1704D03*
X2023Y1704D03*
X1923Y1704D03*
X2923Y1704D03*
X2823Y1704D03*
X3423Y454D03*
X3423Y354D03*
X3223Y454D03*
X3223Y354D03*
X3023Y454D03*
X3023Y354D03*
X723Y454D03*
X723Y354D03*
X1623Y454D03*
X1623Y354D03*
X2523Y454D03*
X2523Y354D03*
X523Y454D03*
X523Y354D03*
X1423Y454D03*
X1423Y354D03*
X2323Y454D03*
X2323Y354D03*
X323Y454D03*
X323Y354D03*
X1223Y454D03*
X1223Y354D03*
X2123Y454D03*
X2123Y354D03*
X123Y454D03*
X123Y354D03*
X1023Y454D03*
X1023Y354D03*
X1923Y454D03*
X1923Y354D03*
X2823Y454D03*
X2823Y354D03*
X823Y2354D03*
X823Y2254D03*
X623Y2354D03*
X623Y2254D03*
X223Y2354D03*
X223Y2254D03*
X423Y2354D03*
X423Y2254D03*
G54D11*
X123Y204D03*
X223Y204D03*
X323Y204D03*
X423Y204D03*
X523Y204D03*
X623Y204D03*
X723Y204D03*
X823Y204D03*
X2823Y204D03*
X2923Y204D03*
X3023Y204D03*
X3123Y204D03*
X3223Y204D03*
X3323Y204D03*
X3423Y204D03*
X3523Y204D03*
X1923Y204D03*
X2023Y204D03*
X2123Y204D03*
X2223Y204D03*
X2323Y204D03*
X2423Y204D03*
X2523Y204D03*
X2623Y204D03*
X1023Y204D03*
X1123Y204D03*
X1223Y204D03*
X1323Y204D03*
X1423Y204D03*
X1523Y204D03*
X1623Y204D03*
X1723Y204D03*
G54D10*
X3323Y2254D03*
X3323Y2354D03*
X2923Y2354D03*
X2923Y2254D03*
G54D12*
X823Y1504D03*
X1723Y1504D03*
X2623Y1504D03*
X3523Y1504D03*
X823Y854D03*
X1723Y854D03*
X2623Y854D03*
X3523Y854D03*
X123Y1854D03*
X1923Y1854D03*
X1023Y1854D03*
X2824Y1853D03*
G54D13*
X3673Y1954D02*
X3673Y1872D01*
D02*
X323Y1522D02*
X323Y1687D01*
D02*
X215Y1520D02*
X131Y1688D01*
D02*
X431Y1520D02*
X515Y1688D01*
D02*
X535Y1517D02*
X711Y1692D01*
D02*
X1115Y1520D02*
X1031Y1688D01*
D02*
X1435Y1517D02*
X1611Y1692D01*
D02*
X1331Y1520D02*
X1415Y1688D01*
D02*
X1223Y1522D02*
X1223Y1687D01*
D02*
X2335Y1517D02*
X2511Y1692D01*
D02*
X2231Y1520D02*
X2315Y1688D01*
D02*
X2123Y1522D02*
X2123Y1687D01*
D02*
X2015Y1520D02*
X1931Y1688D01*
D02*
X3023Y1522D02*
X3023Y1687D01*
D02*
X3131Y1520D02*
X3215Y1688D01*
D02*
X2915Y1520D02*
X2831Y1688D01*
D02*
X3235Y1517D02*
X3411Y1692D01*
G54D14*
D02*
X3523Y1187D02*
X3523Y872D01*
D02*
X2623Y1487D02*
X2623Y1354D01*
G54D13*
D02*
X3123Y2337D02*
X3123Y2272D01*
D02*
X3598Y1104D02*
X3754Y1104D01*
D02*
X3598Y679D02*
X3598Y1104D01*
D02*
X3754Y604D02*
X3723Y604D01*
G54D14*
D02*
X723Y1354D02*
X723Y1487D01*
D02*
X823Y1354D02*
X723Y1354D01*
D02*
X823Y1354D02*
X823Y1487D01*
D02*
X1623Y1354D02*
X1623Y1487D01*
D02*
X1623Y1954D02*
X1623Y1872D01*
D02*
X1423Y1954D02*
X1423Y1872D01*
D02*
X1222Y1954D02*
X1223Y1872D01*
D02*
X1623Y1954D02*
X1423Y1954D01*
D02*
X1423Y1954D02*
X1222Y1954D01*
D02*
X1222Y1954D02*
X1024Y1954D01*
D02*
X322Y1955D02*
X323Y1872D01*
D02*
X523Y1955D02*
X523Y1872D01*
D02*
X723Y1955D02*
X723Y1872D01*
D02*
X723Y1955D02*
X523Y1955D01*
D02*
X523Y1955D02*
X322Y1955D01*
D02*
X322Y1955D02*
X173Y1955D01*
D02*
X1024Y1954D02*
X1023Y1872D01*
D02*
X1024Y1954D02*
X723Y1955D01*
D02*
X173Y1955D02*
X124Y1904D01*
D02*
X124Y1904D02*
X123Y1872D01*
D02*
X1923Y1954D02*
X1623Y1954D01*
D02*
X3824Y705D02*
X3792Y704D01*
D02*
X3872Y1203D02*
X3872Y755D01*
D02*
X3872Y755D02*
X3824Y705D01*
D02*
X3792Y1204D02*
X3872Y1203D01*
D02*
X2523Y1954D02*
X2324Y1954D01*
D02*
X2324Y1954D02*
X2123Y1954D01*
D02*
X2123Y1954D02*
X1923Y1954D01*
D02*
X1923Y1954D02*
X1923Y1872D01*
D02*
X2822Y1954D02*
X2523Y1954D01*
D02*
X2123Y1954D02*
X2123Y1872D01*
D02*
X2324Y1954D02*
X2323Y1872D01*
D02*
X2523Y1954D02*
X2523Y1872D01*
D02*
X1623Y1354D02*
X823Y1354D01*
D02*
X1723Y1354D02*
X1623Y1354D01*
D02*
X823Y1354D02*
X823Y1222D01*
D02*
X1723Y1222D02*
X1723Y1354D01*
D02*
X2623Y1354D02*
X2623Y1222D01*
D02*
X2523Y1354D02*
X2623Y1354D01*
D02*
X1723Y1354D02*
X2523Y1354D01*
D02*
X3523Y1254D02*
X3523Y1222D01*
D02*
X3423Y1354D02*
X3523Y1254D01*
D02*
X2623Y1354D02*
X3423Y1354D01*
G54D13*
D02*
X1623Y1154D02*
X1623Y1187D01*
D02*
X1648Y1130D02*
X1623Y1154D01*
D02*
X2498Y1279D02*
X1898Y1279D01*
D02*
X2523Y1222D02*
X2523Y1254D01*
D02*
X2523Y1254D02*
X2498Y1279D01*
D02*
X1898Y1279D02*
X1773Y1130D01*
D02*
X1773Y1130D02*
X1648Y1130D01*
D02*
X2523Y1187D02*
X2523Y1154D01*
D02*
X3423Y1254D02*
X3423Y1222D01*
D02*
X2548Y1130D02*
X2673Y1130D01*
D02*
X2785Y1267D02*
X3410Y1267D01*
D02*
X2673Y1130D02*
X2785Y1267D01*
D02*
X3410Y1267D02*
X3423Y1254D01*
D02*
X2523Y1154D02*
X2548Y1130D01*
D02*
X723Y1155D02*
X723Y1187D01*
D02*
X748Y1130D02*
X723Y1155D01*
D02*
X1623Y1254D02*
X1598Y1279D01*
D02*
X1623Y1222D02*
X1623Y1254D01*
D02*
X1598Y1279D02*
X998Y1279D01*
D02*
X998Y1279D02*
X873Y1130D01*
D02*
X873Y1130D02*
X748Y1130D01*
G54D14*
D02*
X2822Y1954D02*
X2824Y1871D01*
D02*
X3023Y1954D02*
X2822Y1954D01*
D02*
X3024Y1871D02*
X3023Y1954D01*
D02*
X3223Y1954D02*
X3224Y1871D01*
D02*
X3023Y1954D02*
X3223Y1954D01*
D02*
X3423Y1954D02*
X3424Y1871D01*
D02*
X3223Y1954D02*
X3423Y1954D01*
D02*
X3872Y1604D02*
X3872Y1203D01*
D02*
X3874Y1954D02*
X3872Y1604D01*
D02*
X3673Y1954D02*
X3874Y1954D01*
D02*
X3423Y1954D02*
X3673Y1954D01*
D02*
X3541Y1204D02*
X3754Y1204D01*
G54D13*
D02*
X3723Y604D02*
X3598Y679D01*
G04 End of Copper1*
M02*