G04 MADE WITH FRITZING*
G04 WWW.FRITZING.ORG*
G04 DOUBLE SIDED*
G04 HOLES PLATED*
G04 CONTOUR ON CENTER OF CONTOUR VECTOR*
%ASAXBY*%
%FSLAX23Y23*%
%MOIN*%
%OFA0B0*%
%SFA1.0B1.0*%
%ADD10C,0.075000*%
%ADD11C,0.078000*%
%ADD12R,0.078740X0.078740*%
%ADD13R,0.075000X0.075000*%
%ADD14R,0.078740X0.039370*%
%ADD15C,0.024000*%
%ADD16C,0.048000*%
%ADD17C,0.032000*%
%ADD18C,0.016000*%
%LNCOPPER0*%
G90*
G70*
G54D10*
X3673Y1854D03*
X3673Y1454D03*
G54D11*
X823Y2504D03*
X723Y2504D03*
X623Y2504D03*
X523Y2504D03*
X423Y2504D03*
X323Y2504D03*
X223Y2504D03*
X123Y2504D03*
X1723Y2504D03*
X1623Y2504D03*
X1523Y2504D03*
X1423Y2504D03*
X1323Y2504D03*
X1223Y2504D03*
X1123Y2504D03*
X1023Y2504D03*
X2623Y2504D03*
X2523Y2504D03*
X2423Y2504D03*
X2323Y2504D03*
X2223Y2504D03*
X2123Y2504D03*
X2023Y2504D03*
X1923Y2504D03*
X3523Y2504D03*
X3423Y2504D03*
X3323Y2504D03*
X3223Y2504D03*
X3123Y2504D03*
X3023Y2504D03*
X2923Y2504D03*
X2823Y2504D03*
G54D10*
X823Y1504D03*
X823Y1204D03*
X723Y1504D03*
X723Y1204D03*
X623Y1504D03*
X623Y1204D03*
X523Y1504D03*
X523Y1204D03*
X423Y1504D03*
X423Y1204D03*
X323Y1504D03*
X323Y1204D03*
X223Y1504D03*
X223Y1204D03*
X123Y1504D03*
X123Y1204D03*
X1723Y1504D03*
X1723Y1204D03*
X1623Y1504D03*
X1623Y1204D03*
X1523Y1504D03*
X1523Y1204D03*
X1423Y1504D03*
X1423Y1204D03*
X1323Y1504D03*
X1323Y1204D03*
X1223Y1504D03*
X1223Y1204D03*
X1123Y1504D03*
X1123Y1204D03*
X1023Y1504D03*
X1023Y1204D03*
X2623Y1504D03*
X2623Y1204D03*
X2523Y1504D03*
X2523Y1204D03*
X2423Y1504D03*
X2423Y1204D03*
X2323Y1504D03*
X2323Y1204D03*
X2223Y1504D03*
X2223Y1204D03*
X2123Y1504D03*
X2123Y1204D03*
X2023Y1504D03*
X2023Y1204D03*
X1923Y1504D03*
X1923Y1204D03*
X3523Y1504D03*
X3523Y1204D03*
X3423Y1504D03*
X3423Y1204D03*
X3323Y1504D03*
X3323Y1204D03*
X3223Y1504D03*
X3223Y1204D03*
X3123Y1504D03*
X3123Y1204D03*
X3023Y1504D03*
X3023Y1204D03*
X2923Y1504D03*
X2923Y1204D03*
X2823Y1504D03*
X2823Y1204D03*
G54D11*
X3773Y704D03*
X3773Y604D03*
X3773Y504D03*
X3773Y404D03*
X3773Y1204D03*
X3773Y1104D03*
X3773Y1004D03*
X3773Y904D03*
G54D10*
X823Y854D03*
X823Y554D03*
X723Y854D03*
X723Y554D03*
X623Y854D03*
X623Y554D03*
X523Y854D03*
X523Y554D03*
X423Y854D03*
X423Y554D03*
X323Y854D03*
X323Y554D03*
X223Y854D03*
X223Y554D03*
X123Y854D03*
X123Y554D03*
X1723Y854D03*
X1723Y554D03*
X1623Y854D03*
X1623Y554D03*
X1523Y854D03*
X1523Y554D03*
X1423Y854D03*
X1423Y554D03*
X1323Y854D03*
X1323Y554D03*
X1223Y854D03*
X1223Y554D03*
X1123Y854D03*
X1123Y554D03*
X1023Y854D03*
X1023Y554D03*
X2623Y854D03*
X2623Y554D03*
X2523Y854D03*
X2523Y554D03*
X2423Y854D03*
X2423Y554D03*
X2323Y854D03*
X2323Y554D03*
X2223Y854D03*
X2223Y554D03*
X2123Y854D03*
X2123Y554D03*
X2023Y854D03*
X2023Y554D03*
X1923Y854D03*
X1923Y554D03*
X3523Y854D03*
X3523Y554D03*
X3423Y854D03*
X3423Y554D03*
X3323Y854D03*
X3323Y554D03*
X3223Y854D03*
X3223Y554D03*
X3123Y854D03*
X3123Y554D03*
X3023Y854D03*
X3023Y554D03*
X2923Y854D03*
X2923Y554D03*
X2823Y854D03*
X2823Y554D03*
X123Y1854D03*
X123Y2154D03*
X223Y1854D03*
X223Y2154D03*
X323Y1854D03*
X323Y2154D03*
X423Y1854D03*
X423Y2154D03*
X523Y1854D03*
X523Y2154D03*
X623Y1854D03*
X623Y2154D03*
X723Y1854D03*
X723Y2154D03*
X823Y1854D03*
X823Y2154D03*
X1923Y1854D03*
X1923Y2154D03*
X2023Y1854D03*
X2023Y2154D03*
X2123Y1854D03*
X2123Y2154D03*
X2223Y1854D03*
X2223Y2154D03*
X2323Y1854D03*
X2323Y2154D03*
X2423Y1854D03*
X2423Y2154D03*
X2523Y1854D03*
X2523Y2154D03*
X2623Y1854D03*
X2623Y2154D03*
X1023Y1854D03*
X1023Y2154D03*
X1123Y1854D03*
X1123Y2154D03*
X1223Y1854D03*
X1223Y2154D03*
X1323Y1854D03*
X1323Y2154D03*
X1423Y1854D03*
X1423Y2154D03*
X1523Y1854D03*
X1523Y2154D03*
X1623Y1854D03*
X1623Y2154D03*
X1723Y1854D03*
X1723Y2154D03*
X2824Y1853D03*
X2824Y2153D03*
X2924Y1853D03*
X2924Y2153D03*
X3024Y1853D03*
X3024Y2153D03*
X3124Y1853D03*
X3124Y2153D03*
X3224Y1853D03*
X3224Y2153D03*
X3324Y1853D03*
X3324Y2153D03*
X3424Y1853D03*
X3424Y2153D03*
X3524Y1853D03*
X3524Y2153D03*
X3523Y2254D03*
X3523Y2354D03*
X3123Y2354D03*
X3123Y2254D03*
X1723Y2354D03*
X1723Y2254D03*
X2623Y2354D03*
X2623Y2254D03*
X1523Y2354D03*
X1523Y2254D03*
X2423Y2354D03*
X2423Y2254D03*
X1323Y2354D03*
X1323Y2254D03*
X2223Y2354D03*
X2223Y2254D03*
X1123Y2354D03*
X1123Y2254D03*
X2023Y2354D03*
X2023Y2254D03*
X3323Y1004D03*
X3423Y1004D03*
X3123Y1004D03*
X3223Y1004D03*
X2923Y1004D03*
X3023Y1004D03*
X123Y1004D03*
X223Y1004D03*
X923Y1004D03*
X1023Y1004D03*
X1823Y1004D03*
X1923Y1004D03*
X323Y1004D03*
X423Y1004D03*
X1123Y1004D03*
X1223Y1004D03*
X2023Y1004D03*
X2123Y1004D03*
X523Y1004D03*
X623Y1004D03*
X1323Y1004D03*
X1423Y1004D03*
X2223Y1004D03*
X2323Y1004D03*
X723Y1004D03*
X823Y1004D03*
X1523Y1004D03*
X1623Y1004D03*
X2423Y1004D03*
X2523Y1004D03*
X2723Y1004D03*
X2823Y1004D03*
X3423Y1704D03*
X3523Y1704D03*
X3023Y1704D03*
X3123Y1704D03*
X3323Y1704D03*
X3223Y1704D03*
X723Y1704D03*
X823Y1704D03*
X1623Y1704D03*
X1723Y1704D03*
X2523Y1704D03*
X2623Y1704D03*
X623Y1704D03*
X523Y1704D03*
X1523Y1704D03*
X1423Y1704D03*
X2423Y1704D03*
X2323Y1704D03*
X323Y1704D03*
X423Y1704D03*
X1223Y1704D03*
X1323Y1704D03*
X2123Y1704D03*
X2223Y1704D03*
X223Y1704D03*
X123Y1704D03*
X1123Y1704D03*
X1023Y1704D03*
X2023Y1704D03*
X1923Y1704D03*
X2923Y1704D03*
X2823Y1704D03*
X3423Y454D03*
X3423Y354D03*
X3223Y454D03*
X3223Y354D03*
X3023Y454D03*
X3023Y354D03*
X723Y454D03*
X723Y354D03*
X1623Y454D03*
X1623Y354D03*
X2523Y454D03*
X2523Y354D03*
X523Y454D03*
X523Y354D03*
X1423Y454D03*
X1423Y354D03*
X2323Y454D03*
X2323Y354D03*
X323Y454D03*
X323Y354D03*
X1223Y454D03*
X1223Y354D03*
X2123Y454D03*
X2123Y354D03*
X123Y454D03*
X123Y354D03*
X1023Y454D03*
X1023Y354D03*
X1923Y454D03*
X1923Y354D03*
X2823Y454D03*
X2823Y354D03*
X823Y2354D03*
X823Y2254D03*
X623Y2354D03*
X623Y2254D03*
X223Y2354D03*
X223Y2254D03*
X423Y2354D03*
X423Y2254D03*
G54D11*
X123Y204D03*
X223Y204D03*
X323Y204D03*
X423Y204D03*
X523Y204D03*
X623Y204D03*
X723Y204D03*
X823Y204D03*
X2823Y204D03*
X2923Y204D03*
X3023Y204D03*
X3123Y204D03*
X3223Y204D03*
X3323Y204D03*
X3423Y204D03*
X3523Y204D03*
X1923Y204D03*
X2023Y204D03*
X2123Y204D03*
X2223Y204D03*
X2323Y204D03*
X2423Y204D03*
X2523Y204D03*
X2623Y204D03*
X1023Y204D03*
X1123Y204D03*
X1223Y204D03*
X1323Y204D03*
X1423Y204D03*
X1523Y204D03*
X1623Y204D03*
X1723Y204D03*
G54D10*
X3323Y2254D03*
X3323Y2354D03*
X2923Y2354D03*
X2923Y2254D03*
G54D12*
X3773Y1504D03*
X3773Y1404D03*
G54D13*
X823Y1504D03*
X1723Y1504D03*
X2623Y1504D03*
X3523Y1504D03*
X823Y854D03*
X1723Y854D03*
X2623Y854D03*
X3523Y854D03*
X123Y1854D03*
X1923Y1854D03*
X1023Y1854D03*
X2824Y1853D03*
G54D14*
X2823Y2642D03*
X223Y129D03*
X423Y67D03*
X423Y129D03*
X623Y67D03*
X223Y67D03*
X123Y2579D03*
X523Y2579D03*
X623Y129D03*
X323Y2642D03*
X123Y2642D03*
X323Y2579D03*
X823Y67D03*
X1523Y67D03*
X523Y2642D03*
X1523Y129D03*
X1723Y129D03*
X1723Y67D03*
X1323Y129D03*
X823Y129D03*
X1323Y67D03*
X1123Y67D03*
X2023Y67D03*
X2023Y129D03*
X1123Y129D03*
X2123Y2642D03*
X3423Y2642D03*
X2323Y2579D03*
X2523Y2642D03*
X723Y2579D03*
X2523Y2579D03*
X3423Y2579D03*
X2823Y2579D03*
X3223Y2642D03*
X3023Y2642D03*
X3223Y2579D03*
X3023Y2579D03*
X2323Y2642D03*
X1223Y2642D03*
X1423Y2579D03*
X1023Y2642D03*
X723Y2642D03*
X1023Y2579D03*
X1223Y2579D03*
X1423Y2642D03*
X1923Y2642D03*
X1923Y2579D03*
X2123Y2579D03*
X1623Y2642D03*
X1623Y2579D03*
X2423Y67D03*
X2423Y129D03*
X3523Y67D03*
X3323Y67D03*
X3123Y67D03*
X2923Y67D03*
X2623Y67D03*
X3523Y129D03*
X3323Y129D03*
X3123Y129D03*
X2923Y129D03*
X2623Y129D03*
X2223Y67D03*
X2223Y129D03*
G54D15*
X3773Y1604D02*
X3773Y1536D01*
D02*
X623Y1403D02*
X623Y1487D01*
D02*
X1524Y1403D02*
X623Y1403D01*
D02*
X1523Y1487D02*
X1524Y1403D01*
D02*
X2425Y1396D02*
X2423Y1487D01*
D02*
X1524Y1403D02*
X2425Y1396D01*
D02*
X3323Y1404D02*
X3323Y1487D01*
D02*
X2425Y1396D02*
X3323Y1404D01*
D02*
X3674Y1405D02*
X3742Y1404D01*
D02*
X3673Y1437D02*
X3674Y1405D01*
D02*
X3323Y1404D02*
X3674Y1405D01*
G54D16*
D02*
X1023Y1604D02*
X174Y1604D01*
D02*
X174Y1604D02*
X123Y1554D01*
D02*
X1023Y1604D02*
X1023Y1522D01*
D02*
X1723Y1604D02*
X1023Y1604D01*
D02*
X123Y1554D02*
X123Y1522D01*
D02*
X1723Y1604D02*
X1923Y1604D01*
D02*
X1923Y1604D02*
X1923Y1522D01*
D02*
X1723Y1604D02*
X1723Y1522D01*
D02*
X2524Y1604D02*
X1923Y1604D01*
D02*
X2524Y1604D02*
X2523Y1522D01*
D02*
X2823Y1604D02*
X2524Y1604D01*
D02*
X2823Y1604D02*
X2823Y1522D01*
D02*
X3424Y1605D02*
X2823Y1604D01*
D02*
X3523Y1604D02*
X3424Y1605D01*
D02*
X3424Y1605D02*
X3423Y1522D01*
G54D15*
D02*
X2824Y2171D02*
X2823Y2485D01*
D02*
X3448Y1130D02*
X3423Y1154D01*
D02*
X3423Y1154D02*
X3423Y1187D01*
D02*
X3573Y1130D02*
X3448Y1130D01*
D02*
X3598Y1104D02*
X3573Y1130D01*
D02*
X3754Y1104D02*
X3598Y1104D01*
D02*
X2923Y2372D02*
X2923Y2485D01*
D02*
X3024Y2171D02*
X3023Y2485D01*
D02*
X3123Y2372D02*
X3123Y2485D01*
D02*
X3224Y2171D02*
X3223Y2485D01*
D02*
X3323Y2372D02*
X3323Y2485D01*
D02*
X3424Y2171D02*
X3423Y2485D01*
D02*
X3523Y2372D02*
X3523Y2485D01*
D02*
X1923Y2172D02*
X1923Y2485D01*
D02*
X2023Y2372D02*
X2023Y2485D01*
D02*
X2123Y2172D02*
X2123Y2485D01*
D02*
X2223Y2372D02*
X2223Y2485D01*
D02*
X2323Y2172D02*
X2323Y2485D01*
D02*
X2423Y2372D02*
X2423Y2485D01*
D02*
X2523Y2172D02*
X2523Y2485D01*
D02*
X2623Y2372D02*
X2623Y2485D01*
D02*
X1723Y2372D02*
X1723Y2485D01*
D02*
X1623Y2172D02*
X1623Y2485D01*
D02*
X1523Y2372D02*
X1523Y2485D01*
D02*
X1423Y2172D02*
X1423Y2485D01*
D02*
X1323Y2372D02*
X1323Y2485D01*
D02*
X1223Y2172D02*
X1223Y2485D01*
D02*
X1123Y2372D02*
X1123Y2485D01*
D02*
X1023Y2172D02*
X1023Y2485D01*
G54D17*
D02*
X323Y2172D02*
X323Y2485D01*
D02*
X523Y2172D02*
X523Y2485D01*
D02*
X723Y2172D02*
X723Y2485D01*
G54D16*
D02*
X3873Y904D02*
X3792Y904D01*
D02*
X3873Y904D02*
X3872Y454D01*
D02*
X3872Y1554D02*
X3873Y904D01*
D02*
X3773Y1604D02*
X3872Y1554D01*
D02*
X3872Y454D02*
X3824Y404D01*
D02*
X3623Y1604D02*
X3773Y1604D01*
D02*
X3523Y1604D02*
X3623Y1604D01*
D02*
X3523Y1522D02*
X3523Y1604D01*
D02*
X3824Y404D02*
X3792Y404D01*
G54D15*
D02*
X1123Y2172D02*
X1123Y2237D01*
D02*
X1323Y2172D02*
X1323Y2237D01*
D02*
X1523Y2172D02*
X1523Y2237D01*
D02*
X1723Y2172D02*
X1723Y2237D01*
D02*
X1723Y1722D02*
X1723Y1837D01*
D02*
X1523Y1722D02*
X1523Y1837D01*
D02*
X1323Y1722D02*
X1323Y1837D01*
D02*
X1123Y1722D02*
X1123Y1837D01*
D02*
X223Y1722D02*
X223Y1837D01*
D02*
X423Y1722D02*
X423Y1837D01*
D02*
X623Y1722D02*
X623Y1837D01*
D02*
X823Y1722D02*
X823Y1837D01*
D02*
X123Y1022D02*
X123Y1187D01*
D02*
X223Y1155D02*
X223Y1187D01*
D02*
X313Y1019D02*
X223Y1155D01*
D02*
X323Y1155D02*
X323Y1187D01*
D02*
X509Y1015D02*
X323Y1155D01*
D02*
X648Y1079D02*
X498Y1079D01*
D02*
X711Y1016D02*
X648Y1079D01*
D02*
X423Y1154D02*
X423Y1187D01*
D02*
X498Y1079D02*
X423Y1154D01*
D02*
X931Y1020D02*
X1015Y1188D01*
D02*
X1123Y1022D02*
X1123Y1187D01*
D02*
X1315Y1020D02*
X1231Y1188D01*
D02*
X1498Y1079D02*
X1373Y1079D01*
D02*
X1373Y1079D02*
X1323Y1154D01*
D02*
X1523Y1054D02*
X1498Y1079D01*
D02*
X1323Y1154D02*
X1323Y1187D01*
D02*
X1523Y1022D02*
X1523Y1054D01*
D02*
X133Y869D02*
X213Y990D01*
D02*
X333Y869D02*
X413Y990D01*
D02*
X533Y869D02*
X613Y990D01*
D02*
X733Y869D02*
X813Y990D01*
D02*
X1023Y872D02*
X1023Y987D01*
D02*
X1223Y872D02*
X1223Y987D01*
D02*
X1423Y872D02*
X1423Y987D01*
D02*
X1623Y872D02*
X1623Y987D01*
G54D16*
D02*
X2023Y754D02*
X1723Y754D01*
D02*
X1723Y754D02*
X1523Y754D01*
D02*
X1723Y754D02*
X1723Y837D01*
D02*
X1523Y754D02*
X1323Y754D01*
D02*
X1523Y754D02*
X1523Y837D01*
D02*
X1323Y754D02*
X1123Y754D01*
D02*
X1323Y754D02*
X1323Y837D01*
D02*
X1123Y754D02*
X823Y754D01*
D02*
X823Y754D02*
X622Y754D01*
D02*
X1123Y754D02*
X1123Y837D01*
D02*
X622Y754D02*
X423Y754D01*
D02*
X823Y754D02*
X823Y837D01*
D02*
X423Y754D02*
X223Y754D01*
D02*
X622Y754D02*
X623Y837D01*
D02*
X223Y754D02*
X223Y837D01*
D02*
X423Y754D02*
X423Y837D01*
G54D15*
D02*
X1023Y472D02*
X1023Y537D01*
D02*
X1223Y472D02*
X1223Y537D01*
D02*
X1423Y472D02*
X1423Y537D01*
D02*
X1623Y472D02*
X1623Y537D01*
D02*
X723Y472D02*
X723Y537D01*
D02*
X523Y472D02*
X523Y537D01*
D02*
X323Y472D02*
X323Y537D01*
D02*
X123Y472D02*
X123Y537D01*
D02*
X2924Y1836D02*
X2923Y1722D01*
D02*
X3124Y1836D02*
X3123Y1722D01*
D02*
X3324Y1836D02*
X3323Y1722D01*
D02*
X3524Y1836D02*
X3523Y1722D01*
D02*
X3636Y1004D02*
X3754Y1004D01*
D02*
X3560Y1092D02*
X3636Y1004D01*
D02*
X3323Y1154D02*
X3398Y1092D01*
D02*
X3398Y1092D02*
X3560Y1092D01*
D02*
X3323Y1187D02*
X3323Y1154D01*
D02*
X3636Y567D02*
X3723Y505D01*
D02*
X3636Y1004D02*
X3636Y567D01*
D02*
X2823Y472D02*
X2823Y537D01*
D02*
X3023Y472D02*
X3023Y537D01*
D02*
X3223Y472D02*
X3223Y537D01*
D02*
X3423Y472D02*
X3423Y537D01*
D02*
X2823Y872D02*
X2823Y987D01*
D02*
X3023Y872D02*
X3023Y987D01*
D02*
X3223Y872D02*
X3223Y987D01*
D02*
X3423Y872D02*
X3423Y987D01*
G54D16*
D02*
X3123Y754D02*
X3323Y754D01*
D02*
X3323Y754D02*
X3323Y837D01*
D02*
X3123Y754D02*
X2923Y754D01*
D02*
X3323Y754D02*
X3473Y754D01*
D02*
X2923Y754D02*
X2923Y837D01*
D02*
X3123Y837D02*
X3123Y754D01*
D02*
X3523Y804D02*
X3523Y837D01*
D02*
X2623Y754D02*
X2423Y754D01*
D02*
X2423Y754D02*
X2223Y754D01*
D02*
X2423Y754D02*
X2423Y837D01*
D02*
X2923Y754D02*
X2623Y754D01*
D02*
X2623Y754D02*
X2623Y837D01*
D02*
X2223Y754D02*
X2023Y754D01*
D02*
X2223Y754D02*
X2223Y837D01*
D02*
X2023Y754D02*
X2023Y837D01*
G54D15*
D02*
X2023Y2172D02*
X2023Y2237D01*
D02*
X2223Y2172D02*
X2223Y2237D01*
D02*
X2423Y2172D02*
X2423Y2237D01*
D02*
X2623Y2172D02*
X2623Y2237D01*
D02*
X2924Y2171D02*
X2923Y2237D01*
D02*
X3124Y2171D02*
X3123Y2237D01*
D02*
X3324Y2171D02*
X3323Y2237D01*
D02*
X3524Y2171D02*
X3523Y2237D01*
D02*
X2023Y1722D02*
X2023Y1837D01*
D02*
X2223Y1722D02*
X2223Y1837D01*
D02*
X2423Y1722D02*
X2423Y1837D01*
D02*
X2623Y1722D02*
X2623Y1837D01*
D02*
X1831Y1020D02*
X1915Y1188D01*
D02*
X2023Y1022D02*
X2023Y1187D01*
D02*
X2215Y1020D02*
X2131Y1188D01*
D02*
X2411Y1017D02*
X2235Y1192D01*
D02*
X2523Y872D02*
X2523Y987D01*
D02*
X2323Y872D02*
X2323Y987D01*
D02*
X2123Y872D02*
X2123Y987D01*
D02*
X1923Y872D02*
X1923Y987D01*
D02*
X1923Y472D02*
X1923Y537D01*
D02*
X2123Y472D02*
X2123Y537D01*
D02*
X2323Y472D02*
X2323Y537D01*
D02*
X2523Y472D02*
X2523Y537D01*
D02*
X873Y1130D02*
X648Y1130D01*
D02*
X648Y1130D02*
X623Y1154D01*
D02*
X1498Y1279D02*
X998Y1279D01*
D02*
X1523Y1254D02*
X1498Y1279D01*
D02*
X998Y1279D02*
X873Y1130D01*
D02*
X623Y1154D02*
X623Y1187D01*
D02*
X1523Y1254D02*
X1523Y1222D01*
D02*
X1899Y1279D02*
X1773Y1130D01*
D02*
X1548Y1130D02*
X1523Y1154D01*
D02*
X1523Y1154D02*
X1523Y1187D01*
D02*
X1773Y1130D02*
X1548Y1130D01*
D02*
X2398Y1279D02*
X1899Y1279D01*
D02*
X2425Y1251D02*
X2398Y1279D01*
D02*
X2448Y1130D02*
X2673Y1130D01*
D02*
X2423Y1154D02*
X2448Y1130D01*
D02*
X2423Y1187D02*
X2423Y1154D01*
D02*
X3298Y1267D02*
X3323Y1241D01*
D02*
X2785Y1267D02*
X3298Y1267D01*
D02*
X2673Y1130D02*
X2785Y1267D01*
D02*
X3323Y1241D02*
X3323Y1222D01*
D02*
X2424Y1222D02*
X2425Y1251D01*
D02*
X3311Y1017D02*
X3135Y1192D01*
D02*
X3115Y1020D02*
X3031Y1188D01*
D02*
X2923Y1022D02*
X2923Y1187D01*
D02*
X2731Y1020D02*
X2815Y1188D01*
G54D17*
D02*
X623Y2372D02*
X623Y2485D01*
D02*
X823Y2372D02*
X823Y2485D01*
G54D15*
D02*
X823Y2172D02*
X823Y2237D01*
D02*
X623Y2172D02*
X623Y2237D01*
D02*
X123Y2172D02*
X123Y2485D01*
D02*
X123Y337D02*
X123Y223D01*
D02*
X223Y537D02*
X223Y223D01*
D02*
X423Y537D02*
X423Y223D01*
D02*
X323Y337D02*
X323Y223D01*
D02*
X523Y337D02*
X523Y223D01*
D02*
X623Y537D02*
X623Y223D01*
D02*
X723Y337D02*
X723Y223D01*
D02*
X823Y537D02*
X823Y223D01*
D02*
X1023Y223D02*
X1023Y337D01*
D02*
X1123Y223D02*
X1123Y537D01*
D02*
X1223Y223D02*
X1223Y337D01*
D02*
X1323Y223D02*
X1323Y537D01*
D02*
X1423Y223D02*
X1423Y337D01*
D02*
X1523Y223D02*
X1523Y537D01*
D02*
X1623Y223D02*
X1623Y337D01*
D02*
X1723Y223D02*
X1723Y537D01*
D02*
X1923Y223D02*
X1923Y337D01*
D02*
X2023Y223D02*
X2023Y537D01*
D02*
X2223Y223D02*
X2223Y537D01*
D02*
X2423Y223D02*
X2423Y537D01*
D02*
X2323Y223D02*
X2323Y337D01*
D02*
X2123Y223D02*
X2123Y337D01*
D02*
X2523Y223D02*
X2523Y337D01*
D02*
X2623Y223D02*
X2623Y537D01*
D02*
X2823Y223D02*
X2823Y337D01*
D02*
X2923Y223D02*
X2923Y537D01*
D02*
X3023Y223D02*
X3023Y337D01*
D02*
X3123Y223D02*
X3123Y537D01*
D02*
X3223Y223D02*
X3223Y337D01*
D02*
X3323Y223D02*
X3323Y537D01*
D02*
X3423Y223D02*
X3423Y337D01*
D02*
X3523Y223D02*
X3523Y537D01*
G54D17*
D02*
X423Y2172D02*
X423Y2237D01*
D02*
X223Y2172D02*
X223Y2237D01*
D02*
X223Y2372D02*
X223Y2485D01*
D02*
X423Y2372D02*
X423Y2485D01*
D02*
X2989Y2642D02*
X2857Y2642D01*
G54D15*
D02*
X3023Y2523D02*
X3023Y2565D01*
D02*
X2823Y2523D02*
X2823Y2565D01*
G54D18*
D02*
X3023Y2593D02*
X3023Y2628D01*
G54D17*
D02*
X3189Y2642D02*
X3057Y2642D01*
D02*
X3257Y2642D02*
X3389Y2642D01*
G54D15*
D02*
X3223Y2523D02*
X3223Y2565D01*
D02*
X3423Y2523D02*
X3423Y2565D01*
G54D18*
D02*
X3423Y2593D02*
X3423Y2628D01*
D02*
X3223Y2628D02*
X3223Y2593D01*
D02*
X2823Y2628D02*
X2823Y2593D01*
G54D15*
D02*
X1923Y2565D02*
X1923Y2523D01*
D02*
X2123Y2565D02*
X2123Y2523D01*
D02*
X2323Y2565D02*
X2323Y2523D01*
D02*
X2523Y2565D02*
X2523Y2523D01*
G54D17*
D02*
X2789Y2642D02*
X2557Y2642D01*
D02*
X2489Y2642D02*
X2357Y2642D01*
D02*
X2289Y2642D02*
X2157Y2642D01*
D02*
X2089Y2642D02*
X1957Y2642D01*
G54D18*
D02*
X1923Y2628D02*
X1923Y2593D01*
D02*
X2123Y2628D02*
X2123Y2593D01*
D02*
X2323Y2628D02*
X2323Y2593D01*
D02*
X2523Y2628D02*
X2523Y2593D01*
G54D17*
D02*
X1889Y2642D02*
X1657Y2642D01*
D02*
X1589Y2642D02*
X1457Y2642D01*
D02*
X1389Y2642D02*
X1257Y2642D01*
D02*
X1189Y2642D02*
X1057Y2642D01*
G54D15*
D02*
X1023Y2565D02*
X1023Y2523D01*
D02*
X1223Y2565D02*
X1223Y2523D01*
D02*
X1423Y2565D02*
X1423Y2523D01*
D02*
X1623Y2565D02*
X1623Y2523D01*
G54D18*
D02*
X1623Y2628D02*
X1623Y2593D01*
D02*
X1423Y2628D02*
X1423Y2593D01*
D02*
X1223Y2628D02*
X1223Y2593D01*
D02*
X1023Y2628D02*
X1023Y2593D01*
G54D17*
D02*
X289Y2642D02*
X157Y2642D01*
D02*
X489Y2642D02*
X357Y2642D01*
D02*
X689Y2642D02*
X557Y2642D01*
D02*
X989Y2642D02*
X757Y2642D01*
G54D15*
D02*
X123Y2523D02*
X123Y2565D01*
D02*
X323Y2523D02*
X323Y2565D01*
D02*
X523Y2523D02*
X523Y2565D01*
D02*
X723Y2523D02*
X723Y2565D01*
G54D18*
D02*
X723Y2628D02*
X723Y2593D01*
D02*
X323Y2628D02*
X323Y2593D01*
D02*
X523Y2628D02*
X523Y2593D01*
D02*
X123Y2628D02*
X123Y2593D01*
G54D17*
D02*
X389Y67D02*
X257Y67D01*
D02*
X589Y67D02*
X457Y67D01*
D02*
X789Y67D02*
X657Y67D01*
D02*
X1089Y67D02*
X857Y67D01*
D02*
X1289Y67D02*
X1157Y67D01*
D02*
X1489Y67D02*
X1357Y67D01*
D02*
X1689Y67D02*
X1557Y67D01*
G54D18*
D02*
X1723Y81D02*
X1723Y115D01*
D02*
X1523Y81D02*
X1523Y115D01*
D02*
X1323Y81D02*
X1323Y115D01*
D02*
X1123Y81D02*
X1123Y115D01*
D02*
X823Y81D02*
X823Y115D01*
D02*
X623Y81D02*
X623Y115D01*
D02*
X423Y81D02*
X423Y115D01*
D02*
X223Y81D02*
X223Y115D01*
G54D15*
D02*
X223Y143D02*
X223Y185D01*
D02*
X423Y143D02*
X423Y185D01*
D02*
X623Y143D02*
X623Y185D01*
D02*
X823Y143D02*
X823Y185D01*
D02*
X1123Y143D02*
X1123Y185D01*
D02*
X1323Y143D02*
X1323Y185D01*
D02*
X1523Y143D02*
X1523Y185D01*
D02*
X1723Y143D02*
X1723Y185D01*
G54D17*
D02*
X1989Y67D02*
X1757Y67D01*
D02*
X2189Y67D02*
X2057Y67D01*
D02*
X2389Y67D02*
X2257Y67D01*
D02*
X2589Y67D02*
X2457Y67D01*
G54D18*
D02*
X2023Y81D02*
X2023Y115D01*
D02*
X2223Y81D02*
X2223Y115D01*
D02*
X2423Y81D02*
X2423Y115D01*
D02*
X2623Y81D02*
X2623Y115D01*
G54D15*
D02*
X2023Y143D02*
X2023Y185D01*
D02*
X2223Y143D02*
X2223Y185D01*
D02*
X2423Y143D02*
X2423Y185D01*
D02*
X2623Y143D02*
X2623Y185D01*
G54D17*
D02*
X2889Y67D02*
X2657Y67D01*
D02*
X3089Y67D02*
X2957Y67D01*
D02*
X3289Y67D02*
X3157Y67D01*
D02*
X3489Y67D02*
X3357Y67D01*
G54D18*
D02*
X3523Y81D02*
X3523Y115D01*
D02*
X3323Y81D02*
X3323Y115D01*
D02*
X3123Y81D02*
X3123Y115D01*
D02*
X2923Y81D02*
X2923Y115D01*
G54D15*
D02*
X2923Y143D02*
X2923Y185D01*
D02*
X3123Y143D02*
X3123Y185D01*
D02*
X3323Y143D02*
X3323Y185D01*
D02*
X3523Y143D02*
X3523Y185D01*
G54D16*
D02*
X3473Y754D02*
X3523Y804D01*
G54D15*
D02*
X3723Y505D02*
X3754Y504D01*
G04 End of Copper0*
M02*