G04 MADE WITH FRITZING*
G04 WWW.FRITZING.ORG*
G04 DOUBLE SIDED*
G04 HOLES PLATED*
G04 CONTOUR ON CENTER OF CONTOUR VECTOR*
%ASAXBY*%
%FSLAX23Y23*%
%MOIN*%
%OFA0B0*%
%SFA1.0B1.0*%
%ADD10C,0.075000*%
%ADD11C,0.070000*%
%ADD12C,0.078000*%
%ADD13C,0.062992*%
%ADD14C,0.039370*%
%ADD15R,0.062992X0.062992*%
%ADD16R,0.075000X0.075000*%
%ADD17C,0.032000*%
%ADD18C,0.024000*%
%LNCOPPER1*%
G90*
G70*
G54D10*
X105Y1424D03*
X7499Y1993D03*
G54D11*
X7660Y754D03*
X7460Y754D03*
X1160Y1254D03*
X1160Y1054D03*
X2060Y1254D03*
X2060Y1054D03*
X2960Y1254D03*
X2960Y1054D03*
X3860Y1254D03*
X3860Y1054D03*
X4760Y1254D03*
X4760Y1054D03*
X5660Y1254D03*
X5660Y1054D03*
X6560Y1254D03*
X6560Y1054D03*
G54D12*
X7560Y1004D03*
X7560Y1104D03*
X7560Y1204D03*
X7560Y1304D03*
X7560Y1854D03*
X7560Y1754D03*
X7560Y1654D03*
G54D13*
X148Y452D03*
X148Y354D03*
X148Y1855D03*
X148Y1954D03*
G54D10*
X148Y754D03*
X148Y654D03*
X148Y1554D03*
X148Y1654D03*
G54D12*
X148Y1241D03*
X148Y1141D03*
X148Y1041D03*
G54D14*
X5460Y1179D03*
X5360Y1129D03*
X6260Y1129D03*
X6360Y1179D03*
X7260Y1179D03*
X7160Y1129D03*
X4560Y1179D03*
X4460Y1129D03*
X960Y1179D03*
X860Y1129D03*
X3660Y1179D03*
X3561Y1129D03*
X1861Y1175D03*
X1760Y1129D03*
X2661Y1129D03*
X2760Y1179D03*
G54D12*
X1060Y2179D03*
X960Y2179D03*
X860Y2179D03*
X760Y2179D03*
X660Y2179D03*
X560Y2179D03*
X460Y2179D03*
X360Y2179D03*
X1960Y2179D03*
X1860Y2179D03*
X1760Y2179D03*
X1660Y2179D03*
X1560Y2179D03*
X1460Y2179D03*
X1360Y2179D03*
X1260Y2179D03*
X2860Y2179D03*
X2760Y2179D03*
X2660Y2179D03*
X2560Y2179D03*
X2460Y2179D03*
X2360Y2179D03*
X2260Y2179D03*
X2160Y2179D03*
X3760Y2179D03*
X3660Y2179D03*
X3560Y2179D03*
X3460Y2179D03*
X3360Y2179D03*
X3260Y2179D03*
X3160Y2179D03*
X3060Y2179D03*
X4660Y2179D03*
X4560Y2179D03*
X4460Y2179D03*
X4360Y2179D03*
X4260Y2179D03*
X4160Y2179D03*
X4060Y2179D03*
X3960Y2179D03*
X5573Y2179D03*
X5473Y2179D03*
X5373Y2179D03*
X5273Y2179D03*
X5173Y2179D03*
X5073Y2179D03*
X4973Y2179D03*
X4873Y2179D03*
X6460Y2179D03*
X6360Y2179D03*
X6260Y2179D03*
X6160Y2179D03*
X6060Y2179D03*
X5960Y2179D03*
X5860Y2179D03*
X5760Y2179D03*
X7360Y2179D03*
X7260Y2179D03*
X7160Y2179D03*
X7060Y2179D03*
X6960Y2179D03*
X6860Y2179D03*
X6760Y2179D03*
X6660Y2179D03*
G54D10*
X1060Y1304D03*
X1060Y1004D03*
X960Y1304D03*
X960Y1004D03*
X860Y1304D03*
X860Y1004D03*
X760Y1304D03*
X760Y1004D03*
X660Y1304D03*
X660Y1004D03*
X560Y1304D03*
X560Y1004D03*
X460Y1304D03*
X460Y1004D03*
X360Y1304D03*
X360Y1004D03*
X1960Y1304D03*
X1960Y1004D03*
X1860Y1304D03*
X1860Y1004D03*
X1760Y1304D03*
X1760Y1004D03*
X1660Y1304D03*
X1660Y1004D03*
X1560Y1304D03*
X1560Y1004D03*
X1460Y1304D03*
X1460Y1004D03*
X1360Y1304D03*
X1360Y1004D03*
X1260Y1304D03*
X1260Y1004D03*
X2860Y1304D03*
X2860Y1004D03*
X2760Y1304D03*
X2760Y1004D03*
X2660Y1304D03*
X2660Y1004D03*
X2560Y1304D03*
X2560Y1004D03*
X2460Y1304D03*
X2460Y1004D03*
X2360Y1304D03*
X2360Y1004D03*
X2260Y1304D03*
X2260Y1004D03*
X2160Y1304D03*
X2160Y1004D03*
X3760Y1304D03*
X3760Y1004D03*
X3660Y1304D03*
X3660Y1004D03*
X3560Y1304D03*
X3560Y1004D03*
X3460Y1304D03*
X3460Y1004D03*
X3360Y1304D03*
X3360Y1004D03*
X3260Y1304D03*
X3260Y1004D03*
X3160Y1304D03*
X3160Y1004D03*
X3060Y1304D03*
X3060Y1004D03*
X4660Y1304D03*
X4660Y1004D03*
X4560Y1304D03*
X4560Y1004D03*
X4460Y1304D03*
X4460Y1004D03*
X4360Y1304D03*
X4360Y1004D03*
X4260Y1304D03*
X4260Y1004D03*
X4160Y1304D03*
X4160Y1004D03*
X4060Y1304D03*
X4060Y1004D03*
X3960Y1304D03*
X3960Y1004D03*
X5560Y1304D03*
X5560Y1004D03*
X5460Y1304D03*
X5460Y1004D03*
X5360Y1304D03*
X5360Y1004D03*
X5260Y1304D03*
X5260Y1004D03*
X5160Y1304D03*
X5160Y1004D03*
X5060Y1304D03*
X5060Y1004D03*
X4960Y1304D03*
X4960Y1004D03*
X4860Y1304D03*
X4860Y1004D03*
X6460Y1304D03*
X6460Y1004D03*
X6360Y1304D03*
X6360Y1004D03*
X6260Y1304D03*
X6260Y1004D03*
X6160Y1304D03*
X6160Y1004D03*
X6060Y1304D03*
X6060Y1004D03*
X5960Y1304D03*
X5960Y1004D03*
X5860Y1304D03*
X5860Y1004D03*
X5760Y1304D03*
X5760Y1004D03*
X7360Y1304D03*
X7360Y1004D03*
X7260Y1304D03*
X7260Y1004D03*
X7160Y1304D03*
X7160Y1004D03*
X7060Y1304D03*
X7060Y1004D03*
X6960Y1304D03*
X6960Y1004D03*
X6860Y1304D03*
X6860Y1004D03*
X6760Y1304D03*
X6760Y1004D03*
X6660Y1304D03*
X6660Y1004D03*
X1060Y754D03*
X1060Y454D03*
X960Y754D03*
X960Y454D03*
X860Y754D03*
X860Y454D03*
X760Y754D03*
X760Y454D03*
X660Y754D03*
X660Y454D03*
X560Y754D03*
X560Y454D03*
X460Y754D03*
X460Y454D03*
X360Y754D03*
X360Y454D03*
X1960Y754D03*
X1960Y454D03*
X1860Y754D03*
X1860Y454D03*
X1760Y754D03*
X1760Y454D03*
X1660Y754D03*
X1660Y454D03*
X1560Y754D03*
X1560Y454D03*
X1460Y754D03*
X1460Y454D03*
X1360Y754D03*
X1360Y454D03*
X1260Y754D03*
X1260Y454D03*
X2860Y754D03*
X2860Y454D03*
X2760Y754D03*
X2760Y454D03*
X2660Y754D03*
X2660Y454D03*
X2560Y754D03*
X2560Y454D03*
X2460Y754D03*
X2460Y454D03*
X2360Y754D03*
X2360Y454D03*
X2260Y754D03*
X2260Y454D03*
X2160Y754D03*
X2160Y454D03*
X3760Y754D03*
X3760Y454D03*
X3660Y754D03*
X3660Y454D03*
X3560Y754D03*
X3560Y454D03*
X3460Y754D03*
X3460Y454D03*
X3360Y754D03*
X3360Y454D03*
X3260Y754D03*
X3260Y454D03*
X3160Y754D03*
X3160Y454D03*
X3060Y754D03*
X3060Y454D03*
X4660Y754D03*
X4660Y454D03*
X4560Y754D03*
X4560Y454D03*
X4460Y754D03*
X4460Y454D03*
X4360Y754D03*
X4360Y454D03*
X4260Y754D03*
X4260Y454D03*
X4160Y754D03*
X4160Y454D03*
X4060Y754D03*
X4060Y454D03*
X3960Y754D03*
X3960Y454D03*
X5560Y754D03*
X5560Y454D03*
X5460Y754D03*
X5460Y454D03*
X5360Y754D03*
X5360Y454D03*
X5260Y754D03*
X5260Y454D03*
X5160Y754D03*
X5160Y454D03*
X5060Y754D03*
X5060Y454D03*
X4960Y754D03*
X4960Y454D03*
X4860Y754D03*
X4860Y454D03*
X6460Y754D03*
X6460Y454D03*
X6360Y754D03*
X6360Y454D03*
X6260Y754D03*
X6260Y454D03*
X6160Y754D03*
X6160Y454D03*
X6060Y754D03*
X6060Y454D03*
X5960Y754D03*
X5960Y454D03*
X5860Y754D03*
X5860Y454D03*
X5760Y754D03*
X5760Y454D03*
X7360Y753D03*
X7360Y453D03*
X7260Y753D03*
X7260Y453D03*
X7160Y753D03*
X7160Y453D03*
X7060Y753D03*
X7060Y453D03*
X6960Y753D03*
X6960Y453D03*
X6860Y753D03*
X6860Y453D03*
X6760Y753D03*
X6760Y453D03*
X6660Y753D03*
X6660Y453D03*
X360Y1554D03*
X360Y1854D03*
X460Y1554D03*
X460Y1854D03*
X560Y1554D03*
X560Y1854D03*
X660Y1554D03*
X660Y1854D03*
X760Y1554D03*
X760Y1854D03*
X860Y1554D03*
X860Y1854D03*
X960Y1554D03*
X960Y1854D03*
X1060Y1554D03*
X1060Y1854D03*
X1260Y1554D03*
X1260Y1854D03*
X1360Y1554D03*
X1360Y1854D03*
X1460Y1554D03*
X1460Y1854D03*
X1560Y1554D03*
X1560Y1854D03*
X1660Y1554D03*
X1660Y1854D03*
X1760Y1554D03*
X1760Y1854D03*
X1860Y1554D03*
X1860Y1854D03*
X1960Y1554D03*
X1960Y1854D03*
X2160Y1554D03*
X2160Y1854D03*
X2260Y1554D03*
X2260Y1854D03*
X2360Y1554D03*
X2360Y1854D03*
X2460Y1554D03*
X2460Y1854D03*
X2560Y1554D03*
X2560Y1854D03*
X2660Y1554D03*
X2660Y1854D03*
X2760Y1554D03*
X2760Y1854D03*
X2860Y1554D03*
X2860Y1854D03*
X3060Y1554D03*
X3060Y1854D03*
X3160Y1554D03*
X3160Y1854D03*
X3260Y1554D03*
X3260Y1854D03*
X3360Y1554D03*
X3360Y1854D03*
X3460Y1554D03*
X3460Y1854D03*
X3560Y1554D03*
X3560Y1854D03*
X3660Y1554D03*
X3660Y1854D03*
X3760Y1554D03*
X3760Y1854D03*
X3960Y1554D03*
X3960Y1854D03*
X4060Y1554D03*
X4060Y1854D03*
X4160Y1554D03*
X4160Y1854D03*
X4260Y1554D03*
X4260Y1854D03*
X4360Y1554D03*
X4360Y1854D03*
X4460Y1554D03*
X4460Y1854D03*
X4560Y1554D03*
X4560Y1854D03*
X4660Y1554D03*
X4660Y1854D03*
X5761Y1553D03*
X5761Y1853D03*
X5861Y1553D03*
X5861Y1853D03*
X5961Y1553D03*
X5961Y1853D03*
X6061Y1553D03*
X6061Y1853D03*
X6161Y1553D03*
X6161Y1853D03*
X6261Y1553D03*
X6261Y1853D03*
X6361Y1553D03*
X6361Y1853D03*
X6461Y1553D03*
X6461Y1853D03*
X4860Y1554D03*
X4860Y1854D03*
X4960Y1554D03*
X4960Y1854D03*
X5060Y1554D03*
X5060Y1854D03*
X5160Y1554D03*
X5160Y1854D03*
X5260Y1554D03*
X5260Y1854D03*
X5360Y1554D03*
X5360Y1854D03*
X5460Y1554D03*
X5460Y1854D03*
X5560Y1554D03*
X5560Y1854D03*
X6661Y1553D03*
X6661Y1853D03*
X6761Y1553D03*
X6761Y1853D03*
X6861Y1553D03*
X6861Y1853D03*
X6961Y1553D03*
X6961Y1853D03*
X7061Y1553D03*
X7061Y1853D03*
X7161Y1553D03*
X7161Y1853D03*
X7261Y1553D03*
X7261Y1853D03*
X7361Y1553D03*
X7361Y1853D03*
X7360Y1954D03*
X7360Y2054D03*
X6960Y2054D03*
X6960Y1954D03*
X5560Y2054D03*
X5560Y1954D03*
X6460Y2054D03*
X6460Y1954D03*
X5360Y2054D03*
X5360Y1954D03*
X6260Y2054D03*
X6260Y1954D03*
X5160Y2054D03*
X5160Y1954D03*
X6060Y2054D03*
X6060Y1954D03*
X4960Y2054D03*
X4960Y1954D03*
X5860Y2054D03*
X5860Y1954D03*
X7260Y879D03*
X7360Y879D03*
X7060Y879D03*
X7160Y879D03*
X6860Y879D03*
X6960Y879D03*
X360Y879D03*
X460Y879D03*
X1260Y879D03*
X1360Y879D03*
X2160Y879D03*
X2260Y879D03*
X3060Y879D03*
X3160Y879D03*
X3960Y879D03*
X4060Y879D03*
X4860Y879D03*
X4960Y879D03*
X5760Y879D03*
X5860Y879D03*
X560Y879D03*
X660Y879D03*
X1460Y879D03*
X1560Y879D03*
X2360Y879D03*
X2460Y879D03*
X3260Y879D03*
X3360Y879D03*
X4160Y879D03*
X4260Y879D03*
X5060Y879D03*
X5160Y879D03*
X5960Y879D03*
X6060Y879D03*
X760Y879D03*
X860Y879D03*
X1660Y879D03*
X1760Y879D03*
X2560Y879D03*
X2660Y879D03*
X3460Y879D03*
X3560Y879D03*
X4360Y879D03*
X4460Y879D03*
X5260Y879D03*
X5360Y879D03*
X6160Y879D03*
X6260Y879D03*
X960Y879D03*
X1060Y879D03*
X1860Y879D03*
X1960Y879D03*
X2760Y879D03*
X2860Y879D03*
X3660Y879D03*
X3760Y879D03*
X4560Y879D03*
X4660Y879D03*
X5460Y879D03*
X5560Y879D03*
X6360Y879D03*
X6460Y879D03*
X6660Y879D03*
X6760Y879D03*
X7260Y1429D03*
X7360Y1429D03*
X6860Y1429D03*
X6960Y1429D03*
X7160Y1429D03*
X7060Y1429D03*
X960Y1429D03*
X1060Y1429D03*
X1860Y1429D03*
X1960Y1429D03*
X2760Y1429D03*
X2860Y1429D03*
X3660Y1429D03*
X3760Y1429D03*
X4560Y1429D03*
X4660Y1429D03*
X5460Y1429D03*
X5560Y1429D03*
X6360Y1429D03*
X6460Y1429D03*
X860Y1429D03*
X760Y1429D03*
X1760Y1429D03*
X1660Y1429D03*
X2660Y1429D03*
X2560Y1429D03*
X3560Y1429D03*
X3460Y1429D03*
X4460Y1429D03*
X4360Y1429D03*
X5360Y1429D03*
X5260Y1429D03*
X6260Y1429D03*
X6160Y1429D03*
X560Y1429D03*
X660Y1429D03*
X1460Y1429D03*
X1560Y1429D03*
X2360Y1429D03*
X2460Y1429D03*
X3260Y1429D03*
X3360Y1429D03*
X4160Y1429D03*
X4260Y1429D03*
X5060Y1429D03*
X5160Y1429D03*
X5960Y1429D03*
X6060Y1429D03*
X460Y1429D03*
X360Y1429D03*
X1360Y1429D03*
X1260Y1429D03*
X2260Y1429D03*
X2160Y1429D03*
X3160Y1429D03*
X3060Y1429D03*
X4060Y1429D03*
X3960Y1429D03*
X4960Y1429D03*
X4860Y1429D03*
X5860Y1429D03*
X5760Y1429D03*
X6760Y1429D03*
X6660Y1429D03*
X7260Y354D03*
X7260Y254D03*
X7060Y354D03*
X7060Y254D03*
X6860Y354D03*
X6860Y254D03*
X960Y354D03*
X960Y254D03*
X1860Y354D03*
X1860Y254D03*
X2760Y354D03*
X2760Y254D03*
X3660Y354D03*
X3660Y254D03*
X4560Y354D03*
X4560Y254D03*
X5460Y354D03*
X5460Y254D03*
X6360Y354D03*
X6360Y254D03*
X760Y354D03*
X760Y254D03*
X1660Y354D03*
X1660Y254D03*
X2560Y354D03*
X2560Y254D03*
X3460Y354D03*
X3460Y254D03*
X4360Y354D03*
X4360Y254D03*
X5260Y354D03*
X5260Y254D03*
X6160Y354D03*
X6160Y254D03*
X560Y354D03*
X560Y254D03*
X1460Y354D03*
X1460Y254D03*
X2360Y354D03*
X2360Y254D03*
X3260Y354D03*
X3260Y254D03*
X4160Y354D03*
X4160Y254D03*
X5060Y354D03*
X5060Y254D03*
X5960Y354D03*
X5960Y254D03*
X360Y354D03*
X360Y254D03*
X1260Y354D03*
X1260Y254D03*
X2160Y354D03*
X2160Y254D03*
X3060Y354D03*
X3060Y254D03*
X3960Y354D03*
X3960Y254D03*
X4860Y354D03*
X4860Y254D03*
X5760Y354D03*
X5760Y254D03*
X6660Y354D03*
X6660Y254D03*
X4660Y2054D03*
X4660Y1954D03*
X4460Y2054D03*
X4460Y1954D03*
X1060Y2054D03*
X1060Y1954D03*
X660Y2054D03*
X660Y1954D03*
X860Y2054D03*
X860Y1954D03*
X460Y2054D03*
X460Y1954D03*
X1960Y2054D03*
X1960Y1954D03*
X1560Y2054D03*
X1560Y1954D03*
X1760Y2054D03*
X1760Y1954D03*
X1360Y2054D03*
X1360Y1954D03*
X2860Y2054D03*
X2860Y1954D03*
X2460Y2054D03*
X2460Y1954D03*
X2660Y2054D03*
X2660Y1954D03*
X2260Y2054D03*
X2260Y1954D03*
X3160Y2054D03*
X3160Y1954D03*
X3360Y2054D03*
X3360Y1954D03*
X3560Y2054D03*
X3560Y1954D03*
X3760Y2054D03*
X3760Y1954D03*
X4060Y2054D03*
X4060Y1954D03*
X4260Y2054D03*
X4260Y1954D03*
G54D12*
X360Y129D03*
X460Y129D03*
X560Y129D03*
X660Y129D03*
X760Y129D03*
X860Y129D03*
X960Y129D03*
X1060Y129D03*
X1260Y129D03*
X1360Y129D03*
X1460Y129D03*
X1560Y129D03*
X1660Y129D03*
X1760Y129D03*
X1860Y129D03*
X1960Y129D03*
X2160Y129D03*
X2260Y129D03*
X2360Y129D03*
X2460Y129D03*
X2560Y129D03*
X2660Y129D03*
X2760Y129D03*
X2860Y129D03*
X3060Y129D03*
X3160Y129D03*
X3260Y129D03*
X3360Y129D03*
X3460Y129D03*
X3560Y129D03*
X3660Y129D03*
X3760Y129D03*
X3960Y129D03*
X4060Y129D03*
X4160Y129D03*
X4260Y129D03*
X4360Y129D03*
X4460Y129D03*
X4560Y129D03*
X4660Y129D03*
X6660Y129D03*
X6760Y129D03*
X6860Y129D03*
X6960Y129D03*
X7060Y129D03*
X7160Y129D03*
X7260Y129D03*
X7360Y129D03*
X5760Y129D03*
X5860Y129D03*
X5960Y129D03*
X6060Y129D03*
X6160Y129D03*
X6260Y129D03*
X6360Y129D03*
X6460Y129D03*
X4860Y129D03*
X4960Y129D03*
X5060Y129D03*
X5160Y129D03*
X5260Y129D03*
X5360Y129D03*
X5460Y129D03*
X5560Y129D03*
G54D10*
X7160Y1954D03*
X7160Y2054D03*
X6760Y2054D03*
X6760Y1954D03*
G54D11*
X7660Y591D03*
X7460Y591D03*
G54D15*
X148Y452D03*
X148Y1855D03*
G54D16*
X1060Y1304D03*
X1960Y1304D03*
X2860Y1304D03*
X3760Y1304D03*
X4660Y1304D03*
X5560Y1304D03*
X6460Y1304D03*
X7360Y1304D03*
X1060Y754D03*
X1960Y754D03*
X2860Y754D03*
X3760Y754D03*
X4660Y754D03*
X5560Y754D03*
X6460Y754D03*
X7360Y753D03*
X360Y1554D03*
X1260Y1554D03*
X2160Y1554D03*
X3060Y1554D03*
X3960Y1554D03*
X5761Y1553D03*
X4860Y1554D03*
X6661Y1553D03*
G54D17*
X7460Y679D02*
X7460Y606D01*
G54D18*
D02*
X723Y942D02*
X673Y991D01*
D02*
X910Y942D02*
X723Y942D01*
D02*
X949Y892D02*
X910Y942D01*
D02*
X1850Y893D02*
X1811Y942D01*
D02*
X1811Y942D02*
X1623Y942D01*
D02*
X1623Y942D02*
X1573Y991D01*
D02*
X2523Y942D02*
X2473Y991D01*
D02*
X2711Y942D02*
X2523Y942D01*
D02*
X2750Y893D02*
X2711Y942D01*
D02*
X3423Y942D02*
X3373Y991D01*
D02*
X3611Y942D02*
X3423Y942D01*
D02*
X3650Y893D02*
X3611Y942D01*
D02*
X4510Y942D02*
X4323Y942D01*
D02*
X4549Y892D02*
X4510Y942D01*
D02*
X7210Y942D02*
X7023Y941D01*
D02*
X7023Y941D02*
X6973Y991D01*
D02*
X6310Y942D02*
X6123Y942D01*
D02*
X6123Y942D02*
X6073Y991D01*
D02*
X5411Y942D02*
X5223Y942D01*
D02*
X5223Y942D02*
X5173Y991D01*
D02*
X4323Y942D02*
X4273Y991D01*
D02*
X5450Y893D02*
X5411Y942D01*
D02*
X6349Y892D02*
X6310Y942D01*
D02*
X7249Y892D02*
X7210Y942D01*
G54D17*
D02*
X3660Y1630D02*
X3461Y1630D01*
D02*
X3461Y1630D02*
X3260Y1630D01*
D02*
X3260Y1630D02*
X3061Y1630D01*
D02*
X3061Y1630D02*
X2760Y1630D01*
D02*
X2760Y1630D02*
X2561Y1630D01*
D02*
X2561Y1630D02*
X2360Y1630D01*
D02*
X2360Y1630D02*
X2160Y1629D01*
D02*
X2160Y1629D02*
X1860Y1630D01*
D02*
X1860Y1630D02*
X1661Y1630D01*
D02*
X1661Y1630D02*
X1460Y1630D01*
D02*
X1460Y1630D02*
X1261Y1630D01*
D02*
X1261Y1630D02*
X960Y1630D01*
D02*
X960Y1630D02*
X960Y1571D01*
D02*
X761Y1630D02*
X761Y1571D01*
D02*
X560Y1630D02*
X560Y1571D01*
D02*
X960Y1630D02*
X761Y1630D01*
D02*
X761Y1630D02*
X560Y1630D01*
D02*
X560Y1630D02*
X361Y1630D01*
D02*
X361Y1630D02*
X361Y1571D01*
D02*
X3961Y1630D02*
X3660Y1630D01*
D02*
X2760Y1630D02*
X2760Y1571D01*
D02*
X3061Y1630D02*
X3061Y1571D01*
D02*
X3260Y1630D02*
X3260Y1571D01*
D02*
X3461Y1630D02*
X3461Y1571D01*
D02*
X3660Y1630D02*
X3660Y1571D01*
D02*
X1460Y1630D02*
X1460Y1571D01*
D02*
X1661Y1630D02*
X1661Y1571D01*
D02*
X1860Y1630D02*
X1860Y1571D01*
D02*
X1261Y1630D02*
X1261Y1571D01*
D02*
X2160Y1629D02*
X2160Y1571D01*
D02*
X2360Y1630D02*
X2360Y1571D01*
D02*
X2561Y1630D02*
X2561Y1571D01*
D02*
X1360Y679D02*
X1360Y736D01*
D02*
X1560Y679D02*
X1560Y736D01*
D02*
X1760Y679D02*
X1760Y736D01*
D02*
X1960Y679D02*
X1960Y736D01*
D02*
X3161Y679D02*
X3160Y736D01*
D02*
X3361Y679D02*
X3360Y736D01*
D02*
X3561Y679D02*
X3560Y736D01*
D02*
X3761Y679D02*
X3760Y736D01*
D02*
X2860Y679D02*
X2860Y736D01*
D02*
X2660Y679D02*
X2660Y736D01*
D02*
X2460Y679D02*
X2460Y736D01*
D02*
X2260Y679D02*
X2260Y736D01*
D02*
X260Y1916D02*
X261Y1678D01*
D02*
X261Y1678D02*
X7485Y1678D01*
D02*
X198Y1954D02*
X260Y1916D01*
D02*
X7485Y1678D02*
X7542Y1660D01*
D02*
X164Y1954D02*
X198Y1954D01*
D02*
X211Y354D02*
X164Y354D01*
D02*
X261Y404D02*
X211Y354D01*
D02*
X261Y1678D02*
X261Y404D01*
G54D18*
D02*
X6260Y1121D02*
X6260Y1021D01*
D02*
X5360Y1121D02*
X5360Y1021D01*
D02*
X5460Y1171D02*
X5460Y1021D01*
D02*
X4643Y1304D02*
X4578Y1304D01*
D02*
X4660Y1021D02*
X4660Y1286D01*
D02*
X5560Y1154D02*
X5470Y1289D01*
D02*
X5560Y1021D02*
X5560Y1154D01*
D02*
X6460Y1021D02*
X6460Y1286D01*
D02*
X7160Y1021D02*
X7160Y1121D01*
D02*
X6360Y1021D02*
X6360Y1171D01*
D02*
X4560Y1021D02*
X4560Y1171D01*
D02*
X7260Y1021D02*
X7260Y1171D01*
D02*
X4460Y1021D02*
X4460Y1121D01*
G54D17*
D02*
X7460Y1578D02*
X7460Y1303D01*
D02*
X7460Y1303D02*
X7541Y1304D01*
D02*
X7460Y1004D02*
X7460Y1303D01*
D02*
X7460Y1004D02*
X7378Y1004D01*
D02*
X7410Y1628D02*
X7460Y1578D01*
D02*
X7261Y1628D02*
X7410Y1628D01*
D02*
X7261Y1628D02*
X7261Y1570D01*
D02*
X7060Y1628D02*
X7261Y1628D01*
D02*
X7060Y1628D02*
X7060Y1570D01*
D02*
X6860Y1628D02*
X7060Y1628D01*
D02*
X6860Y1628D02*
X6860Y1570D01*
D02*
X6660Y1628D02*
X6860Y1628D01*
D02*
X6660Y1628D02*
X6661Y1570D01*
D02*
X6361Y1628D02*
X6660Y1628D01*
D02*
X6361Y1571D02*
X6361Y1628D01*
D02*
X6361Y1628D02*
X6161Y1628D01*
D02*
X6161Y1571D02*
X6161Y1628D01*
D02*
X6161Y1628D02*
X5960Y1628D01*
D02*
X5961Y1571D02*
X5960Y1628D01*
D02*
X5960Y1628D02*
X5760Y1628D01*
D02*
X5760Y1628D02*
X5461Y1628D01*
D02*
X5461Y1628D02*
X5261Y1628D01*
D02*
X5261Y1628D02*
X5061Y1628D01*
D02*
X5061Y1628D02*
X4860Y1628D01*
D02*
X5761Y1571D02*
X5760Y1628D01*
D02*
X5460Y1571D02*
X5461Y1628D01*
D02*
X5260Y1571D02*
X5261Y1628D01*
D02*
X4860Y1628D02*
X4560Y1628D01*
D02*
X4161Y1628D02*
X4361Y1628D01*
D02*
X3961Y1571D02*
X3961Y1630D01*
D02*
X3961Y1630D02*
X4161Y1628D01*
D02*
X5061Y1571D02*
X5061Y1628D01*
D02*
X4161Y1571D02*
X4161Y1628D01*
D02*
X4360Y1571D02*
X4361Y1628D01*
D02*
X4361Y1628D02*
X4560Y1628D01*
D02*
X4860Y1571D02*
X4860Y1628D01*
D02*
X4560Y1628D02*
X4560Y1571D01*
D02*
X7360Y678D02*
X7460Y679D01*
D02*
X7160Y678D02*
X7160Y736D01*
D02*
X6961Y678D02*
X7160Y678D01*
D02*
X6961Y678D02*
X6761Y678D01*
D02*
X7360Y678D02*
X7360Y736D01*
D02*
X7160Y678D02*
X7360Y678D01*
D02*
X6761Y678D02*
X6760Y736D01*
D02*
X7460Y769D02*
X7460Y1004D01*
D02*
X7460Y679D02*
X7460Y739D01*
D02*
X6461Y678D02*
X6260Y678D01*
D02*
X5861Y678D02*
X5561Y678D01*
D02*
X6060Y678D02*
X5861Y678D01*
D02*
X6260Y678D02*
X6060Y678D01*
D02*
X6461Y678D02*
X6460Y736D01*
D02*
X5861Y678D02*
X5860Y736D01*
D02*
X6761Y678D02*
X6461Y678D01*
D02*
X6260Y678D02*
X6260Y736D01*
D02*
X6060Y678D02*
X6060Y736D01*
D02*
X6960Y736D02*
X6961Y678D01*
D02*
X4460Y678D02*
X4260Y678D01*
D02*
X4661Y678D02*
X4460Y678D01*
D02*
X4961Y678D02*
X4661Y678D01*
D02*
X5160Y678D02*
X4961Y678D01*
D02*
X4961Y678D02*
X4960Y736D01*
D02*
X5561Y678D02*
X5560Y736D01*
D02*
X5360Y678D02*
X5160Y678D01*
D02*
X5561Y678D02*
X5360Y678D01*
D02*
X5160Y678D02*
X5160Y736D01*
D02*
X5360Y678D02*
X5360Y736D01*
D02*
X4661Y678D02*
X4661Y736D01*
D02*
X4460Y678D02*
X4460Y736D01*
D02*
X4260Y678D02*
X4260Y736D01*
D02*
X4260Y678D02*
X4058Y679D01*
D02*
X4058Y679D02*
X4060Y736D01*
G54D18*
D02*
X943Y1304D02*
X878Y1304D01*
D02*
X2861Y1228D02*
X2860Y1286D01*
D02*
X2722Y1228D02*
X2861Y1228D01*
D02*
X2861Y1228D02*
X2860Y1021D01*
D02*
X2671Y1290D02*
X2722Y1228D01*
D02*
X3711Y1228D02*
X3622Y1228D01*
D02*
X3622Y1228D02*
X3571Y1290D01*
D02*
X3761Y1179D02*
X3711Y1228D01*
D02*
X3760Y1021D02*
X3761Y1179D01*
D02*
X3561Y1121D02*
X3560Y1021D01*
D02*
X3660Y1171D02*
X3660Y1021D01*
D02*
X860Y1121D02*
X860Y1021D01*
D02*
X960Y1171D02*
X960Y1021D01*
D02*
X1923Y1229D02*
X1860Y1229D01*
D02*
X1860Y1229D02*
X1860Y1286D01*
D02*
X1843Y1304D02*
X1778Y1304D01*
D02*
X1961Y1179D02*
X1923Y1229D01*
D02*
X1960Y1021D02*
X1961Y1179D01*
D02*
X1861Y1167D02*
X1860Y1021D01*
D02*
X1760Y1121D02*
X1760Y1021D01*
D02*
X1060Y1021D02*
X1060Y1286D01*
D02*
X1043Y1304D02*
X978Y1304D01*
D02*
X2661Y1121D02*
X2660Y1021D01*
D02*
X2760Y1171D02*
X2760Y1021D01*
G54D17*
D02*
X661Y679D02*
X660Y736D01*
D02*
X860Y679D02*
X860Y736D01*
D02*
X1060Y679D02*
X1060Y736D01*
D02*
X1060Y679D02*
X860Y679D01*
D02*
X860Y679D02*
X661Y679D01*
D02*
X661Y679D02*
X461Y679D01*
D02*
X461Y679D02*
X461Y736D01*
D02*
X3761Y679D02*
X3561Y679D01*
D02*
X3561Y679D02*
X3361Y679D01*
D02*
X3361Y679D02*
X3161Y679D01*
D02*
X3161Y679D02*
X2860Y679D01*
D02*
X2860Y679D02*
X2660Y679D01*
D02*
X2660Y679D02*
X2460Y679D01*
D02*
X2460Y679D02*
X2260Y679D01*
D02*
X2260Y679D02*
X1960Y679D01*
D02*
X1960Y679D02*
X1760Y679D01*
D02*
X1760Y679D02*
X1560Y679D01*
D02*
X1560Y679D02*
X1360Y679D01*
D02*
X1360Y679D02*
X1060Y679D01*
D02*
X4058Y679D02*
X3761Y679D01*
G36*
X40Y2267D02*
X40Y2237D01*
X170Y2237D01*
X170Y2235D01*
X180Y2235D01*
X180Y2233D01*
X188Y2233D01*
X188Y2231D01*
X194Y2231D01*
X194Y2229D01*
X198Y2229D01*
X198Y2227D01*
X200Y2227D01*
X200Y2225D01*
X204Y2225D01*
X204Y2223D01*
X208Y2223D01*
X208Y2221D01*
X210Y2221D01*
X210Y2219D01*
X212Y2219D01*
X212Y2217D01*
X216Y2217D01*
X216Y2215D01*
X218Y2215D01*
X218Y2213D01*
X220Y2213D01*
X220Y2211D01*
X222Y2211D01*
X222Y2209D01*
X224Y2209D01*
X224Y2205D01*
X226Y2205D01*
X226Y2203D01*
X228Y2203D01*
X228Y2201D01*
X230Y2201D01*
X230Y2197D01*
X232Y2197D01*
X232Y2193D01*
X234Y2193D01*
X234Y2189D01*
X236Y2189D01*
X236Y2185D01*
X238Y2185D01*
X238Y2181D01*
X240Y2181D01*
X240Y2173D01*
X242Y2173D01*
X242Y2161D01*
X244Y2161D01*
X244Y2147D01*
X242Y2147D01*
X242Y2135D01*
X240Y2135D01*
X240Y2127D01*
X238Y2127D01*
X238Y2121D01*
X236Y2121D01*
X236Y2117D01*
X234Y2117D01*
X234Y2113D01*
X232Y2113D01*
X232Y2111D01*
X230Y2111D01*
X230Y2107D01*
X228Y2107D01*
X228Y2105D01*
X226Y2105D01*
X226Y2101D01*
X224Y2101D01*
X224Y2099D01*
X222Y2099D01*
X222Y2097D01*
X220Y2097D01*
X220Y2095D01*
X218Y2095D01*
X218Y2093D01*
X216Y2093D01*
X216Y2091D01*
X214Y2091D01*
X214Y2089D01*
X210Y2089D01*
X210Y2087D01*
X208Y2087D01*
X208Y2085D01*
X206Y2085D01*
X206Y2083D01*
X202Y2083D01*
X202Y2081D01*
X198Y2081D01*
X198Y2079D01*
X194Y2079D01*
X194Y2077D01*
X190Y2077D01*
X190Y2075D01*
X184Y2075D01*
X184Y2073D01*
X174Y2073D01*
X174Y2071D01*
X298Y2071D01*
X298Y2267D01*
X40Y2267D01*
G37*
D02*
G36*
X40Y2237D02*
X40Y2071D01*
X146Y2071D01*
X146Y2073D01*
X138Y2073D01*
X138Y2075D01*
X132Y2075D01*
X132Y2077D01*
X126Y2077D01*
X126Y2079D01*
X122Y2079D01*
X122Y2081D01*
X118Y2081D01*
X118Y2083D01*
X116Y2083D01*
X116Y2085D01*
X112Y2085D01*
X112Y2087D01*
X110Y2087D01*
X110Y2089D01*
X108Y2089D01*
X108Y2091D01*
X106Y2091D01*
X106Y2093D01*
X102Y2093D01*
X102Y2095D01*
X100Y2095D01*
X100Y2099D01*
X98Y2099D01*
X98Y2101D01*
X96Y2101D01*
X96Y2103D01*
X94Y2103D01*
X94Y2105D01*
X92Y2105D01*
X92Y2109D01*
X90Y2109D01*
X90Y2111D01*
X88Y2111D01*
X88Y2115D01*
X86Y2115D01*
X86Y2119D01*
X84Y2119D01*
X84Y2123D01*
X82Y2123D01*
X82Y2129D01*
X80Y2129D01*
X80Y2139D01*
X78Y2139D01*
X78Y2169D01*
X80Y2169D01*
X80Y2177D01*
X82Y2177D01*
X82Y2183D01*
X84Y2183D01*
X84Y2189D01*
X86Y2189D01*
X86Y2193D01*
X88Y2193D01*
X88Y2195D01*
X90Y2195D01*
X90Y2199D01*
X92Y2199D01*
X92Y2201D01*
X94Y2201D01*
X94Y2205D01*
X96Y2205D01*
X96Y2207D01*
X98Y2207D01*
X98Y2209D01*
X100Y2209D01*
X100Y2211D01*
X102Y2211D01*
X102Y2213D01*
X104Y2213D01*
X104Y2215D01*
X106Y2215D01*
X106Y2217D01*
X108Y2217D01*
X108Y2219D01*
X110Y2219D01*
X110Y2221D01*
X114Y2221D01*
X114Y2223D01*
X116Y2223D01*
X116Y2225D01*
X120Y2225D01*
X120Y2227D01*
X124Y2227D01*
X124Y2229D01*
X128Y2229D01*
X128Y2231D01*
X134Y2231D01*
X134Y2233D01*
X140Y2233D01*
X140Y2235D01*
X150Y2235D01*
X150Y2237D01*
X40Y2237D01*
G37*
D02*
G36*
X40Y2071D02*
X40Y2069D01*
X298Y2069D01*
X298Y2071D01*
X40Y2071D01*
G37*
D02*
G36*
X40Y2071D02*
X40Y2069D01*
X298Y2069D01*
X298Y2071D01*
X40Y2071D01*
G37*
D02*
G36*
X40Y2069D02*
X40Y2005D01*
X158Y2005D01*
X158Y2003D01*
X166Y2003D01*
X166Y2001D01*
X170Y2001D01*
X170Y1999D01*
X174Y1999D01*
X174Y1997D01*
X176Y1997D01*
X176Y1995D01*
X180Y1995D01*
X180Y1993D01*
X182Y1993D01*
X182Y1991D01*
X200Y1991D01*
X200Y1989D01*
X210Y1989D01*
X210Y1987D01*
X214Y1987D01*
X214Y1985D01*
X218Y1985D01*
X218Y1983D01*
X222Y1983D01*
X222Y1981D01*
X224Y1981D01*
X224Y1979D01*
X228Y1979D01*
X228Y1977D01*
X232Y1977D01*
X232Y1975D01*
X234Y1975D01*
X234Y1973D01*
X238Y1973D01*
X238Y1971D01*
X240Y1971D01*
X240Y1969D01*
X244Y1969D01*
X244Y1967D01*
X248Y1967D01*
X248Y1965D01*
X250Y1965D01*
X250Y1963D01*
X254Y1963D01*
X254Y1961D01*
X256Y1961D01*
X256Y1959D01*
X260Y1959D01*
X260Y1957D01*
X264Y1957D01*
X264Y1955D01*
X266Y1955D01*
X266Y1953D01*
X270Y1953D01*
X270Y1951D01*
X274Y1951D01*
X274Y1949D01*
X276Y1949D01*
X276Y1947D01*
X298Y1947D01*
X298Y2069D01*
X40Y2069D01*
G37*
D02*
G36*
X40Y2005D02*
X40Y1803D01*
X98Y1803D01*
X98Y1805D01*
X96Y1805D01*
X96Y1907D01*
X104Y1907D01*
X104Y1929D01*
X102Y1929D01*
X102Y1933D01*
X100Y1933D01*
X100Y1937D01*
X98Y1937D01*
X98Y1947D01*
X96Y1947D01*
X96Y1961D01*
X98Y1961D01*
X98Y1969D01*
X100Y1969D01*
X100Y1975D01*
X102Y1975D01*
X102Y1979D01*
X104Y1979D01*
X104Y1981D01*
X106Y1981D01*
X106Y1985D01*
X108Y1985D01*
X108Y1987D01*
X110Y1987D01*
X110Y1989D01*
X112Y1989D01*
X112Y1991D01*
X114Y1991D01*
X114Y1993D01*
X116Y1993D01*
X116Y1995D01*
X118Y1995D01*
X118Y1997D01*
X122Y1997D01*
X122Y1999D01*
X126Y1999D01*
X126Y2001D01*
X130Y2001D01*
X130Y2003D01*
X138Y2003D01*
X138Y2005D01*
X40Y2005D01*
G37*
D02*
G36*
X200Y1899D02*
X200Y1805D01*
X198Y1805D01*
X198Y1803D01*
X224Y1803D01*
X224Y1897D01*
X220Y1897D01*
X220Y1899D01*
X200Y1899D01*
G37*
D02*
G36*
X40Y1803D02*
X40Y1801D01*
X224Y1801D01*
X224Y1803D01*
X40Y1803D01*
G37*
D02*
G36*
X40Y1803D02*
X40Y1801D01*
X224Y1801D01*
X224Y1803D01*
X40Y1803D01*
G37*
D02*
G36*
X40Y1801D02*
X40Y1711D01*
X158Y1711D01*
X158Y1709D01*
X166Y1709D01*
X166Y1707D01*
X172Y1707D01*
X172Y1705D01*
X176Y1705D01*
X176Y1703D01*
X178Y1703D01*
X178Y1701D01*
X182Y1701D01*
X182Y1699D01*
X184Y1699D01*
X184Y1697D01*
X186Y1697D01*
X186Y1695D01*
X188Y1695D01*
X188Y1693D01*
X190Y1693D01*
X190Y1691D01*
X192Y1691D01*
X192Y1689D01*
X194Y1689D01*
X194Y1687D01*
X196Y1687D01*
X196Y1683D01*
X198Y1683D01*
X198Y1679D01*
X200Y1679D01*
X200Y1675D01*
X202Y1675D01*
X202Y1669D01*
X204Y1669D01*
X204Y1659D01*
X224Y1659D01*
X224Y1801D01*
X40Y1801D01*
G37*
D02*
G36*
X40Y1711D02*
X40Y1497D01*
X134Y1497D01*
X134Y1499D01*
X128Y1499D01*
X128Y1501D01*
X122Y1501D01*
X122Y1503D01*
X120Y1503D01*
X120Y1505D01*
X116Y1505D01*
X116Y1507D01*
X114Y1507D01*
X114Y1509D01*
X112Y1509D01*
X112Y1511D01*
X108Y1511D01*
X108Y1513D01*
X106Y1513D01*
X106Y1515D01*
X104Y1515D01*
X104Y1519D01*
X102Y1519D01*
X102Y1521D01*
X100Y1521D01*
X100Y1523D01*
X98Y1523D01*
X98Y1527D01*
X96Y1527D01*
X96Y1531D01*
X94Y1531D01*
X94Y1537D01*
X92Y1537D01*
X92Y1547D01*
X90Y1547D01*
X90Y1561D01*
X92Y1561D01*
X92Y1571D01*
X94Y1571D01*
X94Y1577D01*
X96Y1577D01*
X96Y1581D01*
X98Y1581D01*
X98Y1583D01*
X100Y1583D01*
X100Y1587D01*
X102Y1587D01*
X102Y1589D01*
X104Y1589D01*
X104Y1591D01*
X106Y1591D01*
X106Y1615D01*
X104Y1615D01*
X104Y1619D01*
X102Y1619D01*
X102Y1621D01*
X100Y1621D01*
X100Y1623D01*
X98Y1623D01*
X98Y1627D01*
X96Y1627D01*
X96Y1631D01*
X94Y1631D01*
X94Y1637D01*
X92Y1637D01*
X92Y1647D01*
X90Y1647D01*
X90Y1661D01*
X92Y1661D01*
X92Y1671D01*
X94Y1671D01*
X94Y1677D01*
X96Y1677D01*
X96Y1681D01*
X98Y1681D01*
X98Y1683D01*
X100Y1683D01*
X100Y1687D01*
X102Y1687D01*
X102Y1689D01*
X104Y1689D01*
X104Y1691D01*
X106Y1691D01*
X106Y1695D01*
X110Y1695D01*
X110Y1697D01*
X112Y1697D01*
X112Y1699D01*
X114Y1699D01*
X114Y1701D01*
X116Y1701D01*
X116Y1703D01*
X120Y1703D01*
X120Y1705D01*
X124Y1705D01*
X124Y1707D01*
X130Y1707D01*
X130Y1709D01*
X136Y1709D01*
X136Y1711D01*
X40Y1711D01*
G37*
D02*
G36*
X204Y1549D02*
X204Y1537D01*
X202Y1537D01*
X202Y1531D01*
X200Y1531D01*
X200Y1527D01*
X198Y1527D01*
X198Y1525D01*
X196Y1525D01*
X196Y1521D01*
X194Y1521D01*
X194Y1519D01*
X192Y1519D01*
X192Y1517D01*
X190Y1517D01*
X190Y1513D01*
X188Y1513D01*
X188Y1511D01*
X184Y1511D01*
X184Y1509D01*
X182Y1509D01*
X182Y1507D01*
X180Y1507D01*
X180Y1505D01*
X176Y1505D01*
X176Y1503D01*
X172Y1503D01*
X172Y1501D01*
X168Y1501D01*
X168Y1499D01*
X162Y1499D01*
X162Y1497D01*
X224Y1497D01*
X224Y1549D01*
X204Y1549D01*
G37*
D02*
G36*
X40Y1497D02*
X40Y1495D01*
X224Y1495D01*
X224Y1497D01*
X40Y1497D01*
G37*
D02*
G36*
X40Y1497D02*
X40Y1495D01*
X224Y1495D01*
X224Y1497D01*
X40Y1497D01*
G37*
D02*
G36*
X40Y1495D02*
X40Y1301D01*
X152Y1301D01*
X152Y1299D01*
X164Y1299D01*
X164Y1297D01*
X170Y1297D01*
X170Y1295D01*
X174Y1295D01*
X174Y1293D01*
X178Y1293D01*
X178Y1291D01*
X180Y1291D01*
X180Y1289D01*
X184Y1289D01*
X184Y1287D01*
X186Y1287D01*
X186Y1285D01*
X188Y1285D01*
X188Y1283D01*
X190Y1283D01*
X190Y1281D01*
X192Y1281D01*
X192Y1279D01*
X194Y1279D01*
X194Y1277D01*
X196Y1277D01*
X196Y1273D01*
X198Y1273D01*
X198Y1271D01*
X200Y1271D01*
X200Y1267D01*
X202Y1267D01*
X202Y1263D01*
X204Y1263D01*
X204Y1255D01*
X224Y1255D01*
X224Y1495D01*
X40Y1495D01*
G37*
D02*
G36*
X40Y1301D02*
X40Y983D01*
X134Y983D01*
X134Y985D01*
X128Y985D01*
X128Y987D01*
X122Y987D01*
X122Y989D01*
X118Y989D01*
X118Y991D01*
X116Y991D01*
X116Y993D01*
X112Y993D01*
X112Y995D01*
X110Y995D01*
X110Y997D01*
X108Y997D01*
X108Y999D01*
X106Y999D01*
X106Y1001D01*
X104Y1001D01*
X104Y1003D01*
X102Y1003D01*
X102Y1005D01*
X100Y1005D01*
X100Y1009D01*
X98Y1009D01*
X98Y1011D01*
X96Y1011D01*
X96Y1015D01*
X94Y1015D01*
X94Y1019D01*
X92Y1019D01*
X92Y1027D01*
X90Y1027D01*
X90Y1039D01*
X88Y1039D01*
X88Y1043D01*
X90Y1043D01*
X90Y1057D01*
X92Y1057D01*
X92Y1063D01*
X94Y1063D01*
X94Y1067D01*
X96Y1067D01*
X96Y1071D01*
X98Y1071D01*
X98Y1073D01*
X100Y1073D01*
X100Y1077D01*
X102Y1077D01*
X102Y1079D01*
X104Y1079D01*
X104Y1081D01*
X106Y1081D01*
X106Y1101D01*
X104Y1101D01*
X104Y1103D01*
X102Y1103D01*
X102Y1105D01*
X100Y1105D01*
X100Y1109D01*
X98Y1109D01*
X98Y1111D01*
X96Y1111D01*
X96Y1115D01*
X94Y1115D01*
X94Y1119D01*
X92Y1119D01*
X92Y1127D01*
X90Y1127D01*
X90Y1139D01*
X88Y1139D01*
X88Y1143D01*
X90Y1143D01*
X90Y1157D01*
X92Y1157D01*
X92Y1163D01*
X94Y1163D01*
X94Y1167D01*
X96Y1167D01*
X96Y1171D01*
X98Y1171D01*
X98Y1173D01*
X100Y1173D01*
X100Y1177D01*
X102Y1177D01*
X102Y1179D01*
X104Y1179D01*
X104Y1181D01*
X106Y1181D01*
X106Y1201D01*
X104Y1201D01*
X104Y1203D01*
X102Y1203D01*
X102Y1205D01*
X100Y1205D01*
X100Y1209D01*
X98Y1209D01*
X98Y1211D01*
X96Y1211D01*
X96Y1215D01*
X94Y1215D01*
X94Y1219D01*
X92Y1219D01*
X92Y1227D01*
X90Y1227D01*
X90Y1239D01*
X88Y1239D01*
X88Y1243D01*
X90Y1243D01*
X90Y1257D01*
X92Y1257D01*
X92Y1263D01*
X94Y1263D01*
X94Y1267D01*
X96Y1267D01*
X96Y1271D01*
X98Y1271D01*
X98Y1273D01*
X100Y1273D01*
X100Y1277D01*
X102Y1277D01*
X102Y1279D01*
X104Y1279D01*
X104Y1281D01*
X106Y1281D01*
X106Y1283D01*
X108Y1283D01*
X108Y1285D01*
X110Y1285D01*
X110Y1287D01*
X112Y1287D01*
X112Y1289D01*
X114Y1289D01*
X114Y1291D01*
X118Y1291D01*
X118Y1293D01*
X122Y1293D01*
X122Y1295D01*
X126Y1295D01*
X126Y1297D01*
X132Y1297D01*
X132Y1299D01*
X144Y1299D01*
X144Y1301D01*
X40Y1301D01*
G37*
D02*
G36*
X204Y1027D02*
X204Y1021D01*
X202Y1021D01*
X202Y1015D01*
X200Y1015D01*
X200Y1013D01*
X198Y1013D01*
X198Y1009D01*
X196Y1009D01*
X196Y1007D01*
X194Y1007D01*
X194Y1003D01*
X192Y1003D01*
X192Y1001D01*
X190Y1001D01*
X190Y999D01*
X188Y999D01*
X188Y997D01*
X186Y997D01*
X186Y995D01*
X182Y995D01*
X182Y993D01*
X180Y993D01*
X180Y991D01*
X176Y991D01*
X176Y989D01*
X174Y989D01*
X174Y987D01*
X168Y987D01*
X168Y985D01*
X162Y985D01*
X162Y983D01*
X224Y983D01*
X224Y1027D01*
X204Y1027D01*
G37*
D02*
G36*
X40Y983D02*
X40Y981D01*
X224Y981D01*
X224Y983D01*
X40Y983D01*
G37*
D02*
G36*
X40Y983D02*
X40Y981D01*
X224Y981D01*
X224Y983D01*
X40Y983D01*
G37*
D02*
G36*
X40Y981D02*
X40Y811D01*
X158Y811D01*
X158Y809D01*
X166Y809D01*
X166Y807D01*
X172Y807D01*
X172Y805D01*
X176Y805D01*
X176Y803D01*
X178Y803D01*
X178Y801D01*
X182Y801D01*
X182Y799D01*
X184Y799D01*
X184Y797D01*
X186Y797D01*
X186Y795D01*
X188Y795D01*
X188Y793D01*
X190Y793D01*
X190Y791D01*
X192Y791D01*
X192Y789D01*
X194Y789D01*
X194Y787D01*
X196Y787D01*
X196Y783D01*
X198Y783D01*
X198Y779D01*
X200Y779D01*
X200Y775D01*
X202Y775D01*
X202Y769D01*
X204Y769D01*
X204Y759D01*
X224Y759D01*
X224Y981D01*
X40Y981D01*
G37*
D02*
G36*
X40Y811D02*
X40Y597D01*
X134Y597D01*
X134Y599D01*
X128Y599D01*
X128Y601D01*
X122Y601D01*
X122Y603D01*
X120Y603D01*
X120Y605D01*
X116Y605D01*
X116Y607D01*
X114Y607D01*
X114Y609D01*
X112Y609D01*
X112Y611D01*
X108Y611D01*
X108Y613D01*
X106Y613D01*
X106Y615D01*
X104Y615D01*
X104Y619D01*
X102Y619D01*
X102Y621D01*
X100Y621D01*
X100Y623D01*
X98Y623D01*
X98Y627D01*
X96Y627D01*
X96Y631D01*
X94Y631D01*
X94Y637D01*
X92Y637D01*
X92Y647D01*
X90Y647D01*
X90Y661D01*
X92Y661D01*
X92Y671D01*
X94Y671D01*
X94Y677D01*
X96Y677D01*
X96Y681D01*
X98Y681D01*
X98Y683D01*
X100Y683D01*
X100Y687D01*
X102Y687D01*
X102Y689D01*
X104Y689D01*
X104Y691D01*
X106Y691D01*
X106Y715D01*
X104Y715D01*
X104Y719D01*
X102Y719D01*
X102Y721D01*
X100Y721D01*
X100Y723D01*
X98Y723D01*
X98Y727D01*
X96Y727D01*
X96Y731D01*
X94Y731D01*
X94Y737D01*
X92Y737D01*
X92Y747D01*
X90Y747D01*
X90Y761D01*
X92Y761D01*
X92Y771D01*
X94Y771D01*
X94Y777D01*
X96Y777D01*
X96Y781D01*
X98Y781D01*
X98Y783D01*
X100Y783D01*
X100Y787D01*
X102Y787D01*
X102Y789D01*
X104Y789D01*
X104Y791D01*
X106Y791D01*
X106Y795D01*
X110Y795D01*
X110Y797D01*
X112Y797D01*
X112Y799D01*
X114Y799D01*
X114Y801D01*
X116Y801D01*
X116Y803D01*
X120Y803D01*
X120Y805D01*
X124Y805D01*
X124Y807D01*
X130Y807D01*
X130Y809D01*
X136Y809D01*
X136Y811D01*
X40Y811D01*
G37*
D02*
G36*
X204Y649D02*
X204Y637D01*
X202Y637D01*
X202Y631D01*
X200Y631D01*
X200Y627D01*
X198Y627D01*
X198Y625D01*
X196Y625D01*
X196Y621D01*
X194Y621D01*
X194Y619D01*
X192Y619D01*
X192Y617D01*
X190Y617D01*
X190Y613D01*
X188Y613D01*
X188Y611D01*
X184Y611D01*
X184Y609D01*
X182Y609D01*
X182Y607D01*
X180Y607D01*
X180Y605D01*
X176Y605D01*
X176Y603D01*
X172Y603D01*
X172Y601D01*
X168Y601D01*
X168Y599D01*
X162Y599D01*
X162Y597D01*
X224Y597D01*
X224Y649D01*
X204Y649D01*
G37*
D02*
G36*
X40Y597D02*
X40Y595D01*
X224Y595D01*
X224Y597D01*
X40Y597D01*
G37*
D02*
G36*
X40Y597D02*
X40Y595D01*
X224Y595D01*
X224Y597D01*
X40Y597D01*
G37*
D02*
G36*
X40Y595D02*
X40Y503D01*
X200Y503D01*
X200Y413D01*
X220Y413D01*
X220Y415D01*
X222Y415D01*
X222Y417D01*
X224Y417D01*
X224Y595D01*
X40Y595D01*
G37*
D02*
G36*
X40Y503D02*
X40Y303D01*
X136Y303D01*
X136Y305D01*
X128Y305D01*
X128Y307D01*
X124Y307D01*
X124Y309D01*
X122Y309D01*
X122Y311D01*
X118Y311D01*
X118Y313D01*
X116Y313D01*
X116Y315D01*
X114Y315D01*
X114Y317D01*
X110Y317D01*
X110Y321D01*
X108Y321D01*
X108Y323D01*
X106Y323D01*
X106Y325D01*
X104Y325D01*
X104Y329D01*
X102Y329D01*
X102Y333D01*
X100Y333D01*
X100Y337D01*
X98Y337D01*
X98Y347D01*
X96Y347D01*
X96Y361D01*
X98Y361D01*
X98Y369D01*
X100Y369D01*
X100Y375D01*
X102Y375D01*
X102Y379D01*
X104Y379D01*
X104Y381D01*
X106Y381D01*
X106Y401D01*
X96Y401D01*
X96Y503D01*
X40Y503D01*
G37*
D02*
G36*
X256Y349D02*
X256Y347D01*
X254Y347D01*
X254Y345D01*
X252Y345D01*
X252Y343D01*
X250Y343D01*
X250Y341D01*
X248Y341D01*
X248Y339D01*
X246Y339D01*
X246Y337D01*
X244Y337D01*
X244Y335D01*
X242Y335D01*
X242Y333D01*
X240Y333D01*
X240Y331D01*
X238Y331D01*
X238Y329D01*
X236Y329D01*
X236Y327D01*
X232Y327D01*
X232Y325D01*
X230Y325D01*
X230Y323D01*
X226Y323D01*
X226Y321D01*
X222Y321D01*
X222Y319D01*
X188Y319D01*
X188Y317D01*
X182Y317D01*
X182Y315D01*
X180Y315D01*
X180Y313D01*
X178Y313D01*
X178Y311D01*
X174Y311D01*
X174Y309D01*
X172Y309D01*
X172Y307D01*
X168Y307D01*
X168Y305D01*
X160Y305D01*
X160Y303D01*
X276Y303D01*
X276Y349D01*
X256Y349D01*
G37*
D02*
G36*
X40Y303D02*
X40Y301D01*
X276Y301D01*
X276Y303D01*
X40Y303D01*
G37*
D02*
G36*
X40Y303D02*
X40Y301D01*
X276Y301D01*
X276Y303D01*
X40Y303D01*
G37*
D02*
G36*
X40Y301D02*
X40Y237D01*
X170Y237D01*
X170Y235D01*
X180Y235D01*
X180Y233D01*
X188Y233D01*
X188Y231D01*
X194Y231D01*
X194Y229D01*
X198Y229D01*
X198Y227D01*
X200Y227D01*
X200Y225D01*
X204Y225D01*
X204Y223D01*
X208Y223D01*
X208Y221D01*
X210Y221D01*
X210Y219D01*
X212Y219D01*
X212Y217D01*
X216Y217D01*
X216Y215D01*
X218Y215D01*
X218Y213D01*
X220Y213D01*
X220Y211D01*
X222Y211D01*
X222Y209D01*
X224Y209D01*
X224Y205D01*
X226Y205D01*
X226Y203D01*
X228Y203D01*
X228Y201D01*
X230Y201D01*
X230Y197D01*
X232Y197D01*
X232Y193D01*
X234Y193D01*
X234Y189D01*
X236Y189D01*
X236Y185D01*
X238Y185D01*
X238Y181D01*
X240Y181D01*
X240Y173D01*
X242Y173D01*
X242Y161D01*
X244Y161D01*
X244Y147D01*
X242Y147D01*
X242Y135D01*
X240Y135D01*
X240Y127D01*
X238Y127D01*
X238Y121D01*
X236Y121D01*
X236Y117D01*
X234Y117D01*
X234Y113D01*
X232Y113D01*
X232Y111D01*
X230Y111D01*
X230Y107D01*
X228Y107D01*
X228Y105D01*
X226Y105D01*
X226Y101D01*
X224Y101D01*
X224Y99D01*
X222Y99D01*
X222Y97D01*
X220Y97D01*
X220Y95D01*
X218Y95D01*
X218Y93D01*
X216Y93D01*
X216Y91D01*
X214Y91D01*
X214Y89D01*
X210Y89D01*
X210Y87D01*
X208Y87D01*
X208Y85D01*
X206Y85D01*
X206Y83D01*
X202Y83D01*
X202Y81D01*
X198Y81D01*
X198Y79D01*
X194Y79D01*
X194Y77D01*
X190Y77D01*
X190Y75D01*
X182Y75D01*
X182Y73D01*
X174Y73D01*
X174Y71D01*
X276Y71D01*
X276Y301D01*
X40Y301D01*
G37*
D02*
G36*
X40Y237D02*
X40Y71D01*
X146Y71D01*
X146Y73D01*
X138Y73D01*
X138Y75D01*
X132Y75D01*
X132Y77D01*
X126Y77D01*
X126Y79D01*
X122Y79D01*
X122Y81D01*
X118Y81D01*
X118Y83D01*
X116Y83D01*
X116Y85D01*
X112Y85D01*
X112Y87D01*
X110Y87D01*
X110Y89D01*
X108Y89D01*
X108Y91D01*
X106Y91D01*
X106Y93D01*
X102Y93D01*
X102Y95D01*
X100Y95D01*
X100Y99D01*
X98Y99D01*
X98Y101D01*
X96Y101D01*
X96Y103D01*
X94Y103D01*
X94Y105D01*
X92Y105D01*
X92Y109D01*
X90Y109D01*
X90Y111D01*
X88Y111D01*
X88Y115D01*
X86Y115D01*
X86Y119D01*
X84Y119D01*
X84Y123D01*
X82Y123D01*
X82Y129D01*
X80Y129D01*
X80Y139D01*
X78Y139D01*
X78Y169D01*
X80Y169D01*
X80Y177D01*
X82Y177D01*
X82Y183D01*
X84Y183D01*
X84Y189D01*
X86Y189D01*
X86Y193D01*
X88Y193D01*
X88Y195D01*
X90Y195D01*
X90Y199D01*
X92Y199D01*
X92Y201D01*
X94Y201D01*
X94Y205D01*
X96Y205D01*
X96Y207D01*
X98Y207D01*
X98Y209D01*
X100Y209D01*
X100Y211D01*
X102Y211D01*
X102Y213D01*
X104Y213D01*
X104Y215D01*
X106Y215D01*
X106Y217D01*
X108Y217D01*
X108Y219D01*
X110Y219D01*
X110Y221D01*
X114Y221D01*
X114Y223D01*
X116Y223D01*
X116Y225D01*
X120Y225D01*
X120Y227D01*
X124Y227D01*
X124Y229D01*
X128Y229D01*
X128Y231D01*
X134Y231D01*
X134Y233D01*
X140Y233D01*
X140Y235D01*
X150Y235D01*
X150Y237D01*
X40Y237D01*
G37*
D02*
G36*
X40Y71D02*
X40Y69D01*
X276Y69D01*
X276Y71D01*
X40Y71D01*
G37*
D02*
G36*
X40Y71D02*
X40Y69D01*
X276Y69D01*
X276Y71D01*
X40Y71D01*
G37*
D02*
G36*
X40Y69D02*
X40Y41D01*
X276Y41D01*
X276Y69D01*
X40Y69D01*
G37*
D02*
G36*
X7430Y2267D02*
X7430Y2237D01*
X7570Y2237D01*
X7570Y2235D01*
X7580Y2235D01*
X7580Y2233D01*
X7588Y2233D01*
X7588Y2231D01*
X7594Y2231D01*
X7594Y2229D01*
X7598Y2229D01*
X7598Y2227D01*
X7600Y2227D01*
X7600Y2225D01*
X7604Y2225D01*
X7604Y2223D01*
X7608Y2223D01*
X7608Y2221D01*
X7610Y2221D01*
X7610Y2219D01*
X7612Y2219D01*
X7612Y2217D01*
X7616Y2217D01*
X7616Y2215D01*
X7618Y2215D01*
X7618Y2213D01*
X7620Y2213D01*
X7620Y2211D01*
X7622Y2211D01*
X7622Y2209D01*
X7624Y2209D01*
X7624Y2205D01*
X7626Y2205D01*
X7626Y2203D01*
X7628Y2203D01*
X7628Y2201D01*
X7630Y2201D01*
X7630Y2197D01*
X7632Y2197D01*
X7632Y2193D01*
X7634Y2193D01*
X7634Y2189D01*
X7636Y2189D01*
X7636Y2185D01*
X7638Y2185D01*
X7638Y2181D01*
X7640Y2181D01*
X7640Y2173D01*
X7642Y2173D01*
X7642Y2161D01*
X7644Y2161D01*
X7644Y2147D01*
X7642Y2147D01*
X7642Y2135D01*
X7640Y2135D01*
X7640Y2127D01*
X7638Y2127D01*
X7638Y2121D01*
X7636Y2121D01*
X7636Y2117D01*
X7634Y2117D01*
X7634Y2113D01*
X7632Y2113D01*
X7632Y2111D01*
X7630Y2111D01*
X7630Y2107D01*
X7628Y2107D01*
X7628Y2105D01*
X7626Y2105D01*
X7626Y2101D01*
X7624Y2101D01*
X7624Y2099D01*
X7622Y2099D01*
X7622Y2097D01*
X7620Y2097D01*
X7620Y2095D01*
X7618Y2095D01*
X7618Y2093D01*
X7616Y2093D01*
X7616Y2091D01*
X7614Y2091D01*
X7614Y2089D01*
X7610Y2089D01*
X7610Y2087D01*
X7608Y2087D01*
X7608Y2085D01*
X7606Y2085D01*
X7606Y2083D01*
X7602Y2083D01*
X7602Y2081D01*
X7598Y2081D01*
X7598Y2079D01*
X7594Y2079D01*
X7594Y2077D01*
X7590Y2077D01*
X7590Y2075D01*
X7584Y2075D01*
X7584Y2073D01*
X7574Y2073D01*
X7574Y2071D01*
X7676Y2071D01*
X7676Y2267D01*
X7430Y2267D01*
G37*
D02*
G36*
X7430Y2237D02*
X7430Y2071D01*
X7546Y2071D01*
X7546Y2073D01*
X7538Y2073D01*
X7538Y2075D01*
X7532Y2075D01*
X7532Y2077D01*
X7526Y2077D01*
X7526Y2079D01*
X7522Y2079D01*
X7522Y2081D01*
X7518Y2081D01*
X7518Y2083D01*
X7516Y2083D01*
X7516Y2085D01*
X7512Y2085D01*
X7512Y2087D01*
X7510Y2087D01*
X7510Y2089D01*
X7508Y2089D01*
X7508Y2091D01*
X7506Y2091D01*
X7506Y2093D01*
X7502Y2093D01*
X7502Y2095D01*
X7500Y2095D01*
X7500Y2099D01*
X7498Y2099D01*
X7498Y2101D01*
X7496Y2101D01*
X7496Y2103D01*
X7494Y2103D01*
X7494Y2105D01*
X7492Y2105D01*
X7492Y2109D01*
X7490Y2109D01*
X7490Y2111D01*
X7488Y2111D01*
X7488Y2115D01*
X7486Y2115D01*
X7486Y2119D01*
X7484Y2119D01*
X7484Y2123D01*
X7482Y2123D01*
X7482Y2129D01*
X7480Y2129D01*
X7480Y2139D01*
X7478Y2139D01*
X7478Y2169D01*
X7480Y2169D01*
X7480Y2177D01*
X7482Y2177D01*
X7482Y2183D01*
X7484Y2183D01*
X7484Y2189D01*
X7486Y2189D01*
X7486Y2193D01*
X7488Y2193D01*
X7488Y2195D01*
X7490Y2195D01*
X7490Y2199D01*
X7492Y2199D01*
X7492Y2201D01*
X7494Y2201D01*
X7494Y2205D01*
X7496Y2205D01*
X7496Y2207D01*
X7498Y2207D01*
X7498Y2209D01*
X7500Y2209D01*
X7500Y2211D01*
X7502Y2211D01*
X7502Y2213D01*
X7504Y2213D01*
X7504Y2215D01*
X7506Y2215D01*
X7506Y2217D01*
X7508Y2217D01*
X7508Y2219D01*
X7510Y2219D01*
X7510Y2221D01*
X7514Y2221D01*
X7514Y2223D01*
X7516Y2223D01*
X7516Y2225D01*
X7520Y2225D01*
X7520Y2227D01*
X7524Y2227D01*
X7524Y2229D01*
X7528Y2229D01*
X7528Y2231D01*
X7534Y2231D01*
X7534Y2233D01*
X7540Y2233D01*
X7540Y2235D01*
X7550Y2235D01*
X7550Y2237D01*
X7430Y2237D01*
G37*
D02*
G36*
X7430Y2071D02*
X7430Y2069D01*
X7676Y2069D01*
X7676Y2071D01*
X7430Y2071D01*
G37*
D02*
G36*
X7430Y2071D02*
X7430Y2069D01*
X7676Y2069D01*
X7676Y2071D01*
X7430Y2071D01*
G37*
D02*
G36*
X7430Y2069D02*
X7430Y1913D01*
X7568Y1913D01*
X7568Y1911D01*
X7578Y1911D01*
X7578Y1909D01*
X7584Y1909D01*
X7584Y1907D01*
X7588Y1907D01*
X7588Y1905D01*
X7590Y1905D01*
X7590Y1903D01*
X7594Y1903D01*
X7594Y1901D01*
X7596Y1901D01*
X7596Y1899D01*
X7598Y1899D01*
X7598Y1897D01*
X7602Y1897D01*
X7602Y1895D01*
X7604Y1895D01*
X7604Y1891D01*
X7606Y1891D01*
X7606Y1889D01*
X7608Y1889D01*
X7608Y1887D01*
X7610Y1887D01*
X7610Y1883D01*
X7612Y1883D01*
X7612Y1881D01*
X7614Y1881D01*
X7614Y1875D01*
X7616Y1875D01*
X7616Y1869D01*
X7618Y1869D01*
X7618Y1859D01*
X7620Y1859D01*
X7620Y1849D01*
X7618Y1849D01*
X7618Y1837D01*
X7616Y1837D01*
X7616Y1831D01*
X7614Y1831D01*
X7614Y1827D01*
X7612Y1827D01*
X7612Y1823D01*
X7610Y1823D01*
X7610Y1821D01*
X7608Y1821D01*
X7608Y1819D01*
X7606Y1819D01*
X7606Y1815D01*
X7604Y1815D01*
X7604Y1791D01*
X7606Y1791D01*
X7606Y1789D01*
X7608Y1789D01*
X7608Y1787D01*
X7610Y1787D01*
X7610Y1783D01*
X7612Y1783D01*
X7612Y1781D01*
X7614Y1781D01*
X7614Y1775D01*
X7616Y1775D01*
X7616Y1769D01*
X7618Y1769D01*
X7618Y1759D01*
X7620Y1759D01*
X7620Y1749D01*
X7618Y1749D01*
X7618Y1737D01*
X7616Y1737D01*
X7616Y1731D01*
X7614Y1731D01*
X7614Y1727D01*
X7612Y1727D01*
X7612Y1723D01*
X7610Y1723D01*
X7610Y1721D01*
X7608Y1721D01*
X7608Y1719D01*
X7606Y1719D01*
X7606Y1715D01*
X7604Y1715D01*
X7604Y1691D01*
X7606Y1691D01*
X7606Y1689D01*
X7608Y1689D01*
X7608Y1687D01*
X7610Y1687D01*
X7610Y1683D01*
X7612Y1683D01*
X7612Y1681D01*
X7614Y1681D01*
X7614Y1675D01*
X7616Y1675D01*
X7616Y1669D01*
X7618Y1669D01*
X7618Y1659D01*
X7620Y1659D01*
X7620Y1649D01*
X7618Y1649D01*
X7618Y1637D01*
X7616Y1637D01*
X7616Y1631D01*
X7614Y1631D01*
X7614Y1627D01*
X7612Y1627D01*
X7612Y1623D01*
X7610Y1623D01*
X7610Y1621D01*
X7608Y1621D01*
X7608Y1619D01*
X7606Y1619D01*
X7606Y1615D01*
X7604Y1615D01*
X7604Y1613D01*
X7602Y1613D01*
X7602Y1611D01*
X7600Y1611D01*
X7600Y1609D01*
X7598Y1609D01*
X7598Y1607D01*
X7594Y1607D01*
X7594Y1605D01*
X7592Y1605D01*
X7592Y1603D01*
X7588Y1603D01*
X7588Y1601D01*
X7584Y1601D01*
X7584Y1599D01*
X7580Y1599D01*
X7580Y1597D01*
X7572Y1597D01*
X7572Y1595D01*
X7676Y1595D01*
X7676Y2069D01*
X7430Y2069D01*
G37*
D02*
G36*
X7430Y1913D02*
X7430Y1797D01*
X7370Y1797D01*
X7370Y1795D01*
X7518Y1795D01*
X7518Y1815D01*
X7516Y1815D01*
X7516Y1817D01*
X7514Y1817D01*
X7514Y1819D01*
X7512Y1819D01*
X7512Y1821D01*
X7510Y1821D01*
X7510Y1825D01*
X7508Y1825D01*
X7508Y1829D01*
X7506Y1829D01*
X7506Y1833D01*
X7504Y1833D01*
X7504Y1841D01*
X7502Y1841D01*
X7502Y1867D01*
X7504Y1867D01*
X7504Y1873D01*
X7506Y1873D01*
X7506Y1879D01*
X7508Y1879D01*
X7508Y1883D01*
X7510Y1883D01*
X7510Y1885D01*
X7512Y1885D01*
X7512Y1889D01*
X7514Y1889D01*
X7514Y1891D01*
X7516Y1891D01*
X7516Y1893D01*
X7518Y1893D01*
X7518Y1895D01*
X7520Y1895D01*
X7520Y1897D01*
X7522Y1897D01*
X7522Y1899D01*
X7524Y1899D01*
X7524Y1901D01*
X7526Y1901D01*
X7526Y1903D01*
X7530Y1903D01*
X7530Y1905D01*
X7534Y1905D01*
X7534Y1907D01*
X7538Y1907D01*
X7538Y1909D01*
X7544Y1909D01*
X7544Y1911D01*
X7552Y1911D01*
X7552Y1913D01*
X7430Y1913D01*
G37*
D02*
G36*
X296Y1797D02*
X296Y1795D01*
X5758Y1795D01*
X5758Y1797D01*
X296Y1797D01*
G37*
D02*
G36*
X5764Y1797D02*
X5764Y1795D01*
X5858Y1795D01*
X5858Y1797D01*
X5764Y1797D01*
G37*
D02*
G36*
X5864Y1797D02*
X5864Y1795D01*
X5958Y1795D01*
X5958Y1797D01*
X5864Y1797D01*
G37*
D02*
G36*
X5964Y1797D02*
X5964Y1795D01*
X6058Y1795D01*
X6058Y1797D01*
X5964Y1797D01*
G37*
D02*
G36*
X6064Y1797D02*
X6064Y1795D01*
X6158Y1795D01*
X6158Y1797D01*
X6064Y1797D01*
G37*
D02*
G36*
X6164Y1797D02*
X6164Y1795D01*
X6258Y1795D01*
X6258Y1797D01*
X6164Y1797D01*
G37*
D02*
G36*
X6264Y1797D02*
X6264Y1795D01*
X6358Y1795D01*
X6358Y1797D01*
X6264Y1797D01*
G37*
D02*
G36*
X6364Y1797D02*
X6364Y1795D01*
X6458Y1795D01*
X6458Y1797D01*
X6364Y1797D01*
G37*
D02*
G36*
X6464Y1797D02*
X6464Y1795D01*
X6650Y1795D01*
X6650Y1797D01*
X6464Y1797D01*
G37*
D02*
G36*
X6670Y1797D02*
X6670Y1795D01*
X6750Y1795D01*
X6750Y1797D01*
X6670Y1797D01*
G37*
D02*
G36*
X6770Y1797D02*
X6770Y1795D01*
X6850Y1795D01*
X6850Y1797D01*
X6770Y1797D01*
G37*
D02*
G36*
X6870Y1797D02*
X6870Y1795D01*
X6950Y1795D01*
X6950Y1797D01*
X6870Y1797D01*
G37*
D02*
G36*
X6970Y1797D02*
X6970Y1795D01*
X7050Y1795D01*
X7050Y1797D01*
X6970Y1797D01*
G37*
D02*
G36*
X7070Y1797D02*
X7070Y1795D01*
X7150Y1795D01*
X7150Y1797D01*
X7070Y1797D01*
G37*
D02*
G36*
X7170Y1797D02*
X7170Y1795D01*
X7250Y1795D01*
X7250Y1797D01*
X7170Y1797D01*
G37*
D02*
G36*
X7270Y1797D02*
X7270Y1795D01*
X7350Y1795D01*
X7350Y1797D01*
X7270Y1797D01*
G37*
D02*
G36*
X296Y1795D02*
X296Y1793D01*
X7518Y1793D01*
X7518Y1795D01*
X296Y1795D01*
G37*
D02*
G36*
X296Y1795D02*
X296Y1793D01*
X7518Y1793D01*
X7518Y1795D01*
X296Y1795D01*
G37*
D02*
G36*
X296Y1795D02*
X296Y1793D01*
X7518Y1793D01*
X7518Y1795D01*
X296Y1795D01*
G37*
D02*
G36*
X296Y1795D02*
X296Y1793D01*
X7518Y1793D01*
X7518Y1795D01*
X296Y1795D01*
G37*
D02*
G36*
X296Y1795D02*
X296Y1793D01*
X7518Y1793D01*
X7518Y1795D01*
X296Y1795D01*
G37*
D02*
G36*
X296Y1795D02*
X296Y1793D01*
X7518Y1793D01*
X7518Y1795D01*
X296Y1795D01*
G37*
D02*
G36*
X296Y1795D02*
X296Y1793D01*
X7518Y1793D01*
X7518Y1795D01*
X296Y1795D01*
G37*
D02*
G36*
X296Y1795D02*
X296Y1793D01*
X7518Y1793D01*
X7518Y1795D01*
X296Y1795D01*
G37*
D02*
G36*
X296Y1795D02*
X296Y1793D01*
X7518Y1793D01*
X7518Y1795D01*
X296Y1795D01*
G37*
D02*
G36*
X296Y1795D02*
X296Y1793D01*
X7518Y1793D01*
X7518Y1795D01*
X296Y1795D01*
G37*
D02*
G36*
X296Y1795D02*
X296Y1793D01*
X7518Y1793D01*
X7518Y1795D01*
X296Y1795D01*
G37*
D02*
G36*
X296Y1795D02*
X296Y1793D01*
X7518Y1793D01*
X7518Y1795D01*
X296Y1795D01*
G37*
D02*
G36*
X296Y1795D02*
X296Y1793D01*
X7518Y1793D01*
X7518Y1795D01*
X296Y1795D01*
G37*
D02*
G36*
X296Y1795D02*
X296Y1793D01*
X7518Y1793D01*
X7518Y1795D01*
X296Y1795D01*
G37*
D02*
G36*
X296Y1795D02*
X296Y1793D01*
X7518Y1793D01*
X7518Y1795D01*
X296Y1795D01*
G37*
D02*
G36*
X296Y1795D02*
X296Y1793D01*
X7518Y1793D01*
X7518Y1795D01*
X296Y1795D01*
G37*
D02*
G36*
X296Y1795D02*
X296Y1793D01*
X7518Y1793D01*
X7518Y1795D01*
X296Y1795D01*
G37*
D02*
G36*
X296Y1793D02*
X296Y1715D01*
X7508Y1715D01*
X7508Y1729D01*
X7506Y1729D01*
X7506Y1733D01*
X7504Y1733D01*
X7504Y1741D01*
X7502Y1741D01*
X7502Y1767D01*
X7504Y1767D01*
X7504Y1773D01*
X7506Y1773D01*
X7506Y1779D01*
X7508Y1779D01*
X7508Y1783D01*
X7510Y1783D01*
X7510Y1785D01*
X7512Y1785D01*
X7512Y1789D01*
X7514Y1789D01*
X7514Y1791D01*
X7516Y1791D01*
X7516Y1793D01*
X296Y1793D01*
G37*
D02*
G36*
X7504Y1609D02*
X7504Y1595D01*
X7548Y1595D01*
X7548Y1597D01*
X7542Y1597D01*
X7542Y1599D01*
X7536Y1599D01*
X7536Y1601D01*
X7532Y1601D01*
X7532Y1603D01*
X7528Y1603D01*
X7528Y1605D01*
X7526Y1605D01*
X7526Y1607D01*
X7524Y1607D01*
X7524Y1609D01*
X7504Y1609D01*
G37*
D02*
G36*
X7504Y1595D02*
X7504Y1593D01*
X7676Y1593D01*
X7676Y1595D01*
X7504Y1595D01*
G37*
D02*
G36*
X7504Y1595D02*
X7504Y1593D01*
X7676Y1593D01*
X7676Y1595D01*
X7504Y1595D01*
G37*
D02*
G36*
X7504Y1593D02*
X7504Y1363D01*
X7568Y1363D01*
X7568Y1361D01*
X7578Y1361D01*
X7578Y1359D01*
X7584Y1359D01*
X7584Y1357D01*
X7588Y1357D01*
X7588Y1355D01*
X7590Y1355D01*
X7590Y1353D01*
X7594Y1353D01*
X7594Y1351D01*
X7596Y1351D01*
X7596Y1349D01*
X7598Y1349D01*
X7598Y1347D01*
X7602Y1347D01*
X7602Y1345D01*
X7604Y1345D01*
X7604Y1341D01*
X7606Y1341D01*
X7606Y1339D01*
X7608Y1339D01*
X7608Y1337D01*
X7610Y1337D01*
X7610Y1333D01*
X7612Y1333D01*
X7612Y1331D01*
X7614Y1331D01*
X7614Y1325D01*
X7616Y1325D01*
X7616Y1319D01*
X7618Y1319D01*
X7618Y1309D01*
X7620Y1309D01*
X7620Y1299D01*
X7618Y1299D01*
X7618Y1287D01*
X7616Y1287D01*
X7616Y1281D01*
X7614Y1281D01*
X7614Y1277D01*
X7612Y1277D01*
X7612Y1273D01*
X7610Y1273D01*
X7610Y1271D01*
X7608Y1271D01*
X7608Y1269D01*
X7606Y1269D01*
X7606Y1265D01*
X7604Y1265D01*
X7604Y1241D01*
X7606Y1241D01*
X7606Y1239D01*
X7608Y1239D01*
X7608Y1237D01*
X7610Y1237D01*
X7610Y1233D01*
X7612Y1233D01*
X7612Y1231D01*
X7614Y1231D01*
X7614Y1225D01*
X7616Y1225D01*
X7616Y1219D01*
X7618Y1219D01*
X7618Y1209D01*
X7620Y1209D01*
X7620Y1199D01*
X7618Y1199D01*
X7618Y1187D01*
X7616Y1187D01*
X7616Y1181D01*
X7614Y1181D01*
X7614Y1177D01*
X7612Y1177D01*
X7612Y1173D01*
X7610Y1173D01*
X7610Y1171D01*
X7608Y1171D01*
X7608Y1169D01*
X7606Y1169D01*
X7606Y1165D01*
X7604Y1165D01*
X7604Y1141D01*
X7606Y1141D01*
X7606Y1139D01*
X7608Y1139D01*
X7608Y1137D01*
X7610Y1137D01*
X7610Y1133D01*
X7612Y1133D01*
X7612Y1131D01*
X7614Y1131D01*
X7614Y1125D01*
X7616Y1125D01*
X7616Y1119D01*
X7618Y1119D01*
X7618Y1109D01*
X7620Y1109D01*
X7620Y1099D01*
X7618Y1099D01*
X7618Y1087D01*
X7616Y1087D01*
X7616Y1081D01*
X7614Y1081D01*
X7614Y1077D01*
X7612Y1077D01*
X7612Y1073D01*
X7610Y1073D01*
X7610Y1071D01*
X7608Y1071D01*
X7608Y1069D01*
X7606Y1069D01*
X7606Y1065D01*
X7604Y1065D01*
X7604Y1041D01*
X7606Y1041D01*
X7606Y1039D01*
X7608Y1039D01*
X7608Y1037D01*
X7610Y1037D01*
X7610Y1033D01*
X7612Y1033D01*
X7612Y1031D01*
X7614Y1031D01*
X7614Y1025D01*
X7616Y1025D01*
X7616Y1019D01*
X7618Y1019D01*
X7618Y1009D01*
X7620Y1009D01*
X7620Y999D01*
X7618Y999D01*
X7618Y987D01*
X7616Y987D01*
X7616Y981D01*
X7614Y981D01*
X7614Y977D01*
X7612Y977D01*
X7612Y973D01*
X7610Y973D01*
X7610Y971D01*
X7608Y971D01*
X7608Y969D01*
X7606Y969D01*
X7606Y965D01*
X7604Y965D01*
X7604Y963D01*
X7602Y963D01*
X7602Y961D01*
X7600Y961D01*
X7600Y959D01*
X7598Y959D01*
X7598Y957D01*
X7594Y957D01*
X7594Y955D01*
X7592Y955D01*
X7592Y953D01*
X7588Y953D01*
X7588Y951D01*
X7584Y951D01*
X7584Y949D01*
X7580Y949D01*
X7580Y947D01*
X7572Y947D01*
X7572Y945D01*
X7676Y945D01*
X7676Y1593D01*
X7504Y1593D01*
G37*
D02*
G36*
X7504Y1363D02*
X7504Y1349D01*
X7524Y1349D01*
X7524Y1351D01*
X7526Y1351D01*
X7526Y1353D01*
X7530Y1353D01*
X7530Y1355D01*
X7534Y1355D01*
X7534Y1357D01*
X7538Y1357D01*
X7538Y1359D01*
X7544Y1359D01*
X7544Y1361D01*
X7552Y1361D01*
X7552Y1363D01*
X7504Y1363D01*
G37*
D02*
G36*
X7504Y959D02*
X7504Y945D01*
X7548Y945D01*
X7548Y947D01*
X7542Y947D01*
X7542Y949D01*
X7536Y949D01*
X7536Y951D01*
X7532Y951D01*
X7532Y953D01*
X7528Y953D01*
X7528Y955D01*
X7526Y955D01*
X7526Y957D01*
X7524Y957D01*
X7524Y959D01*
X7504Y959D01*
G37*
D02*
G36*
X7504Y945D02*
X7504Y943D01*
X7676Y943D01*
X7676Y945D01*
X7504Y945D01*
G37*
D02*
G36*
X7504Y945D02*
X7504Y943D01*
X7676Y943D01*
X7676Y945D01*
X7504Y945D01*
G37*
D02*
G36*
X7504Y943D02*
X7504Y785D01*
X7506Y785D01*
X7506Y783D01*
X7508Y783D01*
X7508Y779D01*
X7510Y779D01*
X7510Y775D01*
X7512Y775D01*
X7512Y769D01*
X7514Y769D01*
X7514Y759D01*
X7516Y759D01*
X7516Y749D01*
X7514Y749D01*
X7514Y739D01*
X7512Y739D01*
X7512Y733D01*
X7510Y733D01*
X7510Y729D01*
X7508Y729D01*
X7508Y725D01*
X7506Y725D01*
X7506Y721D01*
X7504Y721D01*
X7504Y623D01*
X7506Y623D01*
X7506Y619D01*
X7508Y619D01*
X7508Y617D01*
X7510Y617D01*
X7510Y613D01*
X7512Y613D01*
X7512Y607D01*
X7514Y607D01*
X7514Y597D01*
X7516Y597D01*
X7516Y585D01*
X7514Y585D01*
X7514Y575D01*
X7512Y575D01*
X7512Y569D01*
X7510Y569D01*
X7510Y567D01*
X7508Y567D01*
X7508Y563D01*
X7506Y563D01*
X7506Y559D01*
X7504Y559D01*
X7504Y557D01*
X7502Y557D01*
X7502Y555D01*
X7500Y555D01*
X7500Y553D01*
X7498Y553D01*
X7498Y551D01*
X7496Y551D01*
X7496Y549D01*
X7494Y549D01*
X7494Y547D01*
X7492Y547D01*
X7492Y545D01*
X7488Y545D01*
X7488Y543D01*
X7484Y543D01*
X7484Y541D01*
X7480Y541D01*
X7480Y539D01*
X7474Y539D01*
X7474Y537D01*
X7648Y537D01*
X7648Y539D01*
X7640Y539D01*
X7640Y541D01*
X7636Y541D01*
X7636Y543D01*
X7632Y543D01*
X7632Y545D01*
X7630Y545D01*
X7630Y547D01*
X7626Y547D01*
X7626Y549D01*
X7624Y549D01*
X7624Y551D01*
X7622Y551D01*
X7622Y553D01*
X7620Y553D01*
X7620Y555D01*
X7618Y555D01*
X7618Y557D01*
X7616Y557D01*
X7616Y561D01*
X7614Y561D01*
X7614Y563D01*
X7612Y563D01*
X7612Y567D01*
X7610Y567D01*
X7610Y571D01*
X7608Y571D01*
X7608Y579D01*
X7606Y579D01*
X7606Y603D01*
X7608Y603D01*
X7608Y611D01*
X7610Y611D01*
X7610Y615D01*
X7612Y615D01*
X7612Y619D01*
X7614Y619D01*
X7614Y621D01*
X7616Y621D01*
X7616Y625D01*
X7618Y625D01*
X7618Y627D01*
X7620Y627D01*
X7620Y629D01*
X7622Y629D01*
X7622Y631D01*
X7624Y631D01*
X7624Y633D01*
X7626Y633D01*
X7626Y635D01*
X7628Y635D01*
X7628Y637D01*
X7632Y637D01*
X7632Y639D01*
X7636Y639D01*
X7636Y641D01*
X7640Y641D01*
X7640Y643D01*
X7646Y643D01*
X7646Y645D01*
X7656Y645D01*
X7656Y647D01*
X7676Y647D01*
X7676Y699D01*
X7650Y699D01*
X7650Y701D01*
X7642Y701D01*
X7642Y703D01*
X7638Y703D01*
X7638Y705D01*
X7634Y705D01*
X7634Y707D01*
X7630Y707D01*
X7630Y709D01*
X7628Y709D01*
X7628Y711D01*
X7626Y711D01*
X7626Y713D01*
X7622Y713D01*
X7622Y715D01*
X7620Y715D01*
X7620Y717D01*
X7618Y717D01*
X7618Y721D01*
X7616Y721D01*
X7616Y723D01*
X7614Y723D01*
X7614Y727D01*
X7612Y727D01*
X7612Y729D01*
X7610Y729D01*
X7610Y735D01*
X7608Y735D01*
X7608Y741D01*
X7606Y741D01*
X7606Y767D01*
X7608Y767D01*
X7608Y773D01*
X7610Y773D01*
X7610Y777D01*
X7612Y777D01*
X7612Y781D01*
X7614Y781D01*
X7614Y785D01*
X7616Y785D01*
X7616Y787D01*
X7618Y787D01*
X7618Y789D01*
X7620Y789D01*
X7620Y791D01*
X7622Y791D01*
X7622Y793D01*
X7624Y793D01*
X7624Y795D01*
X7626Y795D01*
X7626Y797D01*
X7628Y797D01*
X7628Y799D01*
X7632Y799D01*
X7632Y801D01*
X7634Y801D01*
X7634Y803D01*
X7638Y803D01*
X7638Y805D01*
X7644Y805D01*
X7644Y807D01*
X7652Y807D01*
X7652Y809D01*
X7676Y809D01*
X7676Y943D01*
X7504Y943D01*
G37*
D02*
G36*
X296Y633D02*
X296Y537D01*
X7448Y537D01*
X7448Y539D01*
X7440Y539D01*
X7440Y541D01*
X7436Y541D01*
X7436Y543D01*
X7432Y543D01*
X7432Y545D01*
X7430Y545D01*
X7430Y547D01*
X7426Y547D01*
X7426Y549D01*
X7424Y549D01*
X7424Y551D01*
X7422Y551D01*
X7422Y553D01*
X7420Y553D01*
X7420Y555D01*
X7418Y555D01*
X7418Y557D01*
X7416Y557D01*
X7416Y561D01*
X7414Y561D01*
X7414Y563D01*
X7412Y563D01*
X7412Y567D01*
X7410Y567D01*
X7410Y571D01*
X7408Y571D01*
X7408Y579D01*
X7406Y579D01*
X7406Y603D01*
X7408Y603D01*
X7408Y611D01*
X7410Y611D01*
X7410Y633D01*
X296Y633D01*
G37*
D02*
G36*
X296Y537D02*
X296Y535D01*
X7676Y535D01*
X7676Y537D01*
X296Y537D01*
G37*
D02*
G36*
X296Y537D02*
X296Y535D01*
X7676Y535D01*
X7676Y537D01*
X296Y537D01*
G37*
D02*
G36*
X296Y535D02*
X296Y521D01*
X7424Y521D01*
X7424Y519D01*
X7426Y519D01*
X7426Y237D01*
X7570Y237D01*
X7570Y235D01*
X7580Y235D01*
X7580Y233D01*
X7588Y233D01*
X7588Y231D01*
X7594Y231D01*
X7594Y229D01*
X7598Y229D01*
X7598Y227D01*
X7600Y227D01*
X7600Y225D01*
X7604Y225D01*
X7604Y223D01*
X7608Y223D01*
X7608Y221D01*
X7610Y221D01*
X7610Y219D01*
X7612Y219D01*
X7612Y217D01*
X7616Y217D01*
X7616Y215D01*
X7618Y215D01*
X7618Y213D01*
X7620Y213D01*
X7620Y211D01*
X7622Y211D01*
X7622Y209D01*
X7624Y209D01*
X7624Y205D01*
X7626Y205D01*
X7626Y203D01*
X7628Y203D01*
X7628Y201D01*
X7630Y201D01*
X7630Y197D01*
X7632Y197D01*
X7632Y193D01*
X7634Y193D01*
X7634Y189D01*
X7636Y189D01*
X7636Y185D01*
X7638Y185D01*
X7638Y181D01*
X7640Y181D01*
X7640Y173D01*
X7642Y173D01*
X7642Y161D01*
X7644Y161D01*
X7644Y147D01*
X7642Y147D01*
X7642Y135D01*
X7640Y135D01*
X7640Y127D01*
X7638Y127D01*
X7638Y121D01*
X7636Y121D01*
X7636Y117D01*
X7634Y117D01*
X7634Y113D01*
X7632Y113D01*
X7632Y111D01*
X7630Y111D01*
X7630Y107D01*
X7628Y107D01*
X7628Y105D01*
X7626Y105D01*
X7626Y101D01*
X7624Y101D01*
X7624Y99D01*
X7622Y99D01*
X7622Y97D01*
X7620Y97D01*
X7620Y95D01*
X7618Y95D01*
X7618Y93D01*
X7616Y93D01*
X7616Y91D01*
X7614Y91D01*
X7614Y89D01*
X7610Y89D01*
X7610Y87D01*
X7608Y87D01*
X7608Y85D01*
X7606Y85D01*
X7606Y83D01*
X7602Y83D01*
X7602Y81D01*
X7598Y81D01*
X7598Y79D01*
X7594Y79D01*
X7594Y77D01*
X7590Y77D01*
X7590Y75D01*
X7582Y75D01*
X7582Y73D01*
X7574Y73D01*
X7574Y71D01*
X7676Y71D01*
X7676Y535D01*
X296Y535D01*
G37*
D02*
G36*
X7426Y237D02*
X7426Y71D01*
X7546Y71D01*
X7546Y73D01*
X7538Y73D01*
X7538Y75D01*
X7532Y75D01*
X7532Y77D01*
X7526Y77D01*
X7526Y79D01*
X7522Y79D01*
X7522Y81D01*
X7518Y81D01*
X7518Y83D01*
X7516Y83D01*
X7516Y85D01*
X7512Y85D01*
X7512Y87D01*
X7510Y87D01*
X7510Y89D01*
X7508Y89D01*
X7508Y91D01*
X7506Y91D01*
X7506Y93D01*
X7502Y93D01*
X7502Y95D01*
X7500Y95D01*
X7500Y99D01*
X7498Y99D01*
X7498Y101D01*
X7496Y101D01*
X7496Y103D01*
X7494Y103D01*
X7494Y105D01*
X7492Y105D01*
X7492Y109D01*
X7490Y109D01*
X7490Y111D01*
X7488Y111D01*
X7488Y115D01*
X7486Y115D01*
X7486Y119D01*
X7484Y119D01*
X7484Y123D01*
X7482Y123D01*
X7482Y129D01*
X7480Y129D01*
X7480Y139D01*
X7478Y139D01*
X7478Y169D01*
X7480Y169D01*
X7480Y177D01*
X7482Y177D01*
X7482Y183D01*
X7484Y183D01*
X7484Y189D01*
X7486Y189D01*
X7486Y193D01*
X7488Y193D01*
X7488Y195D01*
X7490Y195D01*
X7490Y199D01*
X7492Y199D01*
X7492Y201D01*
X7494Y201D01*
X7494Y205D01*
X7496Y205D01*
X7496Y207D01*
X7498Y207D01*
X7498Y209D01*
X7500Y209D01*
X7500Y211D01*
X7502Y211D01*
X7502Y213D01*
X7504Y213D01*
X7504Y215D01*
X7506Y215D01*
X7506Y217D01*
X7508Y217D01*
X7508Y219D01*
X7510Y219D01*
X7510Y221D01*
X7514Y221D01*
X7514Y223D01*
X7516Y223D01*
X7516Y225D01*
X7520Y225D01*
X7520Y227D01*
X7524Y227D01*
X7524Y229D01*
X7528Y229D01*
X7528Y231D01*
X7534Y231D01*
X7534Y233D01*
X7540Y233D01*
X7540Y235D01*
X7550Y235D01*
X7550Y237D01*
X7426Y237D01*
G37*
D02*
G36*
X7426Y71D02*
X7426Y69D01*
X7676Y69D01*
X7676Y71D01*
X7426Y71D01*
G37*
D02*
G36*
X7426Y71D02*
X7426Y69D01*
X7676Y69D01*
X7676Y71D01*
X7426Y71D01*
G37*
D02*
G36*
X7426Y69D02*
X7426Y41D01*
X7676Y41D01*
X7676Y69D01*
X7426Y69D01*
G37*
D02*
G04 End of Copper1*
M02*