; NON-PLATED HOLES START AT T1
; THROUGH (PLATED) HOLES START AT T100
M48
INCH
T1C0.125984
T100C0.031497
T101C0.035000
T102C0.038000
T103C0.015748
%
T1
X075603Y021538
X001603Y001538
X075603Y001538
X001603Y021538
T100
X001478Y004522
X001478Y018553
X001478Y003538
X001478Y019538
T101
X059607Y015533
X026603Y013038
X010603Y015538
X013603Y019538
X012603Y010038
X057603Y008788
X072605Y018525
X003603Y018538
X003603Y004538
X007603Y007538
X009603Y002538
X048603Y003538
X019603Y015538
X042603Y019538
X053603Y015538
X064603Y004538
X057603Y004538
X063603Y014288
X021603Y014288
X013603Y018538
X012603Y002538
X003603Y015538
X033603Y004538
X071603Y014288
X068603Y008788
X026603Y018538
X071600Y004534
X004603Y019538
X037603Y013038
X004603Y013038
X010603Y010038
X060603Y019538
X006603Y013038
X066603Y002538
X073600Y007534
X068600Y007534
X015603Y013038
X041603Y004538
X068603Y002538
X048603Y015538
X039603Y007538
X071603Y019538
X022603Y013038
X070603Y002538
X042603Y004538
X041603Y010038
X023603Y004538
X018603Y003538
X018603Y007538
X051603Y013038
X024603Y013038
X046603Y004538
X035603Y007538
X016603Y008788
X001478Y009788
X017603Y008788
X057607Y015533
X018603Y018538
X052603Y015538
X003603Y013038
X037603Y008788
X060607Y018533
X057603Y007538
X023603Y013038
X064603Y014288
X059603Y003538
X051603Y019538
X067603Y014288
X004603Y014288
X008603Y020538
X042603Y008788
X064603Y020538
X069605Y018525
X050603Y008788
X025603Y010038
X061603Y013038
X007603Y013038
X014603Y007538
X045603Y003538
X064603Y008788
X010603Y007538
X009603Y015538
X042603Y018538
X025603Y007538
X054603Y014288
X025603Y015538
X022603Y008788
X022603Y020538
X037603Y007538
X014603Y002538
X055603Y010038
X050603Y015538
X023603Y015538
X053603Y013038
X018603Y008788
X053603Y019538
X045603Y018538
X061603Y008788
X054603Y007538
X016603Y002538
X055603Y019538
X040603Y010038
X009603Y003538
X024603Y020538
X034603Y008788
X043603Y007538
X059603Y010038
X043603Y010038
X060603Y013038
X027603Y003538
X050603Y002538
X032603Y008788
X008603Y015538
X042603Y007538
X045603Y013038
X012603Y003538
X068605Y018525
X035603Y014288
X027603Y014288
X042603Y014288
X009603Y014288
X051603Y020538
X021603Y004538
X018603Y014288
X028603Y019538
X049603Y019538
X019603Y007538
X054603Y018538
X021603Y007538
X043603Y018538
X068605Y015525
X069603Y019538
X044603Y019538
X024603Y007538
X040603Y018538
X054603Y013038
X028603Y013038
X014603Y013038
X059603Y014288
X010603Y018538
X040603Y015538
X058603Y007538
X008603Y018538
X067603Y019538
X027603Y015538
X051603Y010038
X039603Y013038
X060603Y007538
X062603Y010038
X048603Y014288
X052603Y002538
X048603Y013038
X073603Y020538
X041603Y002538
X062607Y018533
X033603Y007538
X019603Y019538
X022603Y015538
X008603Y008788
X044603Y008788
X022603Y007538
X041603Y018538
X036603Y002538
X070600Y007534
X036603Y010038
X035603Y018538
X061607Y015533
X064607Y015533
X026603Y010038
X016603Y018538
X013603Y015538
X035603Y004538
X036603Y015538
X070603Y013038
X036603Y007538
X034603Y013038
X034603Y018538
X010603Y013038
X032603Y003538
X028603Y020538
X003603Y008788
X063603Y010038
X023603Y008788
X041603Y014288
X005603Y008788
X015603Y010038
X017603Y014288
X037603Y014288
X021603Y015538
X013603Y004538
X067600Y004534
X032603Y014288
X040603Y019538
X053603Y020538
X052603Y007538
X058603Y004538
X067603Y008788
X006603Y004538
X005603Y018538
X030603Y013038
X027603Y018538
X046603Y010038
X004603Y008788
X064603Y010038
X062603Y019538
X064603Y019538
X037603Y020538
X004603Y010038
X031603Y018538
X025603Y018538
X066603Y014288
X063607Y018533
X015603Y004538
X069603Y014288
X028603Y010038
X012603Y004538
X007603Y010038
X034603Y002538
X035603Y010038
X012603Y008788
X030603Y008788
X041603Y008788
X060603Y014288
X044603Y007538
X028603Y007538
X063607Y015533
X021603Y018538
X057603Y003538
X023603Y003538
X030603Y014288
X035603Y020538
X049603Y020538
X070605Y018525
X008603Y004538
X036603Y018538
X023603Y018538
X045603Y004538
X031603Y013038
X005603Y004538
X008603Y014288
X054603Y010038
X008603Y010038
X060603Y008788
X022603Y014288
X039603Y010038
X058603Y014288
X031603Y010038
X032603Y010038
X004603Y015538
X007603Y018538
X004603Y007538
X071603Y010038
X026603Y007538
X033603Y013038
X057603Y002538
X012603Y018538
X040603Y014288
X034603Y015538
X073603Y010038
X027603Y008788
X013603Y014288
X039603Y015538
X046603Y013038
X024603Y004538
X055603Y014288
X051603Y004538
X039603Y008788
X030603Y010038
X018603Y002538
X049603Y010038
X023603Y014288
X033603Y008788
X060603Y004538
X010603Y014288
X043603Y002538
X064603Y007538
X042603Y015538
X021603Y010038
X013603Y010038
X024603Y008788
X058603Y019538
X049603Y008788
X049603Y007538
X052603Y004538
X031603Y014288
X026603Y020538
X032603Y004538
X015603Y019538
X061603Y003538
X004603Y020538
X006603Y014288
X025603Y014288
X072600Y004534
X046603Y018538
X062603Y008788
X025603Y013038
X069603Y010038
X019603Y018538
X069600Y007534
X030603Y004538
X058607Y018533
X072603Y003538
X027603Y010038
X025603Y008788
X069603Y013038
X037603Y004538
X061603Y014288
X019603Y004538
X030603Y007538
X044603Y013038
X066600Y004534
X045603Y002538
X041603Y003538
X048603Y018538
X066603Y010038
X049603Y014288
X050603Y013038
X057607Y018533
X026603Y014288
X027603Y002538
X017603Y013038
X046603Y007538
X072603Y002538
X067605Y015525
X024603Y018538
X064603Y013038
X059603Y002538
X061603Y007538
X036603Y004538
X017603Y007538
X040603Y013038
X016603Y015538
X034603Y014288
X053603Y008788
X004603Y004538
X049603Y013038
X014603Y010038
X066605Y015525
X035603Y019538
X051603Y014288
X058607Y015533
X073603Y008788
X072603Y010038
X023603Y010038
X009603Y007538
X058603Y020538
X072603Y014288
X062603Y013038
X001478Y013038
X025603Y003538
X073603Y013038
X054603Y004538
X046603Y014288
X006603Y010038
X022603Y004538
X034603Y004538
X057603Y014288
X057603Y013038
X012603Y013038
X067603Y020538
X013603Y008788
X028603Y018538
X034603Y007538
X016603Y010038
X057603Y010038
X051603Y007538
X030603Y003538
X024603Y015538
X026603Y019538
X070728Y008788
X048603Y008788
X032603Y013038
X066603Y013038
X003603Y010038
X073603Y019538
X023603Y007538
X025603Y004538
X050603Y004538
X051603Y015538
X063603Y002538
X062607Y015533
X001478Y017038
X007603Y003538
X003603Y003538
X008603Y013038
X013603Y007538
X071605Y015525
X010603Y008788
X072603Y013038
X039603Y018538
X039603Y003538
X070600Y004534
X027603Y004538
X042603Y020538
X007603Y002538
X044603Y020538
X059603Y004538
X070603Y010038
X026603Y004538
X015603Y018538
X052603Y013038
X055603Y013038
X061607Y018533
X048603Y004538
X066603Y008788
X042603Y013038
X045603Y015538
X073603Y014288
X022603Y018538
X009603Y010038
X036603Y013038
X066600Y007534
X015603Y007538
X032603Y018538
X060603Y020538
X036603Y014288
X033603Y019538
X063603Y007538
X006603Y015538
X031603Y019538
X006603Y018538
X031603Y015538
X028603Y004538
X034603Y003538
X043603Y015538
X037603Y010038
X066603Y003538
X073605Y018525
X070603Y003538
X055603Y020538
X021603Y002538
X028603Y014288
X040603Y008788
X005603Y003538
X016603Y003538
X071605Y018525
X017603Y004538
X054603Y015538
X052603Y018538
X071728Y008788
X061603Y004538
X071603Y013038
X052603Y003538
X071600Y007534
X009603Y004538
X060607Y015533
X004603Y018538
X062603Y004538
X005603Y010038
X069600Y004534
X055603Y015538
X006603Y008788
X019603Y013038
X014603Y008788
X005603Y007538
X067605Y018525
X031603Y008788
X018603Y004538
X059607Y018533
X003603Y014288
X017603Y015538
X006603Y020538
X043603Y014288
X066605Y018525
X016603Y014288
X053603Y018538
X006603Y007538
X046603Y008788
X035603Y015538
X012603Y007538
X030603Y015538
X009603Y013038
X024603Y019538
X025603Y002538
X073605Y015525
X041603Y013038
X049603Y015538
X007603Y014288
X022603Y019538
X053603Y004538
X027603Y013038
X044603Y015538
X007603Y015538
X032603Y015538
X031603Y004538
X068603Y013038
X042603Y010038
X054603Y008788
X058603Y008788
X031603Y007538
X071603Y020538
X039603Y002538
X063603Y008788
X006603Y019538
X043603Y008788
X032603Y002538
X053603Y010038
X068603Y014288
X022603Y010038
X021603Y008788
X052603Y014288
X007603Y004538
X045603Y008788
X040603Y004538
X041603Y007538
X050603Y014288
X059603Y007538
X068603Y010038
X068603Y003538
X015603Y020538
X050603Y010038
X014603Y004538
X059603Y008788
X010603Y004538
X050603Y007538
X030603Y018538
X070605Y015525
X063603Y004538
X028603Y015538
X045603Y010038
X039603Y014288
X015603Y008788
X051603Y008788
X015603Y015538
X031603Y020538
X021603Y013038
X058603Y010038
X018603Y010038
X030603Y002538
X055603Y008788
X034603Y010038
X062603Y007538
X037603Y015538
X007603Y008788
X036603Y008788
X017603Y020538
X048603Y007538
X023603Y002538
X016603Y004538
X024603Y014288
X060603Y010038
X044603Y014288
X035603Y008788
X033603Y014288
X072600Y007534
X061603Y002538
X009603Y008788
X032603Y007538
X014603Y014288
X017603Y018538
X010603Y019538
X040603Y007538
X014603Y018538
X044603Y004538
X005603Y015538
X005603Y002538
X069603Y020538
X064607Y018533
X026603Y015538
X027603Y007538
X048603Y010038
X041603Y015538
X052603Y008788
X019603Y020538
X045603Y007538
X068600Y004534
X073600Y004534
X001478Y005788
X052603Y010038
X018603Y015538
X050603Y018538
X014603Y003538
X019603Y008788
X036603Y003538
X040603Y020538
X054603Y002538
X016603Y013038
X067603Y010038
X024603Y010038
X016603Y007538
X046603Y019538
X013603Y020538
X062603Y020538
X061603Y010038
X055603Y018538
X050603Y003538
X005603Y013038
X012603Y015538
X072605Y015525
X048603Y002538
X043603Y004538
X055603Y007538
X039603Y004538
X063603Y013038
X014603Y015538
X015603Y014288
X033603Y020538
X053603Y014288
X049603Y004538
X043603Y003538
X069603Y008788
X045603Y014288
X005603Y014288
X067600Y007534
X010603Y020538
X051603Y018538
X055603Y004538
X003603Y002538
X009603Y018538
X017603Y010038
X049603Y018538
X018603Y013038
X021603Y003538
X044603Y018538
X037603Y018538
X046603Y020538
X028603Y008788
X053603Y007538
X070603Y014288
X059603Y013038
X069605Y015525
X033603Y018538
X013603Y013038
X037603Y019538
X067603Y013038
X046603Y015538
X058603Y013038
X026603Y008788
X019603Y010038
X008603Y019538
X054603Y003538
X012603Y014288
X033603Y015538
X035603Y013038
X008603Y007538
X044603Y010038
X062603Y014288
X003603Y007538
X072603Y008788
X017603Y019538
X063603Y003538
X019603Y014288
X043603Y013038
X033603Y010038
T102
X051728Y021788
X059603Y021788
X052603Y001288
X033603Y001288
X049728Y021788
X044603Y021788
X064603Y001288
X019603Y001288
X032603Y001288
X057603Y021788
X058603Y021788
X014603Y001288
X013603Y001288
X037603Y021788
X008603Y001288
X003603Y001288
X069603Y001288
X027603Y001288
X008603Y021788
X063603Y021788
X028603Y001288
X041603Y021788
X013603Y021788
X004603Y001288
X061603Y021788
X017603Y001288
X053603Y001288
X060603Y001288
X001478Y010913
X007603Y021788
X018603Y021788
X048603Y001288
X054603Y001288
X059603Y001288
X003603Y021788
X062603Y021788
X040603Y001288
X021603Y021788
X014603Y021788
X024603Y021788
X040603Y021788
X019603Y021788
X012603Y001288
X037603Y001288
X023603Y021788
X039603Y001288
X005603Y001288
X053728Y021788
X018603Y001288
X042603Y021788
X055603Y001288
X060603Y021788
X001478Y011913
X024603Y001288
X035603Y001288
X072603Y001288
X031603Y001288
X036603Y021788
X043603Y001288
X026603Y021788
X022603Y021788
X075603Y018538
X016603Y021788
X025603Y001288
X015603Y021788
X058603Y001288
X004603Y021788
X072603Y021788
X075603Y016538
X035603Y021788
X022603Y001288
X064603Y021788
X016603Y001288
X066603Y021788
X028603Y021788
X030603Y021788
X069603Y021788
X025603Y021788
X045603Y001288
X050603Y001288
X067603Y001288
X071603Y021788
X023603Y001288
X044603Y001288
X075603Y012038
X039603Y021788
X070603Y021788
X045603Y021788
X007603Y001288
X009603Y001288
X033603Y021788
X009603Y021788
X066603Y001288
X067603Y021788
X057603Y001288
X017603Y021788
X052728Y021788
X075603Y017538
X015603Y001288
X034603Y021788
X062603Y001288
X012603Y021788
X054728Y021788
X041603Y001288
X071603Y001288
X010603Y001288
X073603Y021788
X026603Y001288
X063603Y001288
X068603Y001288
X075603Y011038
X021603Y001288
X068603Y021788
X049603Y001288
X075603Y013038
X031603Y021788
X061603Y001288
X036603Y001288
X073603Y001288
X046603Y001288
X010603Y021788
X006603Y021788
X055728Y021788
X043603Y021788
X006603Y001288
X046603Y021788
X034603Y001288
X032603Y021788
X005603Y021788
X070603Y001288
X048728Y021788
X042603Y001288
X051603Y001288
X075603Y010038
X050728Y021788
X030603Y001288
X027603Y021788
T103
X063603Y011788
X036599Y011787
X053603Y011288
X018614Y011753
X009603Y011788
X027598Y011787
X072603Y011788
X017603Y011288
X045601Y011790
X026605Y011291
X044604Y011291
X071603Y011288
X054603Y011788
X035606Y011291
X062603Y011285
X008603Y011288
T00
M30
