G04 MADE WITH FRITZING*
G04 WWW.FRITZING.ORG*
G04 DOUBLE SIDED*
G04 HOLES PLATED*
G04 CONTOUR ON CENTER OF CONTOUR VECTOR*
%ASAXBY*%
%FSLAX23Y23*%
%MOIN*%
%OFA0B0*%
%SFA1.0B1.0*%
%ADD10C,0.049370*%
%ADD11C,0.088000*%
%ADD12C,0.135984*%
%ADD13C,0.085000*%
%ADD14C,0.072992*%
%ADD15R,0.128110X0.088740*%
%ADD16R,0.085000X0.085000*%
%ADD17R,0.072992X0.072992*%
%LNMASK0*%
G90*
G70*
G54D10*
X5460Y1179D03*
X5360Y1129D03*
X6260Y1129D03*
X6360Y1179D03*
X7260Y1179D03*
X7160Y1129D03*
X4560Y1179D03*
X4460Y1129D03*
X960Y1179D03*
X860Y1129D03*
X3660Y1179D03*
X3561Y1129D03*
X1861Y1175D03*
X1760Y1129D03*
X2661Y1129D03*
X2760Y1179D03*
G54D11*
X4660Y2179D03*
X4560Y2179D03*
X4460Y2179D03*
X4360Y2179D03*
X4260Y2179D03*
X4160Y2179D03*
X4060Y2179D03*
X3960Y2179D03*
X1060Y2179D03*
X960Y2179D03*
X860Y2179D03*
X760Y2179D03*
X660Y2179D03*
X560Y2179D03*
X460Y2179D03*
X360Y2179D03*
X1960Y2179D03*
X1860Y2179D03*
X1760Y2179D03*
X1660Y2179D03*
X1560Y2179D03*
X1460Y2179D03*
X1360Y2179D03*
X1260Y2179D03*
X2860Y2179D03*
X2760Y2179D03*
X2660Y2179D03*
X2560Y2179D03*
X2460Y2179D03*
X2360Y2179D03*
X2260Y2179D03*
X2160Y2179D03*
X3760Y2179D03*
X3660Y2179D03*
X3560Y2179D03*
X3460Y2179D03*
X3360Y2179D03*
X3260Y2179D03*
X3160Y2179D03*
X3060Y2179D03*
X5573Y2179D03*
X5473Y2179D03*
X5373Y2179D03*
X5273Y2179D03*
X5173Y2179D03*
X5073Y2179D03*
X4973Y2179D03*
X4873Y2179D03*
X6460Y2179D03*
X6360Y2179D03*
X6260Y2179D03*
X6160Y2179D03*
X6060Y2179D03*
X5960Y2179D03*
X5860Y2179D03*
X5760Y2179D03*
X7360Y2179D03*
X7260Y2179D03*
X7160Y2179D03*
X7060Y2179D03*
X6960Y2179D03*
X6860Y2179D03*
X6760Y2179D03*
X6660Y2179D03*
G54D12*
X7560Y154D03*
X7560Y2154D03*
G54D13*
X1060Y1304D03*
X1060Y1004D03*
X960Y1304D03*
X960Y1004D03*
X860Y1304D03*
X860Y1004D03*
X760Y1304D03*
X760Y1004D03*
X660Y1304D03*
X660Y1004D03*
X560Y1304D03*
X560Y1004D03*
X460Y1304D03*
X460Y1004D03*
X360Y1304D03*
X360Y1004D03*
X1960Y1304D03*
X1960Y1004D03*
X1860Y1304D03*
X1860Y1004D03*
X1760Y1304D03*
X1760Y1004D03*
X1660Y1304D03*
X1660Y1004D03*
X1560Y1304D03*
X1560Y1004D03*
X1460Y1304D03*
X1460Y1004D03*
X1360Y1304D03*
X1360Y1004D03*
X1260Y1304D03*
X1260Y1004D03*
X2860Y1304D03*
X2860Y1004D03*
X2760Y1304D03*
X2760Y1004D03*
X2660Y1304D03*
X2660Y1004D03*
X2560Y1304D03*
X2560Y1004D03*
X2460Y1304D03*
X2460Y1004D03*
X2360Y1304D03*
X2360Y1004D03*
X2260Y1304D03*
X2260Y1004D03*
X2160Y1304D03*
X2160Y1004D03*
X3760Y1304D03*
X3760Y1004D03*
X3660Y1304D03*
X3660Y1004D03*
X3560Y1304D03*
X3560Y1004D03*
X3460Y1304D03*
X3460Y1004D03*
X3360Y1304D03*
X3360Y1004D03*
X3260Y1304D03*
X3260Y1004D03*
X3160Y1304D03*
X3160Y1004D03*
X3060Y1304D03*
X3060Y1004D03*
X4660Y1304D03*
X4660Y1004D03*
X4560Y1304D03*
X4560Y1004D03*
X4460Y1304D03*
X4460Y1004D03*
X4360Y1304D03*
X4360Y1004D03*
X4260Y1304D03*
X4260Y1004D03*
X4160Y1304D03*
X4160Y1004D03*
X4060Y1304D03*
X4060Y1004D03*
X3960Y1304D03*
X3960Y1004D03*
X5560Y1304D03*
X5560Y1004D03*
X5460Y1304D03*
X5460Y1004D03*
X5360Y1304D03*
X5360Y1004D03*
X5260Y1304D03*
X5260Y1004D03*
X5160Y1304D03*
X5160Y1004D03*
X5060Y1304D03*
X5060Y1004D03*
X4960Y1304D03*
X4960Y1004D03*
X4860Y1304D03*
X4860Y1004D03*
X6460Y1304D03*
X6460Y1004D03*
X6360Y1304D03*
X6360Y1004D03*
X6260Y1304D03*
X6260Y1004D03*
X6160Y1304D03*
X6160Y1004D03*
X6060Y1304D03*
X6060Y1004D03*
X5960Y1304D03*
X5960Y1004D03*
X5860Y1304D03*
X5860Y1004D03*
X5760Y1304D03*
X5760Y1004D03*
X7360Y1304D03*
X7360Y1004D03*
X7260Y1304D03*
X7260Y1004D03*
X7160Y1304D03*
X7160Y1004D03*
X7060Y1304D03*
X7060Y1004D03*
X6960Y1304D03*
X6960Y1004D03*
X6860Y1304D03*
X6860Y1004D03*
X6760Y1304D03*
X6760Y1004D03*
X6660Y1304D03*
X6660Y1004D03*
X1060Y754D03*
X1060Y454D03*
X960Y754D03*
X960Y454D03*
X860Y754D03*
X860Y454D03*
X760Y754D03*
X760Y454D03*
X660Y754D03*
X660Y454D03*
X560Y754D03*
X560Y454D03*
X460Y754D03*
X460Y454D03*
X360Y754D03*
X360Y454D03*
X1960Y754D03*
X1960Y454D03*
X1860Y754D03*
X1860Y454D03*
X1760Y754D03*
X1760Y454D03*
X1660Y754D03*
X1660Y454D03*
X1560Y754D03*
X1560Y454D03*
X1460Y754D03*
X1460Y454D03*
X1360Y754D03*
X1360Y454D03*
X1260Y754D03*
X1260Y454D03*
X2860Y754D03*
X2860Y454D03*
X2760Y754D03*
X2760Y454D03*
X2660Y754D03*
X2660Y454D03*
X2560Y754D03*
X2560Y454D03*
X2460Y754D03*
X2460Y454D03*
X2360Y754D03*
X2360Y454D03*
X2260Y754D03*
X2260Y454D03*
X2160Y754D03*
X2160Y454D03*
X3760Y754D03*
X3760Y454D03*
X3660Y754D03*
X3660Y454D03*
X3560Y754D03*
X3560Y454D03*
X3460Y754D03*
X3460Y454D03*
X3360Y754D03*
X3360Y454D03*
X3260Y754D03*
X3260Y454D03*
X3160Y754D03*
X3160Y454D03*
X3060Y754D03*
X3060Y454D03*
X4660Y754D03*
X4660Y454D03*
X4560Y754D03*
X4560Y454D03*
X4460Y754D03*
X4460Y454D03*
X4360Y754D03*
X4360Y454D03*
X4260Y754D03*
X4260Y454D03*
X4160Y754D03*
X4160Y454D03*
X4060Y754D03*
X4060Y454D03*
X3960Y754D03*
X3960Y454D03*
X5560Y754D03*
X5560Y454D03*
X5460Y754D03*
X5460Y454D03*
X5360Y754D03*
X5360Y454D03*
X5260Y754D03*
X5260Y454D03*
X5160Y754D03*
X5160Y454D03*
X5060Y754D03*
X5060Y454D03*
X4960Y754D03*
X4960Y454D03*
X4860Y754D03*
X4860Y454D03*
X6460Y754D03*
X6460Y454D03*
X6360Y754D03*
X6360Y454D03*
X6260Y754D03*
X6260Y454D03*
X6160Y754D03*
X6160Y454D03*
X6060Y754D03*
X6060Y454D03*
X5960Y754D03*
X5960Y454D03*
X5860Y754D03*
X5860Y454D03*
X5760Y754D03*
X5760Y454D03*
X7360Y753D03*
X7360Y453D03*
X7260Y753D03*
X7260Y453D03*
X7160Y753D03*
X7160Y453D03*
X7060Y753D03*
X7060Y453D03*
X6960Y753D03*
X6960Y453D03*
X6860Y753D03*
X6860Y453D03*
X6760Y753D03*
X6760Y453D03*
X6660Y753D03*
X6660Y453D03*
X360Y1554D03*
X360Y1854D03*
X460Y1554D03*
X460Y1854D03*
X560Y1554D03*
X560Y1854D03*
X660Y1554D03*
X660Y1854D03*
X760Y1554D03*
X760Y1854D03*
X860Y1554D03*
X860Y1854D03*
X960Y1554D03*
X960Y1854D03*
X1060Y1554D03*
X1060Y1854D03*
X1260Y1554D03*
X1260Y1854D03*
X1360Y1554D03*
X1360Y1854D03*
X1460Y1554D03*
X1460Y1854D03*
X1560Y1554D03*
X1560Y1854D03*
X1660Y1554D03*
X1660Y1854D03*
X1760Y1554D03*
X1760Y1854D03*
X1860Y1554D03*
X1860Y1854D03*
X1960Y1554D03*
X1960Y1854D03*
X2160Y1554D03*
X2160Y1854D03*
X2260Y1554D03*
X2260Y1854D03*
X2360Y1554D03*
X2360Y1854D03*
X2460Y1554D03*
X2460Y1854D03*
X2560Y1554D03*
X2560Y1854D03*
X2660Y1554D03*
X2660Y1854D03*
X2760Y1554D03*
X2760Y1854D03*
X2860Y1554D03*
X2860Y1854D03*
X3060Y1554D03*
X3060Y1854D03*
X3160Y1554D03*
X3160Y1854D03*
X3260Y1554D03*
X3260Y1854D03*
X3360Y1554D03*
X3360Y1854D03*
X3460Y1554D03*
X3460Y1854D03*
X3560Y1554D03*
X3560Y1854D03*
X3660Y1554D03*
X3660Y1854D03*
X3760Y1554D03*
X3760Y1854D03*
X3960Y1554D03*
X3960Y1854D03*
X4060Y1554D03*
X4060Y1854D03*
X4160Y1554D03*
X4160Y1854D03*
X4260Y1554D03*
X4260Y1854D03*
X4360Y1554D03*
X4360Y1854D03*
X4460Y1554D03*
X4460Y1854D03*
X4560Y1554D03*
X4560Y1854D03*
X4660Y1554D03*
X4660Y1854D03*
X5761Y1553D03*
X5761Y1853D03*
X5861Y1553D03*
X5861Y1853D03*
X5961Y1553D03*
X5961Y1853D03*
X6061Y1553D03*
X6061Y1853D03*
X6161Y1553D03*
X6161Y1853D03*
X6261Y1553D03*
X6261Y1853D03*
X6361Y1553D03*
X6361Y1853D03*
X6461Y1553D03*
X6461Y1853D03*
X4860Y1554D03*
X4860Y1854D03*
X4960Y1554D03*
X4960Y1854D03*
X5060Y1554D03*
X5060Y1854D03*
X5160Y1554D03*
X5160Y1854D03*
X5260Y1554D03*
X5260Y1854D03*
X5360Y1554D03*
X5360Y1854D03*
X5460Y1554D03*
X5460Y1854D03*
X5560Y1554D03*
X5560Y1854D03*
X6661Y1553D03*
X6661Y1853D03*
X6761Y1553D03*
X6761Y1853D03*
X6861Y1553D03*
X6861Y1853D03*
X6961Y1553D03*
X6961Y1853D03*
X7061Y1553D03*
X7061Y1853D03*
X7161Y1553D03*
X7161Y1853D03*
X7261Y1553D03*
X7261Y1853D03*
X7361Y1553D03*
X7361Y1853D03*
X7360Y1954D03*
X7360Y2054D03*
X6960Y2054D03*
X6960Y1954D03*
X5560Y2054D03*
X5560Y1954D03*
X6460Y2054D03*
X6460Y1954D03*
X5360Y2054D03*
X5360Y1954D03*
X6260Y2054D03*
X6260Y1954D03*
X5160Y2054D03*
X5160Y1954D03*
X6060Y2054D03*
X6060Y1954D03*
X4960Y2054D03*
X4960Y1954D03*
X5860Y2054D03*
X5860Y1954D03*
X7260Y879D03*
X7360Y879D03*
X7073Y879D03*
X7173Y879D03*
X6860Y879D03*
X6960Y879D03*
X3960Y879D03*
X4060Y879D03*
X360Y879D03*
X460Y879D03*
X1260Y879D03*
X1360Y879D03*
X3060Y879D03*
X3160Y879D03*
X2160Y879D03*
X2260Y879D03*
X4860Y879D03*
X4960Y879D03*
X5760Y879D03*
X5860Y879D03*
X4160Y879D03*
X4260Y879D03*
X1460Y879D03*
X1560Y879D03*
X560Y879D03*
X660Y879D03*
X2360Y879D03*
X2460Y879D03*
X3260Y879D03*
X3360Y879D03*
X5060Y879D03*
X5160Y879D03*
X5960Y879D03*
X6060Y879D03*
X4360Y879D03*
X4460Y879D03*
X760Y879D03*
X860Y879D03*
X1660Y879D03*
X1760Y879D03*
X2560Y879D03*
X2660Y879D03*
X3460Y879D03*
X3560Y879D03*
X5260Y879D03*
X5360Y879D03*
X6160Y879D03*
X6260Y879D03*
X4560Y879D03*
X4660Y879D03*
X960Y879D03*
X1060Y879D03*
X1860Y879D03*
X1960Y879D03*
X3660Y879D03*
X3760Y879D03*
X2760Y879D03*
X2860Y879D03*
X5460Y879D03*
X5560Y879D03*
X6360Y879D03*
X6460Y879D03*
X6660Y879D03*
X6760Y879D03*
X7260Y1429D03*
X7360Y1429D03*
X6860Y1429D03*
X6960Y1429D03*
X7160Y1429D03*
X7060Y1429D03*
X4560Y1429D03*
X4660Y1429D03*
X1860Y1429D03*
X1960Y1429D03*
X2760Y1429D03*
X2860Y1429D03*
X3660Y1429D03*
X3760Y1429D03*
X960Y1429D03*
X1060Y1429D03*
X5460Y1429D03*
X5560Y1429D03*
X6360Y1429D03*
X6460Y1429D03*
X4460Y1429D03*
X4360Y1429D03*
X860Y1429D03*
X760Y1429D03*
X1760Y1429D03*
X1660Y1429D03*
X2660Y1429D03*
X2560Y1429D03*
X3560Y1429D03*
X3460Y1429D03*
X5360Y1429D03*
X5260Y1429D03*
X6260Y1429D03*
X6160Y1429D03*
X4160Y1429D03*
X4260Y1429D03*
X1460Y1429D03*
X1560Y1429D03*
X3260Y1429D03*
X3360Y1429D03*
X560Y1429D03*
X660Y1429D03*
X2360Y1429D03*
X2460Y1429D03*
X5060Y1429D03*
X5160Y1429D03*
X5960Y1429D03*
X6060Y1429D03*
X4060Y1429D03*
X3960Y1429D03*
X1360Y1429D03*
X1260Y1429D03*
X460Y1429D03*
X360Y1429D03*
X2260Y1429D03*
X2160Y1429D03*
X3160Y1429D03*
X3060Y1429D03*
X4960Y1429D03*
X4860Y1429D03*
X5860Y1429D03*
X5760Y1429D03*
X6760Y1429D03*
X6660Y1429D03*
X7260Y354D03*
X7260Y254D03*
X7060Y354D03*
X7060Y254D03*
X6860Y354D03*
X6860Y254D03*
X4560Y354D03*
X4560Y254D03*
X1860Y354D03*
X1860Y254D03*
X2760Y354D03*
X2760Y254D03*
X3660Y354D03*
X3660Y254D03*
X960Y354D03*
X960Y254D03*
X5460Y354D03*
X5460Y254D03*
X6360Y354D03*
X6360Y254D03*
X4360Y354D03*
X4360Y254D03*
X760Y354D03*
X760Y254D03*
X1660Y354D03*
X1660Y254D03*
X3460Y354D03*
X3460Y254D03*
X2560Y354D03*
X2560Y254D03*
X5260Y354D03*
X5260Y254D03*
X6160Y354D03*
X6160Y254D03*
X4160Y354D03*
X4160Y254D03*
X1460Y354D03*
X1460Y254D03*
X3260Y354D03*
X3260Y254D03*
X560Y354D03*
X560Y254D03*
X2360Y354D03*
X2360Y254D03*
X5060Y354D03*
X5060Y254D03*
X5960Y354D03*
X5960Y254D03*
X3960Y354D03*
X3960Y254D03*
X360Y354D03*
X360Y254D03*
X1260Y354D03*
X1260Y254D03*
X2160Y354D03*
X2160Y254D03*
X3060Y354D03*
X3060Y254D03*
X4860Y354D03*
X4860Y254D03*
X5760Y354D03*
X5760Y254D03*
X6660Y354D03*
X6660Y254D03*
X4660Y2054D03*
X4660Y1954D03*
X4460Y2054D03*
X4460Y1954D03*
X4060Y2054D03*
X4060Y1954D03*
X1560Y2054D03*
X1560Y1954D03*
X1760Y2054D03*
X1760Y1954D03*
X1960Y2054D03*
X1960Y1954D03*
X460Y2054D03*
X460Y1954D03*
X860Y2054D03*
X860Y1954D03*
X660Y2054D03*
X660Y1954D03*
X1360Y2054D03*
X1360Y1954D03*
X2460Y2054D03*
X2460Y1954D03*
X3760Y2054D03*
X3760Y1954D03*
X3560Y2054D03*
X3560Y1954D03*
X2860Y2054D03*
X2860Y1954D03*
X3360Y2054D03*
X3360Y1954D03*
X3160Y2054D03*
X3160Y1954D03*
X1060Y2054D03*
X1060Y1954D03*
X2260Y2054D03*
X2260Y1954D03*
X2660Y2054D03*
X2660Y1954D03*
X4260Y2054D03*
X4260Y1954D03*
G54D11*
X3960Y129D03*
X4060Y129D03*
X4160Y129D03*
X4260Y129D03*
X4360Y129D03*
X4460Y129D03*
X4560Y129D03*
X4660Y129D03*
X1260Y129D03*
X1360Y129D03*
X1460Y129D03*
X1560Y129D03*
X1660Y129D03*
X1760Y129D03*
X1860Y129D03*
X1960Y129D03*
X360Y129D03*
X460Y129D03*
X560Y129D03*
X660Y129D03*
X760Y129D03*
X860Y129D03*
X960Y129D03*
X1060Y129D03*
X2160Y129D03*
X2260Y129D03*
X2360Y129D03*
X2460Y129D03*
X2560Y129D03*
X2660Y129D03*
X2760Y129D03*
X2860Y129D03*
X3060Y129D03*
X3160Y129D03*
X3260Y129D03*
X3360Y129D03*
X3460Y129D03*
X3560Y129D03*
X3660Y129D03*
X3760Y129D03*
X6660Y129D03*
X6760Y129D03*
X6860Y129D03*
X6960Y129D03*
X7060Y129D03*
X7160Y129D03*
X7260Y129D03*
X7360Y129D03*
X5760Y129D03*
X5860Y129D03*
X5960Y129D03*
X6060Y129D03*
X6160Y129D03*
X6260Y129D03*
X6360Y129D03*
X6460Y129D03*
X4860Y129D03*
X4960Y129D03*
X5060Y129D03*
X5160Y129D03*
X5260Y129D03*
X5360Y129D03*
X5460Y129D03*
X5560Y129D03*
G54D13*
X7160Y1954D03*
X7160Y2054D03*
X6760Y2054D03*
X6760Y1954D03*
G54D11*
X7560Y1004D03*
X7560Y1104D03*
X7560Y1204D03*
X7560Y1304D03*
G54D12*
X160Y2154D03*
X160Y154D03*
G54D11*
X7560Y1854D03*
X7560Y1754D03*
X7560Y1654D03*
G54D14*
X148Y1855D03*
X148Y1954D03*
X148Y452D03*
X148Y354D03*
G54D13*
X148Y1304D03*
X148Y1704D03*
X148Y979D03*
X148Y579D03*
G54D11*
X148Y1191D03*
X148Y1091D03*
G54D15*
X360Y1754D03*
X1260Y1754D03*
X2160Y1754D03*
X3060Y1754D03*
X3960Y1754D03*
X3960Y1654D03*
X360Y1654D03*
X1260Y1654D03*
X2160Y1654D03*
X3060Y1654D03*
X4560Y1654D03*
X960Y1654D03*
X1860Y1654D03*
X2760Y1654D03*
X3660Y1654D03*
X4360Y1754D03*
X760Y1754D03*
X1660Y1754D03*
X2560Y1754D03*
X3460Y1754D03*
X4560Y1754D03*
X960Y1754D03*
X1860Y1754D03*
X2760Y1754D03*
X3660Y1754D03*
X4160Y1754D03*
X560Y1754D03*
X1460Y1754D03*
X2360Y1754D03*
X3260Y1754D03*
X4160Y1654D03*
X560Y1654D03*
X1460Y1654D03*
X2360Y1654D03*
X3260Y1654D03*
X4360Y1654D03*
X760Y1654D03*
X1660Y1654D03*
X2560Y1654D03*
X3460Y1654D03*
X4860Y1754D03*
X4860Y1654D03*
X5460Y1654D03*
X5260Y1754D03*
X5460Y1754D03*
X5060Y1754D03*
X5060Y1654D03*
X5260Y1654D03*
X5760Y1754D03*
X5760Y1654D03*
X6360Y1654D03*
X6160Y1754D03*
X6360Y1754D03*
X5960Y1754D03*
X5960Y1654D03*
X6160Y1654D03*
X6660Y1754D03*
X6660Y1654D03*
X7260Y1654D03*
X7060Y1754D03*
X7260Y1754D03*
X6860Y1754D03*
X6860Y1654D03*
X7060Y1654D03*
X6960Y554D03*
X7360Y554D03*
X6960Y654D03*
X7360Y654D03*
X7160Y654D03*
X7160Y554D03*
X6760Y554D03*
X6760Y654D03*
X6060Y554D03*
X6460Y554D03*
X6060Y654D03*
X6460Y654D03*
X6260Y654D03*
X6260Y554D03*
X5860Y554D03*
X5860Y654D03*
X5160Y554D03*
X5560Y554D03*
X5160Y654D03*
X5560Y654D03*
X5360Y654D03*
X5360Y554D03*
X4960Y554D03*
X4960Y654D03*
X4660Y654D03*
X1060Y654D03*
X1960Y654D03*
X3760Y654D03*
X2860Y654D03*
X4660Y554D03*
X1060Y554D03*
X1960Y554D03*
X3760Y554D03*
X2860Y554D03*
X4460Y554D03*
X860Y554D03*
X1760Y554D03*
X3560Y554D03*
X2660Y554D03*
X4460Y654D03*
X860Y654D03*
X1760Y654D03*
X3560Y654D03*
X2660Y654D03*
X4260Y554D03*
X660Y554D03*
X1560Y554D03*
X3360Y554D03*
X2460Y554D03*
X4260Y654D03*
X660Y654D03*
X1560Y654D03*
X3360Y654D03*
X2460Y654D03*
X4060Y554D03*
X460Y554D03*
X1360Y554D03*
X3160Y554D03*
X2260Y554D03*
X4060Y654D03*
X460Y654D03*
X1360Y654D03*
X3160Y654D03*
X2260Y654D03*
G54D16*
X1060Y1304D03*
X1960Y1304D03*
X2860Y1304D03*
X3760Y1304D03*
X4660Y1304D03*
X5560Y1304D03*
X6460Y1304D03*
X7360Y1304D03*
X1060Y754D03*
X1960Y754D03*
X2860Y754D03*
X3760Y754D03*
X4660Y754D03*
X5560Y754D03*
X6460Y754D03*
X7360Y753D03*
X360Y1554D03*
X1260Y1554D03*
X2160Y1554D03*
X3060Y1554D03*
X3960Y1554D03*
X5761Y1553D03*
X4860Y1554D03*
X6661Y1553D03*
G54D17*
X148Y1855D03*
X148Y452D03*
G04 End of Mask0*
M02*