G04 MADE WITH FRITZING*
G04 WWW.FRITZING.ORG*
G04 DOUBLE SIDED*
G04 HOLES PLATED*
G04 CONTOUR ON CENTER OF CONTOUR VECTOR*
%ASAXBY*%
%FSLAX23Y23*%
%MOIN*%
%OFA0B0*%
%SFA1.0B1.0*%
%ADD10R,0.118110X0.078740*%
%LNPASTEMASK0*%
G90*
G70*
G54D10*
X3757Y1754D03*
X157Y1754D03*
X1057Y1754D03*
X1957Y1754D03*
X2857Y1754D03*
X3757Y1654D03*
X157Y1654D03*
X1057Y1654D03*
X1957Y1654D03*
X2857Y1654D03*
X4357Y1654D03*
X757Y1654D03*
X1657Y1654D03*
X2557Y1654D03*
X3457Y1654D03*
X4157Y1754D03*
X557Y1754D03*
X1457Y1754D03*
X2357Y1754D03*
X3257Y1754D03*
X4357Y1754D03*
X757Y1754D03*
X1657Y1754D03*
X2557Y1754D03*
X3457Y1754D03*
X3957Y1754D03*
X357Y1754D03*
X1257Y1754D03*
X2157Y1754D03*
X3057Y1754D03*
X3957Y1654D03*
X357Y1654D03*
X1257Y1654D03*
X3057Y1654D03*
X2157Y1654D03*
X4157Y1654D03*
X557Y1654D03*
X1457Y1654D03*
X2357Y1654D03*
X3257Y1654D03*
X4657Y1754D03*
X4657Y1654D03*
X5257Y1654D03*
X5057Y1754D03*
X5257Y1754D03*
X4857Y1754D03*
X4857Y1654D03*
X5057Y1654D03*
X5557Y1741D03*
X5557Y1641D03*
X6157Y1654D03*
X5957Y1754D03*
X6157Y1754D03*
X5757Y1754D03*
X5757Y1654D03*
X5957Y1654D03*
X6457Y1754D03*
X6457Y1654D03*
X7057Y1654D03*
X6857Y1754D03*
X7057Y1754D03*
X6657Y1754D03*
X6657Y1654D03*
X6857Y1654D03*
X6757Y541D03*
X7157Y541D03*
X6757Y641D03*
X7157Y641D03*
X6957Y641D03*
X6957Y541D03*
X6557Y541D03*
X6557Y641D03*
X5857Y554D03*
X6257Y554D03*
X5857Y654D03*
X6257Y654D03*
X6057Y654D03*
X6057Y554D03*
X5657Y554D03*
X5657Y654D03*
X4957Y554D03*
X5357Y554D03*
X4957Y654D03*
X5357Y654D03*
X5157Y654D03*
X5157Y554D03*
X4757Y554D03*
X4757Y654D03*
X4457Y654D03*
X857Y654D03*
X1757Y654D03*
X2657Y654D03*
X3557Y654D03*
X4457Y554D03*
X857Y554D03*
X1757Y554D03*
X2657Y554D03*
X3557Y554D03*
X4257Y554D03*
X657Y554D03*
X1557Y554D03*
X2457Y554D03*
X3357Y554D03*
X4257Y654D03*
X657Y654D03*
X1557Y654D03*
X2457Y654D03*
X3357Y654D03*
X4057Y554D03*
X457Y554D03*
X1357Y554D03*
X3157Y554D03*
X2257Y554D03*
X4057Y654D03*
X457Y654D03*
X1357Y654D03*
X2257Y654D03*
X3157Y654D03*
X3857Y554D03*
X257Y554D03*
X1157Y554D03*
X2057Y554D03*
X2957Y554D03*
X3857Y654D03*
X257Y654D03*
X1157Y654D03*
X2057Y654D03*
X2957Y654D03*
G04 End of PasteMask0*
M02*