<?xml version="1.0" encoding="UTF-8" standalone="no"?>
<!-- Created with Inkscape (http://www.inkscape.org/) -->

<svg
   width="1980"
   height="1020"
   viewBox="0 0 523.87499 269.87501"
   version="1.1"
   id="svg5"
   inkscape:version="1.2.2 (1:1.2.2+202212051552+b0a8486541)"
   sodipodi:docname="Frederica.svg"
   xml:space="preserve"
   xmlns:inkscape="http://www.inkscape.org/namespaces/inkscape"
   xmlns:sodipodi="http://sodipodi.sourceforge.net/DTD/sodipodi-0.dtd"
   xmlns:xlink="http://www.w3.org/1999/xlink"
   xmlns="http://www.w3.org/2000/svg"
   xmlns:svg="http://www.w3.org/2000/svg"><sodipodi:namedview
     id="namedview7"
     pagecolor="#505050"
     bordercolor="#eeeeee"
     borderopacity="1"
     inkscape:pageshadow="0"
     inkscape:pageopacity="0"
     inkscape:pagecheckerboard="0"
     inkscape:document-units="px"
     showgrid="false"
     units="px"
     width="1980px"
     inkscape:zoom="1"
     inkscape:cx="1436"
     inkscape:cy="342.5"
     inkscape:window-width="1920"
     inkscape:window-height="974"
     inkscape:window-x="1920"
     inkscape:window-y="0"
     inkscape:window-maximized="1"
     inkscape:current-layer="track"
     inkscape:snap-center="false"
     inkscape:snap-object-midpoints="false"
     inkscape:snap-page="false"
     showguides="true"
     inkscape:showpageshadow="0"
     inkscape:deskcolor="#505050"><inkscape:grid
       type="xygrid"
       id="grid21335"
       dotted="true"
       originx="0"
       originy="0"
       snapvisiblegridlinesonly="true" /><sodipodi:guide
       position="0,269.875"
       orientation="0,1980"
       id="guide308"
       inkscape:locked="false" /><sodipodi:guide
       position="523.875,269.875"
       orientation="1020,0"
       id="guide310"
       inkscape:locked="false" /><sodipodi:guide
       position="523.875,0"
       orientation="0,-1980"
       id="guide312"
       inkscape:locked="false" /><sodipodi:guide
       position="0,0"
       orientation="-1020,0"
       id="guide314"
       inkscape:locked="false" /></sodipodi:namedview><defs
     id="defs2"><marker
       style="overflow:visible"
       id="Arrow1Lstart"
       refX="0.0"
       refY="0.0"
       orient="auto"
       inkscape:stockid="Arrow1Lstart"
       inkscape:isstock="true"><path
         transform="scale(0.8) translate(12.5,0)"
         style="fill-rule:evenodd;fill:context-stroke;stroke:context-stroke;stroke-width:1.0pt"
         d="M 0.0,0.0 L 5.0,-5.0 L -12.5,0.0 L 5.0,5.0 L 0.0,0.0 z "
         id="path2276" /></marker><marker
       style="overflow:visible"
       id="Arrow1Mstart"
       refX="0.0"
       refY="0.0"
       orient="auto"
       inkscape:stockid="Arrow1Mstart"
       inkscape:isstock="true"><path
         transform="scale(0.4) translate(10,0)"
         style="fill-rule:evenodd;fill:context-stroke;stroke:context-stroke;stroke-width:1.0pt"
         d="M 0.0,0.0 L 5.0,-5.0 L -12.5,0.0 L 5.0,5.0 L 0.0,0.0 z "
         id="path2282" /></marker><color-profile
       name="Apple-RGB"
       xlink:href="file:///usr/share/color/icc/colord/AppleRGB.icc"
       id="color-profile31908" /></defs><g
     inkscape:groupmode="layer"
     id="background"
     inkscape:label="Background"
     style="display:inline"
     sodipodi:insensitive="true"><rect
       style="display:inline;fill:#000000;fill-opacity:1;stroke:#ffffff;stroke-width:0.264613;stroke-linecap:round;stroke-linejoin:round;stroke-miterlimit:4;stroke-dasharray:none;stroke-opacity:1"
       id="rect24799"
       width="523.61041"
       height="269.61038"
       x="0.1323065"
       y="0.1323065"
       ry="2.5254467e-15" /></g><g
     inkscape:label="Track"
     inkscape:groupmode="layer"
     id="track"
     style="display:inline">b'Sketch004'<g
   id="Sketch009"
   transform="rotate(150,196.8546,80.362992)"
   style="display:inline;fill:#999999;stroke:#ffffff;stroke-width:0.264583;stroke-dasharray:none;stroke-opacity:1"><title
     id="title8413">b'M-24631'</title></g><g
   id="Sketch"
   transform="matrix(-1,0,0,1,456.15501,15.918127)"
   style="fill:#999999;stroke:#ffffff;stroke-width:0.264583;stroke-dasharray:none;stroke-opacity:1"><title
     id="title9966">b'M-24612'</title></g><g
   id="Sketch007"
   transform="matrix(1,0,0,-1,484.14541,8.4181266)"
   style="display:inline;fill:#999999;stroke:#ffffff;stroke-width:0.264583;stroke-dasharray:none;stroke-opacity:1"><title
     id="title2207">b'Sketch007'</title></g><g
   id="Sketch001"
   transform="matrix(1,0,0,-1,494.9747,19.56675)"
   style="fill:#999999;stroke:#ffffff;stroke-width:0.264583;stroke-dasharray:none;stroke-opacity:1"><path
     id="Sketch001_w0000"
     d="M -24.162109,1.9 H 0 v -3.8 h -24.162109 v 3.8"
     stroke="#000000"
     stroke-width="0.35 px"
     style="fill:#999999;fill-opacity:1;fill-rule:evenodd;stroke:#ffffff;stroke-width:0.264583;stroke-linecap:square;stroke-miterlimit:4;stroke-dasharray:none;stroke-opacity:1" /><title
     id="title23098">b'Straight-Long'</title></g><g
   id="Sketch003"
   transform="rotate(90,209.83563,309.30185)"
   style="fill:#999999;stroke:#ffffff;stroke-width:0.264583;stroke-dasharray:none;stroke-opacity:1"><path
     id="Sketch003_w0000"
     d="M -5.9275262,1.9 H 0 V -1.9 H -24.162109 V 1.9 A 41.85,41.85 0 0 1 -3.23711,7.50684 L -1.3371088,4.2159403 A 45.65,45.65 0 0 0 -5.92753,1.9"
     stroke="#000000"
     stroke-width="0.35 px"
     style="fill:#999999;fill-opacity:1;fill-rule:evenodd;stroke:#ffffff;stroke-width:0.264583;stroke-linecap:square;stroke-miterlimit:4;stroke-dasharray:none;stroke-opacity:1" /><title
     id="title26354">b'Switch-2Ways'</title></g><g
   id="Sketch004"
   transform="rotate(180,223.32572,9.7833752)"
   style="fill:#999999;stroke:#ffffff;stroke-width:0.264583;stroke-dasharray:none;stroke-opacity:1"><path
     id="Sketch004_w0000"
     d="M -24.162109,1.9 A 41.85,41.85 0 0 1 -3.23711,7.50684 L -1.3371088,4.2159403 A 45.65,45.65 0 0 0 -5.92753,1.9 H 0 V -1.9 H -5.9275262 A 45.65,45.65 0 0 0 -1.33711,-4.21594 L -3.2371088,-7.5068369 A 41.85,41.85 0 0 1 -24.1621,-1.9 l -9e-6,3.8"
     stroke="#000000"
     stroke-width="0.35 px"
     style="fill:#999999;fill-opacity:1;fill-rule:evenodd;stroke:#ffffff;stroke-width:0.264583;stroke-linecap:square;stroke-miterlimit:4;stroke-dasharray:none;stroke-opacity:1" /><title
     id="title27982">b'Switch-3Ways'</title></g><g
   id="Sketch005"
   transform="matrix(-0.8660254,-0.5,-0.5,0.8660254,428.01259,1.6243044)"
   style="fill:#999999;stroke:#ffffff;stroke-width:0.264583;stroke-dasharray:none;stroke-opacity:1"><path
     id="Sketch005_w0000"
     d="m -1.3371088,4.2159403 -1.9,3.2908966 A 41.85,41.85 0 0 0 -24.1621,1.9 l -9e-6,-3.8 A 45.65,45.65 0 0 1 -1.33711,4.21594"
     stroke="#000000"
     stroke-width="0.35 px"
     style="fill:#999999;fill-opacity:1;fill-rule:evenodd;stroke:#ffffff;stroke-width:0.264583;stroke-linecap:square;stroke-miterlimit:4;stroke-dasharray:none;stroke-opacity:1" /><title
     id="title29525">b'Curve-30Deg'</title></g><g
   id="Sketch001-0"
   transform="matrix(1,0,0,-1,427.06259,7.8439704)"
   style="display:inline;fill:#999999;stroke:#ffffff;stroke-width:0.264583;stroke-dasharray:none;stroke-opacity:1"><path
     id="Sketch001_w0000-6"
     d="M -24.162109,1.9 H 0 v -3.8 h -24.162109 v 3.8"
     stroke="#000000"
     stroke-width="0.35 px"
     style="fill:#999999;fill-opacity:1;fill-rule:evenodd;stroke:#ffffff;stroke-width:0.264583;stroke-linecap:square;stroke-miterlimit:4;stroke-dasharray:none;stroke-opacity:1" /><title
     id="title23098-1">b'Straight-Long'</title></g><g
   id="Sketch001-5"
   transform="matrix(1,0,0,-1,446.65048,19.56675)"
   style="display:inline;fill:#999999;stroke:#ffffff;stroke-width:0.264583;stroke-dasharray:none;stroke-opacity:1"><path
     id="Sketch001_w0000-5"
     d="M -24.162109,1.9 H 0 v -3.8 h -24.162109 v 3.8"
     stroke="#000000"
     stroke-width="0.35 px"
     style="fill:#999999;fill-opacity:1;fill-rule:evenodd;stroke:#ffffff;stroke-width:0.264583;stroke-linecap:square;stroke-miterlimit:4;stroke-dasharray:none;stroke-opacity:1" /><title
     id="title23098-4">b'Straight-Long'</title></g><g
   id="Sketch002-7"
   transform="matrix(1,0,0,-1,306.25204,7.8439704)"
   style="display:inline;fill:#999999;stroke:#ffffff;stroke-width:0.264583;stroke-dasharray:none;stroke-opacity:1"><path
     id="Sketch002_w0000-6"
     d="m 24.162109,1.9 h -4.574218 v -3.8 h 4.574218 v 3.8"
     stroke="#000000"
     stroke-width="0.35 px"
     style="fill:#999999;fill-opacity:1;fill-rule:evenodd;stroke:#ffffff;stroke-width:0.264583;stroke-linecap:square;stroke-miterlimit:4;stroke-dasharray:none;stroke-opacity:1" /><title
     id="title24726-5">b'Straight-Short'</title></g><g
   id="Sketch003-6"
   transform="matrix(1,0,0,-1,451.22538,31.289529)"
   style="display:inline;fill:#999999;stroke:#ffffff;stroke-width:0.264583;stroke-dasharray:none;stroke-opacity:1"><path
     id="Sketch003_w0000-9"
     d="M -5.9275262,1.9 H 0 V -1.9 H -24.162109 V 1.9 A 41.85,41.85 0 0 1 -3.23711,7.50684 L -1.3371088,4.2159403 A 45.65,45.65 0 0 0 -5.92753,1.9"
     stroke="#000000"
     stroke-width="0.35 px"
     style="fill:#999999;fill-opacity:1;fill-rule:evenodd;stroke:#ffffff;stroke-width:0.264583;stroke-linecap:square;stroke-miterlimit:4;stroke-dasharray:none;stroke-opacity:1" /><title
     id="title26354-3">b'Switch-2Ways'</title></g><g
   id="Sketch004-7"
   transform="rotate(150,185.53594,76.097513)"
   style="display:inline;fill:#999999;stroke:#ffffff;stroke-width:0.264583;stroke-dasharray:none;stroke-opacity:1"><path
     id="Sketch004_w0000-4"
     d="M -24.162109,1.9 A 41.85,41.85 0 0 1 -3.23711,7.50684 L -1.3371088,4.2159403 A 45.65,45.65 0 0 0 -5.92753,1.9 H 0 V -1.9 H -5.9275262 A 45.65,45.65 0 0 0 -1.33711,-4.21594 L -3.2371088,-7.5068369 A 41.85,41.85 0 0 1 -24.1621,-1.9 l -9e-6,3.8"
     stroke="#000000"
     stroke-width="0.35 px"
     style="fill:#999999;fill-opacity:1;fill-rule:evenodd;stroke:#ffffff;stroke-width:0.264583;stroke-linecap:square;stroke-miterlimit:4;stroke-dasharray:none;stroke-opacity:1" /><title
     id="title27982-5">b'Switch-3Ways'</title></g><g
   id="Sketch005-7"
   transform="matrix(1,0,0,-1,373.16105,79.000915)"
   style="display:inline;fill:#999999;stroke:#ffffff;stroke-width:0.264583;stroke-dasharray:none;stroke-opacity:1"><path
     id="Sketch005_w0000-4"
     d="m -1.3371088,4.2159403 -1.9,3.2908966 A 41.85,41.85 0 0 0 -24.1621,1.9 l -9e-6,-3.8 A 45.65,45.65 0 0 1 -1.33711,4.21594"
     stroke="#000000"
     stroke-width="0.35 px"
     style="fill:#999999;fill-opacity:1;fill-rule:evenodd;stroke:#ffffff;stroke-width:0.264583;stroke-linecap:square;stroke-miterlimit:4;stroke-dasharray:none;stroke-opacity:1" /><title
     id="title29525-4">b'Curve-30Deg'</title></g><g
   id="Sketch005-7-3"
   transform="matrix(-0.8660254,-0.5,-0.5,0.8660254,476.33749,25.069867)"
   style="display:inline;fill:#999999;stroke:#ffffff;stroke-width:0.264583;stroke-dasharray:none;stroke-opacity:1"><path
     id="Sketch005_w0000-4-0"
     d="m -1.3371088,4.2159403 -1.9,3.2908966 A 41.85,41.85 0 0 0 -24.1621,1.9 l -9e-6,-3.8 A 45.65,45.65 0 0 1 -1.33711,4.21594"
     stroke="#000000"
     stroke-width="0.35 px"
     style="fill:#999999;fill-opacity:1;fill-rule:evenodd;stroke:#ffffff;stroke-width:0.264583;stroke-linecap:square;stroke-miterlimit:4;stroke-dasharray:none;stroke-opacity:1" /><title
     id="title29525-4-7">b'Curve-30Deg'</title></g><g
   id="Sketch005-7-8"
   transform="matrix(-0.5,-0.8660254,-0.8660254,0.5,501.19504,32.239531)"
   style="display:inline;fill:#999999;stroke:#ffffff;stroke-width:0.264583;stroke-dasharray:none;stroke-opacity:1"><path
     id="Sketch005_w0000-4-6"
     d="m -1.3371088,4.2159403 -1.9,3.2908966 A 41.85,41.85 0 0 0 -24.1621,1.9 l -9e-6,-3.8 A 45.65,45.65 0 0 1 -1.33711,4.21594"
     stroke="#000000"
     stroke-width="0.35 px"
     style="fill:#999999;fill-opacity:1;fill-rule:evenodd;stroke:#ffffff;stroke-width:0.264583;stroke-linecap:square;stroke-miterlimit:4;stroke-dasharray:none;stroke-opacity:1" /><title
     id="title29525-4-8">b'Curve-30Deg'</title></g><g
   id="Sketch005-7-84"
   transform="matrix(0,-1,-1,0,519.13748,50.877418)"
   style="display:inline;fill:#999999;stroke:#ffffff;stroke-width:0.264583;stroke-dasharray:none;stroke-opacity:1"><path
     id="Sketch005_w0000-4-3"
     d="m -1.3371088,4.2159403 -1.9,3.2908966 A 41.85,41.85 0 0 0 -24.1621,1.9 l -9e-6,-3.8 A 45.65,45.65 0 0 1 -1.33711,4.21594"
     stroke="#000000"
     stroke-width="0.35 px"
     style="fill:#999999;fill-opacity:1;fill-rule:evenodd;stroke:#ffffff;stroke-width:0.264583;stroke-linecap:square;stroke-miterlimit:4;stroke-dasharray:none;stroke-opacity:1" /><title
     id="title29525-4-1">b'Curve-30Deg'</title></g><g
   id="Sketch001-4"
   transform="matrix(1,0,0,-1,519.13681,19.56675)"
   style="display:inline;fill:#999999;stroke:#ffffff;stroke-width:0.264583;stroke-dasharray:none;stroke-opacity:1"><path
     id="Sketch001_w0000-9"
     d="M -24.162109,1.9 H 0 v -3.8 h -24.162109 v 3.8"
     stroke="#000000"
     stroke-width="0.35 px"
     style="fill:#999999;fill-opacity:1;fill-rule:evenodd;stroke:#ffffff;stroke-width:0.264583;stroke-linecap:square;stroke-miterlimit:4;stroke-dasharray:none;stroke-opacity:1" /><title
     id="title23098-2">b'Straight-Long'</title></g><g
   id="Sketch002-7-0"
   transform="matrix(1,0,0,-1,306.2775,43.012305)"
   style="display:inline;fill:#999999;stroke:#ffffff;stroke-width:0.264583;stroke-dasharray:none;stroke-opacity:1"><path
     id="Sketch002_w0000-6-6"
     d="m 24.162109,1.9 h -4.574218 v -3.8 h 4.574218 v 3.8"
     stroke="#000000"
     stroke-width="0.35 px"
     style="fill:#999999;fill-opacity:1;fill-rule:evenodd;stroke:#ffffff;stroke-width:0.264583;stroke-linecap:square;stroke-miterlimit:4;stroke-dasharray:none;stroke-opacity:1" /><title
     id="title24726-5-8">b'Straight-Short'</title></g><g
   id="Sketch005-9"
   transform="matrix(1,0,0,-1,382.58899,57.38047)"
   style="display:inline;fill:#999999;stroke:#ffffff;stroke-width:0.264583;stroke-dasharray:none;stroke-opacity:1"><path
     id="Sketch005_w0000-2"
     d="m -1.3371088,4.2159403 -1.9,3.2908966 A 41.85,41.85 0 0 0 -24.1621,1.9 l -9e-6,-3.8 A 45.65,45.65 0 0 1 -1.33711,4.21594"
     stroke="#000000"
     stroke-width="0.35 px"
     style="fill:#999999;fill-opacity:1;fill-rule:evenodd;stroke:#ffffff;stroke-width:0.264583;stroke-linecap:square;stroke-miterlimit:4;stroke-dasharray:none;stroke-opacity:1" /><title
     id="title29525-6">b'Curve-30Deg'</title></g><g
   id="Sketch001-0-6"
   transform="matrix(1,0,0,-1,422.48837,19.56675)"
   style="display:inline;fill:#999999;stroke:#ffffff;stroke-width:0.264583;stroke-dasharray:none;stroke-opacity:1"><path
     id="Sketch001_w0000-6-4"
     d="M -24.162109,1.9 H 0 v -3.8 h -24.162109 v 3.8"
     stroke="#000000"
     stroke-width="0.35 px"
     style="fill:#999999;fill-opacity:1;fill-rule:evenodd;stroke:#ffffff;stroke-width:0.264583;stroke-linecap:square;stroke-miterlimit:4;stroke-dasharray:none;stroke-opacity:1" /><title
     id="title23098-1-9">b'Straight-Long'</title></g><g
   id="Sketch001-0-5"
   transform="matrix(1,0,0,-1,383.31327,43.012305)"
   style="display:inline;fill:#999999;stroke:#ffffff;stroke-width:0.264583;stroke-dasharray:none;stroke-opacity:1"><path
     id="Sketch001_w0000-6-0"
     d="M -24.162109,1.9 H 0 v -3.8 h -24.162109 v 3.8"
     stroke="#000000"
     stroke-width="0.35 px"
     style="fill:#999999;fill-opacity:1;fill-rule:evenodd;stroke:#ffffff;stroke-width:0.264583;stroke-linecap:square;stroke-miterlimit:4;stroke-dasharray:none;stroke-opacity:1" /><title
     id="title23098-1-4">b'Straight-Long'</title></g><g
   id="Sketch002-7-0-2"
   transform="matrix(-0.8660254,0.5,0.5,0.8660254,401.22688,39.438027)"
   style="display:inline;fill:#999999;stroke:#ffffff;stroke-width:0.264583;stroke-dasharray:none;stroke-opacity:1"><path
     id="Sketch002_w0000-6-6-2"
     d="m 24.162109,1.9 h -4.574218 v -3.8 h 4.574218 v 3.8"
     stroke="#000000"
     stroke-width="0.35 px"
     style="fill:#999999;fill-opacity:1;fill-rule:evenodd;stroke:#ffffff;stroke-width:0.264583;stroke-linecap:square;stroke-miterlimit:4;stroke-dasharray:none;stroke-opacity:1" /><title
     id="title24726-5-8-6">b'Straight-Short'</title></g><g
   id="Sketch002-7-0-2-1"
   transform="matrix(-0.5,0.8660254,0.8660254,0.5,398.96861,36.200917)"
   style="display:inline;fill:#999999;stroke:#ffffff;stroke-width:0.264583;stroke-dasharray:none;stroke-opacity:1"><path
     id="Sketch002_w0000-6-6-2-0"
     d="m 24.162109,1.9 h -4.574218 v -3.8 h 4.574218 v 3.8"
     stroke="#000000"
     stroke-width="0.35 px"
     style="fill:#999999;fill-opacity:1;fill-rule:evenodd;stroke:#ffffff;stroke-width:0.264583;stroke-linecap:square;stroke-miterlimit:4;stroke-dasharray:none;stroke-opacity:1" /><title
     id="title24726-5-8-6-6">b'Straight-Short'</title></g><g
   id="Sketch005-9-1"
   transform="matrix(0.8660254,-0.5,-0.5,-0.8660254,391.79894,61.058474)"
   style="display:inline;fill:#999999;stroke:#ffffff;stroke-width:0.264583;stroke-dasharray:none;stroke-opacity:1"><path
     id="Sketch005_w0000-2-5"
     d="m -1.3371088,4.2159403 -1.9,3.2908966 A 41.85,41.85 0 0 0 -24.1621,1.9 l -9e-6,-3.8 A 45.65,45.65 0 0 1 -1.33711,4.21594"
     stroke="#000000"
     stroke-width="0.35 px"
     style="fill:#999999;fill-opacity:1;fill-rule:evenodd;stroke:#ffffff;stroke-width:0.264583;stroke-linecap:square;stroke-miterlimit:4;stroke-dasharray:none;stroke-opacity:1" /><title
     id="title29525-6-9">b'Curve-30Deg'</title></g><g
   id="Sketch003-6-4"
   transform="matrix(-1,0,0,1,402.90116,31.289529)"
   style="display:inline;fill:#999999;stroke:#ffffff;stroke-width:0.264583;stroke-dasharray:none;stroke-opacity:1"><path
     id="Sketch003_w0000-9-9"
     d="M -5.9275262,1.9 H 0 V -1.9 H -24.162109 V 1.9 A 41.85,41.85 0 0 1 -3.23711,7.50684 L -1.3371088,4.2159403 A 45.65,45.65 0 0 0 -5.92753,1.9"
     stroke="#000000"
     stroke-width="0.35 px"
     style="fill:#999999;fill-opacity:1;fill-rule:evenodd;stroke:#ffffff;stroke-width:0.264583;stroke-linecap:square;stroke-miterlimit:4;stroke-dasharray:none;stroke-opacity:1" /><title
     id="title26354-3-0">b'Switch-2Ways'</title></g><g
   id="Sketch002-7-0-9"
   transform="matrix(1,0,0,-1,310.82694,43.012305)"
   style="display:inline;fill:#999999;stroke:#ffffff;stroke-width:0.264583;stroke-dasharray:none;stroke-opacity:1"><path
     id="Sketch002_w0000-6-6-1"
     d="m 24.162109,1.9 h -4.574218 v -3.8 h 4.574218 v 3.8"
     stroke="#000000"
     stroke-width="0.35 px"
     style="fill:#999999;fill-opacity:1;fill-rule:evenodd;stroke:#ffffff;stroke-width:0.264583;stroke-linecap:square;stroke-miterlimit:4;stroke-dasharray:none;stroke-opacity:1" /><title
     id="title24726-5-8-7">b'Straight-Short'</title></g><g
   id="Sketch002-7-0-7"
   transform="matrix(1,0,0,-1,305.52845,57.38047)"
   style="display:inline;fill:#999999;stroke:#ffffff;stroke-width:0.264583;stroke-dasharray:none;stroke-opacity:1"><path
     id="Sketch002_w0000-6-6-11"
     d="m 24.162109,1.9 h -4.574218 v -3.8 h 4.574218 v 3.8"
     stroke="#000000"
     stroke-width="0.35 px"
     style="fill:#999999;fill-opacity:1;fill-rule:evenodd;stroke:#ffffff;stroke-width:0.264583;stroke-linecap:square;stroke-miterlimit:4;stroke-dasharray:none;stroke-opacity:1" /><title
     id="title24726-5-8-5">b'Straight-Short'</title></g><g
   id="Sketch001-0-5-9"
   transform="matrix(1,0,0,-1,402.90116,31.289529)"
   style="display:inline;fill:#999999;stroke:#ffffff;stroke-width:0.264583;stroke-dasharray:none;stroke-opacity:1"><path
     id="Sketch001_w0000-6-0-7"
     d="M -24.162109,1.9 H 0 v -3.8 h -24.162109 v 3.8"
     stroke="#000000"
     stroke-width="0.35 px"
     style="fill:#999999;fill-opacity:1;fill-rule:evenodd;stroke:#ffffff;stroke-width:0.264583;stroke-linecap:square;stroke-miterlimit:4;stroke-dasharray:none;stroke-opacity:1" /><title
     id="title23098-1-4-7">b'Straight-Long'</title></g><g
   id="Sketch001-0-5-6"
   transform="matrix(1,0,0,-1,378.73905,31.289529)"
   style="display:inline;fill:#999999;stroke:#ffffff;stroke-width:0.264583;stroke-dasharray:none;stroke-opacity:1"><path
     id="Sketch001_w0000-6-0-73"
     d="M -24.162109,1.9 H 0 v -3.8 h -24.162109 v 3.8"
     stroke="#000000"
     stroke-width="0.35 px"
     style="fill:#999999;fill-opacity:1;fill-rule:evenodd;stroke:#ffffff;stroke-width:0.264583;stroke-linecap:square;stroke-miterlimit:4;stroke-dasharray:none;stroke-opacity:1" /><title
     id="title23098-1-4-6">b'Straight-Long'</title></g><g
   id="Sketch001-0-5-5"
   transform="matrix(1,0,0,-1,398.32626,19.56675)"
   style="display:inline;fill:#999999;stroke:#ffffff;stroke-width:0.264583;stroke-dasharray:none;stroke-opacity:1"><path
     id="Sketch001_w0000-6-0-6"
     d="M -24.162109,1.9 H 0 v -3.8 h -24.162109 v 3.8"
     stroke="#000000"
     stroke-width="0.35 px"
     style="fill:#999999;fill-opacity:1;fill-rule:evenodd;stroke:#ffffff;stroke-width:0.264583;stroke-linecap:square;stroke-miterlimit:4;stroke-dasharray:none;stroke-opacity:1" /><title
     id="title23098-1-4-3">b'Straight-Long'</title></g><g
   id="Sketch001-0-5-94"
   transform="matrix(1,0,0,-1,402.90048,7.8439704)"
   style="display:inline;fill:#999999;stroke:#ffffff;stroke-width:0.264583;stroke-dasharray:none;stroke-opacity:1"><path
     id="Sketch001_w0000-6-0-8"
     d="M -24.162109,1.9 H 0 v -3.8 h -24.162109 v 3.8"
     stroke="#000000"
     stroke-width="0.35 px"
     style="fill:#999999;fill-opacity:1;fill-rule:evenodd;stroke:#ffffff;stroke-width:0.264583;stroke-linecap:square;stroke-miterlimit:4;stroke-dasharray:none;stroke-opacity:1" /><title
     id="title23098-1-4-1">b'Straight-Long'</title></g><g
   id="Sketch001-0-5-2"
   transform="matrix(1,0,0,-1,378.73837,7.8439704)"
   style="display:inline;fill:#999999;stroke:#ffffff;stroke-width:0.264583;stroke-dasharray:none;stroke-opacity:1"><path
     id="Sketch001_w0000-6-0-9"
     d="M -24.162109,1.9 H 0 v -3.8 h -24.162109 v 3.8"
     stroke="#000000"
     stroke-width="0.35 px"
     style="fill:#999999;fill-opacity:1;fill-rule:evenodd;stroke:#ffffff;stroke-width:0.264583;stroke-linecap:square;stroke-miterlimit:4;stroke-dasharray:none;stroke-opacity:1" /><title
     id="title23098-1-4-39">b'Straight-Long'</title></g><g
   id="Sketch001-0-5-0"
   transform="matrix(1,0,0,-1,374.16415,19.56675)"
   style="display:inline;fill:#999999;stroke:#ffffff;stroke-width:0.264583;stroke-dasharray:none;stroke-opacity:1"><path
     id="Sketch001_w0000-6-0-88"
     d="M -24.162109,1.9 H 0 v -3.8 h -24.162109 v 3.8"
     stroke="#000000"
     stroke-width="0.35 px"
     style="fill:#999999;fill-opacity:1;fill-rule:evenodd;stroke:#ffffff;stroke-width:0.264583;stroke-linecap:square;stroke-miterlimit:4;stroke-dasharray:none;stroke-opacity:1" /><title
     id="title23098-1-4-5">b'Straight-Long'</title></g><g
   id="Sketch001-0-5-09"
   transform="matrix(1,0,0,-1,358.42689,57.38047)"
   style="display:inline;fill:#999999;stroke:#ffffff;stroke-width:0.264583;stroke-dasharray:none;stroke-opacity:1"><path
     id="Sketch001_w0000-6-0-63"
     d="M -24.162109,1.9 H 0 v -3.8 h -24.162109 v 3.8"
     stroke="#000000"
     stroke-width="0.35 px"
     style="fill:#999999;fill-opacity:1;fill-rule:evenodd;stroke:#ffffff;stroke-width:0.264583;stroke-linecap:square;stroke-miterlimit:4;stroke-dasharray:none;stroke-opacity:1" /><title
     id="title23098-1-4-8">b'Straight-Long'</title></g><g
   id="Sketch002-7-0-9-5"
   transform="matrix(1,0,0,-1,310.10267,57.38047)"
   style="display:inline;fill:#999999;stroke:#ffffff;stroke-width:0.264583;stroke-dasharray:none;stroke-opacity:1"><path
     id="Sketch002_w0000-6-6-1-6"
     d="m 24.162109,1.9 h -4.574218 v -3.8 h 4.574218 v 3.8"
     stroke="#000000"
     stroke-width="0.35 px"
     style="fill:#999999;fill-opacity:1;fill-rule:evenodd;stroke:#ffffff;stroke-width:0.264583;stroke-linecap:square;stroke-miterlimit:4;stroke-dasharray:none;stroke-opacity:1" /><title
     id="title24726-5-8-7-1">b'Straight-Short'</title></g><g
   id="Sketch001-0-5-09-1"
   transform="matrix(1,0,0,-1,359.15116,43.012305)"
   style="display:inline;fill:#999999;stroke:#ffffff;stroke-width:0.264583;stroke-dasharray:none;stroke-opacity:1"><path
     id="Sketch001_w0000-6-0-63-5"
     d="M -24.162109,1.9 H 0 v -3.8 h -24.162109 v 3.8"
     stroke="#000000"
     stroke-width="0.35 px"
     style="fill:#999999;fill-opacity:1;fill-rule:evenodd;stroke:#ffffff;stroke-width:0.264583;stroke-linecap:square;stroke-miterlimit:4;stroke-dasharray:none;stroke-opacity:1" /><title
     id="title23098-1-4-8-9">b'Straight-Long'</title></g><g
   id="Sketch001-0-5-0-8"
   transform="matrix(1,0,0,-1,350.00204,19.56675)"
   style="display:inline;fill:#999999;stroke:#ffffff;stroke-width:0.264583;stroke-dasharray:none;stroke-opacity:1"><path
     id="Sketch001_w0000-6-0-88-4"
     d="M -24.162109,1.9 H 0 v -3.8 h -24.162109 v 3.8"
     stroke="#000000"
     stroke-width="0.35 px"
     style="fill:#999999;fill-opacity:1;fill-rule:evenodd;stroke:#ffffff;stroke-width:0.264583;stroke-linecap:square;stroke-miterlimit:4;stroke-dasharray:none;stroke-opacity:1" /><title
     id="title23098-1-4-5-8">b'Straight-Long'</title></g><g
   id="Sketch001-0-5-0-8-0"
   transform="matrix(1,0,0,-1,354.57626,7.8439704)"
   style="display:inline;fill:#999999;stroke:#ffffff;stroke-width:0.264583;stroke-dasharray:none;stroke-opacity:1"><path
     id="Sketch001_w0000-6-0-88-4-4"
     d="M -24.162109,1.9 H 0 v -3.8 h -24.162109 v 3.8"
     stroke="#000000"
     stroke-width="0.35 px"
     style="fill:#999999;fill-opacity:1;fill-rule:evenodd;stroke:#ffffff;stroke-width:0.264583;stroke-linecap:square;stroke-miterlimit:4;stroke-dasharray:none;stroke-opacity:1" /><title
     id="title23098-1-4-5-8-4">b'Straight-Long'</title></g><g
   id="Sketch001-0-5-0-8-1"
   transform="matrix(1,0,0,-1,354.57694,31.289529)"
   style="display:inline;fill:#999999;stroke:#ffffff;stroke-width:0.264583;stroke-dasharray:none;stroke-opacity:1"><path
     id="Sketch001_w0000-6-0-88-4-0"
     d="M -24.162109,1.9 H 0 v -3.8 h -24.162109 v 3.8"
     stroke="#000000"
     stroke-width="0.35 px"
     style="fill:#999999;fill-opacity:1;fill-rule:evenodd;stroke:#ffffff;stroke-width:0.264583;stroke-linecap:square;stroke-miterlimit:4;stroke-dasharray:none;stroke-opacity:1" /><title
     id="title23098-1-4-5-8-3">b'Straight-Long'</title></g><g
   id="g31785"
   transform="matrix(1,0,0,-1,306.25272,31.289529)"
   style="display:inline;fill:#999999;stroke:#ffffff;stroke-width:0.264583;stroke-dasharray:none;stroke-opacity:1"><path
     id="path31781"
     d="m 24.162109,1.9 h -4.574218 v -3.8 h 4.574218 v 3.8"
     stroke="#000000"
     stroke-width="0.35 px"
     style="fill:#999999;fill-opacity:1;fill-rule:evenodd;stroke:#ffffff;stroke-width:0.264583;stroke-linecap:square;stroke-miterlimit:4;stroke-dasharray:none;stroke-opacity:1" /><title
     id="title31783">b'Straight-Short'</title></g><g
   id="g31830"
   transform="matrix(1,0,0,-1,348.99895,79.000915)"
   style="display:inline;fill:#999999;stroke:#ffffff;stroke-width:0.264583;stroke-dasharray:none;stroke-opacity:1"><path
     id="path31826"
     d="M -24.162109,1.9 H 0 v -3.8 h -24.162109 v 3.8"
     stroke="#000000"
     stroke-width="0.35 px"
     style="fill:#999999;fill-opacity:1;fill-rule:evenodd;stroke:#ffffff;stroke-width:0.264583;stroke-linecap:square;stroke-miterlimit:4;stroke-dasharray:none;stroke-opacity:1" /><title
     id="title31828">b'Straight-Long'</title></g><g
   id="g31836"
   transform="matrix(1,0,0,-1,475.38749,31.289529)"
   style="fill:#999999;stroke:#ffffff;stroke-width:0.264583;stroke-dasharray:none;stroke-opacity:1"><path
     id="path31832"
     d="M -24.162109,1.9 H 0 v -3.8 h -24.162109 v 3.8"
     stroke="#000000"
     stroke-width="0.35 px"
     style="fill:#999999;fill-opacity:1;fill-rule:evenodd;stroke:#ffffff;stroke-width:0.264583;stroke-linecap:square;stroke-miterlimit:4;stroke-dasharray:none;stroke-opacity:1" /><title
     id="title31834">b'Straight-Long'</title></g><g
   id="g31842"
   transform="matrix(1,0,0,-1,499.5806,19.56675)"
   style="display:inline;fill:#999999;stroke:#ffffff;stroke-width:0.264583;stroke-dasharray:none;stroke-opacity:1"><path
     id="path31838"
     d="m 24.162109,1.9 h -4.574218 v -3.8 h 4.574218 v 3.8"
     stroke="#000000"
     stroke-width="0.35 px"
     style="fill:#999999;fill-opacity:1;fill-rule:evenodd;stroke:#ffffff;stroke-width:0.264583;stroke-linecap:square;stroke-miterlimit:4;stroke-dasharray:none;stroke-opacity:1" /><title
     id="title31840">b'Straight-Short'</title></g></g></svg>
