G04 MADE WITH FRITZING*
G04 WWW.FRITZING.ORG*
G04 DOUBLE SIDED*
G04 HOLES PLATED*
G04 CONTOUR ON CENTER OF CONTOUR VECTOR*
%ASAXBY*%
%FSLAX23Y23*%
%MOIN*%
%OFA0B0*%
%SFA1.0B1.0*%
%ADD10R,0.118110X0.078740*%
%LNPASTEMASK0*%
G90*
G70*
G54D10*
X365Y1755D03*
X1265Y1755D03*
X2165Y1755D03*
X3065Y1755D03*
X3965Y1755D03*
X365Y1655D03*
X1265Y1655D03*
X2165Y1655D03*
X3065Y1655D03*
X3965Y1655D03*
X965Y1655D03*
X1865Y1655D03*
X2765Y1655D03*
X3665Y1655D03*
X4565Y1655D03*
X765Y1755D03*
X1665Y1755D03*
X2565Y1755D03*
X3465Y1755D03*
X4365Y1755D03*
X965Y1755D03*
X1865Y1755D03*
X2765Y1755D03*
X3665Y1755D03*
X4565Y1755D03*
X565Y1755D03*
X1465Y1755D03*
X2365Y1755D03*
X3265Y1755D03*
X4165Y1755D03*
X565Y1655D03*
X1465Y1655D03*
X2365Y1655D03*
X3265Y1655D03*
X4165Y1655D03*
X765Y1655D03*
X1665Y1655D03*
X2565Y1655D03*
X3465Y1655D03*
X4365Y1655D03*
X4865Y1755D03*
X4865Y1655D03*
X5465Y1655D03*
X5265Y1755D03*
X5465Y1755D03*
X5065Y1755D03*
X5065Y1655D03*
X5265Y1655D03*
X5765Y1755D03*
X5765Y1655D03*
X6365Y1655D03*
X6165Y1755D03*
X6365Y1755D03*
X5965Y1755D03*
X5965Y1655D03*
X6165Y1655D03*
X6665Y1755D03*
X6665Y1655D03*
X7265Y1655D03*
X7065Y1755D03*
X7265Y1755D03*
X6865Y1755D03*
X6865Y1655D03*
X7065Y1655D03*
X6965Y555D03*
X7353Y555D03*
X6965Y655D03*
X7353Y655D03*
X7165Y655D03*
X7165Y555D03*
X6765Y555D03*
X6765Y655D03*
X6065Y555D03*
X6465Y555D03*
X6065Y655D03*
X6465Y655D03*
X6265Y655D03*
X6265Y555D03*
X5865Y555D03*
X5865Y655D03*
X5165Y555D03*
X5565Y555D03*
X5165Y655D03*
X5565Y655D03*
X5365Y655D03*
X5365Y555D03*
X4965Y555D03*
X4965Y655D03*
X1065Y655D03*
X1965Y655D03*
X2865Y655D03*
X3765Y655D03*
X4665Y655D03*
X1065Y555D03*
X1965Y555D03*
X2865Y555D03*
X3765Y555D03*
X4665Y555D03*
X865Y555D03*
X1765Y555D03*
X2665Y555D03*
X3565Y555D03*
X4465Y555D03*
X865Y655D03*
X1765Y655D03*
X2665Y655D03*
X3565Y655D03*
X4465Y655D03*
X665Y555D03*
X1565Y555D03*
X2465Y555D03*
X3365Y555D03*
X4265Y555D03*
X665Y655D03*
X1565Y655D03*
X2465Y655D03*
X3365Y655D03*
X4265Y655D03*
X465Y555D03*
X1365Y555D03*
X2228Y555D03*
X3165Y555D03*
X4065Y555D03*
X465Y655D03*
X1365Y655D03*
X2228Y655D03*
X3165Y655D03*
X4065Y655D03*
G04 End of PasteMask0*
M02*