G04 MADE WITH FRITZING*
G04 WWW.FRITZING.ORG*
G04 DOUBLE SIDED*
G04 HOLES PLATED*
G04 CONTOUR ON CENTER OF CONTOUR VECTOR*
%ASAXBY*%
%FSLAX23Y23*%
%MOIN*%
%OFA0B0*%
%SFA1.0B1.0*%
%ADD10C,0.062000*%
%ADD11C,0.088000*%
%ADD12C,0.080000*%
%ADD13C,0.085000*%
%ADD14C,0.135984*%
%ADD15C,0.072992*%
%ADD16C,0.049370*%
%ADD17R,0.085000X0.085000*%
%ADD18R,0.072992X0.072992*%
%ADD19R,0.128110X0.088740*%
%ADD20R,0.001000X0.001000*%
%LNMASK0*%
G90*
G70*
G54D10*
X7665Y1655D03*
X7665Y1555D03*
X7665Y1455D03*
X7665Y1355D03*
X7665Y1255D03*
X7665Y1155D03*
X7665Y1055D03*
X7665Y955D03*
X7665Y855D03*
X7665Y755D03*
X7665Y655D03*
X7665Y555D03*
X7665Y455D03*
X7665Y355D03*
X7665Y255D03*
X8665Y255D03*
X8665Y355D03*
X8665Y455D03*
X8665Y555D03*
X8665Y655D03*
X8665Y755D03*
X8665Y855D03*
X8665Y955D03*
X8665Y1055D03*
X8665Y1155D03*
X8665Y1255D03*
X8665Y1355D03*
X8665Y1455D03*
X8665Y1555D03*
X8665Y1655D03*
G54D11*
X8315Y1905D03*
X8315Y2005D03*
X8315Y2105D03*
X8315Y2205D03*
X8665Y1805D03*
X8665Y1905D03*
X8665Y2005D03*
G54D12*
X7465Y1255D03*
X7465Y1055D03*
X1165Y1255D03*
X1165Y1055D03*
X2065Y1255D03*
X2065Y1055D03*
X2965Y1255D03*
X2965Y1055D03*
X3865Y1255D03*
X3865Y1055D03*
X4765Y1255D03*
X4765Y1055D03*
X5665Y1255D03*
X5665Y1055D03*
X6565Y1255D03*
X6565Y1055D03*
G54D13*
X7815Y1555D03*
X7815Y1655D03*
G54D14*
X165Y2205D03*
X165Y105D03*
G54D15*
X153Y454D03*
X153Y355D03*
X153Y1857D03*
X153Y1955D03*
G54D13*
X153Y755D03*
X153Y655D03*
X153Y1555D03*
X153Y1655D03*
G54D11*
X153Y1243D03*
X153Y1143D03*
X153Y1043D03*
G54D16*
X5465Y1180D03*
X5365Y1130D03*
X6265Y1130D03*
X6365Y1180D03*
X7265Y1180D03*
X7165Y1130D03*
X4565Y1180D03*
X4466Y1131D03*
X965Y1180D03*
X3665Y1180D03*
X3566Y1130D03*
X1867Y1177D03*
X1765Y1130D03*
X2666Y1130D03*
X2765Y1180D03*
G54D11*
X1065Y2205D03*
X965Y2205D03*
X865Y2205D03*
X765Y2205D03*
X665Y2205D03*
X565Y2205D03*
X465Y2205D03*
X365Y2205D03*
X1965Y2205D03*
X1865Y2205D03*
X1765Y2205D03*
X1665Y2205D03*
X1565Y2205D03*
X1465Y2205D03*
X1365Y2205D03*
X1265Y2205D03*
X2865Y2205D03*
X2765Y2205D03*
X2665Y2205D03*
X2565Y2205D03*
X2465Y2205D03*
X2365Y2205D03*
X2265Y2205D03*
X2165Y2205D03*
X3765Y2205D03*
X3665Y2205D03*
X3565Y2205D03*
X3465Y2205D03*
X3365Y2205D03*
X3265Y2205D03*
X3165Y2205D03*
X3065Y2205D03*
X4665Y2205D03*
X4565Y2205D03*
X4465Y2205D03*
X4365Y2205D03*
X4265Y2205D03*
X4165Y2205D03*
X4065Y2205D03*
X3965Y2205D03*
X5565Y2205D03*
X5465Y2205D03*
X5365Y2205D03*
X5265Y2205D03*
X5165Y2205D03*
X5065Y2205D03*
X4965Y2205D03*
X4865Y2205D03*
X6465Y2205D03*
X6365Y2205D03*
X6265Y2205D03*
X6165Y2205D03*
X6065Y2205D03*
X5965Y2205D03*
X5865Y2205D03*
X5765Y2205D03*
X7365Y2205D03*
X7265Y2205D03*
X7165Y2205D03*
X7065Y2205D03*
X6965Y2205D03*
X6865Y2205D03*
X6765Y2205D03*
X6665Y2205D03*
G54D14*
X8665Y105D03*
X8665Y2205D03*
G54D13*
X1065Y1305D03*
X1065Y1005D03*
X965Y1305D03*
X965Y1005D03*
X865Y1305D03*
X865Y1005D03*
X765Y1305D03*
X765Y1005D03*
X665Y1305D03*
X665Y1005D03*
X565Y1305D03*
X565Y1005D03*
X465Y1305D03*
X465Y1005D03*
X365Y1305D03*
X365Y1005D03*
X1965Y1305D03*
X1965Y1005D03*
X1865Y1305D03*
X1865Y1005D03*
X1765Y1305D03*
X1765Y1005D03*
X1665Y1305D03*
X1665Y1005D03*
X1565Y1305D03*
X1565Y1005D03*
X1465Y1305D03*
X1465Y1005D03*
X1365Y1305D03*
X1365Y1005D03*
X1265Y1305D03*
X1265Y1005D03*
X2865Y1305D03*
X2865Y1005D03*
X2765Y1305D03*
X2765Y1005D03*
X2665Y1305D03*
X2665Y1005D03*
X2565Y1305D03*
X2565Y1005D03*
X2465Y1305D03*
X2465Y1005D03*
X2365Y1305D03*
X2365Y1005D03*
X2265Y1305D03*
X2265Y1005D03*
X2165Y1305D03*
X2165Y1005D03*
X3765Y1305D03*
X3765Y1005D03*
X3665Y1305D03*
X3665Y1005D03*
X3565Y1305D03*
X3565Y1005D03*
X3465Y1305D03*
X3465Y1005D03*
X3365Y1305D03*
X3365Y1005D03*
X3265Y1305D03*
X3265Y1005D03*
X3165Y1305D03*
X3165Y1005D03*
X3065Y1305D03*
X3065Y1005D03*
X4665Y1305D03*
X4665Y1005D03*
X4565Y1305D03*
X4565Y1005D03*
X4465Y1305D03*
X4465Y1005D03*
X4365Y1305D03*
X4365Y1005D03*
X4265Y1305D03*
X4265Y1005D03*
X4165Y1305D03*
X4165Y1005D03*
X4065Y1305D03*
X4065Y1005D03*
X3965Y1305D03*
X3965Y1005D03*
X5565Y1305D03*
X5565Y1005D03*
X5465Y1305D03*
X5465Y1005D03*
X5365Y1305D03*
X5365Y1005D03*
X5265Y1305D03*
X5265Y1005D03*
X5165Y1305D03*
X5165Y1005D03*
X5065Y1305D03*
X5065Y1005D03*
X4965Y1305D03*
X4965Y1005D03*
X4865Y1305D03*
X4865Y1005D03*
X6465Y1305D03*
X6465Y1005D03*
X6365Y1305D03*
X6365Y1005D03*
X6265Y1305D03*
X6265Y1005D03*
X6165Y1305D03*
X6165Y1005D03*
X6065Y1305D03*
X6065Y1005D03*
X5965Y1305D03*
X5965Y1005D03*
X5865Y1305D03*
X5865Y1005D03*
X5765Y1305D03*
X5765Y1005D03*
X7365Y1305D03*
X7365Y1005D03*
X7265Y1305D03*
X7265Y1005D03*
X7165Y1305D03*
X7165Y1005D03*
X7065Y1305D03*
X7065Y1005D03*
X6965Y1305D03*
X6965Y1005D03*
X6865Y1305D03*
X6865Y1005D03*
X6765Y1305D03*
X6765Y1005D03*
X6665Y1305D03*
X6665Y1005D03*
X1065Y755D03*
X1065Y455D03*
X965Y755D03*
X965Y455D03*
X865Y755D03*
X865Y455D03*
X765Y755D03*
X765Y455D03*
X665Y755D03*
X665Y455D03*
X565Y755D03*
X565Y455D03*
X465Y755D03*
X465Y455D03*
X365Y755D03*
X365Y455D03*
X1965Y755D03*
X1965Y455D03*
X1865Y755D03*
X1865Y455D03*
X1765Y755D03*
X1765Y455D03*
X1665Y755D03*
X1665Y455D03*
X1565Y755D03*
X1565Y455D03*
X1465Y755D03*
X1465Y455D03*
X1365Y755D03*
X1365Y455D03*
X1265Y755D03*
X1265Y455D03*
X2865Y755D03*
X2865Y455D03*
X2765Y755D03*
X2765Y455D03*
X2665Y755D03*
X2665Y455D03*
X2565Y755D03*
X2565Y455D03*
X2465Y755D03*
X2465Y455D03*
X2365Y755D03*
X2365Y455D03*
X2265Y755D03*
X2265Y455D03*
X2165Y755D03*
X2165Y455D03*
X3765Y755D03*
X3765Y455D03*
X3665Y755D03*
X3665Y455D03*
X3565Y755D03*
X3565Y455D03*
X3465Y755D03*
X3465Y455D03*
X3365Y755D03*
X3365Y455D03*
X3265Y755D03*
X3265Y455D03*
X3165Y755D03*
X3165Y455D03*
X3065Y755D03*
X3065Y455D03*
X4665Y755D03*
X4665Y455D03*
X4565Y755D03*
X4565Y455D03*
X4465Y755D03*
X4465Y455D03*
X4365Y755D03*
X4365Y455D03*
X4265Y755D03*
X4265Y455D03*
X4165Y755D03*
X4165Y455D03*
X4065Y755D03*
X4065Y455D03*
X3965Y755D03*
X3965Y455D03*
X5565Y755D03*
X5565Y455D03*
X5465Y755D03*
X5465Y455D03*
X5365Y755D03*
X5365Y455D03*
X5265Y755D03*
X5265Y455D03*
X5165Y755D03*
X5165Y455D03*
X5065Y755D03*
X5065Y455D03*
X4965Y755D03*
X4965Y455D03*
X4865Y755D03*
X4865Y455D03*
X6465Y755D03*
X6465Y455D03*
X6365Y755D03*
X6365Y455D03*
X6265Y755D03*
X6265Y455D03*
X6165Y755D03*
X6165Y455D03*
X6065Y755D03*
X6065Y455D03*
X5965Y755D03*
X5965Y455D03*
X5865Y755D03*
X5865Y455D03*
X5765Y755D03*
X5765Y455D03*
X7365Y755D03*
X7365Y455D03*
X7265Y755D03*
X7265Y455D03*
X7165Y755D03*
X7165Y455D03*
X7065Y755D03*
X7065Y455D03*
X6965Y755D03*
X6965Y455D03*
X6865Y755D03*
X6865Y455D03*
X6765Y755D03*
X6765Y455D03*
X6665Y755D03*
X6665Y455D03*
X365Y1555D03*
X365Y1855D03*
X465Y1555D03*
X465Y1855D03*
X565Y1555D03*
X565Y1855D03*
X665Y1555D03*
X665Y1855D03*
X765Y1555D03*
X765Y1855D03*
X865Y1555D03*
X865Y1855D03*
X965Y1555D03*
X965Y1855D03*
X1065Y1555D03*
X1065Y1855D03*
X1265Y1555D03*
X1265Y1855D03*
X1365Y1555D03*
X1365Y1855D03*
X1465Y1555D03*
X1465Y1855D03*
X1565Y1555D03*
X1565Y1855D03*
X1665Y1555D03*
X1665Y1855D03*
X1765Y1555D03*
X1765Y1855D03*
X1865Y1555D03*
X1865Y1855D03*
X1965Y1555D03*
X1965Y1855D03*
X2165Y1555D03*
X2165Y1855D03*
X2265Y1555D03*
X2265Y1855D03*
X2365Y1555D03*
X2365Y1855D03*
X2465Y1555D03*
X2465Y1855D03*
X2565Y1555D03*
X2565Y1855D03*
X2665Y1555D03*
X2665Y1855D03*
X2765Y1555D03*
X2765Y1855D03*
X2865Y1555D03*
X2865Y1855D03*
X3065Y1555D03*
X3065Y1855D03*
X3165Y1555D03*
X3165Y1855D03*
X3265Y1555D03*
X3265Y1855D03*
X3365Y1555D03*
X3365Y1855D03*
X3465Y1555D03*
X3465Y1855D03*
X3565Y1555D03*
X3565Y1855D03*
X3665Y1555D03*
X3665Y1855D03*
X3765Y1555D03*
X3765Y1855D03*
X3965Y1555D03*
X3965Y1855D03*
X4065Y1555D03*
X4065Y1855D03*
X4165Y1555D03*
X4165Y1855D03*
X4265Y1555D03*
X4265Y1855D03*
X4365Y1555D03*
X4365Y1855D03*
X4465Y1555D03*
X4465Y1855D03*
X4565Y1555D03*
X4565Y1855D03*
X4665Y1555D03*
X4665Y1855D03*
X5766Y1555D03*
X5766Y1855D03*
X5866Y1555D03*
X5866Y1855D03*
X5966Y1555D03*
X5966Y1855D03*
X6066Y1555D03*
X6066Y1855D03*
X6166Y1555D03*
X6166Y1855D03*
X6266Y1555D03*
X6266Y1855D03*
X6366Y1555D03*
X6366Y1855D03*
X6466Y1555D03*
X6466Y1855D03*
X4865Y1555D03*
X4865Y1855D03*
X4965Y1555D03*
X4965Y1855D03*
X5065Y1555D03*
X5065Y1855D03*
X5165Y1555D03*
X5165Y1855D03*
X5265Y1555D03*
X5265Y1855D03*
X5365Y1555D03*
X5365Y1855D03*
X5465Y1555D03*
X5465Y1855D03*
X5565Y1555D03*
X5565Y1855D03*
X6666Y1554D03*
X6666Y1854D03*
X6766Y1554D03*
X6766Y1854D03*
X6866Y1554D03*
X6866Y1854D03*
X6966Y1554D03*
X6966Y1854D03*
X7066Y1554D03*
X7066Y1854D03*
X7166Y1554D03*
X7166Y1854D03*
X7266Y1554D03*
X7266Y1854D03*
X7366Y1554D03*
X7366Y1854D03*
X7365Y1955D03*
X7365Y2055D03*
X6965Y2055D03*
X6965Y1955D03*
X5565Y2055D03*
X5565Y1955D03*
X6465Y2055D03*
X6465Y1955D03*
X5365Y2055D03*
X5365Y1955D03*
X6265Y2055D03*
X6265Y1955D03*
X5165Y2055D03*
X5165Y1955D03*
X6065Y2055D03*
X6065Y1955D03*
X4965Y2055D03*
X4965Y1955D03*
X5865Y2055D03*
X5865Y1955D03*
X7265Y880D03*
X7365Y880D03*
X7065Y880D03*
X7165Y880D03*
X6865Y880D03*
X6965Y880D03*
X365Y880D03*
X465Y880D03*
X1265Y880D03*
X1365Y880D03*
X2165Y880D03*
X2265Y880D03*
X3065Y880D03*
X3165Y880D03*
X3965Y880D03*
X4065Y880D03*
X4865Y880D03*
X4965Y880D03*
X5765Y880D03*
X5865Y880D03*
X565Y880D03*
X665Y880D03*
X1465Y880D03*
X1565Y880D03*
X2365Y880D03*
X2465Y880D03*
X3265Y880D03*
X3365Y880D03*
X4165Y880D03*
X4265Y880D03*
X5065Y880D03*
X5165Y880D03*
X5965Y880D03*
X6065Y880D03*
X765Y880D03*
X865Y880D03*
X1665Y880D03*
X1765Y880D03*
X2565Y880D03*
X2665Y880D03*
X3465Y880D03*
X3565Y880D03*
X4365Y880D03*
X4465Y880D03*
X5265Y880D03*
X5365Y880D03*
X6165Y880D03*
X6265Y880D03*
X965Y880D03*
X1065Y880D03*
X1865Y880D03*
X1965Y880D03*
X2765Y880D03*
X2865Y880D03*
X3665Y880D03*
X3765Y880D03*
X4565Y880D03*
X4665Y880D03*
X5465Y880D03*
X5565Y880D03*
X6365Y880D03*
X6465Y880D03*
X6665Y880D03*
X6765Y880D03*
X7265Y1430D03*
X7365Y1430D03*
X6865Y1430D03*
X6965Y1430D03*
X7165Y1430D03*
X7065Y1430D03*
X965Y1430D03*
X1065Y1430D03*
X1865Y1430D03*
X1965Y1430D03*
X2765Y1430D03*
X2865Y1430D03*
X3665Y1430D03*
X3765Y1430D03*
X4565Y1430D03*
X4665Y1430D03*
X5465Y1430D03*
X5565Y1430D03*
X6365Y1430D03*
X6465Y1430D03*
X865Y1430D03*
X765Y1430D03*
X1765Y1430D03*
X1665Y1430D03*
X2665Y1430D03*
X2565Y1430D03*
X3565Y1430D03*
X3465Y1430D03*
X4465Y1430D03*
X4365Y1430D03*
X5365Y1430D03*
X5265Y1430D03*
X6265Y1430D03*
X6165Y1430D03*
X565Y1430D03*
X665Y1430D03*
X1465Y1430D03*
X1565Y1430D03*
X2365Y1430D03*
X2465Y1430D03*
X3265Y1430D03*
X3365Y1430D03*
X4165Y1430D03*
X4265Y1430D03*
X5065Y1430D03*
X5165Y1430D03*
X5965Y1430D03*
X6065Y1430D03*
X465Y1430D03*
X365Y1430D03*
X1365Y1430D03*
X1265Y1430D03*
X2265Y1430D03*
X2165Y1430D03*
X3165Y1430D03*
X3065Y1430D03*
X4065Y1430D03*
X3965Y1430D03*
X4965Y1430D03*
X4865Y1430D03*
X5865Y1430D03*
X5765Y1430D03*
X6765Y1430D03*
X6665Y1430D03*
X7265Y355D03*
X7265Y255D03*
X7065Y355D03*
X7065Y255D03*
X6865Y355D03*
X6865Y255D03*
X965Y355D03*
X965Y255D03*
X1865Y355D03*
X1865Y255D03*
X2765Y355D03*
X2765Y255D03*
X3665Y355D03*
X3665Y255D03*
X4565Y355D03*
X4565Y255D03*
X5465Y355D03*
X5465Y255D03*
X6365Y355D03*
X6365Y255D03*
X765Y355D03*
X765Y255D03*
X1665Y355D03*
X1665Y255D03*
X2565Y355D03*
X2565Y255D03*
X3465Y355D03*
X3465Y255D03*
X4365Y355D03*
X4365Y255D03*
X5265Y355D03*
X5265Y255D03*
X6165Y355D03*
X6165Y255D03*
X565Y355D03*
X565Y255D03*
X1465Y355D03*
X1465Y255D03*
X2365Y355D03*
X2365Y255D03*
X3265Y355D03*
X3265Y255D03*
X4165Y355D03*
X4165Y255D03*
X5065Y355D03*
X5065Y255D03*
X5965Y355D03*
X5965Y255D03*
X365Y355D03*
X365Y255D03*
X1265Y355D03*
X1265Y255D03*
X2165Y355D03*
X2165Y255D03*
X3065Y355D03*
X3065Y255D03*
X3965Y355D03*
X3965Y255D03*
X4865Y355D03*
X4865Y255D03*
X5765Y355D03*
X5765Y255D03*
X6665Y355D03*
X6665Y255D03*
X4665Y2055D03*
X4665Y1955D03*
X4465Y2055D03*
X4465Y1955D03*
X1065Y2055D03*
X1065Y1955D03*
X665Y2055D03*
X665Y1955D03*
X865Y2055D03*
X865Y1955D03*
X465Y2055D03*
X465Y1955D03*
X1965Y2055D03*
X1965Y1955D03*
X1565Y2055D03*
X1565Y1955D03*
X1765Y2055D03*
X1765Y1955D03*
X1365Y2055D03*
X1365Y1955D03*
X2865Y2055D03*
X2865Y1955D03*
X2465Y2055D03*
X2465Y1955D03*
X2665Y2055D03*
X2665Y1955D03*
X2265Y2055D03*
X2265Y1955D03*
X3165Y2055D03*
X3165Y1955D03*
X3365Y2055D03*
X3365Y1955D03*
X3565Y2055D03*
X3565Y1955D03*
X3765Y2055D03*
X3765Y1955D03*
X4065Y2055D03*
X4065Y1955D03*
X4265Y2055D03*
X4265Y1955D03*
G54D11*
X365Y105D03*
X465Y105D03*
X565Y105D03*
X665Y105D03*
X765Y105D03*
X865Y105D03*
X965Y105D03*
X1065Y105D03*
X1265Y105D03*
X1365Y105D03*
X1465Y105D03*
X1565Y105D03*
X1665Y105D03*
X1765Y105D03*
X1865Y105D03*
X1965Y105D03*
X2165Y105D03*
X2265Y105D03*
X2365Y105D03*
X2465Y105D03*
X2565Y105D03*
X2665Y105D03*
X2765Y105D03*
X2865Y105D03*
X3065Y105D03*
X3165Y105D03*
X3265Y105D03*
X3365Y105D03*
X3465Y105D03*
X3565Y105D03*
X3665Y105D03*
X3765Y105D03*
X3965Y105D03*
X4065Y105D03*
X4165Y105D03*
X4265Y105D03*
X4365Y105D03*
X4465Y105D03*
X4565Y105D03*
X4665Y105D03*
X6665Y105D03*
X6765Y105D03*
X6865Y105D03*
X6965Y105D03*
X7065Y105D03*
X7165Y105D03*
X7265Y105D03*
X7365Y105D03*
X5765Y105D03*
X5865Y105D03*
X5965Y105D03*
X6065Y105D03*
X6165Y105D03*
X6265Y105D03*
X6365Y105D03*
X6465Y105D03*
X4865Y105D03*
X4965Y105D03*
X5065Y105D03*
X5165Y105D03*
X5265Y105D03*
X5365Y105D03*
X5465Y105D03*
X5565Y105D03*
G54D13*
X7165Y1955D03*
X7165Y2055D03*
X6765Y2055D03*
X6765Y1955D03*
G54D17*
X7815Y1555D03*
G54D18*
X153Y454D03*
X153Y1857D03*
G54D19*
X365Y1755D03*
X1265Y1755D03*
X2165Y1755D03*
X3065Y1755D03*
X3965Y1755D03*
X365Y1655D03*
X1265Y1655D03*
X2165Y1655D03*
X3065Y1655D03*
X3965Y1655D03*
X965Y1655D03*
X1865Y1655D03*
X2765Y1655D03*
X3665Y1655D03*
X4565Y1655D03*
X765Y1755D03*
X1665Y1755D03*
X2565Y1755D03*
X3465Y1755D03*
X4365Y1755D03*
X965Y1755D03*
X1865Y1755D03*
X2765Y1755D03*
X3665Y1755D03*
X4565Y1755D03*
X565Y1755D03*
X1465Y1755D03*
X2365Y1755D03*
X3265Y1755D03*
X4165Y1755D03*
X565Y1655D03*
X1465Y1655D03*
X2365Y1655D03*
X3265Y1655D03*
X4165Y1655D03*
X765Y1655D03*
X1665Y1655D03*
X2565Y1655D03*
X3465Y1655D03*
X4365Y1655D03*
X4865Y1755D03*
X4865Y1655D03*
X5465Y1655D03*
X5265Y1755D03*
X5465Y1755D03*
X5065Y1755D03*
X5065Y1655D03*
X5265Y1655D03*
X5765Y1755D03*
X5765Y1655D03*
X6365Y1655D03*
X6165Y1755D03*
X6365Y1755D03*
X5965Y1755D03*
X5965Y1655D03*
X6165Y1655D03*
X6665Y1755D03*
X6665Y1655D03*
X7265Y1655D03*
X7065Y1755D03*
X7265Y1755D03*
X6865Y1755D03*
X6865Y1655D03*
X7065Y1655D03*
X6965Y555D03*
X7353Y555D03*
X6965Y655D03*
X7353Y655D03*
X7165Y655D03*
X7165Y555D03*
X6765Y555D03*
X6765Y655D03*
X6065Y555D03*
X6465Y555D03*
X6065Y655D03*
X6465Y655D03*
X6265Y655D03*
X6265Y555D03*
X5865Y555D03*
X5865Y655D03*
X5165Y555D03*
X5565Y555D03*
X5165Y655D03*
X5565Y655D03*
X5365Y655D03*
X5365Y555D03*
X4965Y555D03*
X4965Y655D03*
X1065Y655D03*
X1965Y655D03*
X2865Y655D03*
X3765Y655D03*
X4665Y655D03*
X1065Y555D03*
X1965Y555D03*
X2865Y555D03*
X3765Y555D03*
X4665Y555D03*
X865Y555D03*
X1765Y555D03*
X2665Y555D03*
X3565Y555D03*
X4465Y555D03*
X865Y655D03*
X1765Y655D03*
X2665Y655D03*
X3565Y655D03*
X4465Y655D03*
X665Y555D03*
X1565Y555D03*
X2465Y555D03*
X3365Y555D03*
X4265Y555D03*
X665Y655D03*
X1565Y655D03*
X2465Y655D03*
X3365Y655D03*
X4265Y655D03*
X465Y555D03*
X1365Y555D03*
X2228Y555D03*
X3165Y555D03*
X4065Y555D03*
X465Y655D03*
X1365Y655D03*
X2228Y655D03*
X3165Y655D03*
X4065Y655D03*
G54D17*
X1065Y1305D03*
X1965Y1305D03*
X2865Y1305D03*
X3765Y1305D03*
X4665Y1305D03*
X5565Y1305D03*
X6465Y1305D03*
X7365Y1305D03*
X1065Y755D03*
X1965Y755D03*
X2865Y755D03*
X3765Y755D03*
X4665Y755D03*
X5565Y755D03*
X6465Y755D03*
X7365Y755D03*
X365Y1555D03*
X1265Y1555D03*
X2165Y1555D03*
X3065Y1555D03*
X3965Y1555D03*
X5766Y1555D03*
X4865Y1555D03*
X6666Y1554D03*
G54D20*
X7635Y1691D02*
X7698Y1691D01*
X8633Y1691D02*
X8695Y1691D01*
X7631Y1690D02*
X7702Y1690D01*
X8629Y1690D02*
X8699Y1690D01*
X7628Y1689D02*
X7705Y1689D01*
X8626Y1689D02*
X8702Y1689D01*
X7626Y1688D02*
X7707Y1688D01*
X8623Y1688D02*
X8705Y1688D01*
X7624Y1687D02*
X7709Y1687D01*
X8621Y1687D02*
X8707Y1687D01*
X7622Y1686D02*
X7711Y1686D01*
X8620Y1686D02*
X8708Y1686D01*
X7621Y1685D02*
X7713Y1685D01*
X8618Y1685D02*
X8710Y1685D01*
X7619Y1684D02*
X7714Y1684D01*
X8617Y1684D02*
X8711Y1684D01*
X7618Y1683D02*
X7715Y1683D01*
X8615Y1683D02*
X8713Y1683D01*
X7617Y1682D02*
X7716Y1682D01*
X8614Y1682D02*
X8714Y1682D01*
X7616Y1681D02*
X7718Y1681D01*
X8613Y1681D02*
X8715Y1681D01*
X7615Y1680D02*
X7718Y1680D01*
X8612Y1680D02*
X8716Y1680D01*
X7614Y1679D02*
X7719Y1679D01*
X8611Y1679D02*
X8717Y1679D01*
X7613Y1678D02*
X7720Y1678D01*
X8610Y1678D02*
X8718Y1678D01*
X7612Y1677D02*
X7721Y1677D01*
X8610Y1677D02*
X8718Y1677D01*
X7612Y1676D02*
X7722Y1676D01*
X8609Y1676D02*
X8719Y1676D01*
X7611Y1675D02*
X7722Y1675D01*
X8608Y1675D02*
X8720Y1675D01*
X7610Y1674D02*
X7723Y1674D01*
X8608Y1674D02*
X8720Y1674D01*
X7610Y1673D02*
X7723Y1673D01*
X8607Y1673D02*
X8721Y1673D01*
X7609Y1672D02*
X7724Y1672D01*
X8607Y1672D02*
X8721Y1672D01*
X7609Y1671D02*
X7724Y1671D01*
X8606Y1671D02*
X8722Y1671D01*
X7608Y1670D02*
X7725Y1670D01*
X8606Y1670D02*
X8722Y1670D01*
X7608Y1669D02*
X7725Y1669D01*
X8605Y1669D02*
X8723Y1669D01*
X7608Y1668D02*
X7726Y1668D01*
X8605Y1668D02*
X8723Y1668D01*
X7607Y1667D02*
X7726Y1667D01*
X8605Y1667D02*
X8723Y1667D01*
X7607Y1666D02*
X7726Y1666D01*
X8604Y1666D02*
X8724Y1666D01*
X7607Y1665D02*
X7727Y1665D01*
X8602Y1665D02*
X8724Y1665D01*
X7606Y1664D02*
X7727Y1664D01*
X8602Y1664D02*
X8724Y1664D01*
X7606Y1663D02*
X7727Y1663D01*
X8602Y1663D02*
X8725Y1663D01*
X7606Y1662D02*
X7727Y1662D01*
X8602Y1662D02*
X8725Y1662D01*
X7606Y1661D02*
X7664Y1661D01*
X7671Y1661D02*
X7728Y1661D01*
X8602Y1661D02*
X8661Y1661D01*
X8667Y1661D02*
X8725Y1661D01*
X7605Y1660D02*
X7663Y1660D01*
X7672Y1660D02*
X7728Y1660D01*
X8602Y1660D02*
X8659Y1660D01*
X8669Y1660D02*
X8725Y1660D01*
X7605Y1659D02*
X7662Y1659D01*
X7673Y1659D02*
X7728Y1659D01*
X8602Y1659D02*
X8659Y1659D01*
X8669Y1659D02*
X8725Y1659D01*
X7605Y1658D02*
X7661Y1658D01*
X7673Y1658D02*
X7728Y1658D01*
X8602Y1658D02*
X8658Y1658D01*
X8670Y1658D02*
X8725Y1658D01*
X7605Y1657D02*
X7661Y1657D01*
X7674Y1657D02*
X7728Y1657D01*
X8602Y1657D02*
X8658Y1657D01*
X8670Y1657D02*
X8725Y1657D01*
X7605Y1656D02*
X7661Y1656D01*
X7674Y1656D02*
X7728Y1656D01*
X8602Y1656D02*
X8657Y1656D01*
X8670Y1656D02*
X8725Y1656D01*
X7605Y1655D02*
X7661Y1655D01*
X7674Y1655D02*
X7728Y1655D01*
X8603Y1655D02*
X8657Y1655D01*
X8670Y1655D02*
X8725Y1655D01*
X7605Y1654D02*
X7661Y1654D01*
X7674Y1654D02*
X7728Y1654D01*
X8603Y1654D02*
X8658Y1654D01*
X8670Y1654D02*
X8725Y1654D01*
X7605Y1653D02*
X7661Y1653D01*
X7673Y1653D02*
X7728Y1653D01*
X8603Y1653D02*
X8658Y1653D01*
X8670Y1653D02*
X8725Y1653D01*
X7605Y1652D02*
X7662Y1652D01*
X7673Y1652D02*
X7728Y1652D01*
X8603Y1652D02*
X8659Y1652D01*
X8669Y1652D02*
X8725Y1652D01*
X7605Y1651D02*
X7663Y1651D01*
X7672Y1651D02*
X7728Y1651D01*
X8603Y1651D02*
X8660Y1651D01*
X8668Y1651D02*
X8725Y1651D01*
X7606Y1650D02*
X7664Y1650D01*
X7670Y1650D02*
X7727Y1650D01*
X8603Y1650D02*
X8661Y1650D01*
X8667Y1650D02*
X8725Y1650D01*
X7606Y1649D02*
X7727Y1649D01*
X8603Y1649D02*
X8725Y1649D01*
X7606Y1648D02*
X7727Y1648D01*
X8603Y1648D02*
X8724Y1648D01*
X7606Y1647D02*
X7727Y1647D01*
X8604Y1647D02*
X8724Y1647D01*
X7607Y1646D02*
X7727Y1646D01*
X8604Y1646D02*
X8724Y1646D01*
X7607Y1645D02*
X7726Y1645D01*
X8604Y1645D02*
X8724Y1645D01*
X7607Y1644D02*
X7726Y1644D01*
X8605Y1644D02*
X8723Y1644D01*
X7608Y1643D02*
X7726Y1643D01*
X8605Y1643D02*
X8723Y1643D01*
X7608Y1642D02*
X7725Y1642D01*
X8605Y1642D02*
X8723Y1642D01*
X7608Y1641D02*
X7725Y1641D01*
X8606Y1641D02*
X8722Y1641D01*
X7609Y1640D02*
X7724Y1640D01*
X8606Y1640D02*
X8722Y1640D01*
X7609Y1639D02*
X7724Y1639D01*
X8607Y1639D02*
X8721Y1639D01*
X7610Y1638D02*
X7723Y1638D01*
X8607Y1638D02*
X8721Y1638D01*
X7610Y1637D02*
X7723Y1637D01*
X8608Y1637D02*
X8720Y1637D01*
X7611Y1636D02*
X7722Y1636D01*
X8608Y1636D02*
X8719Y1636D01*
X7612Y1635D02*
X7721Y1635D01*
X8609Y1635D02*
X8719Y1635D01*
X7612Y1634D02*
X7721Y1634D01*
X8610Y1634D02*
X8718Y1634D01*
X7613Y1633D02*
X7720Y1633D01*
X8611Y1633D02*
X8717Y1633D01*
X7614Y1632D02*
X7719Y1632D01*
X8611Y1632D02*
X8717Y1632D01*
X7615Y1631D02*
X7718Y1631D01*
X8612Y1631D02*
X8716Y1631D01*
X7616Y1630D02*
X7717Y1630D01*
X8613Y1630D02*
X8715Y1630D01*
X7617Y1629D02*
X7716Y1629D01*
X8614Y1629D02*
X8714Y1629D01*
X7618Y1628D02*
X7715Y1628D01*
X8615Y1628D02*
X8712Y1628D01*
X7619Y1627D02*
X7714Y1627D01*
X8617Y1627D02*
X8711Y1627D01*
X7621Y1626D02*
X7712Y1626D01*
X8618Y1626D02*
X8710Y1626D01*
X7622Y1625D02*
X7711Y1625D01*
X8620Y1625D02*
X8708Y1625D01*
X7624Y1624D02*
X7709Y1624D01*
X8622Y1624D02*
X8706Y1624D01*
X7626Y1623D02*
X7707Y1623D01*
X8624Y1623D02*
X8704Y1623D01*
X7629Y1622D02*
X7704Y1622D01*
X8626Y1622D02*
X8702Y1622D01*
X7632Y1621D02*
X7701Y1621D01*
X8629Y1621D02*
X8699Y1621D01*
X7636Y1620D02*
X7697Y1620D01*
X8634Y1620D02*
X8694Y1620D01*
X7635Y1591D02*
X7698Y1591D01*
X8633Y1591D02*
X8695Y1591D01*
X7631Y1590D02*
X7702Y1590D01*
X8629Y1590D02*
X8699Y1590D01*
X7628Y1589D02*
X7705Y1589D01*
X8626Y1589D02*
X8702Y1589D01*
X7626Y1588D02*
X7707Y1588D01*
X8623Y1588D02*
X8705Y1588D01*
X7624Y1587D02*
X7709Y1587D01*
X8621Y1587D02*
X8707Y1587D01*
X7622Y1586D02*
X7711Y1586D01*
X8620Y1586D02*
X8708Y1586D01*
X7620Y1585D02*
X7713Y1585D01*
X8618Y1585D02*
X8710Y1585D01*
X7619Y1584D02*
X7714Y1584D01*
X8617Y1584D02*
X8711Y1584D01*
X7618Y1583D02*
X7715Y1583D01*
X8615Y1583D02*
X8713Y1583D01*
X7617Y1582D02*
X7716Y1582D01*
X8614Y1582D02*
X8714Y1582D01*
X7616Y1581D02*
X7717Y1581D01*
X8613Y1581D02*
X8715Y1581D01*
X7615Y1580D02*
X7718Y1580D01*
X8612Y1580D02*
X8716Y1580D01*
X7614Y1579D02*
X7719Y1579D01*
X8611Y1579D02*
X8717Y1579D01*
X7613Y1578D02*
X7720Y1578D01*
X8610Y1578D02*
X8718Y1578D01*
X7612Y1577D02*
X7721Y1577D01*
X8610Y1577D02*
X8718Y1577D01*
X7611Y1576D02*
X7721Y1576D01*
X8609Y1576D02*
X8719Y1576D01*
X7611Y1575D02*
X7722Y1575D01*
X8608Y1575D02*
X8720Y1575D01*
X7610Y1574D02*
X7723Y1574D01*
X8608Y1574D02*
X8720Y1574D01*
X7610Y1573D02*
X7723Y1573D01*
X8607Y1573D02*
X8721Y1573D01*
X7609Y1572D02*
X7724Y1572D01*
X8607Y1572D02*
X8721Y1572D01*
X7609Y1571D02*
X7724Y1571D01*
X8606Y1571D02*
X8722Y1571D01*
X7608Y1570D02*
X7725Y1570D01*
X8606Y1570D02*
X8722Y1570D01*
X7608Y1569D02*
X7725Y1569D01*
X8605Y1569D02*
X8723Y1569D01*
X7607Y1568D02*
X7726Y1568D01*
X8605Y1568D02*
X8723Y1568D01*
X7607Y1567D02*
X7726Y1567D01*
X8605Y1567D02*
X8723Y1567D01*
X7607Y1566D02*
X7726Y1566D01*
X8604Y1566D02*
X8724Y1566D01*
X7606Y1565D02*
X7727Y1565D01*
X8602Y1565D02*
X8724Y1565D01*
X7606Y1564D02*
X7727Y1564D01*
X8602Y1564D02*
X8724Y1564D01*
X7606Y1563D02*
X7727Y1563D01*
X8602Y1563D02*
X8725Y1563D01*
X7606Y1562D02*
X7727Y1562D01*
X8602Y1562D02*
X8725Y1562D01*
X7606Y1561D02*
X7664Y1561D01*
X7671Y1561D02*
X7727Y1561D01*
X8602Y1561D02*
X8661Y1561D01*
X8667Y1561D02*
X8725Y1561D01*
X7605Y1560D02*
X7662Y1560D01*
X7672Y1560D02*
X7728Y1560D01*
X8602Y1560D02*
X8659Y1560D01*
X8669Y1560D02*
X8725Y1560D01*
X7605Y1559D02*
X7662Y1559D01*
X7673Y1559D02*
X7728Y1559D01*
X8602Y1559D02*
X8658Y1559D01*
X8670Y1559D02*
X8725Y1559D01*
X7605Y1558D02*
X7661Y1558D01*
X7673Y1558D02*
X7728Y1558D01*
X8602Y1558D02*
X8658Y1558D01*
X8670Y1558D02*
X8725Y1558D01*
X7605Y1557D02*
X7661Y1557D01*
X7674Y1557D02*
X7728Y1557D01*
X8602Y1557D02*
X8657Y1557D01*
X8671Y1557D02*
X8725Y1557D01*
X7605Y1556D02*
X7661Y1556D01*
X7674Y1556D02*
X7728Y1556D01*
X8602Y1556D02*
X8657Y1556D01*
X8671Y1556D02*
X8725Y1556D01*
X7605Y1555D02*
X7661Y1555D01*
X7674Y1555D02*
X7728Y1555D01*
X8603Y1555D02*
X8657Y1555D01*
X8671Y1555D02*
X8725Y1555D01*
X7605Y1554D02*
X7661Y1554D01*
X7674Y1554D02*
X7728Y1554D01*
X8603Y1554D02*
X8657Y1554D01*
X8670Y1554D02*
X8725Y1554D01*
X7605Y1553D02*
X7661Y1553D01*
X7673Y1553D02*
X7728Y1553D01*
X8603Y1553D02*
X8658Y1553D01*
X8670Y1553D02*
X8725Y1553D01*
X7605Y1552D02*
X7662Y1552D01*
X7673Y1552D02*
X7728Y1552D01*
X8603Y1552D02*
X8659Y1552D01*
X8669Y1552D02*
X8725Y1552D01*
X7605Y1551D02*
X7663Y1551D01*
X7672Y1551D02*
X7728Y1551D01*
X8603Y1551D02*
X8659Y1551D01*
X8668Y1551D02*
X8725Y1551D01*
X7606Y1550D02*
X7665Y1550D01*
X7670Y1550D02*
X7727Y1550D01*
X8603Y1550D02*
X8661Y1550D01*
X8667Y1550D02*
X8725Y1550D01*
X7606Y1549D02*
X7727Y1549D01*
X8603Y1549D02*
X8725Y1549D01*
X7606Y1548D02*
X7727Y1548D01*
X8603Y1548D02*
X8724Y1548D01*
X7606Y1547D02*
X7727Y1547D01*
X8604Y1547D02*
X8724Y1547D01*
X7607Y1546D02*
X7726Y1546D01*
X8604Y1546D02*
X8724Y1546D01*
X7607Y1545D02*
X7726Y1545D01*
X8604Y1545D02*
X8724Y1545D01*
X7607Y1544D02*
X7726Y1544D01*
X8605Y1544D02*
X8723Y1544D01*
X7608Y1543D02*
X7725Y1543D01*
X8605Y1543D02*
X8723Y1543D01*
X7608Y1542D02*
X7725Y1542D01*
X8605Y1542D02*
X8723Y1542D01*
X7608Y1541D02*
X7725Y1541D01*
X8606Y1541D02*
X8722Y1541D01*
X7609Y1540D02*
X7724Y1540D01*
X8606Y1540D02*
X8722Y1540D01*
X7609Y1539D02*
X7724Y1539D01*
X8607Y1539D02*
X8721Y1539D01*
X7610Y1538D02*
X7723Y1538D01*
X8607Y1538D02*
X8721Y1538D01*
X7610Y1537D02*
X7723Y1537D01*
X8608Y1537D02*
X8720Y1537D01*
X7611Y1536D02*
X7722Y1536D01*
X8608Y1536D02*
X8719Y1536D01*
X7612Y1535D02*
X7721Y1535D01*
X8609Y1535D02*
X8719Y1535D01*
X7612Y1534D02*
X7721Y1534D01*
X8610Y1534D02*
X8718Y1534D01*
X7613Y1533D02*
X7720Y1533D01*
X8611Y1533D02*
X8717Y1533D01*
X7614Y1532D02*
X7719Y1532D01*
X8611Y1532D02*
X8717Y1532D01*
X7615Y1531D02*
X7718Y1531D01*
X8612Y1531D02*
X8716Y1531D01*
X7616Y1530D02*
X7717Y1530D01*
X8613Y1530D02*
X8715Y1530D01*
X7617Y1529D02*
X7716Y1529D01*
X8614Y1529D02*
X8714Y1529D01*
X7618Y1528D02*
X7715Y1528D01*
X8615Y1528D02*
X8712Y1528D01*
X7619Y1527D02*
X7714Y1527D01*
X8617Y1527D02*
X8711Y1527D01*
X7621Y1526D02*
X7712Y1526D01*
X8618Y1526D02*
X8710Y1526D01*
X7622Y1525D02*
X7711Y1525D01*
X8620Y1525D02*
X8708Y1525D01*
X7624Y1524D02*
X7709Y1524D01*
X8622Y1524D02*
X8706Y1524D01*
X7626Y1523D02*
X7707Y1523D01*
X8624Y1523D02*
X8704Y1523D01*
X7629Y1522D02*
X7704Y1522D01*
X8626Y1522D02*
X8702Y1522D01*
X7632Y1521D02*
X7701Y1521D01*
X8629Y1521D02*
X8699Y1521D01*
X7636Y1520D02*
X7697Y1520D01*
X8634Y1520D02*
X8694Y1520D01*
X7635Y1491D02*
X7698Y1491D01*
X8633Y1491D02*
X8695Y1491D01*
X7631Y1490D02*
X7702Y1490D01*
X8629Y1490D02*
X8699Y1490D01*
X7628Y1489D02*
X7705Y1489D01*
X8626Y1489D02*
X8702Y1489D01*
X7626Y1488D02*
X7707Y1488D01*
X8623Y1488D02*
X8705Y1488D01*
X7624Y1487D02*
X7709Y1487D01*
X8621Y1487D02*
X8707Y1487D01*
X7622Y1486D02*
X7711Y1486D01*
X8620Y1486D02*
X8708Y1486D01*
X7620Y1485D02*
X7713Y1485D01*
X8618Y1485D02*
X8710Y1485D01*
X7619Y1484D02*
X7714Y1484D01*
X8617Y1484D02*
X8711Y1484D01*
X7618Y1483D02*
X7715Y1483D01*
X8615Y1483D02*
X8713Y1483D01*
X7617Y1482D02*
X7716Y1482D01*
X8614Y1482D02*
X8714Y1482D01*
X7615Y1481D02*
X7717Y1481D01*
X8613Y1481D02*
X8715Y1481D01*
X7615Y1480D02*
X7718Y1480D01*
X8612Y1480D02*
X8716Y1480D01*
X7614Y1479D02*
X7719Y1479D01*
X8611Y1479D02*
X8717Y1479D01*
X7613Y1478D02*
X7720Y1478D01*
X8610Y1478D02*
X8718Y1478D01*
X7612Y1477D02*
X7721Y1477D01*
X8610Y1477D02*
X8718Y1477D01*
X7611Y1476D02*
X7721Y1476D01*
X8609Y1476D02*
X8719Y1476D01*
X7611Y1475D02*
X7722Y1475D01*
X8608Y1475D02*
X8720Y1475D01*
X7610Y1474D02*
X7723Y1474D01*
X8608Y1474D02*
X8720Y1474D01*
X7610Y1473D02*
X7723Y1473D01*
X8607Y1473D02*
X8721Y1473D01*
X7609Y1472D02*
X7724Y1472D01*
X8607Y1472D02*
X8721Y1472D01*
X7609Y1471D02*
X7724Y1471D01*
X8606Y1471D02*
X8722Y1471D01*
X7608Y1470D02*
X7725Y1470D01*
X8606Y1470D02*
X8722Y1470D01*
X7608Y1469D02*
X7725Y1469D01*
X8605Y1469D02*
X8723Y1469D01*
X7607Y1468D02*
X7726Y1468D01*
X8605Y1468D02*
X8723Y1468D01*
X7607Y1467D02*
X7726Y1467D01*
X8605Y1467D02*
X8723Y1467D01*
X7607Y1466D02*
X7726Y1466D01*
X8604Y1466D02*
X8724Y1466D01*
X7606Y1465D02*
X7727Y1465D01*
X8602Y1465D02*
X8724Y1465D01*
X7606Y1464D02*
X7727Y1464D01*
X8602Y1464D02*
X8724Y1464D01*
X7606Y1463D02*
X7727Y1463D01*
X8602Y1463D02*
X8725Y1463D01*
X7606Y1462D02*
X7727Y1462D01*
X8602Y1462D02*
X8725Y1462D01*
X7605Y1461D02*
X7664Y1461D01*
X7671Y1461D02*
X7727Y1461D01*
X8602Y1461D02*
X8661Y1461D01*
X8667Y1461D02*
X8725Y1461D01*
X7605Y1460D02*
X7662Y1460D01*
X7672Y1460D02*
X7728Y1460D01*
X8602Y1460D02*
X8659Y1460D01*
X8669Y1460D02*
X8725Y1460D01*
X7605Y1459D02*
X7662Y1459D01*
X7673Y1459D02*
X7728Y1459D01*
X8602Y1459D02*
X8658Y1459D01*
X8670Y1459D02*
X8725Y1459D01*
X7605Y1458D02*
X7661Y1458D01*
X7673Y1458D02*
X7728Y1458D01*
X8602Y1458D02*
X8658Y1458D01*
X8670Y1458D02*
X8725Y1458D01*
X7605Y1457D02*
X7661Y1457D01*
X7674Y1457D02*
X7728Y1457D01*
X8602Y1457D02*
X8657Y1457D01*
X8670Y1457D02*
X8725Y1457D01*
X7605Y1456D02*
X7661Y1456D01*
X7674Y1456D02*
X7728Y1456D01*
X8602Y1456D02*
X8657Y1456D01*
X8671Y1456D02*
X8725Y1456D01*
X7605Y1455D02*
X7661Y1455D01*
X7674Y1455D02*
X7728Y1455D01*
X8603Y1455D02*
X8657Y1455D01*
X8671Y1455D02*
X8725Y1455D01*
X7605Y1454D02*
X7661Y1454D01*
X7674Y1454D02*
X7728Y1454D01*
X8603Y1454D02*
X8657Y1454D01*
X8670Y1454D02*
X8725Y1454D01*
X7605Y1453D02*
X7661Y1453D01*
X7673Y1453D02*
X7728Y1453D01*
X8603Y1453D02*
X8658Y1453D01*
X8670Y1453D02*
X8725Y1453D01*
X7605Y1452D02*
X7662Y1452D01*
X7673Y1452D02*
X7728Y1452D01*
X8603Y1452D02*
X8659Y1452D01*
X8669Y1452D02*
X8725Y1452D01*
X7605Y1451D02*
X7663Y1451D01*
X7672Y1451D02*
X7728Y1451D01*
X8603Y1451D02*
X8659Y1451D01*
X8668Y1451D02*
X8725Y1451D01*
X7605Y1450D02*
X7664Y1450D01*
X7670Y1450D02*
X7727Y1450D01*
X8603Y1450D02*
X8661Y1450D01*
X8667Y1450D02*
X8725Y1450D01*
X7606Y1449D02*
X7727Y1449D01*
X8603Y1449D02*
X8725Y1449D01*
X7606Y1448D02*
X7727Y1448D01*
X8603Y1448D02*
X8724Y1448D01*
X7606Y1447D02*
X7727Y1447D01*
X8604Y1447D02*
X8724Y1447D01*
X7606Y1446D02*
X7726Y1446D01*
X8604Y1446D02*
X8724Y1446D01*
X7607Y1445D02*
X7726Y1445D01*
X8604Y1445D02*
X8724Y1445D01*
X7607Y1444D02*
X7726Y1444D01*
X8605Y1444D02*
X8723Y1444D01*
X7607Y1443D02*
X7725Y1443D01*
X8605Y1443D02*
X8723Y1443D01*
X7608Y1442D02*
X7725Y1442D01*
X8605Y1442D02*
X8723Y1442D01*
X7608Y1441D02*
X7725Y1441D01*
X8606Y1441D02*
X8722Y1441D01*
X7609Y1440D02*
X7724Y1440D01*
X8606Y1440D02*
X8722Y1440D01*
X7609Y1439D02*
X7724Y1439D01*
X8607Y1439D02*
X8721Y1439D01*
X7610Y1438D02*
X7723Y1438D01*
X8607Y1438D02*
X8721Y1438D01*
X7610Y1437D02*
X7723Y1437D01*
X8608Y1437D02*
X8720Y1437D01*
X7611Y1436D02*
X7722Y1436D01*
X8608Y1436D02*
X8719Y1436D01*
X7612Y1435D02*
X7721Y1435D01*
X8609Y1435D02*
X8719Y1435D01*
X7612Y1434D02*
X7721Y1434D01*
X8610Y1434D02*
X8718Y1434D01*
X7613Y1433D02*
X7720Y1433D01*
X8611Y1433D02*
X8717Y1433D01*
X7614Y1432D02*
X7719Y1432D01*
X8611Y1432D02*
X8717Y1432D01*
X7615Y1431D02*
X7718Y1431D01*
X8612Y1431D02*
X8716Y1431D01*
X7616Y1430D02*
X7717Y1430D01*
X8613Y1430D02*
X8715Y1430D01*
X7617Y1429D02*
X7716Y1429D01*
X8614Y1429D02*
X8714Y1429D01*
X7618Y1428D02*
X7715Y1428D01*
X8615Y1428D02*
X8712Y1428D01*
X7619Y1427D02*
X7714Y1427D01*
X8617Y1427D02*
X8711Y1427D01*
X7621Y1426D02*
X7712Y1426D01*
X8618Y1426D02*
X8710Y1426D01*
X7622Y1425D02*
X7711Y1425D01*
X8620Y1425D02*
X8708Y1425D01*
X7624Y1424D02*
X7709Y1424D01*
X8622Y1424D02*
X8706Y1424D01*
X7626Y1423D02*
X7707Y1423D01*
X8624Y1423D02*
X8704Y1423D01*
X7629Y1422D02*
X7704Y1422D01*
X8626Y1422D02*
X8702Y1422D01*
X7632Y1421D02*
X7701Y1421D01*
X8629Y1421D02*
X8699Y1421D01*
X7636Y1420D02*
X7697Y1420D01*
X8634Y1420D02*
X8694Y1420D01*
X7635Y1391D02*
X7698Y1391D01*
X8633Y1391D02*
X8695Y1391D01*
X7631Y1390D02*
X7702Y1390D01*
X8629Y1390D02*
X8699Y1390D01*
X7628Y1389D02*
X7705Y1389D01*
X8626Y1389D02*
X8702Y1389D01*
X7626Y1388D02*
X7707Y1388D01*
X8623Y1388D02*
X8705Y1388D01*
X7624Y1387D02*
X7709Y1387D01*
X8621Y1387D02*
X8707Y1387D01*
X7622Y1386D02*
X7711Y1386D01*
X8620Y1386D02*
X8708Y1386D01*
X7620Y1385D02*
X7713Y1385D01*
X8618Y1385D02*
X8710Y1385D01*
X7619Y1384D02*
X7714Y1384D01*
X8617Y1384D02*
X8711Y1384D01*
X7618Y1383D02*
X7715Y1383D01*
X8615Y1383D02*
X8713Y1383D01*
X7617Y1382D02*
X7716Y1382D01*
X8614Y1382D02*
X8714Y1382D01*
X7616Y1381D02*
X7717Y1381D01*
X8613Y1381D02*
X8715Y1381D01*
X7615Y1380D02*
X7718Y1380D01*
X8612Y1380D02*
X8716Y1380D01*
X7614Y1379D02*
X7719Y1379D01*
X8611Y1379D02*
X8717Y1379D01*
X7613Y1378D02*
X7720Y1378D01*
X8610Y1378D02*
X8718Y1378D01*
X7612Y1377D02*
X7721Y1377D01*
X8610Y1377D02*
X8718Y1377D01*
X7611Y1376D02*
X7721Y1376D01*
X8609Y1376D02*
X8719Y1376D01*
X7611Y1375D02*
X7722Y1375D01*
X8608Y1375D02*
X8720Y1375D01*
X7610Y1374D02*
X7723Y1374D01*
X8608Y1374D02*
X8720Y1374D01*
X7610Y1373D02*
X7723Y1373D01*
X8607Y1373D02*
X8721Y1373D01*
X7609Y1372D02*
X7724Y1372D01*
X8607Y1372D02*
X8721Y1372D01*
X7609Y1371D02*
X7724Y1371D01*
X8606Y1371D02*
X8722Y1371D01*
X7608Y1370D02*
X7725Y1370D01*
X8606Y1370D02*
X8722Y1370D01*
X7608Y1369D02*
X7725Y1369D01*
X8605Y1369D02*
X8723Y1369D01*
X7607Y1368D02*
X7726Y1368D01*
X8605Y1368D02*
X8723Y1368D01*
X7607Y1367D02*
X7726Y1367D01*
X8605Y1367D02*
X8723Y1367D01*
X7607Y1366D02*
X7726Y1366D01*
X8604Y1366D02*
X8724Y1366D01*
X7606Y1365D02*
X7727Y1365D01*
X8602Y1365D02*
X8724Y1365D01*
X7606Y1364D02*
X7727Y1364D01*
X8602Y1364D02*
X8724Y1364D01*
X7606Y1363D02*
X7727Y1363D01*
X8602Y1363D02*
X8725Y1363D01*
X7606Y1362D02*
X7727Y1362D01*
X8602Y1362D02*
X8725Y1362D01*
X7606Y1361D02*
X7664Y1361D01*
X7671Y1361D02*
X7727Y1361D01*
X8602Y1361D02*
X8661Y1361D01*
X8667Y1361D02*
X8725Y1361D01*
X7605Y1360D02*
X7662Y1360D01*
X7672Y1360D02*
X7728Y1360D01*
X8602Y1360D02*
X8659Y1360D01*
X8669Y1360D02*
X8725Y1360D01*
X7605Y1359D02*
X7662Y1359D01*
X7673Y1359D02*
X7728Y1359D01*
X8602Y1359D02*
X8658Y1359D01*
X8670Y1359D02*
X8725Y1359D01*
X7605Y1358D02*
X7661Y1358D01*
X7673Y1358D02*
X7728Y1358D01*
X8602Y1358D02*
X8658Y1358D01*
X8670Y1358D02*
X8725Y1358D01*
X7605Y1357D02*
X7661Y1357D01*
X7674Y1357D02*
X7728Y1357D01*
X8602Y1357D02*
X8657Y1357D01*
X8671Y1357D02*
X8725Y1357D01*
X7605Y1356D02*
X7661Y1356D01*
X7674Y1356D02*
X7728Y1356D01*
X8602Y1356D02*
X8657Y1356D01*
X8671Y1356D02*
X8725Y1356D01*
X7605Y1355D02*
X7661Y1355D01*
X7674Y1355D02*
X7728Y1355D01*
X8603Y1355D02*
X8657Y1355D01*
X8671Y1355D02*
X8725Y1355D01*
X7605Y1354D02*
X7661Y1354D01*
X7674Y1354D02*
X7728Y1354D01*
X8603Y1354D02*
X8657Y1354D01*
X8670Y1354D02*
X8725Y1354D01*
X7605Y1353D02*
X7661Y1353D01*
X7673Y1353D02*
X7728Y1353D01*
X8603Y1353D02*
X8658Y1353D01*
X8670Y1353D02*
X8725Y1353D01*
X7605Y1352D02*
X7662Y1352D01*
X7673Y1352D02*
X7728Y1352D01*
X8603Y1352D02*
X8659Y1352D01*
X8669Y1352D02*
X8725Y1352D01*
X7605Y1351D02*
X7663Y1351D01*
X7672Y1351D02*
X7728Y1351D01*
X8603Y1351D02*
X8659Y1351D01*
X8668Y1351D02*
X8725Y1351D01*
X7606Y1350D02*
X7665Y1350D01*
X7670Y1350D02*
X7727Y1350D01*
X8603Y1350D02*
X8661Y1350D01*
X8667Y1350D02*
X8725Y1350D01*
X7606Y1349D02*
X7727Y1349D01*
X8603Y1349D02*
X8725Y1349D01*
X7606Y1348D02*
X7727Y1348D01*
X8603Y1348D02*
X8724Y1348D01*
X7606Y1347D02*
X7727Y1347D01*
X8604Y1347D02*
X8724Y1347D01*
X7607Y1346D02*
X7726Y1346D01*
X8604Y1346D02*
X8724Y1346D01*
X7607Y1345D02*
X7726Y1345D01*
X8604Y1345D02*
X8724Y1345D01*
X7607Y1344D02*
X7726Y1344D01*
X8605Y1344D02*
X8723Y1344D01*
X7608Y1343D02*
X7725Y1343D01*
X8605Y1343D02*
X8723Y1343D01*
X7608Y1342D02*
X7725Y1342D01*
X8605Y1342D02*
X8723Y1342D01*
X7608Y1341D02*
X7725Y1341D01*
X8606Y1341D02*
X8722Y1341D01*
X7609Y1340D02*
X7724Y1340D01*
X8606Y1340D02*
X8722Y1340D01*
X7609Y1339D02*
X7724Y1339D01*
X8607Y1339D02*
X8721Y1339D01*
X7610Y1338D02*
X7723Y1338D01*
X8607Y1338D02*
X8721Y1338D01*
X7610Y1337D02*
X7723Y1337D01*
X8608Y1337D02*
X8720Y1337D01*
X7611Y1336D02*
X7722Y1336D01*
X8608Y1336D02*
X8719Y1336D01*
X7612Y1335D02*
X7721Y1335D01*
X8609Y1335D02*
X8719Y1335D01*
X7612Y1334D02*
X7721Y1334D01*
X8610Y1334D02*
X8718Y1334D01*
X7613Y1333D02*
X7720Y1333D01*
X8611Y1333D02*
X8717Y1333D01*
X7614Y1332D02*
X7719Y1332D01*
X8611Y1332D02*
X8717Y1332D01*
X7615Y1331D02*
X7718Y1331D01*
X8612Y1331D02*
X8716Y1331D01*
X7616Y1330D02*
X7717Y1330D01*
X8613Y1330D02*
X8715Y1330D01*
X7617Y1329D02*
X7716Y1329D01*
X8614Y1329D02*
X8714Y1329D01*
X7618Y1328D02*
X7715Y1328D01*
X8615Y1328D02*
X8712Y1328D01*
X7619Y1327D02*
X7714Y1327D01*
X8617Y1327D02*
X8711Y1327D01*
X7621Y1326D02*
X7712Y1326D01*
X8618Y1326D02*
X8710Y1326D01*
X7622Y1325D02*
X7711Y1325D01*
X8620Y1325D02*
X8708Y1325D01*
X7624Y1324D02*
X7709Y1324D01*
X8622Y1324D02*
X8706Y1324D01*
X7626Y1323D02*
X7707Y1323D01*
X8624Y1323D02*
X8704Y1323D01*
X7629Y1322D02*
X7704Y1322D01*
X8626Y1322D02*
X8702Y1322D01*
X7632Y1321D02*
X7701Y1321D01*
X8629Y1321D02*
X8699Y1321D01*
X7636Y1320D02*
X7697Y1320D01*
X8634Y1320D02*
X8694Y1320D01*
X7635Y1291D02*
X7698Y1291D01*
X8633Y1291D02*
X8695Y1291D01*
X7631Y1290D02*
X7702Y1290D01*
X8628Y1290D02*
X8699Y1290D01*
X7628Y1289D02*
X7705Y1289D01*
X8626Y1289D02*
X8702Y1289D01*
X7626Y1288D02*
X7707Y1288D01*
X8623Y1288D02*
X8705Y1288D01*
X7624Y1287D02*
X7709Y1287D01*
X8621Y1287D02*
X8707Y1287D01*
X7622Y1286D02*
X7711Y1286D01*
X8620Y1286D02*
X8708Y1286D01*
X7620Y1285D02*
X7713Y1285D01*
X8618Y1285D02*
X8710Y1285D01*
X7619Y1284D02*
X7714Y1284D01*
X8617Y1284D02*
X8711Y1284D01*
X7618Y1283D02*
X7715Y1283D01*
X8615Y1283D02*
X8713Y1283D01*
X7617Y1282D02*
X7716Y1282D01*
X8614Y1282D02*
X8714Y1282D01*
X7615Y1281D02*
X7717Y1281D01*
X8613Y1281D02*
X8715Y1281D01*
X7615Y1280D02*
X7718Y1280D01*
X8612Y1280D02*
X8716Y1280D01*
X7614Y1279D02*
X7719Y1279D01*
X8611Y1279D02*
X8717Y1279D01*
X7613Y1278D02*
X7720Y1278D01*
X8610Y1278D02*
X8718Y1278D01*
X7612Y1277D02*
X7721Y1277D01*
X8610Y1277D02*
X8718Y1277D01*
X7611Y1276D02*
X7721Y1276D01*
X8609Y1276D02*
X8719Y1276D01*
X7611Y1275D02*
X7722Y1275D01*
X8608Y1275D02*
X8720Y1275D01*
X7610Y1274D02*
X7723Y1274D01*
X8608Y1274D02*
X8720Y1274D01*
X7610Y1273D02*
X7723Y1273D01*
X8607Y1273D02*
X8721Y1273D01*
X7609Y1272D02*
X7724Y1272D01*
X8607Y1272D02*
X8721Y1272D01*
X7609Y1271D02*
X7724Y1271D01*
X8606Y1271D02*
X8722Y1271D01*
X7608Y1270D02*
X7725Y1270D01*
X8606Y1270D02*
X8722Y1270D01*
X7608Y1269D02*
X7725Y1269D01*
X8605Y1269D02*
X8723Y1269D01*
X7607Y1268D02*
X7726Y1268D01*
X8605Y1268D02*
X8723Y1268D01*
X7607Y1267D02*
X7726Y1267D01*
X8605Y1267D02*
X8723Y1267D01*
X7607Y1266D02*
X7726Y1266D01*
X8604Y1266D02*
X8724Y1266D01*
X7606Y1265D02*
X7727Y1265D01*
X8602Y1265D02*
X8724Y1265D01*
X7606Y1264D02*
X7727Y1264D01*
X8602Y1264D02*
X8724Y1264D01*
X7606Y1263D02*
X7727Y1263D01*
X8602Y1263D02*
X8725Y1263D01*
X7606Y1262D02*
X7727Y1262D01*
X8602Y1262D02*
X8725Y1262D01*
X7605Y1261D02*
X7664Y1261D01*
X7671Y1261D02*
X7727Y1261D01*
X8602Y1261D02*
X8661Y1261D01*
X8667Y1261D02*
X8725Y1261D01*
X7605Y1260D02*
X7663Y1260D01*
X7672Y1260D02*
X7728Y1260D01*
X8602Y1260D02*
X8659Y1260D01*
X8669Y1260D02*
X8725Y1260D01*
X7605Y1259D02*
X7662Y1259D01*
X7673Y1259D02*
X7728Y1259D01*
X8602Y1259D02*
X8658Y1259D01*
X8669Y1259D02*
X8725Y1259D01*
X7605Y1258D02*
X7661Y1258D01*
X7673Y1258D02*
X7728Y1258D01*
X8602Y1258D02*
X8658Y1258D01*
X8670Y1258D02*
X8725Y1258D01*
X7605Y1257D02*
X7661Y1257D01*
X7674Y1257D02*
X7728Y1257D01*
X8602Y1257D02*
X8658Y1257D01*
X8670Y1257D02*
X8725Y1257D01*
X7605Y1256D02*
X7661Y1256D01*
X7674Y1256D02*
X7728Y1256D01*
X8602Y1256D02*
X8657Y1256D01*
X8670Y1256D02*
X8725Y1256D01*
X7605Y1255D02*
X7661Y1255D01*
X7674Y1255D02*
X7728Y1255D01*
X8603Y1255D02*
X8657Y1255D01*
X8670Y1255D02*
X8725Y1255D01*
X7605Y1254D02*
X7661Y1254D01*
X7674Y1254D02*
X7728Y1254D01*
X8603Y1254D02*
X8658Y1254D01*
X8670Y1254D02*
X8725Y1254D01*
X7605Y1253D02*
X7661Y1253D01*
X7673Y1253D02*
X7728Y1253D01*
X8603Y1253D02*
X8658Y1253D01*
X8670Y1253D02*
X8725Y1253D01*
X7605Y1252D02*
X7662Y1252D01*
X7672Y1252D02*
X7728Y1252D01*
X8603Y1252D02*
X8659Y1252D01*
X8669Y1252D02*
X8725Y1252D01*
X7605Y1251D02*
X7663Y1251D01*
X7671Y1251D02*
X7728Y1251D01*
X8603Y1251D02*
X8660Y1251D01*
X8668Y1251D02*
X8725Y1251D01*
X7606Y1250D02*
X7664Y1250D01*
X7670Y1250D02*
X7727Y1250D01*
X8603Y1250D02*
X8661Y1250D01*
X8667Y1250D02*
X8725Y1250D01*
X7606Y1249D02*
X7727Y1249D01*
X8603Y1249D02*
X8725Y1249D01*
X7606Y1248D02*
X7727Y1248D01*
X8603Y1248D02*
X8724Y1248D01*
X7606Y1247D02*
X7727Y1247D01*
X8604Y1247D02*
X8724Y1247D01*
X7606Y1246D02*
X7726Y1246D01*
X8604Y1246D02*
X8724Y1246D01*
X7607Y1245D02*
X7726Y1245D01*
X8604Y1245D02*
X8724Y1245D01*
X7607Y1244D02*
X7726Y1244D01*
X8605Y1244D02*
X8723Y1244D01*
X7607Y1243D02*
X7725Y1243D01*
X8605Y1243D02*
X8723Y1243D01*
X7608Y1242D02*
X7725Y1242D01*
X8605Y1242D02*
X8723Y1242D01*
X7608Y1241D02*
X7725Y1241D01*
X8606Y1241D02*
X8722Y1241D01*
X7609Y1240D02*
X7724Y1240D01*
X8606Y1240D02*
X8722Y1240D01*
X7609Y1239D02*
X7724Y1239D01*
X8607Y1239D02*
X8721Y1239D01*
X7610Y1238D02*
X7723Y1238D01*
X8607Y1238D02*
X8721Y1238D01*
X7610Y1237D02*
X7723Y1237D01*
X8608Y1237D02*
X8720Y1237D01*
X7611Y1236D02*
X7722Y1236D01*
X8608Y1236D02*
X8719Y1236D01*
X7612Y1235D02*
X7721Y1235D01*
X8609Y1235D02*
X8719Y1235D01*
X7612Y1234D02*
X7721Y1234D01*
X8610Y1234D02*
X8718Y1234D01*
X7613Y1233D02*
X7720Y1233D01*
X8611Y1233D02*
X8717Y1233D01*
X7614Y1232D02*
X7719Y1232D01*
X8611Y1232D02*
X8717Y1232D01*
X7615Y1231D02*
X7718Y1231D01*
X8612Y1231D02*
X8716Y1231D01*
X7616Y1230D02*
X7717Y1230D01*
X8613Y1230D02*
X8715Y1230D01*
X7617Y1229D02*
X7716Y1229D01*
X8614Y1229D02*
X8714Y1229D01*
X7618Y1228D02*
X7715Y1228D01*
X8615Y1228D02*
X8712Y1228D01*
X7619Y1227D02*
X7714Y1227D01*
X8617Y1227D02*
X8711Y1227D01*
X7621Y1226D02*
X7712Y1226D01*
X8618Y1226D02*
X8710Y1226D01*
X7622Y1225D02*
X7711Y1225D01*
X8620Y1225D02*
X8708Y1225D01*
X7624Y1224D02*
X7709Y1224D01*
X8622Y1224D02*
X8706Y1224D01*
X7626Y1223D02*
X7707Y1223D01*
X8624Y1223D02*
X8704Y1223D01*
X7629Y1222D02*
X7704Y1222D01*
X8626Y1222D02*
X8702Y1222D01*
X7632Y1221D02*
X7701Y1221D01*
X8629Y1221D02*
X8699Y1221D01*
X7636Y1220D02*
X7696Y1220D01*
X8634Y1220D02*
X8694Y1220D01*
X7635Y1191D02*
X7698Y1191D01*
X8633Y1191D02*
X8695Y1191D01*
X7631Y1190D02*
X7702Y1190D01*
X8628Y1190D02*
X8699Y1190D01*
X7628Y1189D02*
X7705Y1189D01*
X8626Y1189D02*
X8702Y1189D01*
X7626Y1188D02*
X7707Y1188D01*
X8623Y1188D02*
X8705Y1188D01*
X7624Y1187D02*
X7709Y1187D01*
X8621Y1187D02*
X8707Y1187D01*
X7622Y1186D02*
X7711Y1186D01*
X8620Y1186D02*
X8708Y1186D01*
X7620Y1185D02*
X7713Y1185D01*
X8618Y1185D02*
X8710Y1185D01*
X7619Y1184D02*
X7714Y1184D01*
X8617Y1184D02*
X8711Y1184D01*
X7618Y1183D02*
X7715Y1183D01*
X8615Y1183D02*
X8713Y1183D01*
X7617Y1182D02*
X7716Y1182D01*
X8614Y1182D02*
X8714Y1182D01*
X7616Y1181D02*
X7717Y1181D01*
X8613Y1181D02*
X8715Y1181D01*
X7615Y1180D02*
X7718Y1180D01*
X8612Y1180D02*
X8716Y1180D01*
X7614Y1179D02*
X7719Y1179D01*
X8611Y1179D02*
X8717Y1179D01*
X7613Y1178D02*
X7720Y1178D01*
X8610Y1178D02*
X8718Y1178D01*
X7612Y1177D02*
X7721Y1177D01*
X8610Y1177D02*
X8718Y1177D01*
X7611Y1176D02*
X7721Y1176D01*
X8609Y1176D02*
X8719Y1176D01*
X7611Y1175D02*
X7722Y1175D01*
X8608Y1175D02*
X8720Y1175D01*
X7610Y1174D02*
X7723Y1174D01*
X8608Y1174D02*
X8720Y1174D01*
X7610Y1173D02*
X7723Y1173D01*
X8607Y1173D02*
X8721Y1173D01*
X7609Y1172D02*
X7724Y1172D01*
X8607Y1172D02*
X8721Y1172D01*
X7609Y1171D02*
X7724Y1171D01*
X8606Y1171D02*
X8722Y1171D01*
X7608Y1170D02*
X7725Y1170D01*
X8606Y1170D02*
X8722Y1170D01*
X7608Y1169D02*
X7725Y1169D01*
X8605Y1169D02*
X8723Y1169D01*
X7607Y1168D02*
X7726Y1168D01*
X8605Y1168D02*
X8723Y1168D01*
X7607Y1167D02*
X7726Y1167D01*
X8605Y1167D02*
X8723Y1167D01*
X7607Y1166D02*
X7726Y1166D01*
X8604Y1166D02*
X8724Y1166D01*
X7606Y1165D02*
X7727Y1165D01*
X8602Y1165D02*
X8724Y1165D01*
X7606Y1164D02*
X7727Y1164D01*
X8602Y1164D02*
X8724Y1164D01*
X7606Y1163D02*
X7727Y1163D01*
X8602Y1163D02*
X8725Y1163D01*
X7606Y1162D02*
X7727Y1162D01*
X8602Y1162D02*
X8725Y1162D01*
X7606Y1161D02*
X7664Y1161D01*
X7671Y1161D02*
X7727Y1161D01*
X8602Y1161D02*
X8661Y1161D01*
X8667Y1161D02*
X8725Y1161D01*
X7605Y1160D02*
X7663Y1160D01*
X7672Y1160D02*
X7728Y1160D01*
X8602Y1160D02*
X8659Y1160D01*
X8669Y1160D02*
X8725Y1160D01*
X7605Y1159D02*
X7662Y1159D01*
X7673Y1159D02*
X7728Y1159D01*
X8602Y1159D02*
X8658Y1159D01*
X8669Y1159D02*
X8725Y1159D01*
X7605Y1158D02*
X7661Y1158D01*
X7673Y1158D02*
X7728Y1158D01*
X8602Y1158D02*
X8658Y1158D01*
X8670Y1158D02*
X8725Y1158D01*
X7605Y1157D02*
X7661Y1157D01*
X7674Y1157D02*
X7728Y1157D01*
X8602Y1157D02*
X8658Y1157D01*
X8670Y1157D02*
X8725Y1157D01*
X7605Y1156D02*
X7661Y1156D01*
X7674Y1156D02*
X7728Y1156D01*
X8602Y1156D02*
X8657Y1156D01*
X8670Y1156D02*
X8725Y1156D01*
X7605Y1155D02*
X7661Y1155D01*
X7674Y1155D02*
X7728Y1155D01*
X8603Y1155D02*
X8657Y1155D01*
X8670Y1155D02*
X8725Y1155D01*
X7605Y1154D02*
X7661Y1154D01*
X7674Y1154D02*
X7728Y1154D01*
X8603Y1154D02*
X8658Y1154D01*
X8670Y1154D02*
X8725Y1154D01*
X7605Y1153D02*
X7661Y1153D01*
X7673Y1153D02*
X7728Y1153D01*
X8603Y1153D02*
X8658Y1153D01*
X8670Y1153D02*
X8725Y1153D01*
X7605Y1152D02*
X7662Y1152D01*
X7672Y1152D02*
X7728Y1152D01*
X8603Y1152D02*
X8659Y1152D01*
X8669Y1152D02*
X8725Y1152D01*
X7605Y1151D02*
X7663Y1151D01*
X7671Y1151D02*
X7728Y1151D01*
X8603Y1151D02*
X8660Y1151D01*
X8668Y1151D02*
X8725Y1151D01*
X7606Y1150D02*
X7664Y1150D01*
X7670Y1150D02*
X7727Y1150D01*
X8603Y1150D02*
X8661Y1150D01*
X8667Y1150D02*
X8725Y1150D01*
X7606Y1149D02*
X7727Y1149D01*
X8603Y1149D02*
X8725Y1149D01*
X7606Y1148D02*
X7727Y1148D01*
X8603Y1148D02*
X8724Y1148D01*
X7606Y1147D02*
X7727Y1147D01*
X8604Y1147D02*
X8724Y1147D01*
X7607Y1146D02*
X7726Y1146D01*
X8604Y1146D02*
X8724Y1146D01*
X7607Y1145D02*
X7726Y1145D01*
X8604Y1145D02*
X8724Y1145D01*
X7607Y1144D02*
X7726Y1144D01*
X8605Y1144D02*
X8723Y1144D01*
X7608Y1143D02*
X7725Y1143D01*
X8605Y1143D02*
X8723Y1143D01*
X7608Y1142D02*
X7725Y1142D01*
X8605Y1142D02*
X8723Y1142D01*
X7608Y1141D02*
X7725Y1141D01*
X8606Y1141D02*
X8722Y1141D01*
X7609Y1140D02*
X7724Y1140D01*
X8606Y1140D02*
X8722Y1140D01*
X7609Y1139D02*
X7724Y1139D01*
X8607Y1139D02*
X8721Y1139D01*
X7610Y1138D02*
X7723Y1138D01*
X8607Y1138D02*
X8721Y1138D01*
X7610Y1137D02*
X7723Y1137D01*
X8608Y1137D02*
X8720Y1137D01*
X7611Y1136D02*
X7722Y1136D01*
X8608Y1136D02*
X8719Y1136D01*
X7612Y1135D02*
X7721Y1135D01*
X8609Y1135D02*
X8719Y1135D01*
X7612Y1134D02*
X7721Y1134D01*
X8610Y1134D02*
X8718Y1134D01*
X7613Y1133D02*
X7720Y1133D01*
X8611Y1133D02*
X8717Y1133D01*
X7614Y1132D02*
X7719Y1132D01*
X8611Y1132D02*
X8717Y1132D01*
X7615Y1131D02*
X7718Y1131D01*
X8612Y1131D02*
X8716Y1131D01*
X7616Y1130D02*
X7717Y1130D01*
X8613Y1130D02*
X8715Y1130D01*
X7617Y1129D02*
X7716Y1129D01*
X8614Y1129D02*
X8714Y1129D01*
X7618Y1128D02*
X7715Y1128D01*
X8616Y1128D02*
X8712Y1128D01*
X7619Y1127D02*
X7714Y1127D01*
X8617Y1127D02*
X8711Y1127D01*
X7621Y1126D02*
X7712Y1126D01*
X8618Y1126D02*
X8710Y1126D01*
X7622Y1125D02*
X7711Y1125D01*
X8620Y1125D02*
X8708Y1125D01*
X7624Y1124D02*
X7709Y1124D01*
X8622Y1124D02*
X8706Y1124D01*
X7626Y1123D02*
X7707Y1123D01*
X8624Y1123D02*
X8704Y1123D01*
X7629Y1122D02*
X7704Y1122D01*
X8626Y1122D02*
X8702Y1122D01*
X7632Y1121D02*
X7701Y1121D01*
X8629Y1121D02*
X8699Y1121D01*
X7637Y1120D02*
X7696Y1120D01*
X8634Y1120D02*
X8694Y1120D01*
X7635Y1091D02*
X7698Y1091D01*
X8633Y1091D02*
X8695Y1091D01*
X7631Y1090D02*
X7702Y1090D01*
X8628Y1090D02*
X8700Y1090D01*
X7628Y1089D02*
X7705Y1089D01*
X8626Y1089D02*
X8702Y1089D01*
X7626Y1088D02*
X7707Y1088D01*
X8623Y1088D02*
X8705Y1088D01*
X7624Y1087D02*
X7709Y1087D01*
X8621Y1087D02*
X8707Y1087D01*
X7622Y1086D02*
X7711Y1086D01*
X8620Y1086D02*
X8708Y1086D01*
X7620Y1085D02*
X7713Y1085D01*
X8618Y1085D02*
X8710Y1085D01*
X7619Y1084D02*
X7714Y1084D01*
X8617Y1084D02*
X8711Y1084D01*
X7618Y1083D02*
X7715Y1083D01*
X8615Y1083D02*
X8713Y1083D01*
X7617Y1082D02*
X7716Y1082D01*
X8614Y1082D02*
X8714Y1082D01*
X7616Y1081D02*
X7717Y1081D01*
X8613Y1081D02*
X8715Y1081D01*
X7615Y1080D02*
X7718Y1080D01*
X8612Y1080D02*
X8716Y1080D01*
X7614Y1079D02*
X7719Y1079D01*
X8611Y1079D02*
X8717Y1079D01*
X7613Y1078D02*
X7720Y1078D01*
X8610Y1078D02*
X8718Y1078D01*
X7612Y1077D02*
X7721Y1077D01*
X8610Y1077D02*
X8718Y1077D01*
X7611Y1076D02*
X7721Y1076D01*
X8609Y1076D02*
X8719Y1076D01*
X7611Y1075D02*
X7722Y1075D01*
X8608Y1075D02*
X8720Y1075D01*
X7610Y1074D02*
X7723Y1074D01*
X8608Y1074D02*
X8720Y1074D01*
X7610Y1073D02*
X7723Y1073D01*
X8607Y1073D02*
X8721Y1073D01*
X7609Y1072D02*
X7724Y1072D01*
X8607Y1072D02*
X8721Y1072D01*
X7609Y1071D02*
X7724Y1071D01*
X8606Y1071D02*
X8722Y1071D01*
X7608Y1070D02*
X7725Y1070D01*
X8606Y1070D02*
X8722Y1070D01*
X7608Y1069D02*
X7725Y1069D01*
X8605Y1069D02*
X8723Y1069D01*
X7607Y1068D02*
X7726Y1068D01*
X8605Y1068D02*
X8723Y1068D01*
X7607Y1067D02*
X7726Y1067D01*
X8605Y1067D02*
X8723Y1067D01*
X7607Y1066D02*
X7726Y1066D01*
X8604Y1066D02*
X8724Y1066D01*
X7606Y1065D02*
X7727Y1065D01*
X8604Y1065D02*
X8724Y1065D01*
X7606Y1064D02*
X7727Y1064D01*
X8604Y1064D02*
X8724Y1064D01*
X7606Y1063D02*
X7727Y1063D01*
X8603Y1063D02*
X8725Y1063D01*
X7606Y1062D02*
X7727Y1062D01*
X8603Y1062D02*
X8725Y1062D01*
X7606Y1061D02*
X7664Y1061D01*
X7671Y1061D02*
X7727Y1061D01*
X8603Y1061D02*
X8660Y1061D01*
X8667Y1061D02*
X8725Y1061D01*
X7605Y1060D02*
X7663Y1060D01*
X7672Y1060D02*
X7728Y1060D01*
X8603Y1060D02*
X8659Y1060D01*
X8669Y1060D02*
X8725Y1060D01*
X7605Y1059D02*
X7662Y1059D01*
X7673Y1059D02*
X7728Y1059D01*
X8603Y1059D02*
X8658Y1059D01*
X8670Y1059D02*
X8725Y1059D01*
X7605Y1058D02*
X7661Y1058D01*
X7673Y1058D02*
X7728Y1058D01*
X8603Y1058D02*
X8658Y1058D01*
X8670Y1058D02*
X8725Y1058D01*
X7605Y1057D02*
X7661Y1057D01*
X7674Y1057D02*
X7728Y1057D01*
X8603Y1057D02*
X8657Y1057D01*
X8671Y1057D02*
X8725Y1057D01*
X7605Y1056D02*
X7661Y1056D01*
X7674Y1056D02*
X7728Y1056D01*
X8602Y1056D02*
X8657Y1056D01*
X8671Y1056D02*
X8725Y1056D01*
X7605Y1055D02*
X7661Y1055D01*
X7674Y1055D02*
X7728Y1055D01*
X8603Y1055D02*
X8657Y1055D01*
X8671Y1055D02*
X8725Y1055D01*
X7605Y1054D02*
X7661Y1054D01*
X7674Y1054D02*
X7728Y1054D01*
X8603Y1054D02*
X8657Y1054D01*
X8670Y1054D02*
X8725Y1054D01*
X7605Y1053D02*
X7661Y1053D01*
X7673Y1053D02*
X7728Y1053D01*
X8603Y1053D02*
X8658Y1053D01*
X8670Y1053D02*
X8725Y1053D01*
X7605Y1052D02*
X7662Y1052D01*
X7672Y1052D02*
X7728Y1052D01*
X8603Y1052D02*
X8658Y1052D01*
X8669Y1052D02*
X8725Y1052D01*
X7605Y1051D02*
X7663Y1051D01*
X7671Y1051D02*
X7728Y1051D01*
X8603Y1051D02*
X8659Y1051D01*
X8668Y1051D02*
X8725Y1051D01*
X7606Y1050D02*
X7664Y1050D01*
X7670Y1050D02*
X7727Y1050D01*
X8603Y1050D02*
X8661Y1050D01*
X8667Y1050D02*
X8725Y1050D01*
X7606Y1049D02*
X7727Y1049D01*
X8603Y1049D02*
X8725Y1049D01*
X7606Y1048D02*
X7727Y1048D01*
X8603Y1048D02*
X8724Y1048D01*
X7606Y1047D02*
X7727Y1047D01*
X8604Y1047D02*
X8724Y1047D01*
X7607Y1046D02*
X7726Y1046D01*
X8604Y1046D02*
X8724Y1046D01*
X7607Y1045D02*
X7726Y1045D01*
X8604Y1045D02*
X8724Y1045D01*
X7607Y1044D02*
X7726Y1044D01*
X8605Y1044D02*
X8723Y1044D01*
X7608Y1043D02*
X7725Y1043D01*
X8605Y1043D02*
X8723Y1043D01*
X7608Y1042D02*
X7725Y1042D01*
X8605Y1042D02*
X8723Y1042D01*
X7608Y1041D02*
X7725Y1041D01*
X8606Y1041D02*
X8722Y1041D01*
X7609Y1040D02*
X7724Y1040D01*
X8606Y1040D02*
X8722Y1040D01*
X7609Y1039D02*
X7724Y1039D01*
X8607Y1039D02*
X8721Y1039D01*
X7610Y1038D02*
X7723Y1038D01*
X8607Y1038D02*
X8721Y1038D01*
X7610Y1037D02*
X7723Y1037D01*
X8608Y1037D02*
X8720Y1037D01*
X7611Y1036D02*
X7722Y1036D01*
X8608Y1036D02*
X8719Y1036D01*
X7612Y1035D02*
X7721Y1035D01*
X8609Y1035D02*
X8719Y1035D01*
X7612Y1034D02*
X7721Y1034D01*
X8610Y1034D02*
X8718Y1034D01*
X7613Y1033D02*
X7720Y1033D01*
X8611Y1033D02*
X8717Y1033D01*
X7614Y1032D02*
X7719Y1032D01*
X8611Y1032D02*
X8717Y1032D01*
X7615Y1031D02*
X7718Y1031D01*
X8612Y1031D02*
X8716Y1031D01*
X7616Y1030D02*
X7717Y1030D01*
X8613Y1030D02*
X8715Y1030D01*
X7617Y1029D02*
X7716Y1029D01*
X8614Y1029D02*
X8714Y1029D01*
X7618Y1028D02*
X7715Y1028D01*
X8616Y1028D02*
X8712Y1028D01*
X7619Y1027D02*
X7714Y1027D01*
X8617Y1027D02*
X8711Y1027D01*
X7621Y1026D02*
X7712Y1026D01*
X8618Y1026D02*
X8710Y1026D01*
X7622Y1025D02*
X7711Y1025D01*
X8620Y1025D02*
X8708Y1025D01*
X7624Y1024D02*
X7709Y1024D01*
X8622Y1024D02*
X8706Y1024D01*
X7626Y1023D02*
X7707Y1023D01*
X8624Y1023D02*
X8704Y1023D01*
X7629Y1022D02*
X7704Y1022D01*
X8626Y1022D02*
X8702Y1022D01*
X7632Y1021D02*
X7701Y1021D01*
X8629Y1021D02*
X8699Y1021D01*
X7637Y1020D02*
X7696Y1020D01*
X8634Y1020D02*
X8694Y1020D01*
X7635Y991D02*
X7698Y991D01*
X8633Y991D02*
X8695Y991D01*
X7631Y990D02*
X7702Y990D01*
X8628Y990D02*
X8700Y990D01*
X7628Y989D02*
X7705Y989D01*
X8626Y989D02*
X8702Y989D01*
X7626Y988D02*
X7707Y988D01*
X8623Y988D02*
X8705Y988D01*
X7624Y987D02*
X7709Y987D01*
X8621Y987D02*
X8707Y987D01*
X7622Y986D02*
X7711Y986D01*
X8620Y986D02*
X8708Y986D01*
X7620Y985D02*
X7713Y985D01*
X8618Y985D02*
X8710Y985D01*
X7619Y984D02*
X7714Y984D01*
X8617Y984D02*
X8711Y984D01*
X7618Y983D02*
X7715Y983D01*
X8615Y983D02*
X8713Y983D01*
X7617Y982D02*
X7716Y982D01*
X8614Y982D02*
X8714Y982D01*
X7615Y981D02*
X7717Y981D01*
X8613Y981D02*
X8715Y981D01*
X7615Y980D02*
X7718Y980D01*
X8612Y980D02*
X8716Y980D01*
X7614Y979D02*
X7719Y979D01*
X8611Y979D02*
X8717Y979D01*
X7613Y978D02*
X7720Y978D01*
X8610Y978D02*
X8718Y978D01*
X7612Y977D02*
X7721Y977D01*
X8610Y977D02*
X8718Y977D01*
X7611Y976D02*
X7721Y976D01*
X8609Y976D02*
X8719Y976D01*
X7611Y975D02*
X7722Y975D01*
X8608Y975D02*
X8720Y975D01*
X7610Y974D02*
X7723Y974D01*
X8608Y974D02*
X8720Y974D01*
X7610Y973D02*
X7723Y973D01*
X8607Y973D02*
X8721Y973D01*
X7609Y972D02*
X7724Y972D01*
X8607Y972D02*
X8721Y972D01*
X7609Y971D02*
X7724Y971D01*
X8606Y971D02*
X8722Y971D01*
X7608Y970D02*
X7725Y970D01*
X8606Y970D02*
X8722Y970D01*
X7608Y969D02*
X7725Y969D01*
X8605Y969D02*
X8723Y969D01*
X7607Y968D02*
X7726Y968D01*
X8605Y968D02*
X8723Y968D01*
X7607Y967D02*
X7726Y967D01*
X8605Y967D02*
X8723Y967D01*
X7607Y966D02*
X7726Y966D01*
X8604Y966D02*
X8724Y966D01*
X7606Y965D02*
X7727Y965D01*
X8604Y965D02*
X8724Y965D01*
X7606Y964D02*
X7727Y964D01*
X8604Y964D02*
X8724Y964D01*
X7606Y963D02*
X7727Y963D01*
X8603Y963D02*
X8725Y963D01*
X7606Y962D02*
X7727Y962D01*
X8603Y962D02*
X8725Y962D01*
X7605Y961D02*
X7664Y961D01*
X7670Y961D02*
X7727Y961D01*
X8603Y961D02*
X8661Y961D01*
X8667Y961D02*
X8725Y961D01*
X7605Y960D02*
X7662Y960D01*
X7672Y960D02*
X7728Y960D01*
X8603Y960D02*
X8659Y960D01*
X8669Y960D02*
X8725Y960D01*
X7605Y959D02*
X7662Y959D01*
X7673Y959D02*
X7728Y959D01*
X8603Y959D02*
X8658Y959D01*
X8669Y959D02*
X8725Y959D01*
X7605Y958D02*
X7661Y958D01*
X7673Y958D02*
X7728Y958D01*
X8603Y958D02*
X8658Y958D01*
X8670Y958D02*
X8725Y958D01*
X7605Y957D02*
X7661Y957D01*
X7674Y957D02*
X7728Y957D01*
X8603Y957D02*
X8658Y957D01*
X8670Y957D02*
X8725Y957D01*
X7605Y956D02*
X7661Y956D01*
X7674Y956D02*
X7728Y956D01*
X8602Y956D02*
X8657Y956D01*
X8670Y956D02*
X8725Y956D01*
X7605Y955D02*
X7661Y955D01*
X7674Y955D02*
X7728Y955D01*
X8603Y955D02*
X8657Y955D01*
X8670Y955D02*
X8725Y955D01*
X7605Y954D02*
X7661Y954D01*
X7674Y954D02*
X7728Y954D01*
X8603Y954D02*
X8658Y954D01*
X8670Y954D02*
X8725Y954D01*
X7605Y953D02*
X7661Y953D01*
X7673Y953D02*
X7728Y953D01*
X8603Y953D02*
X8658Y953D01*
X8670Y953D02*
X8725Y953D01*
X7605Y952D02*
X7662Y952D01*
X7672Y952D02*
X7728Y952D01*
X8603Y952D02*
X8659Y952D01*
X8669Y952D02*
X8725Y952D01*
X7605Y951D02*
X7663Y951D01*
X7671Y951D02*
X7728Y951D01*
X8603Y951D02*
X8660Y951D01*
X8668Y951D02*
X8725Y951D01*
X7606Y950D02*
X7665Y950D01*
X7670Y950D02*
X7727Y950D01*
X8603Y950D02*
X8661Y950D01*
X8666Y950D02*
X8725Y950D01*
X7606Y949D02*
X7727Y949D01*
X8603Y949D02*
X8725Y949D01*
X7606Y948D02*
X7727Y948D01*
X8603Y948D02*
X8724Y948D01*
X7606Y947D02*
X7727Y947D01*
X8604Y947D02*
X8724Y947D01*
X7606Y946D02*
X7726Y946D01*
X8604Y946D02*
X8724Y946D01*
X7607Y945D02*
X7726Y945D01*
X8604Y945D02*
X8724Y945D01*
X7607Y944D02*
X7726Y944D01*
X8605Y944D02*
X8723Y944D01*
X7607Y943D02*
X7725Y943D01*
X8605Y943D02*
X8723Y943D01*
X7608Y942D02*
X7725Y942D01*
X8605Y942D02*
X8723Y942D01*
X7608Y941D02*
X7725Y941D01*
X8606Y941D02*
X8722Y941D01*
X7609Y940D02*
X7724Y940D01*
X8606Y940D02*
X8722Y940D01*
X7609Y939D02*
X7724Y939D01*
X8607Y939D02*
X8721Y939D01*
X7610Y938D02*
X7723Y938D01*
X8607Y938D02*
X8721Y938D01*
X7610Y937D02*
X7723Y937D01*
X8608Y937D02*
X8720Y937D01*
X7611Y936D02*
X7722Y936D01*
X8608Y936D02*
X8719Y936D01*
X7612Y935D02*
X7721Y935D01*
X8609Y935D02*
X8719Y935D01*
X7612Y934D02*
X7721Y934D01*
X8610Y934D02*
X8718Y934D01*
X7613Y933D02*
X7720Y933D01*
X8611Y933D02*
X8717Y933D01*
X7614Y932D02*
X7719Y932D01*
X8611Y932D02*
X8717Y932D01*
X7615Y931D02*
X7718Y931D01*
X8612Y931D02*
X8716Y931D01*
X7616Y930D02*
X7717Y930D01*
X8613Y930D02*
X8715Y930D01*
X7617Y929D02*
X7716Y929D01*
X8614Y929D02*
X8714Y929D01*
X7618Y928D02*
X7715Y928D01*
X8616Y928D02*
X8712Y928D01*
X7619Y927D02*
X7714Y927D01*
X8617Y927D02*
X8711Y927D01*
X7621Y926D02*
X7712Y926D01*
X8618Y926D02*
X8710Y926D01*
X7622Y925D02*
X7711Y925D01*
X8620Y925D02*
X8708Y925D01*
X7624Y924D02*
X7709Y924D01*
X8622Y924D02*
X8706Y924D01*
X7626Y923D02*
X7707Y923D01*
X8624Y923D02*
X8704Y923D01*
X7629Y922D02*
X7704Y922D01*
X8626Y922D02*
X8702Y922D01*
X7632Y921D02*
X7701Y921D01*
X8629Y921D02*
X8699Y921D01*
X7636Y920D02*
X7696Y920D01*
X8634Y920D02*
X8694Y920D01*
X7635Y891D02*
X7698Y891D01*
X8633Y891D02*
X8695Y891D01*
X7631Y890D02*
X7702Y890D01*
X8628Y890D02*
X8700Y890D01*
X7628Y889D02*
X7705Y889D01*
X8626Y889D02*
X8702Y889D01*
X7626Y888D02*
X7707Y888D01*
X8623Y888D02*
X8705Y888D01*
X7624Y887D02*
X7709Y887D01*
X8621Y887D02*
X8707Y887D01*
X7622Y886D02*
X7711Y886D01*
X8620Y886D02*
X8708Y886D01*
X7620Y885D02*
X7713Y885D01*
X8618Y885D02*
X8710Y885D01*
X7619Y884D02*
X7714Y884D01*
X8617Y884D02*
X8711Y884D01*
X7618Y883D02*
X7715Y883D01*
X8615Y883D02*
X8713Y883D01*
X7617Y882D02*
X7716Y882D01*
X8614Y882D02*
X8714Y882D01*
X7615Y881D02*
X7717Y881D01*
X8613Y881D02*
X8715Y881D01*
X7615Y880D02*
X7718Y880D01*
X8612Y880D02*
X8716Y880D01*
X7614Y879D02*
X7719Y879D01*
X8611Y879D02*
X8717Y879D01*
X7613Y878D02*
X7720Y878D01*
X8610Y878D02*
X8718Y878D01*
X7612Y877D02*
X7721Y877D01*
X8610Y877D02*
X8718Y877D01*
X7611Y876D02*
X7721Y876D01*
X8609Y876D02*
X8719Y876D01*
X7611Y875D02*
X7722Y875D01*
X8608Y875D02*
X8720Y875D01*
X7610Y874D02*
X7723Y874D01*
X8608Y874D02*
X8720Y874D01*
X7610Y873D02*
X7723Y873D01*
X8607Y873D02*
X8721Y873D01*
X7609Y872D02*
X7724Y872D01*
X8607Y872D02*
X8721Y872D01*
X7609Y871D02*
X7724Y871D01*
X8606Y871D02*
X8722Y871D01*
X7608Y870D02*
X7725Y870D01*
X8606Y870D02*
X8722Y870D01*
X7608Y869D02*
X7725Y869D01*
X8605Y869D02*
X8723Y869D01*
X7607Y868D02*
X7726Y868D01*
X8605Y868D02*
X8723Y868D01*
X7607Y867D02*
X7726Y867D01*
X8605Y867D02*
X8723Y867D01*
X7607Y866D02*
X7726Y866D01*
X8604Y866D02*
X8724Y866D01*
X7606Y865D02*
X7727Y865D01*
X8604Y865D02*
X8724Y865D01*
X7606Y864D02*
X7727Y864D01*
X8604Y864D02*
X8724Y864D01*
X7606Y863D02*
X7727Y863D01*
X8603Y863D02*
X8725Y863D01*
X7606Y862D02*
X7727Y862D01*
X8603Y862D02*
X8725Y862D01*
X7606Y861D02*
X7664Y861D01*
X7671Y861D02*
X7727Y861D01*
X8603Y861D02*
X8661Y861D01*
X8667Y861D02*
X8725Y861D01*
X7605Y860D02*
X7663Y860D01*
X7672Y860D02*
X7728Y860D01*
X8603Y860D02*
X8659Y860D01*
X8669Y860D02*
X8725Y860D01*
X7605Y859D02*
X7662Y859D01*
X7673Y859D02*
X7728Y859D01*
X8603Y859D02*
X8658Y859D01*
X8669Y859D02*
X8725Y859D01*
X7605Y858D02*
X7661Y858D01*
X7673Y858D02*
X7728Y858D01*
X8603Y858D02*
X8658Y858D01*
X8670Y858D02*
X8725Y858D01*
X7605Y857D02*
X7661Y857D01*
X7674Y857D02*
X7728Y857D01*
X8603Y857D02*
X8658Y857D01*
X8670Y857D02*
X8725Y857D01*
X7605Y856D02*
X7661Y856D01*
X7674Y856D02*
X7728Y856D01*
X8602Y856D02*
X8657Y856D01*
X8670Y856D02*
X8725Y856D01*
X7605Y855D02*
X7661Y855D01*
X7674Y855D02*
X7728Y855D01*
X8603Y855D02*
X8657Y855D01*
X8670Y855D02*
X8725Y855D01*
X7605Y854D02*
X7661Y854D01*
X7674Y854D02*
X7728Y854D01*
X8603Y854D02*
X8658Y854D01*
X8670Y854D02*
X8725Y854D01*
X7605Y853D02*
X7661Y853D01*
X7673Y853D02*
X7728Y853D01*
X8603Y853D02*
X8658Y853D01*
X8670Y853D02*
X8725Y853D01*
X7605Y852D02*
X7662Y852D01*
X7672Y852D02*
X7728Y852D01*
X8603Y852D02*
X8659Y852D01*
X8669Y852D02*
X8725Y852D01*
X7605Y851D02*
X7663Y851D01*
X7671Y851D02*
X7728Y851D01*
X8603Y851D02*
X8660Y851D01*
X8668Y851D02*
X8725Y851D01*
X7606Y850D02*
X7664Y850D01*
X7670Y850D02*
X7727Y850D01*
X8603Y850D02*
X8661Y850D01*
X8667Y850D02*
X8725Y850D01*
X7606Y849D02*
X7727Y849D01*
X8603Y849D02*
X8725Y849D01*
X7606Y848D02*
X7727Y848D01*
X8603Y848D02*
X8724Y848D01*
X7606Y847D02*
X7727Y847D01*
X8604Y847D02*
X8724Y847D01*
X7607Y846D02*
X7726Y846D01*
X8604Y846D02*
X8724Y846D01*
X7607Y845D02*
X7726Y845D01*
X8604Y845D02*
X8724Y845D01*
X7607Y844D02*
X7726Y844D01*
X8605Y844D02*
X8723Y844D01*
X7608Y843D02*
X7725Y843D01*
X8605Y843D02*
X8723Y843D01*
X7608Y842D02*
X7725Y842D01*
X8605Y842D02*
X8723Y842D01*
X7608Y841D02*
X7725Y841D01*
X8606Y841D02*
X8722Y841D01*
X7609Y840D02*
X7724Y840D01*
X8606Y840D02*
X8722Y840D01*
X7609Y839D02*
X7724Y839D01*
X8607Y839D02*
X8721Y839D01*
X7610Y838D02*
X7723Y838D01*
X8607Y838D02*
X8721Y838D01*
X7610Y837D02*
X7723Y837D01*
X8608Y837D02*
X8720Y837D01*
X7611Y836D02*
X7722Y836D01*
X8608Y836D02*
X8719Y836D01*
X7612Y835D02*
X7721Y835D01*
X8609Y835D02*
X8719Y835D01*
X7612Y834D02*
X7721Y834D01*
X8610Y834D02*
X8718Y834D01*
X7613Y833D02*
X7720Y833D01*
X8611Y833D02*
X8717Y833D01*
X7614Y832D02*
X7719Y832D01*
X8611Y832D02*
X8717Y832D01*
X7615Y831D02*
X7718Y831D01*
X8612Y831D02*
X8716Y831D01*
X7616Y830D02*
X7717Y830D01*
X8613Y830D02*
X8715Y830D01*
X7617Y829D02*
X7716Y829D01*
X8614Y829D02*
X8714Y829D01*
X7618Y828D02*
X7715Y828D01*
X8616Y828D02*
X8712Y828D01*
X7619Y827D02*
X7714Y827D01*
X8617Y827D02*
X8711Y827D01*
X7621Y826D02*
X7712Y826D01*
X8618Y826D02*
X8710Y826D01*
X7622Y825D02*
X7711Y825D01*
X8620Y825D02*
X8708Y825D01*
X7624Y824D02*
X7709Y824D01*
X8622Y824D02*
X8706Y824D01*
X7626Y823D02*
X7707Y823D01*
X8624Y823D02*
X8704Y823D01*
X7629Y822D02*
X7704Y822D01*
X8626Y822D02*
X8702Y822D01*
X7632Y821D02*
X7701Y821D01*
X8629Y821D02*
X8699Y821D01*
X7637Y820D02*
X7696Y820D01*
X8634Y820D02*
X8694Y820D01*
X7635Y791D02*
X7698Y791D01*
X8633Y791D02*
X8695Y791D01*
X7631Y790D02*
X7702Y790D01*
X8628Y790D02*
X8700Y790D01*
X7628Y789D02*
X7705Y789D01*
X8626Y789D02*
X8702Y789D01*
X7626Y788D02*
X7707Y788D01*
X8623Y788D02*
X8705Y788D01*
X7624Y787D02*
X7709Y787D01*
X8621Y787D02*
X8707Y787D01*
X7622Y786D02*
X7711Y786D01*
X8619Y786D02*
X8708Y786D01*
X7620Y785D02*
X7713Y785D01*
X8618Y785D02*
X8710Y785D01*
X7619Y784D02*
X7714Y784D01*
X8617Y784D02*
X8711Y784D01*
X7618Y783D02*
X7715Y783D01*
X8615Y783D02*
X8713Y783D01*
X7617Y782D02*
X7716Y782D01*
X8614Y782D02*
X8714Y782D01*
X7615Y781D02*
X7717Y781D01*
X8613Y781D02*
X8715Y781D01*
X7615Y780D02*
X7718Y780D01*
X8612Y780D02*
X8716Y780D01*
X7614Y779D02*
X7719Y779D01*
X8611Y779D02*
X8717Y779D01*
X7613Y778D02*
X7720Y778D01*
X8610Y778D02*
X8718Y778D01*
X7612Y777D02*
X7721Y777D01*
X8610Y777D02*
X8718Y777D01*
X7611Y776D02*
X7721Y776D01*
X8609Y776D02*
X8719Y776D01*
X7611Y775D02*
X7722Y775D01*
X8608Y775D02*
X8720Y775D01*
X7610Y774D02*
X7723Y774D01*
X8608Y774D02*
X8720Y774D01*
X7610Y773D02*
X7723Y773D01*
X8607Y773D02*
X8721Y773D01*
X7609Y772D02*
X7724Y772D01*
X8607Y772D02*
X8721Y772D01*
X7609Y771D02*
X7724Y771D01*
X8606Y771D02*
X8722Y771D01*
X7608Y770D02*
X7725Y770D01*
X8606Y770D02*
X8722Y770D01*
X7608Y769D02*
X7725Y769D01*
X8605Y769D02*
X8723Y769D01*
X7607Y768D02*
X7726Y768D01*
X8605Y768D02*
X8723Y768D01*
X7607Y767D02*
X7726Y767D01*
X8605Y767D02*
X8723Y767D01*
X7607Y766D02*
X7726Y766D01*
X8604Y766D02*
X8724Y766D01*
X7606Y765D02*
X7727Y765D01*
X8604Y765D02*
X8724Y765D01*
X7606Y764D02*
X7727Y764D01*
X8604Y764D02*
X8724Y764D01*
X7606Y763D02*
X7727Y763D01*
X8603Y763D02*
X8725Y763D01*
X7606Y762D02*
X7727Y762D01*
X8603Y762D02*
X8725Y762D01*
X7606Y761D02*
X7664Y761D01*
X7671Y761D02*
X7727Y761D01*
X8603Y761D02*
X8661Y761D01*
X8667Y761D02*
X8725Y761D01*
X7605Y760D02*
X7663Y760D01*
X7672Y760D02*
X7728Y760D01*
X8603Y760D02*
X8659Y760D01*
X8669Y760D02*
X8725Y760D01*
X7605Y759D02*
X7662Y759D01*
X7673Y759D02*
X7728Y759D01*
X8603Y759D02*
X8658Y759D01*
X8669Y759D02*
X8725Y759D01*
X7605Y758D02*
X7661Y758D01*
X7673Y758D02*
X7728Y758D01*
X8603Y758D02*
X8658Y758D01*
X8670Y758D02*
X8725Y758D01*
X7605Y757D02*
X7661Y757D01*
X7674Y757D02*
X7728Y757D01*
X8602Y757D02*
X8658Y757D01*
X8670Y757D02*
X8725Y757D01*
X7605Y756D02*
X7661Y756D01*
X7674Y756D02*
X7728Y756D01*
X8602Y756D02*
X8657Y756D01*
X8670Y756D02*
X8725Y756D01*
X7605Y755D02*
X7661Y755D01*
X7674Y755D02*
X7728Y755D01*
X8603Y755D02*
X8657Y755D01*
X8670Y755D02*
X8725Y755D01*
X7605Y754D02*
X7661Y754D01*
X7674Y754D02*
X7728Y754D01*
X8603Y754D02*
X8658Y754D01*
X8670Y754D02*
X8725Y754D01*
X7605Y753D02*
X7661Y753D01*
X7673Y753D02*
X7728Y753D01*
X8603Y753D02*
X8658Y753D01*
X8670Y753D02*
X8725Y753D01*
X7605Y752D02*
X7662Y752D01*
X7672Y752D02*
X7728Y752D01*
X8603Y752D02*
X8659Y752D01*
X8669Y752D02*
X8725Y752D01*
X7605Y751D02*
X7663Y751D01*
X7671Y751D02*
X7728Y751D01*
X8603Y751D02*
X8660Y751D01*
X8668Y751D02*
X8725Y751D01*
X7606Y750D02*
X7664Y750D01*
X7670Y750D02*
X7727Y750D01*
X8603Y750D02*
X8661Y750D01*
X8667Y750D02*
X8725Y750D01*
X7606Y749D02*
X7727Y749D01*
X8603Y749D02*
X8725Y749D01*
X7606Y748D02*
X7727Y748D01*
X8603Y748D02*
X8724Y748D01*
X7606Y747D02*
X7727Y747D01*
X8604Y747D02*
X8724Y747D01*
X7607Y746D02*
X7726Y746D01*
X8604Y746D02*
X8724Y746D01*
X7607Y745D02*
X7726Y745D01*
X8604Y745D02*
X8724Y745D01*
X7607Y744D02*
X7726Y744D01*
X8605Y744D02*
X8723Y744D01*
X7608Y743D02*
X7725Y743D01*
X8605Y743D02*
X8723Y743D01*
X7608Y742D02*
X7725Y742D01*
X8605Y742D02*
X8723Y742D01*
X7608Y741D02*
X7725Y741D01*
X8606Y741D02*
X8722Y741D01*
X7609Y740D02*
X7724Y740D01*
X8606Y740D02*
X8722Y740D01*
X7609Y739D02*
X7724Y739D01*
X8607Y739D02*
X8721Y739D01*
X7610Y738D02*
X7723Y738D01*
X8607Y738D02*
X8721Y738D01*
X7610Y737D02*
X7723Y737D01*
X8608Y737D02*
X8720Y737D01*
X7611Y736D02*
X7722Y736D01*
X8608Y736D02*
X8719Y736D01*
X7612Y735D02*
X7721Y735D01*
X8609Y735D02*
X8719Y735D01*
X7612Y734D02*
X7721Y734D01*
X8610Y734D02*
X8718Y734D01*
X7613Y733D02*
X7720Y733D01*
X8611Y733D02*
X8717Y733D01*
X7614Y732D02*
X7719Y732D01*
X8611Y732D02*
X8717Y732D01*
X7615Y731D02*
X7718Y731D01*
X8612Y731D02*
X8716Y731D01*
X7616Y730D02*
X7717Y730D01*
X8613Y730D02*
X8715Y730D01*
X7617Y729D02*
X7716Y729D01*
X8614Y729D02*
X8714Y729D01*
X7618Y728D02*
X7715Y728D01*
X8616Y728D02*
X8712Y728D01*
X7619Y727D02*
X7714Y727D01*
X8617Y727D02*
X8711Y727D01*
X7621Y726D02*
X7712Y726D01*
X8618Y726D02*
X8710Y726D01*
X7622Y725D02*
X7711Y725D01*
X8620Y725D02*
X8708Y725D01*
X7624Y724D02*
X7709Y724D01*
X8622Y724D02*
X8706Y724D01*
X7626Y723D02*
X7707Y723D01*
X8624Y723D02*
X8704Y723D01*
X7629Y722D02*
X7704Y722D01*
X8626Y722D02*
X8702Y722D01*
X7632Y721D02*
X7701Y721D01*
X8629Y721D02*
X8699Y721D01*
X7637Y720D02*
X7696Y720D01*
X8634Y720D02*
X8694Y720D01*
X7635Y691D02*
X7698Y691D01*
X8634Y691D02*
X8696Y691D01*
X7631Y690D02*
X7702Y690D01*
X8629Y690D02*
X8701Y690D01*
X7628Y689D02*
X7705Y689D01*
X8627Y689D02*
X8703Y689D01*
X7626Y688D02*
X7707Y688D01*
X8624Y688D02*
X8706Y688D01*
X7624Y687D02*
X7709Y687D01*
X8622Y687D02*
X8708Y687D01*
X7622Y686D02*
X7711Y686D01*
X8621Y686D02*
X8709Y686D01*
X7620Y685D02*
X7713Y685D01*
X8619Y685D02*
X8711Y685D01*
X7619Y684D02*
X7714Y684D01*
X8618Y684D02*
X8712Y684D01*
X7618Y683D02*
X7715Y683D01*
X8616Y683D02*
X8714Y683D01*
X7617Y682D02*
X7716Y682D01*
X8615Y682D02*
X8715Y682D01*
X7615Y681D02*
X7717Y681D01*
X8614Y681D02*
X8716Y681D01*
X7615Y680D02*
X7718Y680D01*
X8613Y680D02*
X8717Y680D01*
X7614Y679D02*
X7719Y679D01*
X8612Y679D02*
X8718Y679D01*
X7613Y678D02*
X7720Y678D01*
X8611Y678D02*
X8719Y678D01*
X7612Y677D02*
X7721Y677D01*
X8611Y677D02*
X8719Y677D01*
X7611Y676D02*
X7721Y676D01*
X8610Y676D02*
X8720Y676D01*
X7611Y675D02*
X7722Y675D01*
X8609Y675D02*
X8721Y675D01*
X7610Y674D02*
X7723Y674D01*
X8609Y674D02*
X8721Y674D01*
X7610Y673D02*
X7723Y673D01*
X8608Y673D02*
X8722Y673D01*
X7609Y672D02*
X7724Y672D01*
X8608Y672D02*
X8722Y672D01*
X7609Y671D02*
X7724Y671D01*
X8607Y671D02*
X8723Y671D01*
X7608Y670D02*
X7725Y670D01*
X8607Y670D02*
X8723Y670D01*
X7608Y669D02*
X7725Y669D01*
X8606Y669D02*
X8724Y669D01*
X7607Y668D02*
X7726Y668D01*
X8606Y668D02*
X8724Y668D01*
X7607Y667D02*
X7726Y667D01*
X8606Y667D02*
X8724Y667D01*
X7607Y666D02*
X7726Y666D01*
X8605Y666D02*
X8725Y666D01*
X7606Y665D02*
X7727Y665D01*
X8605Y665D02*
X8725Y665D01*
X7606Y664D02*
X7727Y664D01*
X8605Y664D02*
X8725Y664D01*
X7606Y663D02*
X7727Y663D01*
X8604Y663D02*
X8726Y663D01*
X7606Y662D02*
X7727Y662D01*
X8604Y662D02*
X8726Y662D01*
X7606Y661D02*
X7664Y661D01*
X7671Y661D02*
X7727Y661D01*
X8604Y661D02*
X8662Y661D01*
X8668Y661D02*
X8726Y661D01*
X7605Y660D02*
X7663Y660D01*
X7672Y660D02*
X7728Y660D01*
X8604Y660D02*
X8660Y660D01*
X8670Y660D02*
X8726Y660D01*
X7605Y659D02*
X7662Y659D01*
X7673Y659D02*
X7728Y659D01*
X8604Y659D02*
X8659Y659D01*
X8670Y659D02*
X8726Y659D01*
X7605Y658D02*
X7661Y658D01*
X7673Y658D02*
X7728Y658D01*
X8604Y658D02*
X8659Y658D01*
X8671Y658D02*
X8726Y658D01*
X7605Y657D02*
X7661Y657D01*
X7674Y657D02*
X7728Y657D01*
X8604Y657D02*
X8659Y657D01*
X8671Y657D02*
X8726Y657D01*
X7605Y656D02*
X7661Y656D01*
X7674Y656D02*
X7728Y656D01*
X8603Y656D02*
X8658Y656D01*
X8671Y656D02*
X8726Y656D01*
X7605Y655D02*
X7661Y655D01*
X7674Y655D02*
X7728Y655D01*
X8603Y655D02*
X8658Y655D01*
X8671Y655D02*
X8726Y655D01*
X7605Y654D02*
X7661Y654D01*
X7674Y654D02*
X7728Y654D01*
X8603Y654D02*
X8659Y654D01*
X8671Y654D02*
X8726Y654D01*
X7605Y653D02*
X7661Y653D01*
X7673Y653D02*
X7728Y653D01*
X8603Y653D02*
X8659Y653D01*
X8671Y653D02*
X8726Y653D01*
X7605Y652D02*
X7662Y652D01*
X7672Y652D02*
X7728Y652D01*
X8604Y652D02*
X8660Y652D01*
X8670Y652D02*
X8726Y652D01*
X7605Y651D02*
X7663Y651D01*
X7671Y651D02*
X7728Y651D01*
X8604Y651D02*
X8661Y651D01*
X8669Y651D02*
X8726Y651D01*
X7606Y650D02*
X7664Y650D01*
X7670Y650D02*
X7727Y650D01*
X8604Y650D02*
X8662Y650D01*
X8668Y650D02*
X8726Y650D01*
X7606Y649D02*
X7727Y649D01*
X8604Y649D02*
X8726Y649D01*
X7606Y648D02*
X7727Y648D01*
X8604Y648D02*
X8726Y648D01*
X7606Y647D02*
X7727Y647D01*
X8605Y647D02*
X8725Y647D01*
X7607Y646D02*
X7726Y646D01*
X8605Y646D02*
X8725Y646D01*
X7607Y645D02*
X7726Y645D01*
X8605Y645D02*
X8725Y645D01*
X7607Y644D02*
X7726Y644D01*
X8606Y644D02*
X8724Y644D01*
X7608Y643D02*
X7725Y643D01*
X8606Y643D02*
X8724Y643D01*
X7608Y642D02*
X7725Y642D01*
X8606Y642D02*
X8724Y642D01*
X7608Y641D02*
X7725Y641D01*
X8607Y641D02*
X8723Y641D01*
X7609Y640D02*
X7724Y640D01*
X8607Y640D02*
X8723Y640D01*
X7609Y639D02*
X7724Y639D01*
X8608Y639D02*
X8722Y639D01*
X7610Y638D02*
X7723Y638D01*
X8608Y638D02*
X8722Y638D01*
X7610Y637D02*
X7723Y637D01*
X8609Y637D02*
X8721Y637D01*
X7611Y636D02*
X7722Y636D01*
X8610Y636D02*
X8720Y636D01*
X7612Y635D02*
X7721Y635D01*
X8610Y635D02*
X8720Y635D01*
X7612Y634D02*
X7721Y634D01*
X8611Y634D02*
X8719Y634D01*
X7613Y633D02*
X7720Y633D01*
X8612Y633D02*
X8718Y633D01*
X7614Y632D02*
X7719Y632D01*
X8612Y632D02*
X8718Y632D01*
X7615Y631D02*
X7718Y631D01*
X8613Y631D02*
X8717Y631D01*
X7616Y630D02*
X7717Y630D01*
X8614Y630D02*
X8716Y630D01*
X7617Y629D02*
X7716Y629D01*
X8615Y629D02*
X8715Y629D01*
X7618Y628D02*
X7715Y628D01*
X8617Y628D02*
X8713Y628D01*
X7619Y627D02*
X7714Y627D01*
X8618Y627D02*
X8712Y627D01*
X7621Y626D02*
X7712Y626D01*
X8619Y626D02*
X8711Y626D01*
X7622Y625D02*
X7710Y625D01*
X8621Y625D02*
X8709Y625D01*
X7624Y624D02*
X7709Y624D01*
X8623Y624D02*
X8707Y624D01*
X7626Y623D02*
X7707Y623D01*
X8625Y623D02*
X8705Y623D01*
X7629Y622D02*
X7704Y622D01*
X8627Y622D02*
X8703Y622D01*
X7632Y621D02*
X7701Y621D01*
X8630Y621D02*
X8700Y621D01*
X7637Y620D02*
X7696Y620D01*
X8635Y620D02*
X8695Y620D01*
X7635Y591D02*
X7698Y591D01*
X8633Y591D02*
X8695Y591D01*
X7631Y590D02*
X7702Y590D01*
X8628Y590D02*
X8700Y590D01*
X7628Y589D02*
X7705Y589D01*
X8626Y589D02*
X8702Y589D01*
X7626Y588D02*
X7707Y588D01*
X8623Y588D02*
X8705Y588D01*
X7624Y587D02*
X7709Y587D01*
X8621Y587D02*
X8707Y587D01*
X7622Y586D02*
X7711Y586D01*
X8619Y586D02*
X8708Y586D01*
X7620Y585D02*
X7713Y585D01*
X8618Y585D02*
X8710Y585D01*
X7619Y584D02*
X7714Y584D01*
X8616Y584D02*
X8711Y584D01*
X7618Y583D02*
X7715Y583D01*
X8615Y583D02*
X8713Y583D01*
X7617Y582D02*
X7716Y582D01*
X8614Y582D02*
X8714Y582D01*
X7615Y581D02*
X7717Y581D01*
X8613Y581D02*
X8715Y581D01*
X7615Y580D02*
X7718Y580D01*
X8612Y580D02*
X8716Y580D01*
X7614Y579D02*
X7719Y579D01*
X8611Y579D02*
X8717Y579D01*
X7613Y578D02*
X7720Y578D01*
X8610Y578D02*
X8718Y578D01*
X7612Y577D02*
X7721Y577D01*
X8610Y577D02*
X8718Y577D01*
X7611Y576D02*
X7721Y576D01*
X8609Y576D02*
X8719Y576D01*
X7611Y575D02*
X7722Y575D01*
X8608Y575D02*
X8720Y575D01*
X7610Y574D02*
X7723Y574D01*
X8608Y574D02*
X8720Y574D01*
X7610Y573D02*
X7723Y573D01*
X8607Y573D02*
X8721Y573D01*
X7609Y572D02*
X7724Y572D01*
X8607Y572D02*
X8721Y572D01*
X7609Y571D02*
X7724Y571D01*
X8606Y571D02*
X8722Y571D01*
X7608Y570D02*
X7725Y570D01*
X8606Y570D02*
X8722Y570D01*
X7608Y569D02*
X7725Y569D01*
X8605Y569D02*
X8723Y569D01*
X7607Y568D02*
X7726Y568D01*
X8605Y568D02*
X8723Y568D01*
X7607Y567D02*
X7726Y567D01*
X8605Y567D02*
X8723Y567D01*
X7607Y566D02*
X7726Y566D01*
X8604Y566D02*
X8724Y566D01*
X7606Y565D02*
X7727Y565D01*
X8604Y565D02*
X8724Y565D01*
X7606Y564D02*
X7727Y564D01*
X8604Y564D02*
X8724Y564D01*
X7606Y563D02*
X7727Y563D01*
X8603Y563D02*
X8725Y563D01*
X7606Y562D02*
X7727Y562D01*
X8603Y562D02*
X8725Y562D01*
X7605Y561D02*
X7664Y561D01*
X7671Y561D02*
X7727Y561D01*
X8603Y561D02*
X8660Y561D01*
X8667Y561D02*
X8725Y561D01*
X7605Y560D02*
X7662Y560D01*
X7672Y560D02*
X7728Y560D01*
X8603Y560D02*
X8659Y560D01*
X8669Y560D02*
X8725Y560D01*
X7605Y559D02*
X7661Y559D01*
X7673Y559D02*
X7728Y559D01*
X8603Y559D02*
X8658Y559D01*
X8670Y559D02*
X8725Y559D01*
X7605Y558D02*
X7661Y558D01*
X7674Y558D02*
X7728Y558D01*
X8603Y558D02*
X8658Y558D01*
X8670Y558D02*
X8725Y558D01*
X7605Y557D02*
X7660Y557D01*
X7674Y557D02*
X7728Y557D01*
X8602Y557D02*
X8657Y557D01*
X8671Y557D02*
X8725Y557D01*
X7605Y556D02*
X7660Y556D01*
X7674Y556D02*
X7728Y556D01*
X8602Y556D02*
X8657Y556D01*
X8671Y556D02*
X8725Y556D01*
X7605Y555D02*
X7660Y555D01*
X7674Y555D02*
X7728Y555D01*
X8603Y555D02*
X8657Y555D01*
X8671Y555D02*
X8725Y555D01*
X7605Y554D02*
X7661Y554D01*
X7674Y554D02*
X7728Y554D01*
X8603Y554D02*
X8657Y554D01*
X8671Y554D02*
X8725Y554D01*
X7605Y553D02*
X7661Y553D01*
X7673Y553D02*
X7728Y553D01*
X8603Y553D02*
X8658Y553D01*
X8670Y553D02*
X8725Y553D01*
X7605Y552D02*
X7662Y552D01*
X7673Y552D02*
X7728Y552D01*
X8603Y552D02*
X8658Y552D01*
X8669Y552D02*
X8725Y552D01*
X7605Y551D02*
X7663Y551D01*
X7672Y551D02*
X7728Y551D01*
X8603Y551D02*
X8659Y551D01*
X8668Y551D02*
X8725Y551D01*
X7606Y550D02*
X7664Y550D01*
X7670Y550D02*
X7727Y550D01*
X8603Y550D02*
X8661Y550D01*
X8667Y550D02*
X8725Y550D01*
X7606Y549D02*
X7727Y549D01*
X8603Y549D02*
X8725Y549D01*
X7606Y548D02*
X7727Y548D01*
X8603Y548D02*
X8724Y548D01*
X7606Y547D02*
X7727Y547D01*
X8604Y547D02*
X8724Y547D01*
X7606Y546D02*
X7726Y546D01*
X8604Y546D02*
X8724Y546D01*
X7607Y545D02*
X7726Y545D01*
X8604Y545D02*
X8724Y545D01*
X7607Y544D02*
X7726Y544D01*
X8605Y544D02*
X8723Y544D01*
X7607Y543D02*
X7725Y543D01*
X8605Y543D02*
X8723Y543D01*
X7608Y542D02*
X7725Y542D01*
X8605Y542D02*
X8723Y542D01*
X7608Y541D02*
X7725Y541D01*
X8606Y541D02*
X8722Y541D01*
X7609Y540D02*
X7724Y540D01*
X8606Y540D02*
X8722Y540D01*
X7609Y539D02*
X7724Y539D01*
X8607Y539D02*
X8721Y539D01*
X7610Y538D02*
X7723Y538D01*
X8607Y538D02*
X8721Y538D01*
X7610Y537D02*
X7723Y537D01*
X8608Y537D02*
X8720Y537D01*
X7611Y536D02*
X7722Y536D01*
X8608Y536D02*
X8719Y536D01*
X7612Y535D02*
X7721Y535D01*
X8609Y535D02*
X8719Y535D01*
X7612Y534D02*
X7721Y534D01*
X8610Y534D02*
X8718Y534D01*
X7613Y533D02*
X7720Y533D01*
X8611Y533D02*
X8717Y533D01*
X7614Y532D02*
X7719Y532D01*
X8611Y532D02*
X8717Y532D01*
X7615Y531D02*
X7718Y531D01*
X8612Y531D02*
X8716Y531D01*
X7616Y530D02*
X7717Y530D01*
X8613Y530D02*
X8715Y530D01*
X7617Y529D02*
X7716Y529D01*
X8614Y529D02*
X8714Y529D01*
X7618Y528D02*
X7715Y528D01*
X8616Y528D02*
X8712Y528D01*
X7619Y527D02*
X7714Y527D01*
X8617Y527D02*
X8711Y527D01*
X7621Y526D02*
X7712Y526D01*
X8618Y526D02*
X8710Y526D01*
X7622Y525D02*
X7710Y525D01*
X8620Y525D02*
X8708Y525D01*
X7624Y524D02*
X7709Y524D01*
X8622Y524D02*
X8706Y524D01*
X7626Y523D02*
X7707Y523D01*
X8624Y523D02*
X8704Y523D01*
X7629Y522D02*
X7704Y522D01*
X8626Y522D02*
X8702Y522D01*
X7632Y521D02*
X7701Y521D01*
X8629Y521D02*
X8699Y521D01*
X7637Y520D02*
X7696Y520D01*
X8634Y520D02*
X8694Y520D01*
X7635Y491D02*
X7698Y491D01*
X8632Y491D02*
X8696Y491D01*
X7631Y490D02*
X7702Y490D01*
X8628Y490D02*
X8700Y490D01*
X7628Y489D02*
X7705Y489D01*
X8626Y489D02*
X8702Y489D01*
X7626Y488D02*
X7707Y488D01*
X8623Y488D02*
X8705Y488D01*
X7624Y487D02*
X7709Y487D01*
X8621Y487D02*
X8707Y487D01*
X7622Y486D02*
X7711Y486D01*
X8619Y486D02*
X8708Y486D01*
X7620Y485D02*
X7713Y485D01*
X8618Y485D02*
X8710Y485D01*
X7619Y484D02*
X7714Y484D01*
X8616Y484D02*
X8711Y484D01*
X7618Y483D02*
X7715Y483D01*
X8615Y483D02*
X8713Y483D01*
X7617Y482D02*
X7716Y482D01*
X8614Y482D02*
X8714Y482D01*
X7615Y481D02*
X7717Y481D01*
X8613Y481D02*
X8715Y481D01*
X7615Y480D02*
X7718Y480D01*
X8612Y480D02*
X8716Y480D01*
X7614Y479D02*
X7719Y479D01*
X8611Y479D02*
X8717Y479D01*
X7613Y478D02*
X7720Y478D01*
X8610Y478D02*
X8718Y478D01*
X7612Y477D02*
X7721Y477D01*
X8610Y477D02*
X8718Y477D01*
X7611Y476D02*
X7722Y476D01*
X8609Y476D02*
X8719Y476D01*
X7611Y475D02*
X7722Y475D01*
X8608Y475D02*
X8720Y475D01*
X7610Y474D02*
X7723Y474D01*
X8608Y474D02*
X8720Y474D01*
X7610Y473D02*
X7723Y473D01*
X8607Y473D02*
X8721Y473D01*
X7609Y472D02*
X7724Y472D01*
X8607Y472D02*
X8721Y472D01*
X7609Y471D02*
X7724Y471D01*
X8606Y471D02*
X8722Y471D01*
X7608Y470D02*
X7725Y470D01*
X8606Y470D02*
X8722Y470D01*
X7608Y469D02*
X7725Y469D01*
X8605Y469D02*
X8723Y469D01*
X7607Y468D02*
X7726Y468D01*
X8605Y468D02*
X8723Y468D01*
X7607Y467D02*
X7726Y467D01*
X8605Y467D02*
X8723Y467D01*
X7607Y466D02*
X7726Y466D01*
X8604Y466D02*
X8724Y466D01*
X7606Y465D02*
X7727Y465D01*
X8604Y465D02*
X8724Y465D01*
X7606Y464D02*
X7727Y464D01*
X8604Y464D02*
X8724Y464D01*
X7606Y463D02*
X7727Y463D01*
X8603Y463D02*
X8725Y463D01*
X7606Y462D02*
X7727Y462D01*
X8603Y462D02*
X8725Y462D01*
X7606Y461D02*
X7664Y461D01*
X7671Y461D02*
X7727Y461D01*
X8603Y461D02*
X8661Y461D01*
X8667Y461D02*
X8725Y461D01*
X7605Y460D02*
X7662Y460D01*
X7672Y460D02*
X7728Y460D01*
X8603Y460D02*
X8659Y460D01*
X8669Y460D02*
X8725Y460D01*
X7605Y459D02*
X7662Y459D01*
X7673Y459D02*
X7728Y459D01*
X8603Y459D02*
X8658Y459D01*
X8670Y459D02*
X8725Y459D01*
X7605Y458D02*
X7661Y458D01*
X7673Y458D02*
X7728Y458D01*
X8603Y458D02*
X8658Y458D01*
X8670Y458D02*
X8725Y458D01*
X7605Y457D02*
X7661Y457D01*
X7674Y457D02*
X7728Y457D01*
X8602Y457D02*
X8657Y457D01*
X8671Y457D02*
X8725Y457D01*
X7605Y456D02*
X7661Y456D01*
X7674Y456D02*
X7728Y456D01*
X8602Y456D02*
X8657Y456D01*
X8671Y456D02*
X8725Y456D01*
X7605Y455D02*
X7661Y455D01*
X7674Y455D02*
X7728Y455D01*
X8603Y455D02*
X8657Y455D01*
X8671Y455D02*
X8725Y455D01*
X7605Y454D02*
X7661Y454D01*
X7674Y454D02*
X7728Y454D01*
X8603Y454D02*
X8657Y454D01*
X8670Y454D02*
X8725Y454D01*
X7605Y453D02*
X7661Y453D01*
X7673Y453D02*
X7728Y453D01*
X8603Y453D02*
X8658Y453D01*
X8670Y453D02*
X8725Y453D01*
X7605Y452D02*
X7662Y452D01*
X7673Y452D02*
X7728Y452D01*
X8603Y452D02*
X8659Y452D01*
X8669Y452D02*
X8725Y452D01*
X7605Y451D02*
X7663Y451D01*
X7672Y451D02*
X7728Y451D01*
X8603Y451D02*
X8660Y451D01*
X8668Y451D02*
X8725Y451D01*
X7606Y450D02*
X7665Y450D01*
X7670Y450D02*
X7727Y450D01*
X8603Y450D02*
X8661Y450D01*
X8667Y450D02*
X8725Y450D01*
X7606Y449D02*
X7727Y449D01*
X8603Y449D02*
X8725Y449D01*
X7606Y448D02*
X7727Y448D01*
X8603Y448D02*
X8724Y448D01*
X7606Y447D02*
X7727Y447D01*
X8604Y447D02*
X8724Y447D01*
X7607Y446D02*
X7726Y446D01*
X8604Y446D02*
X8724Y446D01*
X7607Y445D02*
X7726Y445D01*
X8604Y445D02*
X8724Y445D01*
X7607Y444D02*
X7726Y444D01*
X8605Y444D02*
X8723Y444D01*
X7608Y443D02*
X7725Y443D01*
X8605Y443D02*
X8723Y443D01*
X7608Y442D02*
X7725Y442D01*
X8605Y442D02*
X8723Y442D01*
X7608Y441D02*
X7725Y441D01*
X8606Y441D02*
X8722Y441D01*
X7609Y440D02*
X7724Y440D01*
X8606Y440D02*
X8722Y440D01*
X7609Y439D02*
X7724Y439D01*
X8607Y439D02*
X8721Y439D01*
X7610Y438D02*
X7723Y438D01*
X8607Y438D02*
X8721Y438D01*
X7610Y437D02*
X7723Y437D01*
X8608Y437D02*
X8720Y437D01*
X7611Y436D02*
X7722Y436D01*
X8608Y436D02*
X8719Y436D01*
X7612Y435D02*
X7721Y435D01*
X8609Y435D02*
X8719Y435D01*
X7612Y434D02*
X7721Y434D01*
X8610Y434D02*
X8718Y434D01*
X7613Y433D02*
X7720Y433D01*
X8611Y433D02*
X8717Y433D01*
X7614Y432D02*
X7719Y432D01*
X8611Y432D02*
X8717Y432D01*
X7615Y431D02*
X7718Y431D01*
X8612Y431D02*
X8716Y431D01*
X7616Y430D02*
X7717Y430D01*
X8613Y430D02*
X8715Y430D01*
X7617Y429D02*
X7716Y429D01*
X8614Y429D02*
X8714Y429D01*
X7618Y428D02*
X7715Y428D01*
X8616Y428D02*
X8712Y428D01*
X7619Y427D02*
X7714Y427D01*
X8617Y427D02*
X8711Y427D01*
X7621Y426D02*
X7712Y426D01*
X8618Y426D02*
X8710Y426D01*
X7622Y425D02*
X7710Y425D01*
X8620Y425D02*
X8708Y425D01*
X7624Y424D02*
X7709Y424D01*
X8622Y424D02*
X8706Y424D01*
X7626Y423D02*
X7707Y423D01*
X8624Y423D02*
X8704Y423D01*
X7629Y422D02*
X7704Y422D01*
X8626Y422D02*
X8702Y422D01*
X7632Y421D02*
X7701Y421D01*
X8629Y421D02*
X8699Y421D01*
X7637Y420D02*
X7696Y420D01*
X8634Y420D02*
X8694Y420D01*
X7635Y391D02*
X7698Y391D01*
X8632Y391D02*
X8696Y391D01*
X7631Y390D02*
X7702Y390D01*
X8628Y390D02*
X8700Y390D01*
X7628Y389D02*
X7705Y389D01*
X8626Y389D02*
X8702Y389D01*
X7626Y388D02*
X7707Y388D01*
X8623Y388D02*
X8705Y388D01*
X7624Y387D02*
X7709Y387D01*
X8621Y387D02*
X8707Y387D01*
X7622Y386D02*
X7711Y386D01*
X8619Y386D02*
X8708Y386D01*
X7620Y385D02*
X7713Y385D01*
X8618Y385D02*
X8710Y385D01*
X7619Y384D02*
X7714Y384D01*
X8616Y384D02*
X8711Y384D01*
X7618Y383D02*
X7715Y383D01*
X8615Y383D02*
X8713Y383D01*
X7617Y382D02*
X7716Y382D01*
X8614Y382D02*
X8714Y382D01*
X7615Y381D02*
X7717Y381D01*
X8613Y381D02*
X8715Y381D01*
X7615Y380D02*
X7718Y380D01*
X8612Y380D02*
X8716Y380D01*
X7614Y379D02*
X7719Y379D01*
X8611Y379D02*
X8717Y379D01*
X7613Y378D02*
X7720Y378D01*
X8610Y378D02*
X8718Y378D01*
X7612Y377D02*
X7721Y377D01*
X8610Y377D02*
X8718Y377D01*
X7611Y376D02*
X7721Y376D01*
X8609Y376D02*
X8719Y376D01*
X7611Y375D02*
X7722Y375D01*
X8608Y375D02*
X8720Y375D01*
X7610Y374D02*
X7723Y374D01*
X8608Y374D02*
X8720Y374D01*
X7610Y373D02*
X7723Y373D01*
X8607Y373D02*
X8721Y373D01*
X7609Y372D02*
X7724Y372D01*
X8607Y372D02*
X8721Y372D01*
X7609Y371D02*
X7724Y371D01*
X8606Y371D02*
X8722Y371D01*
X7608Y370D02*
X7725Y370D01*
X8606Y370D02*
X8722Y370D01*
X7608Y369D02*
X7725Y369D01*
X8605Y369D02*
X8723Y369D01*
X7607Y368D02*
X7726Y368D01*
X8605Y368D02*
X8723Y368D01*
X7607Y367D02*
X7726Y367D01*
X8605Y367D02*
X8723Y367D01*
X7607Y366D02*
X7726Y366D01*
X8604Y366D02*
X8724Y366D01*
X7606Y365D02*
X7727Y365D01*
X8604Y365D02*
X8724Y365D01*
X7606Y364D02*
X7727Y364D01*
X8604Y364D02*
X8724Y364D01*
X7606Y363D02*
X7727Y363D01*
X8603Y363D02*
X8725Y363D01*
X7606Y362D02*
X7727Y362D01*
X8603Y362D02*
X8725Y362D01*
X7605Y361D02*
X7664Y361D01*
X7671Y361D02*
X7727Y361D01*
X8603Y361D02*
X8660Y361D01*
X8667Y361D02*
X8725Y361D01*
X7605Y360D02*
X7662Y360D01*
X7672Y360D02*
X7728Y360D01*
X8603Y360D02*
X8659Y360D01*
X8669Y360D02*
X8725Y360D01*
X7605Y359D02*
X7662Y359D01*
X7673Y359D02*
X7728Y359D01*
X8603Y359D02*
X8658Y359D01*
X8670Y359D02*
X8725Y359D01*
X7605Y358D02*
X7661Y358D01*
X7673Y358D02*
X7728Y358D01*
X8603Y358D02*
X8658Y358D01*
X8670Y358D02*
X8725Y358D01*
X7605Y357D02*
X7661Y357D01*
X7674Y357D02*
X7728Y357D01*
X8602Y357D02*
X8657Y357D01*
X8671Y357D02*
X8725Y357D01*
X7605Y356D02*
X7661Y356D01*
X7674Y356D02*
X7728Y356D01*
X8602Y356D02*
X8657Y356D01*
X8671Y356D02*
X8725Y356D01*
X7605Y355D02*
X7661Y355D01*
X7674Y355D02*
X7728Y355D01*
X8603Y355D02*
X8657Y355D01*
X8671Y355D02*
X8725Y355D01*
X7605Y354D02*
X7661Y354D01*
X7674Y354D02*
X7728Y354D01*
X8603Y354D02*
X8657Y354D01*
X8670Y354D02*
X8725Y354D01*
X7605Y353D02*
X7661Y353D01*
X7673Y353D02*
X7728Y353D01*
X8603Y353D02*
X8658Y353D01*
X8670Y353D02*
X8725Y353D01*
X7605Y352D02*
X7662Y352D01*
X7673Y352D02*
X7728Y352D01*
X8603Y352D02*
X8659Y352D01*
X8669Y352D02*
X8725Y352D01*
X7605Y351D02*
X7663Y351D01*
X7672Y351D02*
X7728Y351D01*
X8603Y351D02*
X8660Y351D01*
X8668Y351D02*
X8725Y351D01*
X7606Y350D02*
X7665Y350D01*
X7670Y350D02*
X7727Y350D01*
X8603Y350D02*
X8661Y350D01*
X8667Y350D02*
X8725Y350D01*
X7606Y349D02*
X7727Y349D01*
X8603Y349D02*
X8725Y349D01*
X7606Y348D02*
X7727Y348D01*
X8603Y348D02*
X8724Y348D01*
X7606Y347D02*
X7727Y347D01*
X8604Y347D02*
X8724Y347D01*
X7606Y346D02*
X7726Y346D01*
X8604Y346D02*
X8724Y346D01*
X7607Y345D02*
X7726Y345D01*
X8604Y345D02*
X8724Y345D01*
X7607Y344D02*
X7726Y344D01*
X8605Y344D02*
X8723Y344D01*
X7607Y343D02*
X7725Y343D01*
X8605Y343D02*
X8723Y343D01*
X7608Y342D02*
X7725Y342D01*
X8605Y342D02*
X8723Y342D01*
X7608Y341D02*
X7725Y341D01*
X8606Y341D02*
X8722Y341D01*
X7609Y340D02*
X7724Y340D01*
X8606Y340D02*
X8722Y340D01*
X7609Y339D02*
X7724Y339D01*
X8607Y339D02*
X8721Y339D01*
X7610Y338D02*
X7723Y338D01*
X8607Y338D02*
X8721Y338D01*
X7610Y337D02*
X7723Y337D01*
X8608Y337D02*
X8720Y337D01*
X7611Y336D02*
X7722Y336D01*
X8609Y336D02*
X8719Y336D01*
X7612Y335D02*
X7721Y335D01*
X8609Y335D02*
X8719Y335D01*
X7612Y334D02*
X7721Y334D01*
X8610Y334D02*
X8718Y334D01*
X7613Y333D02*
X7720Y333D01*
X8611Y333D02*
X8717Y333D01*
X7614Y332D02*
X7719Y332D01*
X8611Y332D02*
X8717Y332D01*
X7615Y331D02*
X7718Y331D01*
X8612Y331D02*
X8716Y331D01*
X7616Y330D02*
X7717Y330D01*
X8613Y330D02*
X8715Y330D01*
X7617Y329D02*
X7716Y329D01*
X8614Y329D02*
X8714Y329D01*
X7618Y328D02*
X7715Y328D01*
X8616Y328D02*
X8712Y328D01*
X7619Y327D02*
X7714Y327D01*
X8617Y327D02*
X8711Y327D01*
X7621Y326D02*
X7712Y326D01*
X8618Y326D02*
X8710Y326D01*
X7622Y325D02*
X7710Y325D01*
X8620Y325D02*
X8708Y325D01*
X7624Y324D02*
X7709Y324D01*
X8622Y324D02*
X8706Y324D01*
X7626Y323D02*
X7707Y323D01*
X8624Y323D02*
X8704Y323D01*
X7629Y322D02*
X7704Y322D01*
X8626Y322D02*
X8702Y322D01*
X7632Y321D02*
X7701Y321D01*
X8629Y321D02*
X8699Y321D01*
X7637Y320D02*
X7696Y320D01*
X8634Y320D02*
X8694Y320D01*
X7635Y291D02*
X7698Y291D01*
X8632Y291D02*
X8696Y291D01*
X7631Y290D02*
X7702Y290D01*
X8628Y290D02*
X8700Y290D01*
X7628Y289D02*
X7705Y289D01*
X8626Y289D02*
X8702Y289D01*
X7626Y288D02*
X7707Y288D01*
X8623Y288D02*
X8705Y288D01*
X7624Y287D02*
X7709Y287D01*
X8621Y287D02*
X8707Y287D01*
X7622Y286D02*
X7711Y286D01*
X8619Y286D02*
X8708Y286D01*
X7620Y285D02*
X7713Y285D01*
X8618Y285D02*
X8710Y285D01*
X7619Y284D02*
X7714Y284D01*
X8616Y284D02*
X8711Y284D01*
X7618Y283D02*
X7715Y283D01*
X8615Y283D02*
X8713Y283D01*
X7617Y282D02*
X7716Y282D01*
X8614Y282D02*
X8714Y282D01*
X7615Y281D02*
X7717Y281D01*
X8613Y281D02*
X8715Y281D01*
X7615Y280D02*
X7718Y280D01*
X8612Y280D02*
X8716Y280D01*
X7614Y279D02*
X7719Y279D01*
X8611Y279D02*
X8717Y279D01*
X7613Y278D02*
X7720Y278D01*
X8610Y278D02*
X8718Y278D01*
X7612Y277D02*
X7721Y277D01*
X8610Y277D02*
X8718Y277D01*
X7611Y276D02*
X7722Y276D01*
X8609Y276D02*
X8719Y276D01*
X7611Y275D02*
X7722Y275D01*
X8608Y275D02*
X8720Y275D01*
X7610Y274D02*
X7723Y274D01*
X8608Y274D02*
X8720Y274D01*
X7610Y273D02*
X7723Y273D01*
X8607Y273D02*
X8721Y273D01*
X7609Y272D02*
X7724Y272D01*
X8607Y272D02*
X8721Y272D01*
X7609Y271D02*
X7724Y271D01*
X8606Y271D02*
X8722Y271D01*
X7608Y270D02*
X7725Y270D01*
X8606Y270D02*
X8722Y270D01*
X7608Y269D02*
X7725Y269D01*
X8605Y269D02*
X8723Y269D01*
X7607Y268D02*
X7726Y268D01*
X8605Y268D02*
X8723Y268D01*
X7607Y267D02*
X7726Y267D01*
X8605Y267D02*
X8723Y267D01*
X7607Y266D02*
X7726Y266D01*
X8604Y266D02*
X8724Y266D01*
X7606Y265D02*
X7727Y265D01*
X8604Y265D02*
X8724Y265D01*
X7606Y264D02*
X7727Y264D01*
X8604Y264D02*
X8724Y264D01*
X7606Y263D02*
X7727Y263D01*
X8603Y263D02*
X8725Y263D01*
X7606Y262D02*
X7727Y262D01*
X8603Y262D02*
X8725Y262D01*
X7606Y261D02*
X7664Y261D01*
X7671Y261D02*
X7727Y261D01*
X8603Y261D02*
X8660Y261D01*
X8667Y261D02*
X8725Y261D01*
X7605Y260D02*
X7662Y260D01*
X7672Y260D02*
X7728Y260D01*
X8603Y260D02*
X8659Y260D01*
X8669Y260D02*
X8725Y260D01*
X7605Y259D02*
X7662Y259D01*
X7673Y259D02*
X7728Y259D01*
X8603Y259D02*
X8658Y259D01*
X8670Y259D02*
X8725Y259D01*
X7605Y258D02*
X7661Y258D01*
X7673Y258D02*
X7728Y258D01*
X8603Y258D02*
X8658Y258D01*
X8670Y258D02*
X8725Y258D01*
X7605Y257D02*
X7661Y257D01*
X7674Y257D02*
X7728Y257D01*
X8602Y257D02*
X8657Y257D01*
X8671Y257D02*
X8725Y257D01*
X7605Y256D02*
X7661Y256D01*
X7674Y256D02*
X7728Y256D01*
X8602Y256D02*
X8657Y256D01*
X8671Y256D02*
X8725Y256D01*
X7605Y255D02*
X7661Y255D01*
X7674Y255D02*
X7728Y255D01*
X8603Y255D02*
X8657Y255D01*
X8671Y255D02*
X8725Y255D01*
X7605Y254D02*
X7661Y254D01*
X7674Y254D02*
X7728Y254D01*
X8603Y254D02*
X8657Y254D01*
X8670Y254D02*
X8725Y254D01*
X7605Y253D02*
X7661Y253D01*
X7673Y253D02*
X7728Y253D01*
X8603Y253D02*
X8658Y253D01*
X8670Y253D02*
X8725Y253D01*
X7605Y252D02*
X7662Y252D01*
X7673Y252D02*
X7728Y252D01*
X8603Y252D02*
X8659Y252D01*
X8669Y252D02*
X8725Y252D01*
X7605Y251D02*
X7663Y251D01*
X7672Y251D02*
X7728Y251D01*
X8603Y251D02*
X8660Y251D01*
X8668Y251D02*
X8725Y251D01*
X7606Y250D02*
X7665Y250D01*
X7670Y250D02*
X7727Y250D01*
X8603Y250D02*
X8661Y250D01*
X8667Y250D02*
X8725Y250D01*
X7606Y249D02*
X7727Y249D01*
X8603Y249D02*
X8725Y249D01*
X7606Y248D02*
X7727Y248D01*
X8603Y248D02*
X8724Y248D01*
X7606Y247D02*
X7727Y247D01*
X8604Y247D02*
X8724Y247D01*
X7607Y246D02*
X7726Y246D01*
X8604Y246D02*
X8724Y246D01*
X7607Y245D02*
X7726Y245D01*
X8604Y245D02*
X8724Y245D01*
X7607Y244D02*
X7726Y244D01*
X8605Y244D02*
X8723Y244D01*
X7608Y243D02*
X7725Y243D01*
X8605Y243D02*
X8723Y243D01*
X7608Y242D02*
X7725Y242D01*
X8605Y242D02*
X8723Y242D01*
X7608Y241D02*
X7725Y241D01*
X8606Y241D02*
X8722Y241D01*
X7609Y240D02*
X7724Y240D01*
X8606Y240D02*
X8722Y240D01*
X7609Y239D02*
X7724Y239D01*
X8607Y239D02*
X8721Y239D01*
X7610Y238D02*
X7723Y238D01*
X8607Y238D02*
X8721Y238D01*
X7610Y237D02*
X7723Y237D01*
X8608Y237D02*
X8720Y237D01*
X7611Y236D02*
X7722Y236D01*
X8609Y236D02*
X8719Y236D01*
X7612Y235D02*
X7721Y235D01*
X8609Y235D02*
X8719Y235D01*
X7612Y234D02*
X7721Y234D01*
X8610Y234D02*
X8718Y234D01*
X7613Y233D02*
X7720Y233D01*
X8611Y233D02*
X8717Y233D01*
X7614Y232D02*
X7719Y232D01*
X8611Y232D02*
X8717Y232D01*
X7615Y231D02*
X7718Y231D01*
X8612Y231D02*
X8716Y231D01*
X7616Y230D02*
X7717Y230D01*
X8613Y230D02*
X8715Y230D01*
X7617Y229D02*
X7716Y229D01*
X8614Y229D02*
X8714Y229D01*
X7618Y228D02*
X7715Y228D01*
X8616Y228D02*
X8712Y228D01*
X7619Y227D02*
X7714Y227D01*
X8617Y227D02*
X8711Y227D01*
X7621Y226D02*
X7712Y226D01*
X8618Y226D02*
X8710Y226D01*
X7622Y225D02*
X7710Y225D01*
X8620Y225D02*
X8708Y225D01*
X7624Y224D02*
X7709Y224D01*
X8622Y224D02*
X8706Y224D01*
X7626Y223D02*
X7707Y223D01*
X8624Y223D02*
X8704Y223D01*
X7629Y222D02*
X7704Y222D01*
X8626Y222D02*
X8702Y222D01*
X7632Y221D02*
X7701Y221D01*
X8629Y221D02*
X8698Y221D01*
X7637Y220D02*
X7696Y220D01*
X8634Y220D02*
X8694Y220D01*
D02*
G04 End of Mask0*
M02*