; NON-PLATED HOLES START AT T1
; THROUGH (PLATED) HOLES START AT T100
M48
INCH
T1C0.125984
T100C0.015748
T101C0.031497
T102C0.035000
T103C0.030000
T104C0.038000
%
T1
X086654Y001051
X086654Y022051
X001654Y001051
X001654Y022051
T100
X018665Y011766
X026656Y011304
X009654Y011801
X072654Y011801
X035656Y011304
X036649Y011800
X062654Y011299
X054654Y011801
X017654Y011301
X045651Y011803
X071654Y011301
X027648Y011800
X044655Y011305
X063654Y011801
X053654Y011301
T101
X001529Y003551
X001529Y004535
X001529Y018567
X001529Y019551
T102
X046654Y004551
X052654Y018551
X054654Y010051
X025654Y015551
X014654Y003551
X042654Y013051
X053654Y015551
X028654Y018551
X022654Y010051
X066654Y014301
X070654Y010051
X016654Y002551
X021654Y008801
X054654Y008801
X012654Y008801
X054654Y002551
X053654Y010051
X036654Y014301
X057654Y008801
X012654Y004551
X036654Y002551
X073654Y019551
X071650Y004547
X010654Y015551
X066656Y018538
X059654Y010051
X030654Y015551
X042654Y007551
X048654Y013051
X070654Y003551
X004654Y008801
X005654Y004551
X013654Y014301
X010654Y020551
X036654Y007551
X027654Y018551
X045654Y014301
X067654Y008801
X049654Y020551
X071654Y008801
X026654Y007551
X005654Y002551
X062654Y020551
X040654Y015551
X018654Y003551
X043654Y014301
X032654Y003551
X019654Y007551
X007654Y018551
X032654Y004551
X053654Y014301
X046654Y018551
X050654Y002551
X033654Y015551
X016654Y018551
X021654Y003551
X031654Y007551
X052654Y004551
X036654Y013051
X042654Y004551
X048654Y004551
X001529Y015551
X010654Y018551
X018654Y013051
X007654Y013051
X069654Y010051
X026654Y008801
X049654Y019551
X010654Y019551
X062654Y004551
X013654Y020551
X078154Y015551
X049654Y010051
X063654Y013051
X042654Y010051
X066654Y010051
X010654Y007551
X008654Y018551
X003654Y018551
X046654Y014301
X014654Y010051
X035654Y014301
X007654Y015551
X067654Y010051
X041654Y010051
X046654Y010051
X006654Y004551
X032654Y007551
X037654Y013051
X068656Y015538
X055654Y010051
X072654Y008801
X015654Y015551
X064658Y015547
X042654Y019551
X024654Y018551
X048654Y018551
X063654Y002551
X071654Y010051
X016654Y014301
X033654Y010051
X055654Y008801
X061654Y004551
X014654Y013051
X072650Y004547
X058654Y020551
X025654Y014301
X043654Y013051
X037654Y004551
X041654Y015551
X043654Y010051
X040654Y007551
X003654Y007551
X071654Y014301
X023654Y014301
X059654Y004551
X028654Y008801
X019654Y014301
X027654Y002551
X026654Y010051
X006654Y008801
X051654Y014301
X055654Y004551
X057654Y003551
X036654Y018551
X022654Y014301
X034654Y003551
X044654Y013051
X039654Y018551
X058654Y004551
X061654Y010051
X060654Y014301
X023654Y008801
X069656Y018538
X015654Y020551
X052654Y002551
X004654Y014301
X072654Y003551
X067656Y015538
X069654Y014301
X024654Y019551
X048654Y008801
X064654Y004551
X064654Y013051
X044654Y004551
X026654Y020551
X004654Y019551
X058654Y019551
X041654Y004551
X018654Y004551
X051654Y018551
X045654Y004551
X018654Y008801
X017654Y014301
X045654Y018551
X023654Y003551
X050654Y018551
X009654Y002551
X022654Y015551
X051654Y019551
X066654Y003551
X049654Y018551
X072656Y015538
X059654Y008801
X009654Y003551
X033654Y004551
X072650Y007547
X019654Y008801
X003654Y013051
X058654Y007551
X060654Y013051
X030654Y018551
X039654Y004551
X041654Y002551
X003654Y003551
X073656Y018538
X027654Y015551
X040654Y014301
X018654Y015551
X055654Y019551
X007654Y004551
X061654Y008801
X007654Y008801
X045654Y008801
X042654Y008801
X054654Y007551
X069650Y004547
X060654Y008801
X072656Y018538
X044654Y008801
X009654Y018551
X009654Y010051
X036654Y003551
X019654Y020551
X050654Y013051
X033654Y020551
X024654Y020551
X028654Y020551
X061654Y014301
X004654Y007551
X025654Y018551
X016654Y008801
X030654Y013051
X027654Y013051
X071650Y007547
X042654Y015551
X037654Y008801
X035654Y010051
X019654Y010051
X040654Y020551
X052654Y008801
X032654Y014301
X048654Y007551
X048654Y003551
X025654Y004551
X052654Y014301
X067656Y018538
X018654Y018551
X060658Y015547
X023654Y013051
X064654Y007551
X034654Y018551
X009654Y004551
X053654Y019551
X050654Y015551
X025654Y007551
X051654Y008801
X060654Y007551
X019654Y019551
X019654Y015551
X052654Y003551
X073654Y008801
X040654Y019551
X058658Y015547
X057654Y002551
X050654Y007551
X018654Y007551
X069654Y008801
X040654Y018551
X007654Y002551
X057658Y015547
X008654Y015551
X057654Y014301
X005654Y010051
X068654Y010051
X032654Y008801
X025654Y008801
X059654Y007551
X021654Y010051
X037654Y018551
X069654Y013051
X064654Y020551
X054654Y018551
X035654Y020551
X071656Y015538
X049654Y014301
X035654Y008801
X048654Y015551
X012654Y018551
X001529Y007551
X062654Y007551
X008654Y020551
X037654Y015551
X017654Y004551
X014654Y007551
X013654Y007551
X017654Y007551
X058658Y018547
X034654Y015551
X051654Y013051
X005654Y015551
X022654Y020551
X053654Y013051
X039654Y008801
X060654Y019551
X006654Y013051
X019654Y018551
X057654Y007551
X041654Y007551
X016654Y004551
X028654Y014301
X008654Y004551
X014654Y018551
X055654Y007551
X034654Y004551
X013654Y019551
X062654Y010051
X027654Y003551
X067654Y020551
X036654Y015551
X073656Y015538
X026654Y004551
X014654Y002551
X031654Y020551
X051654Y004551
X030654Y010051
X017654Y010051
X033654Y014301
X041654Y013051
X007654Y010051
X055654Y018551
X061654Y002551
X039654Y010051
X010654Y014301
X015654Y007551
X044654Y019551
X068650Y007547
X058654Y013051
X055654Y013051
X021654Y004551
X073654Y010051
X063654Y014301
X003654Y002551
X012654Y002551
X059654Y003551
X032654Y010051
X068654Y013051
X073654Y020551
X071656Y018538
X001529Y006551
X026654Y019551
X012654Y015551
X015654Y018551
X035654Y004551
X006654Y019551
X021654Y002551
X064654Y008801
X051654Y015551
X028654Y010051
X045654Y003551
X032654Y015551
X050654Y014301
X015654Y004551
X030654Y014301
X054654Y003551
X069656Y015538
X057654Y010051
X019654Y013051
X043654Y015551
X009654Y014301
X031654Y014301
X066650Y007547
X045654Y002551
X024654Y014301
X027654Y007551
X060658Y018547
X043654Y002551
X061654Y007551
X022654Y018551
X015654Y019551
X018654Y002551
X054654Y004551
X030654Y002551
X062654Y008801
X027654Y004551
X008654Y013051
X059654Y002551
X058654Y008801
X066654Y002551
X036654Y010051
X053654Y008801
X012654Y010051
X026654Y018551
X023654Y010051
X028654Y019551
X013654Y018551
X046654Y013051
X014654Y015551
X014654Y004551
X026654Y015551
X026654Y014301
X071654Y019551
X031654Y015551
X049654Y007551
X017654Y015551
X036654Y004551
X006654Y020551
X005654Y014301
X034654Y010051
X070654Y002551
X045654Y010051
X031654Y018551
X068654Y002551
X003654Y014301
X048654Y014301
X031654Y019551
X073654Y013051
X044654Y018551
X006654Y015551
X016654Y010051
X070654Y014301
X078154Y016551
X040654Y008801
X063654Y010051
X073650Y007547
X058654Y010051
X042654Y014301
X030654Y003551
X064654Y019551
X070656Y018538
X017654Y020551
X046654Y008801
X043654Y007551
X018654Y010051
X045654Y015551
X039654Y015551
X013654Y004551
X041654Y003551
X062654Y019551
X064654Y014301
X066654Y008801
X017654Y019551
X012654Y014301
X022654Y013051
X005654Y008801
X030654Y004551
X021654Y007551
X053654Y018551
X060654Y020551
X063654Y008801
X010654Y008801
X009654Y015551
X032654Y002551
X071654Y013051
X010654Y010051
X043654Y004551
X034654Y002551
X037654Y007551
X034654Y013051
X006654Y014301
X070654Y008801
X061658Y015547
X068650Y004547
X035654Y007551
X022654Y004551
X050654Y004551
X043654Y018551
X068656Y018538
X052654Y007551
X037654Y014301
X019654Y004551
X005654Y003551
X001529Y016551
X053654Y020551
X067654Y014301
X021654Y015551
X059654Y013051
X004654Y018551
X063658Y015547
X072654Y014301
X013654Y008801
X070650Y004547
X024654Y013051
X006654Y007551
X043654Y003551
X037654Y010051
X013654Y010051
X008654Y007551
X013654Y015551
X062654Y013051
X012654Y003551
X051654Y020551
X063654Y004551
X041654Y014301
X067654Y019551
X041654Y018551
X060654Y010051
X061654Y013051
X024654Y008801
X003654Y015551
X015654Y014301
X061658Y018547
X030654Y008801
X050654Y008801
X004654Y013051
X046654Y020551
X059658Y015547
X007654Y003551
X014654Y008801
X005654Y018551
X046654Y019551
X035654Y013051
X040654Y004551
X009654Y013051
X014654Y014301
X039654Y007551
X021654Y013051
X037654Y019551
X068654Y014301
X033654Y019551
X022654Y019551
X016654Y007551
X024654Y010051
X070650Y007547
X004654Y015551
X054654Y015551
X073654Y014301
X046654Y015551
X024654Y004551
X012654Y007551
X067650Y007547
X049654Y008801
X004654Y010051
X067650Y004547
X006654Y018551
X008654Y014301
X055654Y020551
X007654Y007551
X004654Y004551
X003654Y008801
X031654Y004551
X016654Y013051
X051654Y010051
X041654Y008801
X023654Y004551
X027654Y008801
X035654Y018551
X031654Y013051
X055654Y015551
X059658Y018547
X054654Y013051
X055654Y014301
X069654Y020551
X027654Y014301
X030654Y007551
X023654Y018551
X040654Y010051
X024654Y015551
X062658Y018547
X009654Y008801
X048654Y002551
X059654Y014301
X057654Y004551
X063654Y007551
X018654Y014301
X048654Y010051
X031654Y008801
X003654Y004551
X039654Y013051
X008654Y010051
X015654Y010051
X035654Y015551
X057654Y013051
X066654Y013051
X007654Y014301
X015654Y013051
X053654Y004551
X017654Y018551
X049654Y015551
X044654Y010051
X023654Y002551
X052654Y015551
X035654Y019551
X015654Y008801
X012654Y013051
X063654Y003551
X064654Y010051
X033654Y013051
X052654Y013051
X036654Y008801
X027654Y010051
X017654Y008801
X022654Y008801
X060654Y004551
X044654Y020551
X071654Y020551
X039654Y014301
X045654Y007551
X066656Y015538
X022654Y007551
X069650Y007547
X034654Y014301
X039654Y002551
X016654Y003551
X042654Y018551
X042654Y020551
X072654Y013051
X033654Y008801
X013654Y013051
X010654Y013051
X053654Y007551
X032654Y013051
X028654Y004551
X005654Y007551
X045654Y013051
X068654Y003551
X034654Y007551
X049654Y004551
X066650Y004547
X039654Y003551
X073650Y004547
X028654Y013051
X062654Y014301
X043654Y008801
X049654Y013051
X021654Y018551
X004654Y020551
X044654Y014301
X024654Y007551
X068654Y008801
X006654Y010051
X061654Y003551
X005654Y013051
X064658Y018547
X028654Y015551
X028654Y007551
X010654Y004551
X008654Y019551
X040654Y013051
X025654Y003551
X072654Y002551
X058654Y014301
X046654Y007551
X050654Y010051
X067654Y013051
X062658Y015547
X023654Y007551
X009654Y007551
X050654Y003551
X051654Y007551
X026654Y013051
X034654Y008801
X025654Y013051
X032654Y018551
X070656Y015538
X031654Y010051
X069654Y019551
X017654Y013051
X021654Y014301
X008654Y008801
X025654Y002551
X054654Y014301
X057658Y018547
X025654Y010051
X016654Y015551
X063658Y018547
X044654Y007551
X072654Y010051
X037654Y020551
X033654Y007551
X003654Y010051
X044654Y015551
X052654Y010051
X033654Y018551
X023654Y015551
X070654Y013051
T103
X029654Y010551
X020654Y010551
X038654Y010551
X074654Y012551
X056654Y012551
X038654Y012551
X047654Y012551
X011654Y010551
X011654Y012551
X065654Y010551
X056654Y010551
X029654Y012551
X047654Y010551
X020654Y012551
X074654Y010551
X065654Y012551
T104
X019654Y022051
X076654Y007551
X068654Y001051
X060654Y001051
X035654Y022051
X005654Y022051
X041654Y001051
X057654Y022051
X023654Y022051
X066654Y001051
X076654Y008551
X055654Y022051
X030654Y001051
X012654Y022051
X086654Y010551
X045654Y022051
X073654Y001051
X032654Y001051
X086654Y019051
X001529Y011426
X040654Y001051
X086654Y018051
X009654Y001051
X070654Y022051
X016654Y022051
X086654Y008551
X004654Y022051
X050654Y001051
X015654Y001051
X001529Y012426
X076654Y015551
X040654Y022051
X051654Y022051
X001529Y010426
X076654Y003551
X028654Y001051
X039654Y022051
X006654Y022051
X086654Y002551
X019654Y001051
X041654Y022051
X086654Y004551
X025654Y001051
X076654Y002551
X018654Y001051
X015654Y022051
X062654Y022051
X071654Y022051
X037654Y022051
X023654Y001051
X069654Y022051
X086654Y006551
X076654Y014551
X054654Y001051
X027654Y001051
X008654Y022051
X061654Y001051
X057654Y001051
X058654Y022051
X028654Y022051
X026654Y022051
X045654Y001051
X086654Y011551
X086654Y012551
X076654Y012551
X037654Y001051
X086654Y020051
X061654Y022051
X063654Y022051
X044654Y001051
X006654Y001051
X062654Y001051
X066654Y022051
X054654Y022051
X076654Y011551
X048654Y001051
X076654Y004551
X004654Y001051
X083154Y022051
X072654Y022051
X013654Y022051
X049654Y001051
X010654Y001051
X022654Y022051
X086654Y005551
X064654Y001051
X052654Y022051
X076654Y013551
X032654Y022051
X007654Y001051
X022654Y001051
X059654Y001051
X073654Y022051
X076654Y009551
X003654Y001051
X042654Y022051
X024654Y022051
X021654Y022051
X083154Y021051
X059654Y022051
X043654Y001051
X086654Y015551
X012654Y001051
X033654Y001051
X030654Y022051
X010654Y022051
X046654Y022051
X034654Y022051
X035654Y001051
X053654Y001051
X046654Y001051
X058654Y001051
X039654Y001051
X051654Y001051
X076654Y005551
X031654Y022051
X014654Y022051
X027654Y022051
X003654Y022051
X053654Y022051
X036654Y022051
X086654Y013551
X072654Y001051
X043654Y022051
X083154Y019051
X017654Y001051
X025654Y022051
X068654Y022051
X013654Y001051
X076654Y006551
X069654Y001051
X024654Y001051
X086654Y009551
X060654Y022051
X018654Y022051
X048654Y022051
X076654Y016551
X017654Y022051
X076654Y010551
X034654Y001051
X052654Y001051
X021654Y001051
X036654Y001051
X067654Y022051
X008654Y001051
X071654Y001051
X083154Y020051
X070654Y001051
X050654Y022051
X086654Y014551
X042654Y001051
X086654Y016551
X009654Y022051
X086654Y003551
X064654Y022051
X031654Y001051
X044654Y022051
X026654Y001051
X049654Y022051
X007654Y022051
X067654Y001051
X063654Y001051
X033654Y022051
X016654Y001051
X086654Y007551
X055654Y001051
X014654Y001051
X005654Y001051
T00
M30
